M48
; DRILL file {KiCad (5.1.5)-3} date 2/16/2022 09:58:20
; FORMAT={-:-/ absolute / inch / decimal}
; #@! TF.CreationDate,2022-02-16T09:58:20-07:00
; #@! TF.GenerationSoftware,Kicad,Pcbnew,(5.1.5)-3
FMAT,2
INCH
T1C0.0157
T2C0.0315
T3C0.0394
%
G90
G05
T1
X2.03Y-4.65
X2.1Y-4.59
X2.1Y-4.71
X2.29Y-4.87
X2.29Y-4.94
X2.29Y-5.02
X2.29Y-5.09
X2.29Y-5.17
X2.29Y-5.24
X2.34Y-4.9
X2.35Y-4.98
X2.35Y-5.06
X2.35Y-5.13
X2.35Y-5.2
X2.35Y-5.27
X2.41Y-4.92
X2.41Y-5.02
X2.41Y-5.12
X2.41Y-5.22
X2.44Y-5.07
X2.44Y-5.17
X2.45Y-4.97
X2.47Y-4.92
X2.47Y-5.02
X2.47Y-5.12
X2.47Y-5.22
X2.5Y-5.07
X2.5Y-5.17
X2.51Y-4.97
X2.54Y-4.92
X2.54Y-5.02
X2.54Y-5.12
X2.54Y-5.22
X2.57Y-5.07
X2.57Y-5.17
X2.58Y-4.97
X2.6Y-4.59
X2.61Y-4.92
X2.61Y-5.02
X2.61Y-5.12
X2.61Y-5.22
X2.64Y-5.07
X2.64Y-5.17
X2.65Y-4.97
X2.68Y-4.92
X2.68Y-5.02
X2.68Y-5.12
X2.68Y-5.22
X2.71Y-5.07
X2.71Y-5.17
X2.72Y-4.03
X2.72Y-4.97
X2.73Y-4.57
X2.76Y-4.92
X2.76Y-5.02
X2.76Y-5.12
X2.76Y-5.22
X2.78Y-4.57
X2.79Y-4.67
X2.79Y-4.78
X2.79Y-5.07
X2.79Y-5.17
X2.8Y-4.97
X2.81Y-4.62
X2.81Y-4.72
X2.83Y-4.57
X2.84Y-4.67
X2.84Y-4.78
X2.87Y-4.62
X2.87Y-4.72
X2.88Y-4.99
X2.88Y-5.06
X2.88Y-5.13
X2.88Y-5.2
X2.89Y-4.57
X2.9Y-4.67
X2.91Y-4.78
X2.92Y-4.62
X2.92Y-4.72
X2.94Y-5.02
X2.94Y-5.09
X2.94Y-5.16
X2.94Y-5.23
X3.09Y-4.76
X3.14Y-4.76
X3.17Y-4.64
X3.17Y-4.72
X3.2Y-4.76
X3.26Y-4.6
X3.26Y-4.76
X3.29Y-4.73
X3.32Y-4.76
X3.33Y-4.56
X3.33Y-4.65
X3.35Y-4.73
X3.38Y-4.76
X3.41Y-4.73
X3.44Y-4.76
X3.47Y-4.73
T2
X3.02Y-4.69
X3.12Y-4.59
X3.22Y-4.69
T3
X3.4Y-4.9
X3.4Y-5.0
X3.4Y-5.1
X3.4Y-5.2
X2.1Y-4.9
X2.1Y-5.0
X2.1Y-5.1
X2.1Y-5.2
X3.11Y-4.13
X3.11Y-4.3269
X2.1Y-4.1
X2.1Y-4.2
X2.1Y-4.3
X2.1Y-4.4
X3.4Y-4.1
X3.4Y-4.2
X3.4Y-4.3
X3.4Y-4.4
X3.09Y-4.97
X3.09Y-5.1669
T0
M30
