G04 #@! TF.GenerationSoftware,KiCad,Pcbnew,(5.1.5)-3*
G04 #@! TF.CreationDate,2022-02-16T09:58:32-07:00*
G04 #@! TF.ProjectId,lm2596_breakout,6c6d3235-3936-45f6-9272-65616b6f7574,rev?*
G04 #@! TF.SameCoordinates,Original*
G04 #@! TF.FileFunction,Legend,Bot*
G04 #@! TF.FilePolarity,Positive*
%FSLAX46Y46*%
G04 Gerber Fmt 4.6, Leading zero omitted, Abs format (unit mm)*
G04 Created by KiCad (PCBNEW (5.1.5)-3) date 2022-02-16 09:58:32*
%MOMM*%
%LPD*%
G04 APERTURE LIST*
%ADD10C,0.150000*%
%ADD11C,0.010000*%
%ADD12C,0.120000*%
G04 APERTURE END LIST*
D10*
X55808571Y-104520952D02*
X55808571Y-103759047D01*
X55808571Y-107060952D02*
X55808571Y-106299047D01*
X55427619Y-106680000D02*
X56189523Y-106680000D01*
X56999238Y-107600476D02*
X56951619Y-107457619D01*
X56951619Y-107219523D01*
X56999238Y-107124285D01*
X57046857Y-107076666D01*
X57142095Y-107029047D01*
X57237333Y-107029047D01*
X57332571Y-107076666D01*
X57380190Y-107124285D01*
X57427809Y-107219523D01*
X57475428Y-107410000D01*
X57523047Y-107505238D01*
X57570666Y-107552857D01*
X57665904Y-107600476D01*
X57761142Y-107600476D01*
X57856380Y-107552857D01*
X57904000Y-107505238D01*
X57951619Y-107410000D01*
X57951619Y-107171904D01*
X57904000Y-107029047D01*
X57475428Y-106600476D02*
X57475428Y-106267142D01*
X56951619Y-106124285D02*
X56951619Y-106600476D01*
X57951619Y-106600476D01*
X57951619Y-106124285D01*
X56951619Y-105695714D02*
X57951619Y-105695714D01*
X56951619Y-105124285D01*
X57951619Y-105124285D01*
X56999238Y-104695714D02*
X56951619Y-104552857D01*
X56951619Y-104314761D01*
X56999238Y-104219523D01*
X57046857Y-104171904D01*
X57142095Y-104124285D01*
X57237333Y-104124285D01*
X57332571Y-104171904D01*
X57380190Y-104219523D01*
X57427809Y-104314761D01*
X57475428Y-104505238D01*
X57523047Y-104600476D01*
X57570666Y-104648095D01*
X57665904Y-104695714D01*
X57761142Y-104695714D01*
X57856380Y-104648095D01*
X57904000Y-104600476D01*
X57951619Y-104505238D01*
X57951619Y-104267142D01*
X57904000Y-104124285D01*
X57475428Y-103695714D02*
X57475428Y-103362380D01*
X56951619Y-103219523D02*
X56951619Y-103695714D01*
X57951619Y-103695714D01*
X57951619Y-103219523D01*
X56634000Y-112775904D02*
X56681619Y-112871142D01*
X56681619Y-113014000D01*
X56634000Y-113156857D01*
X56538761Y-113252095D01*
X56443523Y-113299714D01*
X56253047Y-113347333D01*
X56110190Y-113347333D01*
X55919714Y-113299714D01*
X55824476Y-113252095D01*
X55729238Y-113156857D01*
X55681619Y-113014000D01*
X55681619Y-112918761D01*
X55729238Y-112775904D01*
X55776857Y-112728285D01*
X56110190Y-112728285D01*
X56110190Y-112918761D01*
X55681619Y-112299714D02*
X56681619Y-112299714D01*
X55681619Y-111728285D01*
X56681619Y-111728285D01*
X55681619Y-111252095D02*
X56681619Y-111252095D01*
X56681619Y-111014000D01*
X56634000Y-110871142D01*
X56538761Y-110775904D01*
X56443523Y-110728285D01*
X56253047Y-110680666D01*
X56110190Y-110680666D01*
X55919714Y-110728285D01*
X55824476Y-110775904D01*
X55729238Y-110871142D01*
X55681619Y-111014000D01*
X55681619Y-111252095D01*
X56634000Y-132841904D02*
X56681619Y-132937142D01*
X56681619Y-133080000D01*
X56634000Y-133222857D01*
X56538761Y-133318095D01*
X56443523Y-133365714D01*
X56253047Y-133413333D01*
X56110190Y-133413333D01*
X55919714Y-133365714D01*
X55824476Y-133318095D01*
X55729238Y-133222857D01*
X55681619Y-133080000D01*
X55681619Y-132984761D01*
X55729238Y-132841904D01*
X55776857Y-132794285D01*
X56110190Y-132794285D01*
X56110190Y-132984761D01*
X55681619Y-132365714D02*
X56681619Y-132365714D01*
X55681619Y-131794285D01*
X56681619Y-131794285D01*
X55681619Y-131318095D02*
X56681619Y-131318095D01*
X56681619Y-131080000D01*
X56634000Y-130937142D01*
X56538761Y-130841904D01*
X56443523Y-130794285D01*
X56253047Y-130746666D01*
X56110190Y-130746666D01*
X55919714Y-130794285D01*
X55824476Y-130841904D01*
X55729238Y-130937142D01*
X55681619Y-131080000D01*
X55681619Y-131318095D01*
X56205428Y-127738095D02*
X56205428Y-127404761D01*
X55681619Y-127261904D02*
X55681619Y-127738095D01*
X56681619Y-127738095D01*
X56681619Y-127261904D01*
X55681619Y-126833333D02*
X56681619Y-126833333D01*
X55681619Y-126261904D01*
X56681619Y-126261904D01*
X56205428Y-124563142D02*
X56205428Y-124896476D01*
X55681619Y-124896476D02*
X56681619Y-124896476D01*
X56681619Y-124420285D01*
X56205428Y-123706000D02*
X56157809Y-123563142D01*
X56110190Y-123515523D01*
X56014952Y-123467904D01*
X55872095Y-123467904D01*
X55776857Y-123515523D01*
X55729238Y-123563142D01*
X55681619Y-123658380D01*
X55681619Y-124039333D01*
X56681619Y-124039333D01*
X56681619Y-123706000D01*
X56634000Y-123610761D01*
X56586380Y-123563142D01*
X56491142Y-123515523D01*
X56395904Y-123515523D01*
X56300666Y-123563142D01*
X56253047Y-123610761D01*
X56205428Y-123706000D01*
X56205428Y-124039333D01*
X83320000Y-130302095D02*
X83272380Y-130206857D01*
X83272380Y-130064000D01*
X83320000Y-129921142D01*
X83415238Y-129825904D01*
X83510476Y-129778285D01*
X83700952Y-129730666D01*
X83843809Y-129730666D01*
X84034285Y-129778285D01*
X84129523Y-129825904D01*
X84224761Y-129921142D01*
X84272380Y-130064000D01*
X84272380Y-130159238D01*
X84224761Y-130302095D01*
X84177142Y-130349714D01*
X83843809Y-130349714D01*
X83843809Y-130159238D01*
X84272380Y-130778285D02*
X83272380Y-130778285D01*
X84272380Y-131349714D01*
X83272380Y-131349714D01*
X84272380Y-131825904D02*
X83272380Y-131825904D01*
X83272380Y-132064000D01*
X83320000Y-132206857D01*
X83415238Y-132302095D01*
X83510476Y-132349714D01*
X83700952Y-132397333D01*
X83843809Y-132397333D01*
X84034285Y-132349714D01*
X84129523Y-132302095D01*
X84224761Y-132206857D01*
X84272380Y-132064000D01*
X84272380Y-131825904D01*
X83272380Y-124634761D02*
X84272380Y-124968095D01*
X83272380Y-125301428D01*
X84272380Y-125634761D02*
X83272380Y-125634761D01*
X84272380Y-126110952D02*
X83272380Y-126110952D01*
X84272380Y-126682380D01*
X83272380Y-126682380D01*
X83320000Y-109474095D02*
X83272380Y-109378857D01*
X83272380Y-109236000D01*
X83320000Y-109093142D01*
X83415238Y-108997904D01*
X83510476Y-108950285D01*
X83700952Y-108902666D01*
X83843809Y-108902666D01*
X84034285Y-108950285D01*
X84129523Y-108997904D01*
X84224761Y-109093142D01*
X84272380Y-109236000D01*
X84272380Y-109331238D01*
X84224761Y-109474095D01*
X84177142Y-109521714D01*
X83843809Y-109521714D01*
X83843809Y-109331238D01*
X84272380Y-109950285D02*
X83272380Y-109950285D01*
X84272380Y-110521714D01*
X83272380Y-110521714D01*
X84272380Y-110997904D02*
X83272380Y-110997904D01*
X83272380Y-111236000D01*
X83320000Y-111378857D01*
X83415238Y-111474095D01*
X83510476Y-111521714D01*
X83700952Y-111569333D01*
X83843809Y-111569333D01*
X84034285Y-111521714D01*
X84129523Y-111474095D01*
X84224761Y-111378857D01*
X84272380Y-111236000D01*
X84272380Y-110997904D01*
X83272380Y-103394095D02*
X84272380Y-103727428D01*
X83272380Y-104060761D01*
X83272380Y-104584571D02*
X83272380Y-104775047D01*
X83320000Y-104870285D01*
X83415238Y-104965523D01*
X83605714Y-105013142D01*
X83939047Y-105013142D01*
X84129523Y-104965523D01*
X84224761Y-104870285D01*
X84272380Y-104775047D01*
X84272380Y-104584571D01*
X84224761Y-104489333D01*
X84129523Y-104394095D01*
X83939047Y-104346476D01*
X83605714Y-104346476D01*
X83415238Y-104394095D01*
X83320000Y-104489333D01*
X83272380Y-104584571D01*
X83272380Y-105441714D02*
X84081904Y-105441714D01*
X84177142Y-105489333D01*
X84224761Y-105536952D01*
X84272380Y-105632190D01*
X84272380Y-105822666D01*
X84224761Y-105917904D01*
X84177142Y-105965523D01*
X84081904Y-106013142D01*
X83272380Y-106013142D01*
X83272380Y-106346476D02*
X83272380Y-106917904D01*
X84272380Y-106632190D02*
X83272380Y-106632190D01*
D11*
G36*
X73383909Y-110393754D02*
G01*
X73464958Y-110443575D01*
X73577591Y-110429099D01*
X73684341Y-110360557D01*
X73729085Y-110299500D01*
X73772467Y-110191795D01*
X73834837Y-110006795D01*
X73910001Y-109765634D01*
X73991768Y-109489448D01*
X74073945Y-109199370D01*
X74150340Y-108916537D01*
X74214762Y-108662083D01*
X74238848Y-108559600D01*
X74290098Y-108307721D01*
X74341913Y-108006402D01*
X74392099Y-107674158D01*
X74438459Y-107329506D01*
X74478800Y-106990961D01*
X74510926Y-106677042D01*
X74532642Y-106406263D01*
X74541753Y-106197141D01*
X74536064Y-106068193D01*
X74534930Y-106062025D01*
X74476005Y-105967398D01*
X74357570Y-105952415D01*
X74285855Y-105972522D01*
X74236190Y-105998817D01*
X74198369Y-106045629D01*
X74169026Y-106128105D01*
X74144790Y-106261393D01*
X74122294Y-106460638D01*
X74098169Y-106740987D01*
X74088971Y-106857800D01*
X74068148Y-107082325D01*
X74039029Y-107312187D01*
X73998745Y-107562139D01*
X73944429Y-107846939D01*
X73873211Y-108181341D01*
X73782224Y-108580103D01*
X73668599Y-109057979D01*
X73631201Y-109212654D01*
X73553787Y-109538637D01*
X73487225Y-109832014D01*
X73434547Y-110078297D01*
X73398787Y-110263001D01*
X73382978Y-110371638D01*
X73383909Y-110393754D01*
G37*
X73383909Y-110393754D02*
X73464958Y-110443575D01*
X73577591Y-110429099D01*
X73684341Y-110360557D01*
X73729085Y-110299500D01*
X73772467Y-110191795D01*
X73834837Y-110006795D01*
X73910001Y-109765634D01*
X73991768Y-109489448D01*
X74073945Y-109199370D01*
X74150340Y-108916537D01*
X74214762Y-108662083D01*
X74238848Y-108559600D01*
X74290098Y-108307721D01*
X74341913Y-108006402D01*
X74392099Y-107674158D01*
X74438459Y-107329506D01*
X74478800Y-106990961D01*
X74510926Y-106677042D01*
X74532642Y-106406263D01*
X74541753Y-106197141D01*
X74536064Y-106068193D01*
X74534930Y-106062025D01*
X74476005Y-105967398D01*
X74357570Y-105952415D01*
X74285855Y-105972522D01*
X74236190Y-105998817D01*
X74198369Y-106045629D01*
X74169026Y-106128105D01*
X74144790Y-106261393D01*
X74122294Y-106460638D01*
X74098169Y-106740987D01*
X74088971Y-106857800D01*
X74068148Y-107082325D01*
X74039029Y-107312187D01*
X73998745Y-107562139D01*
X73944429Y-107846939D01*
X73873211Y-108181341D01*
X73782224Y-108580103D01*
X73668599Y-109057979D01*
X73631201Y-109212654D01*
X73553787Y-109538637D01*
X73487225Y-109832014D01*
X73434547Y-110078297D01*
X73398787Y-110263001D01*
X73382978Y-110371638D01*
X73383909Y-110393754D01*
G36*
X56556268Y-117932900D02*
G01*
X56574530Y-118093308D01*
X56605354Y-118284632D01*
X56650726Y-118517696D01*
X56712632Y-118803325D01*
X56793059Y-119152345D01*
X56893993Y-119575580D01*
X57017419Y-120083855D01*
X57050908Y-120220918D01*
X57133499Y-120545741D01*
X57232939Y-120915744D01*
X57345309Y-121318123D01*
X57466687Y-121740077D01*
X57593155Y-122168802D01*
X57720793Y-122591496D01*
X57845680Y-122995355D01*
X57963896Y-123367577D01*
X58071523Y-123695359D01*
X58164639Y-123965898D01*
X58239326Y-124166391D01*
X58291662Y-124284035D01*
X58298401Y-124295415D01*
X58416211Y-124432583D01*
X58606540Y-124587857D01*
X58873222Y-124763391D01*
X59220093Y-124961340D01*
X59650987Y-125183859D01*
X60169740Y-125433103D01*
X60780185Y-125711226D01*
X60960000Y-125791010D01*
X61651070Y-126081538D01*
X62399076Y-126367421D01*
X63213232Y-126651770D01*
X64102753Y-126937697D01*
X65076853Y-127228314D01*
X65913000Y-127463467D01*
X66322743Y-127567502D01*
X66754154Y-127662103D01*
X67183353Y-127743119D01*
X67586460Y-127806400D01*
X67939596Y-127847793D01*
X68212162Y-127863111D01*
X68285938Y-127896166D01*
X68394364Y-127978467D01*
X68435596Y-128016000D01*
X68518792Y-128089768D01*
X68597571Y-128134860D01*
X68699658Y-128158306D01*
X68852781Y-128167136D01*
X69036702Y-128168400D01*
X69265503Y-128171053D01*
X69557380Y-128178267D01*
X69873969Y-128188925D01*
X70162710Y-128201222D01*
X70847084Y-128234044D01*
X71097842Y-127997502D01*
X71242797Y-127871533D01*
X71374846Y-127775090D01*
X71459402Y-127731451D01*
X71550390Y-127726831D01*
X71718640Y-127735560D01*
X71940947Y-127755869D01*
X72194104Y-127785990D01*
X72219517Y-127789379D01*
X72626512Y-127832691D01*
X73027566Y-127854254D01*
X73403723Y-127854575D01*
X73736029Y-127834163D01*
X74005530Y-127793526D01*
X74186093Y-127736662D01*
X74334856Y-127631125D01*
X74466215Y-127459016D01*
X74585393Y-127210441D01*
X74697616Y-126875511D01*
X74757201Y-126655105D01*
X74835500Y-126307887D01*
X74872124Y-126039382D01*
X74867355Y-125835767D01*
X74821475Y-125683225D01*
X74778403Y-125615559D01*
X74638626Y-125490666D01*
X74490986Y-125444895D01*
X74358260Y-125482467D01*
X74308774Y-125528542D01*
X74229684Y-125663382D01*
X74243929Y-125762885D01*
X74352538Y-125834161D01*
X74353007Y-125834340D01*
X74425043Y-125867191D01*
X74462289Y-125913709D01*
X74472138Y-126000653D01*
X74461982Y-126154784D01*
X74456872Y-126210292D01*
X74427398Y-126418317D01*
X74382963Y-126616306D01*
X74346946Y-126725691D01*
X74267362Y-126916162D01*
X74103381Y-126760357D01*
X73961487Y-126641839D01*
X73794192Y-126537735D01*
X73583298Y-126439674D01*
X73310606Y-126339285D01*
X72957919Y-126228197D01*
X72925409Y-126218510D01*
X72693561Y-126148032D01*
X72498664Y-126085728D01*
X72360671Y-126038190D01*
X72299533Y-126012011D01*
X72298969Y-126011503D01*
X72298564Y-125951952D01*
X72325569Y-125823349D01*
X72374226Y-125652674D01*
X72378265Y-125639940D01*
X72445073Y-125422226D01*
X72528404Y-125137138D01*
X72625170Y-124796346D01*
X72732285Y-124411522D01*
X72846659Y-123994337D01*
X72965206Y-123556461D01*
X73084839Y-123109566D01*
X73202469Y-122665323D01*
X73315009Y-122235402D01*
X73419371Y-121831475D01*
X73512468Y-121465212D01*
X73591212Y-121148286D01*
X73652516Y-120892366D01*
X73693292Y-120709123D01*
X73710452Y-120610229D01*
X73710800Y-120602999D01*
X73727323Y-120518672D01*
X73796439Y-120510378D01*
X73825100Y-120517540D01*
X74073558Y-120569087D01*
X74405444Y-120610942D01*
X74802905Y-120641460D01*
X75248090Y-120658995D01*
X75387710Y-120661471D01*
X75828780Y-120658255D01*
X76183109Y-120632330D01*
X76464100Y-120578126D01*
X76685156Y-120490073D01*
X76859680Y-120362600D01*
X77001076Y-120190136D01*
X77122747Y-119967110D01*
X77137831Y-119934075D01*
X77225495Y-119695204D01*
X77310147Y-119387571D01*
X77384878Y-119043941D01*
X77442783Y-118697078D01*
X77476955Y-118379744D01*
X77481121Y-118305610D01*
X77482435Y-118108765D01*
X77460250Y-117973404D01*
X77406278Y-117860558D01*
X77377410Y-117817854D01*
X77256667Y-117690604D01*
X77133517Y-117659693D01*
X76989066Y-117721207D01*
X76970805Y-117733630D01*
X76855404Y-117814460D01*
X76991730Y-117993192D01*
X77128055Y-118171924D01*
X77011728Y-118775962D01*
X76964996Y-119008367D01*
X76922839Y-119199322D01*
X76889775Y-119329587D01*
X76870321Y-119379921D01*
X76869893Y-119380000D01*
X76819432Y-119351514D01*
X76712839Y-119277158D01*
X76585692Y-119182473D01*
X76308694Y-118993303D01*
X75999333Y-118827825D01*
X75643378Y-118680776D01*
X75226596Y-118546891D01*
X74734755Y-118420908D01*
X74238698Y-118314429D01*
X73781411Y-118227761D01*
X73400077Y-118167873D01*
X73073126Y-118133057D01*
X72778987Y-118121604D01*
X72771000Y-118121892D01*
X72771000Y-118545288D01*
X73245255Y-118568826D01*
X73764189Y-118636918D01*
X74340691Y-118751848D01*
X74987649Y-118915899D01*
X75198312Y-118975296D01*
X75624762Y-119111912D01*
X75961905Y-119253200D01*
X76221996Y-119406592D01*
X76417289Y-119579522D01*
X76560040Y-119779423D01*
X76577474Y-119811800D01*
X76638942Y-119941728D01*
X76646032Y-120018364D01*
X76594715Y-120076659D01*
X76542900Y-120111787D01*
X76384828Y-120174688D01*
X76144379Y-120220205D01*
X75839283Y-120248313D01*
X75487268Y-120258989D01*
X75106064Y-120252209D01*
X74713399Y-120227947D01*
X74327003Y-120186179D01*
X73964605Y-120126881D01*
X73908364Y-120115414D01*
X73628043Y-120046886D01*
X73294807Y-119950569D01*
X72937887Y-119836309D01*
X72586515Y-119713948D01*
X72269919Y-119593333D01*
X72017330Y-119484308D01*
X71978381Y-119465415D01*
X71783760Y-119357985D01*
X71658121Y-119256916D01*
X71573464Y-119138292D01*
X71556346Y-119104990D01*
X71459292Y-118906181D01*
X71595256Y-118789230D01*
X71746607Y-118687091D01*
X71936415Y-118615218D01*
X72181339Y-118570154D01*
X72498039Y-118548443D01*
X72771000Y-118545288D01*
X72771000Y-118121892D01*
X72496089Y-118131808D01*
X72245381Y-118156596D01*
X71853251Y-118229014D01*
X71533301Y-118338963D01*
X71292071Y-118482350D01*
X71136100Y-118655086D01*
X71071925Y-118853079D01*
X71070631Y-118891550D01*
X71094758Y-119032737D01*
X71154035Y-119205706D01*
X71187352Y-119278400D01*
X71287865Y-119429115D01*
X71443779Y-119583340D01*
X71666776Y-119750466D01*
X71968536Y-119939885D01*
X72116469Y-120025451D01*
X72313800Y-120137502D01*
X72073570Y-120139751D01*
X71937389Y-120126917D01*
X71726526Y-120090400D01*
X71463603Y-120035740D01*
X71325111Y-120003879D01*
X71325111Y-120523000D01*
X72200455Y-120532258D01*
X72491290Y-120535491D01*
X72748346Y-120538643D01*
X72953711Y-120541473D01*
X73089477Y-120543735D01*
X73135671Y-120544958D01*
X73218231Y-120580886D01*
X73270975Y-120623832D01*
X73313273Y-120684450D01*
X73319213Y-120767089D01*
X73289755Y-120905316D01*
X73280043Y-120941332D01*
X73252766Y-121040922D01*
X73201802Y-121227082D01*
X73130280Y-121488382D01*
X73041327Y-121813394D01*
X72938072Y-122190689D01*
X72823642Y-122608840D01*
X72701164Y-123056417D01*
X72624039Y-123338272D01*
X72500827Y-123790016D01*
X72386344Y-124212565D01*
X72283323Y-124595628D01*
X72194496Y-124928914D01*
X72122597Y-125202132D01*
X72070357Y-125404989D01*
X72040511Y-125527194D01*
X72034400Y-125558985D01*
X72006879Y-125629706D01*
X71917987Y-125683894D01*
X71758227Y-125723727D01*
X71518102Y-125751383D01*
X71188117Y-125769041D01*
X71107300Y-125771660D01*
X71022277Y-125773169D01*
X71022277Y-126348123D01*
X71342966Y-126355346D01*
X71851927Y-126399089D01*
X72341060Y-126477327D01*
X72795055Y-126585521D01*
X73198600Y-126719135D01*
X73536383Y-126873629D01*
X73793093Y-127044466D01*
X73853036Y-127099252D01*
X73966339Y-127231969D01*
X73992635Y-127323857D01*
X73932156Y-127386172D01*
X73859433Y-127412635D01*
X73673326Y-127441262D01*
X73407701Y-127450406D01*
X73082330Y-127442125D01*
X72716987Y-127418478D01*
X72331442Y-127381522D01*
X71945469Y-127333316D01*
X71578839Y-127275918D01*
X71251326Y-127211386D01*
X70982701Y-127141778D01*
X70864036Y-127100825D01*
X70553979Y-126968349D01*
X70301051Y-126839598D01*
X70134483Y-126733728D01*
X70134483Y-127563009D01*
X70264766Y-127568546D01*
X70444900Y-127582205D01*
X70490966Y-127586393D01*
X70885489Y-127623363D01*
X70765790Y-127720288D01*
X70668000Y-127777691D01*
X70538880Y-127803006D01*
X70344739Y-127802675D01*
X70336946Y-127802307D01*
X70166430Y-127790646D01*
X70075848Y-127770888D01*
X70043533Y-127734377D01*
X70045329Y-127685800D01*
X70066998Y-127594766D01*
X70079651Y-127566811D01*
X70134483Y-127563009D01*
X70134483Y-126733728D01*
X70113637Y-126720478D01*
X70000123Y-126616896D01*
X69968895Y-126534758D01*
X70000919Y-126492914D01*
X70154453Y-126433533D01*
X70389061Y-126388254D01*
X70684938Y-126359107D01*
X71022277Y-126348123D01*
X71022277Y-125773169D01*
X70854275Y-125776152D01*
X70642145Y-125774212D01*
X70489217Y-125766446D01*
X70413798Y-125753463D01*
X70409019Y-125748464D01*
X70417710Y-125688930D01*
X70442152Y-125542476D01*
X70480071Y-125322172D01*
X70529197Y-125041088D01*
X70587258Y-124712293D01*
X70651981Y-124348857D01*
X70663907Y-124282200D01*
X70740315Y-123852991D01*
X70820064Y-123400694D01*
X70898627Y-122951280D01*
X70971480Y-122530723D01*
X71034096Y-122164994D01*
X71071102Y-121945400D01*
X71123800Y-121632244D01*
X71174625Y-121335242D01*
X71219731Y-121076485D01*
X71255277Y-120878062D01*
X71274370Y-120777000D01*
X71325111Y-120523000D01*
X71325111Y-120003879D01*
X71171245Y-119968480D01*
X70872075Y-119894159D01*
X70588716Y-119818318D01*
X70343793Y-119746499D01*
X70159929Y-119684242D01*
X70087338Y-119653288D01*
X69972548Y-119578262D01*
X69818267Y-119454818D01*
X69760872Y-119403050D01*
X69760872Y-119981873D01*
X69904979Y-120024751D01*
X70107563Y-120110556D01*
X70318736Y-120203181D01*
X70525480Y-120286409D01*
X70686716Y-120343791D01*
X70700900Y-120348113D01*
X70827570Y-120393004D01*
X70893937Y-120449779D01*
X70909689Y-120543858D01*
X70884517Y-120700659D01*
X70866255Y-120781896D01*
X70844997Y-120886956D01*
X70809662Y-121076627D01*
X70763030Y-121335332D01*
X70707879Y-121647489D01*
X70646988Y-121997519D01*
X70585375Y-122356696D01*
X70510748Y-122791971D01*
X70429259Y-123262466D01*
X70346141Y-123738295D01*
X70266625Y-124189573D01*
X70195943Y-124586415D01*
X70163790Y-124764800D01*
X69975023Y-125806200D01*
X69537055Y-125863930D01*
X69382401Y-125888258D01*
X69382401Y-126292664D01*
X69495190Y-126297124D01*
X69532921Y-126338256D01*
X69521822Y-126446670D01*
X69520545Y-126453900D01*
X69525842Y-126631510D01*
X69594109Y-126771400D01*
X69673622Y-126899992D01*
X69685581Y-126961738D01*
X69626266Y-126968831D01*
X69540321Y-126947800D01*
X69364187Y-126882270D01*
X69183590Y-126791094D01*
X69022979Y-126689781D01*
X68913679Y-126599519D01*
X68913679Y-127203597D01*
X68985745Y-127216539D01*
X69122728Y-127250030D01*
X69292230Y-127295433D01*
X69461849Y-127344114D01*
X69583300Y-127382077D01*
X69630164Y-127401857D01*
X69641444Y-127438603D01*
X69618231Y-127523346D01*
X69591030Y-127602019D01*
X69547969Y-127700101D01*
X69486623Y-127746792D01*
X69372801Y-127760736D01*
X69298930Y-127761306D01*
X69081482Y-127755321D01*
X68946765Y-127730348D01*
X68876092Y-127673526D01*
X68850781Y-127571995D01*
X68850536Y-127452675D01*
X68865613Y-127309384D01*
X68894259Y-127219315D01*
X68913679Y-127203597D01*
X68913679Y-126599519D01*
X68906805Y-126593842D01*
X68859517Y-126518785D01*
X68859400Y-126515859D01*
X68905822Y-126436601D01*
X69027663Y-126365516D01*
X69198788Y-126313757D01*
X69382401Y-126292664D01*
X69382401Y-125888258D01*
X69185643Y-125919210D01*
X68920878Y-125982692D01*
X68727873Y-126058904D01*
X68593477Y-126150781D01*
X68490045Y-126299909D01*
X68442969Y-126483519D01*
X68461663Y-126657237D01*
X68478109Y-126694658D01*
X68512648Y-126773963D01*
X68478393Y-126787134D01*
X68419260Y-126772020D01*
X68218648Y-126677353D01*
X68062717Y-126534701D01*
X67997280Y-126419292D01*
X67974707Y-126310203D01*
X68018183Y-126231727D01*
X68073480Y-126185591D01*
X68219313Y-126097563D01*
X68433002Y-126006464D01*
X68728674Y-125906511D01*
X68833555Y-125874509D01*
X68968978Y-125828613D01*
X69041277Y-125774279D01*
X69077397Y-125678489D01*
X69098318Y-125550055D01*
X69111547Y-125442253D01*
X69133940Y-125241345D01*
X69164673Y-124955334D01*
X69202921Y-124592221D01*
X69247860Y-124160009D01*
X69298665Y-123666699D01*
X69354513Y-123120293D01*
X69414578Y-122528795D01*
X69478036Y-121900205D01*
X69544064Y-121242526D01*
X69606827Y-120614054D01*
X69632423Y-120380838D01*
X69658479Y-120183638D01*
X69681700Y-120045278D01*
X69696834Y-119990838D01*
X69760872Y-119981873D01*
X69760872Y-119403050D01*
X69655336Y-119307858D01*
X69634100Y-119287322D01*
X69480024Y-119128871D01*
X69390052Y-119011257D01*
X69349274Y-118911446D01*
X69342000Y-118836127D01*
X69358117Y-118740583D01*
X69414343Y-118650230D01*
X69522486Y-118556010D01*
X69694354Y-118448863D01*
X69941757Y-118319727D01*
X70140269Y-118223693D01*
X70508265Y-118048933D01*
X71411032Y-118038826D01*
X71750027Y-118033701D01*
X72013088Y-118025046D01*
X72225880Y-118009996D01*
X72414066Y-117985684D01*
X72603311Y-117949245D01*
X72819278Y-117897812D01*
X72932303Y-117868939D01*
X73458608Y-117712633D01*
X73886976Y-117540386D01*
X74220041Y-117350692D01*
X74460435Y-117142040D01*
X74610791Y-116912922D01*
X74614076Y-116905397D01*
X74665085Y-116755045D01*
X74730614Y-116509132D01*
X74809702Y-116172512D01*
X74901387Y-115750038D01*
X75004710Y-115246563D01*
X75118709Y-114666941D01*
X75242424Y-114016025D01*
X75374894Y-113298669D01*
X75515158Y-112519725D01*
X75662256Y-111684047D01*
X75763336Y-111099600D01*
X75819734Y-110776362D01*
X75890790Y-110377072D01*
X75972193Y-109925489D01*
X76059634Y-109445375D01*
X76148801Y-108960490D01*
X76235385Y-108494595D01*
X76251748Y-108407200D01*
X76379091Y-107725258D01*
X76488117Y-107134818D01*
X76580132Y-106627693D01*
X76656439Y-106195696D01*
X76718344Y-105830641D01*
X76767149Y-105524342D01*
X76804160Y-105268613D01*
X76830680Y-105055267D01*
X76848015Y-104876117D01*
X76857469Y-104722978D01*
X76860345Y-104587662D01*
X76860345Y-104587498D01*
X76853958Y-104358541D01*
X76836039Y-104195485D01*
X76808543Y-104114917D01*
X76804176Y-104111248D01*
X76773728Y-104066396D01*
X76824874Y-104032005D01*
X76937713Y-104013929D01*
X77092343Y-104018022D01*
X77113261Y-104020341D01*
X77370571Y-104063873D01*
X77676644Y-104134635D01*
X77995466Y-104222581D01*
X78291023Y-104317663D01*
X78527303Y-104409834D01*
X78554789Y-104422495D01*
X78877490Y-104629845D01*
X79135948Y-104915429D01*
X79329514Y-105278247D01*
X79457540Y-105717297D01*
X79481281Y-105851980D01*
X79482860Y-106126961D01*
X79419249Y-106441545D01*
X79301750Y-106768466D01*
X79141667Y-107080457D01*
X78950302Y-107350253D01*
X78795434Y-107506504D01*
X78666090Y-107582314D01*
X78470950Y-107659983D01*
X78245043Y-107728856D01*
X78023399Y-107778278D01*
X77841048Y-107797593D01*
X77838431Y-107797600D01*
X77706979Y-107841524D01*
X77630638Y-107952951D01*
X77622400Y-108012217D01*
X77666877Y-108106537D01*
X77787815Y-108165044D01*
X77966473Y-108187412D01*
X78184111Y-108173314D01*
X78421989Y-108122425D01*
X78661366Y-108034418D01*
X78669987Y-108030455D01*
X79032873Y-107807156D01*
X79342073Y-107501325D01*
X79591541Y-107120168D01*
X79753123Y-106739340D01*
X79820689Y-106445062D01*
X79851733Y-106098605D01*
X79845334Y-105742950D01*
X79800568Y-105421078D01*
X79782936Y-105349695D01*
X79629790Y-104932000D01*
X79416298Y-104589561D01*
X79131420Y-104308798D01*
X78764116Y-104076135D01*
X78735703Y-104061636D01*
X78297862Y-103865618D01*
X77874866Y-103732805D01*
X77416716Y-103648185D01*
X77317600Y-103635854D01*
X77028675Y-103601901D01*
X76824740Y-103573912D01*
X76689954Y-103545377D01*
X76608475Y-103509784D01*
X76564461Y-103460619D01*
X76542071Y-103391373D01*
X76528122Y-103311326D01*
X76481943Y-103112383D01*
X76405669Y-102939565D01*
X76281464Y-102759278D01*
X76155636Y-102609717D01*
X76046409Y-102491500D01*
X75953135Y-102416668D01*
X75843892Y-102369704D01*
X75686761Y-102335087D01*
X75542553Y-102311659D01*
X75326082Y-102285189D01*
X75126655Y-102273204D01*
X74982630Y-102277802D01*
X74967498Y-102280178D01*
X74843375Y-102286835D01*
X74716710Y-102248680D01*
X74551027Y-102154897D01*
X74377878Y-102065913D01*
X74148214Y-101975317D01*
X73896991Y-101894154D01*
X73659168Y-101833464D01*
X73469702Y-101804291D01*
X73437672Y-101803200D01*
X73378515Y-101812606D01*
X73378515Y-102242309D01*
X73680309Y-102248155D01*
X74015309Y-102348258D01*
X74384829Y-102542895D01*
X74515199Y-102628350D01*
X74650573Y-102715389D01*
X74748388Y-102750944D01*
X74852883Y-102743792D01*
X74959450Y-102716465D01*
X75252909Y-102680136D01*
X75553630Y-102721358D01*
X75743228Y-102794021D01*
X75914817Y-102936916D01*
X76053460Y-103172150D01*
X76160448Y-103501961D01*
X76167192Y-103530400D01*
X76225237Y-103746823D01*
X76295462Y-103962239D01*
X76345307Y-104089200D01*
X76414775Y-104328154D01*
X76448283Y-104634587D01*
X76444417Y-104980433D01*
X76406782Y-105308400D01*
X76388405Y-105413458D01*
X76353603Y-105607488D01*
X76304371Y-105879542D01*
X76242703Y-106218674D01*
X76170594Y-106613939D01*
X76090036Y-107054390D01*
X76003025Y-107529082D01*
X75911555Y-108027069D01*
X75902374Y-108077000D01*
X75793385Y-108671649D01*
X75674656Y-109322996D01*
X75550635Y-110006418D01*
X75425768Y-110697289D01*
X75304504Y-111370987D01*
X75191289Y-112002886D01*
X75090571Y-112568364D01*
X75058287Y-112750600D01*
X74919058Y-113527612D01*
X74788866Y-114233423D01*
X74668573Y-114863784D01*
X74559045Y-115414444D01*
X74461145Y-115881152D01*
X74375737Y-116259658D01*
X74303686Y-116545712D01*
X74251460Y-116719196D01*
X74135439Y-116903134D01*
X73920822Y-117072293D01*
X73609698Y-117225522D01*
X73204152Y-117361671D01*
X72981785Y-117419370D01*
X72736465Y-117479243D01*
X72511254Y-117536258D01*
X72334310Y-117583172D01*
X72246496Y-117608541D01*
X72126326Y-117637066D01*
X72053484Y-117636653D01*
X72049317Y-117633850D01*
X71986739Y-117629642D01*
X71938820Y-117647584D01*
X71858095Y-117660730D01*
X71699113Y-117665456D01*
X71484873Y-117661702D01*
X71238811Y-117649434D01*
X70879507Y-117618435D01*
X70608929Y-117572787D01*
X70414389Y-117503969D01*
X70283199Y-117403461D01*
X70202670Y-117262740D01*
X70160114Y-117073285D01*
X70146585Y-116915921D01*
X70124893Y-116692489D01*
X70076704Y-116523688D01*
X69985329Y-116378912D01*
X69834078Y-116227557D01*
X69794676Y-116194223D01*
X69794676Y-117529240D01*
X69923938Y-117650675D01*
X70010501Y-117740549D01*
X70052460Y-117800908D01*
X70053200Y-117805134D01*
X70010733Y-117841572D01*
X69899642Y-117904757D01*
X69751162Y-117977599D01*
X69429084Y-118143605D01*
X69199245Y-118303704D01*
X69053109Y-118464910D01*
X68989558Y-118603536D01*
X68939045Y-118849648D01*
X68948827Y-119041189D01*
X69024499Y-119209208D01*
X69120524Y-119330396D01*
X69217719Y-119447923D01*
X69272725Y-119534425D01*
X69277135Y-119563397D01*
X69218394Y-119556483D01*
X69104417Y-119497581D01*
X68956505Y-119401525D01*
X68795956Y-119283148D01*
X68644068Y-119157285D01*
X68522141Y-119038769D01*
X68519233Y-119035553D01*
X68375423Y-118835080D01*
X68278592Y-118617711D01*
X68239890Y-118414341D01*
X68253008Y-118298002D01*
X68365952Y-118095576D01*
X68570565Y-117916567D01*
X68858580Y-117766073D01*
X69221732Y-117649195D01*
X69352438Y-117619730D01*
X69794676Y-117529240D01*
X69794676Y-116194223D01*
X69717346Y-116128800D01*
X69596645Y-116020353D01*
X69516588Y-115930385D01*
X69497487Y-115892540D01*
X69517974Y-115822907D01*
X69575220Y-115688533D01*
X69658318Y-115514404D01*
X69689904Y-115451791D01*
X69771986Y-115267837D01*
X69873629Y-115002259D01*
X69988976Y-114671803D01*
X70112171Y-114293214D01*
X70231167Y-113904137D01*
X70576925Y-112738771D01*
X70810362Y-112566118D01*
X70930369Y-112466314D01*
X71037831Y-112348345D01*
X71140040Y-112198785D01*
X71244289Y-112004209D01*
X71357869Y-111751193D01*
X71488073Y-111426312D01*
X71620755Y-111074200D01*
X71845099Y-110437079D01*
X72053183Y-109785772D01*
X72240524Y-109137707D01*
X72402643Y-108510314D01*
X72535057Y-107921021D01*
X72633285Y-107387259D01*
X72692847Y-106926457D01*
X72695862Y-106892625D01*
X72722786Y-106583019D01*
X72752479Y-106249276D01*
X72780876Y-105936742D01*
X72799194Y-105740200D01*
X72817688Y-105448080D01*
X72824149Y-105122208D01*
X72817725Y-104821539D01*
X72813511Y-104750031D01*
X72794635Y-104518836D01*
X72772473Y-104364425D01*
X72740237Y-104262041D01*
X72691140Y-104186929D01*
X72646372Y-104140431D01*
X72530271Y-104039103D01*
X72428736Y-103965498D01*
X72423059Y-103962200D01*
X72389221Y-103936770D01*
X72367239Y-103894976D01*
X72356619Y-103820954D01*
X72356868Y-103698838D01*
X72367495Y-103512763D01*
X72388005Y-103246863D01*
X72397316Y-103133361D01*
X72461578Y-102355323D01*
X72699900Y-102388101D01*
X72900913Y-102396655D01*
X73064955Y-102351949D01*
X73108611Y-102330440D01*
X73378515Y-102242309D01*
X73378515Y-101812606D01*
X73325703Y-101821004D01*
X73172782Y-101865497D01*
X73122439Y-101883688D01*
X73020129Y-101918283D01*
X72921609Y-101936033D01*
X72801736Y-101936879D01*
X72635363Y-101920762D01*
X72397345Y-101887623D01*
X72358741Y-101881900D01*
X71787414Y-101807493D01*
X71377609Y-101774622D01*
X71377609Y-102186676D01*
X71584693Y-102189151D01*
X71724890Y-102197288D01*
X71815556Y-102213596D01*
X71874045Y-102240584D01*
X71917714Y-102280759D01*
X71943178Y-102311200D01*
X71999478Y-102396468D01*
X72025278Y-102494074D01*
X72025833Y-102637304D01*
X72015357Y-102768400D01*
X71998361Y-102979909D01*
X71986618Y-103184161D01*
X71983183Y-103301800D01*
X71971157Y-103488007D01*
X71930477Y-103582119D01*
X71850285Y-103592071D01*
X71719724Y-103525797D01*
X71696948Y-103510980D01*
X71485332Y-103396148D01*
X71220439Y-103288216D01*
X70938968Y-103199086D01*
X70677620Y-103140656D01*
X70503460Y-103124000D01*
X70467630Y-103123636D01*
X70467630Y-103539938D01*
X70819534Y-103593889D01*
X71209127Y-103735714D01*
X71632180Y-103964094D01*
X71840564Y-104100402D01*
X72014003Y-104215159D01*
X72167052Y-104308161D01*
X72271622Y-104362526D01*
X72285064Y-104367541D01*
X72328406Y-104387418D01*
X72357841Y-104426082D01*
X72376042Y-104500821D01*
X72385682Y-104628923D01*
X72389437Y-104827676D01*
X72390000Y-105045975D01*
X72385266Y-105321799D01*
X72372195Y-105664759D01*
X72352479Y-106040887D01*
X72327809Y-106416215D01*
X72311069Y-106630051D01*
X72279968Y-106992170D01*
X72252030Y-107280580D01*
X72222604Y-107520032D01*
X72187041Y-107735274D01*
X72140690Y-107951057D01*
X72078902Y-108192131D01*
X71997027Y-108483244D01*
X71900823Y-108813600D01*
X71753311Y-109307066D01*
X71602128Y-109793829D01*
X71451615Y-110261212D01*
X71306113Y-110696535D01*
X71169961Y-111087121D01*
X71047501Y-111420292D01*
X70943073Y-111683368D01*
X70861018Y-111863672D01*
X70848606Y-111887000D01*
X70728437Y-112080163D01*
X70604250Y-112212979D01*
X70440980Y-112321841D01*
X70416722Y-112335226D01*
X70207026Y-112429935D01*
X70053200Y-112483383D01*
X70053200Y-112954661D01*
X70040431Y-113003211D01*
X70005754Y-113129836D01*
X69954613Y-113314764D01*
X69898511Y-113516489D01*
X69750621Y-114038870D01*
X69621024Y-114472782D01*
X69504104Y-114828504D01*
X69394249Y-115116313D01*
X69285845Y-115346489D01*
X69173278Y-115529310D01*
X69050935Y-115675054D01*
X68913201Y-115794000D01*
X68754465Y-115896426D01*
X68569111Y-115992612D01*
X68538096Y-116007406D01*
X68358030Y-116079624D01*
X68137042Y-116149196D01*
X67897511Y-116211435D01*
X67661812Y-116261649D01*
X67452323Y-116295150D01*
X67291420Y-116307247D01*
X67201481Y-116293252D01*
X67195630Y-116288750D01*
X67155279Y-116186108D01*
X67148022Y-116002686D01*
X67172646Y-115753337D01*
X67227938Y-115452914D01*
X67282175Y-115228026D01*
X67348713Y-115016691D01*
X67447777Y-114754606D01*
X67569516Y-114463091D01*
X67704077Y-114163469D01*
X67841610Y-113877062D01*
X67972262Y-113625193D01*
X68086183Y-113429183D01*
X68162780Y-113322100D01*
X68284495Y-113253126D01*
X68473573Y-113231572D01*
X68612175Y-113220412D01*
X68822532Y-113191108D01*
X69077308Y-113147962D01*
X69349168Y-113095279D01*
X69380100Y-113088844D01*
X69625771Y-113037824D01*
X69831277Y-112996059D01*
X69978538Y-112967155D01*
X70049475Y-112954714D01*
X70053200Y-112954661D01*
X70053200Y-112483383D01*
X69936371Y-112523977D01*
X69626709Y-112612605D01*
X69299992Y-112691074D01*
X68978171Y-112754635D01*
X68683200Y-112798543D01*
X68437031Y-112818052D01*
X68261615Y-112808414D01*
X68245152Y-112804772D01*
X68107713Y-112770277D01*
X68137851Y-112125438D01*
X68158997Y-111759892D01*
X68188877Y-111407120D01*
X68230057Y-111051007D01*
X68285101Y-110675439D01*
X68356575Y-110264302D01*
X68447044Y-109801482D01*
X68559074Y-109270864D01*
X68677724Y-108734191D01*
X68865447Y-107900868D01*
X69033676Y-107161402D01*
X69183998Y-106510261D01*
X69317999Y-105941914D01*
X69437267Y-105450829D01*
X69543388Y-105031474D01*
X69637949Y-104678317D01*
X69722537Y-104385827D01*
X69798739Y-104148472D01*
X69868142Y-103960720D01*
X69932332Y-103817039D01*
X69992897Y-103711899D01*
X70051422Y-103639766D01*
X70109496Y-103595109D01*
X70157644Y-103575182D01*
X70467630Y-103539938D01*
X70467630Y-103123636D01*
X70394146Y-103122887D01*
X70317683Y-103108639D01*
X70263364Y-103064888D01*
X70220483Y-102975266D01*
X70178333Y-102823408D01*
X70126207Y-102592945D01*
X70111008Y-102524050D01*
X70085379Y-102386268D01*
X70095803Y-102312351D01*
X70153114Y-102267746D01*
X70197614Y-102247806D01*
X70301816Y-102225399D01*
X70488706Y-102207053D01*
X70739413Y-102194052D01*
X71035062Y-102187679D01*
X71086282Y-102187356D01*
X71377609Y-102186676D01*
X71377609Y-101774622D01*
X71293982Y-101767914D01*
X70860750Y-101763569D01*
X70470020Y-101794864D01*
X70104098Y-101862204D01*
X69824600Y-101939986D01*
X69700290Y-101994284D01*
X69587485Y-102054362D01*
X69587485Y-102515622D01*
X69655403Y-102535278D01*
X69703692Y-102620862D01*
X69727853Y-102692200D01*
X69782960Y-102881140D01*
X69796249Y-102989012D01*
X69759565Y-103030609D01*
X69664749Y-103020723D01*
X69562526Y-102992028D01*
X69387032Y-102948510D01*
X69225612Y-102923313D01*
X69178528Y-102920800D01*
X69108439Y-102912810D01*
X69108439Y-103327200D01*
X69315582Y-103344240D01*
X69472419Y-103390214D01*
X69561129Y-103457406D01*
X69569165Y-103526748D01*
X69544074Y-103604644D01*
X69498213Y-103758480D01*
X69438015Y-103966302D01*
X69369916Y-104206161D01*
X69367094Y-104216200D01*
X69230738Y-104715228D01*
X69084689Y-105274552D01*
X68932329Y-105879403D01*
X68777042Y-106515011D01*
X68622209Y-107166608D01*
X68471213Y-107819424D01*
X68327437Y-108458690D01*
X68194262Y-109069638D01*
X68075072Y-109637498D01*
X67973248Y-110147501D01*
X67892174Y-110584878D01*
X67848427Y-110847293D01*
X67808658Y-111129762D01*
X67771077Y-111442836D01*
X67760597Y-111547806D01*
X67760597Y-112953605D01*
X67767200Y-112976123D01*
X67750499Y-113047313D01*
X67707108Y-113181667D01*
X67657421Y-113320194D01*
X67585653Y-113490315D01*
X67479579Y-113714823D01*
X67355528Y-113960022D01*
X67268789Y-114122200D01*
X67142714Y-114358920D01*
X67023800Y-114594558D01*
X66928023Y-114796831D01*
X66883267Y-114901362D01*
X66828892Y-115027626D01*
X66768575Y-115124389D01*
X66682497Y-115211021D01*
X66670901Y-115219465D01*
X66670901Y-115731757D01*
X66680175Y-115736041D01*
X66697078Y-115795441D01*
X66718836Y-115930026D01*
X66741417Y-116113774D01*
X66747033Y-116167461D01*
X66773620Y-116400246D01*
X66802661Y-116552870D01*
X66842739Y-116646588D01*
X66902438Y-116702653D01*
X66977205Y-116737413D01*
X67115490Y-116755422D01*
X67327803Y-116740861D01*
X67593720Y-116698589D01*
X67892815Y-116633469D01*
X68204663Y-116550360D01*
X68508839Y-116454124D01*
X68784918Y-116349622D01*
X68973994Y-116262214D01*
X69071189Y-116218530D01*
X69146865Y-116217098D01*
X69239165Y-116265153D01*
X69331107Y-116329949D01*
X69527926Y-116492949D01*
X69642021Y-116645023D01*
X69686804Y-116808114D01*
X69686668Y-116911604D01*
X69672200Y-117110209D01*
X69265800Y-117217916D01*
X68813637Y-117364339D01*
X68442305Y-117541174D01*
X68157755Y-117744833D01*
X67965937Y-117971726D01*
X67940473Y-118017152D01*
X67883833Y-118202697D01*
X67864557Y-118439170D01*
X67882829Y-118682949D01*
X67936831Y-118885686D01*
X68054710Y-119086778D01*
X68241049Y-119310053D01*
X68473390Y-119532350D01*
X68729273Y-119730510D01*
X68803477Y-119779397D01*
X68968492Y-119888982D01*
X69104874Y-119989215D01*
X69183870Y-120058923D01*
X69185129Y-120060413D01*
X69202749Y-120095319D01*
X69213518Y-120156403D01*
X69216825Y-120253546D01*
X69212057Y-120396633D01*
X69198603Y-120595547D01*
X69175850Y-120860169D01*
X69143187Y-121200383D01*
X69100001Y-121626072D01*
X69070675Y-121908516D01*
X69022932Y-122367747D01*
X68974667Y-122835590D01*
X68927911Y-123292083D01*
X68884698Y-123717264D01*
X68847061Y-124091174D01*
X68817032Y-124393849D01*
X68805645Y-124510800D01*
X68776576Y-124795344D01*
X68747847Y-125046628D01*
X68721807Y-125246227D01*
X68700802Y-125375718D01*
X68690499Y-125414506D01*
X68630588Y-125463505D01*
X68500604Y-125537363D01*
X68324659Y-125622835D01*
X68254455Y-125654009D01*
X67948196Y-125803180D01*
X67735914Y-125946778D01*
X67610660Y-126090911D01*
X67565487Y-126241691D01*
X67565115Y-126260204D01*
X67612889Y-126507297D01*
X67739608Y-126752964D01*
X67925512Y-126971689D01*
X68150844Y-127137956D01*
X68293485Y-127200852D01*
X68420267Y-127262120D01*
X68446296Y-127329242D01*
X68445550Y-127331295D01*
X68412707Y-127382932D01*
X68351298Y-127415830D01*
X68246418Y-127430921D01*
X68083160Y-127429135D01*
X67846617Y-127411405D01*
X67583145Y-127385162D01*
X67221243Y-127337431D01*
X66896560Y-127276063D01*
X66623175Y-127205068D01*
X66415170Y-127128455D01*
X66286624Y-127050233D01*
X66254455Y-127006858D01*
X66243209Y-126906179D01*
X66248869Y-126719309D01*
X66269472Y-126459892D01*
X66303059Y-126141569D01*
X66347668Y-125777983D01*
X66401339Y-125382778D01*
X66462110Y-124969595D01*
X66528021Y-124552077D01*
X66597111Y-124143867D01*
X66667418Y-123758606D01*
X66736982Y-123409939D01*
X66803842Y-123111508D01*
X66828627Y-123012200D01*
X66968103Y-122503505D01*
X67131119Y-121958616D01*
X67306892Y-121411071D01*
X67484636Y-120894411D01*
X67653568Y-120442177D01*
X67661331Y-120422513D01*
X67755501Y-120174138D01*
X67806606Y-120002186D01*
X67814181Y-119890842D01*
X67777760Y-119824292D01*
X67696878Y-119786720D01*
X67642261Y-119774360D01*
X67591596Y-119771366D01*
X67546360Y-119793079D01*
X67497960Y-119853285D01*
X67437805Y-119965770D01*
X67357303Y-120144323D01*
X67247862Y-120402729D01*
X67242127Y-120416435D01*
X67102510Y-120758305D01*
X66982268Y-121073542D01*
X66874262Y-121384538D01*
X66771357Y-121713682D01*
X66666416Y-122083364D01*
X66552302Y-122515975D01*
X66472365Y-122831402D01*
X66338081Y-123382477D01*
X66229288Y-123868521D01*
X66140341Y-124321213D01*
X66065591Y-124772234D01*
X65999392Y-125253263D01*
X65936096Y-125795979D01*
X65924089Y-125907222D01*
X65884272Y-126275381D01*
X65850932Y-126553992D01*
X65819649Y-126754525D01*
X65786006Y-126888445D01*
X65745584Y-126967221D01*
X65693965Y-127002320D01*
X65626732Y-127005209D01*
X65539464Y-126987357D01*
X65510698Y-126980168D01*
X65395833Y-126951338D01*
X65360134Y-124600769D01*
X65351686Y-124051064D01*
X65344154Y-123593349D01*
X65336965Y-123218026D01*
X65329549Y-122915496D01*
X65321335Y-122676159D01*
X65311750Y-122490417D01*
X65300223Y-122348671D01*
X65286184Y-122241322D01*
X65269060Y-122158772D01*
X65248281Y-122091421D01*
X65223275Y-122029671D01*
X65204628Y-121988306D01*
X65030806Y-121706537D01*
X64787652Y-121445008D01*
X64506735Y-121235833D01*
X64416126Y-121186245D01*
X64277754Y-121124591D01*
X64070983Y-121041406D01*
X63823707Y-120947565D01*
X63563821Y-120853942D01*
X63562354Y-120853429D01*
X63287240Y-120754434D01*
X63096978Y-120680057D01*
X62993729Y-120631752D01*
X62979655Y-120610976D01*
X63056918Y-120619182D01*
X63227679Y-120657826D01*
X63298490Y-120675838D01*
X63589701Y-120739085D01*
X63820049Y-120755736D01*
X64019834Y-120724047D01*
X64219358Y-120642270D01*
X64260689Y-120620410D01*
X64409344Y-120532061D01*
X64525624Y-120438636D01*
X64624979Y-120320005D01*
X64722856Y-120156039D01*
X64834706Y-119926609D01*
X64894850Y-119794107D01*
X65012796Y-119492375D01*
X65107839Y-119173169D01*
X65176506Y-118857438D01*
X65215329Y-118566130D01*
X65220834Y-118320194D01*
X65189552Y-118140577D01*
X65174487Y-118106426D01*
X65103274Y-118033235D01*
X64969719Y-117939838D01*
X64820335Y-117855765D01*
X64656463Y-117779196D01*
X64514347Y-117733484D01*
X64356343Y-117710974D01*
X64144806Y-117704013D01*
X64072948Y-117703806D01*
X63907309Y-117706616D01*
X63907309Y-118110136D01*
X64142539Y-118114435D01*
X64325203Y-118129764D01*
X64467444Y-118156493D01*
X64581410Y-118194986D01*
X64626274Y-118216025D01*
X64834100Y-118322050D01*
X64805388Y-118584325D01*
X64774918Y-118757070D01*
X64719456Y-118983249D01*
X64649533Y-119221109D01*
X64629117Y-119283170D01*
X64508243Y-119617446D01*
X64396719Y-119868286D01*
X64284439Y-120051973D01*
X64161295Y-120184789D01*
X64017183Y-120283017D01*
X64004223Y-120289987D01*
X63772510Y-120412574D01*
X62963155Y-120173719D01*
X62839600Y-120137006D01*
X62839600Y-120548400D01*
X62881414Y-120566986D01*
X62873466Y-120582266D01*
X62813178Y-120588346D01*
X62805733Y-120582266D01*
X62812706Y-120552066D01*
X62839600Y-120548400D01*
X62839600Y-120137006D01*
X62666262Y-120085500D01*
X62300725Y-119975947D01*
X61894997Y-119853642D01*
X61477530Y-119727169D01*
X61076777Y-119605110D01*
X60972700Y-119573280D01*
X60077681Y-119299278D01*
X60077681Y-120157268D01*
X60234843Y-120188325D01*
X60476373Y-120252007D01*
X60796911Y-120346732D01*
X61191097Y-120470915D01*
X61653573Y-120622973D01*
X62178978Y-120801321D01*
X62179200Y-120801397D01*
X62711422Y-120985718D01*
X63155882Y-121142729D01*
X63521552Y-121276191D01*
X63817402Y-121389861D01*
X64052405Y-121487499D01*
X64235532Y-121572862D01*
X64375753Y-121649711D01*
X64482042Y-121721803D01*
X64563368Y-121792897D01*
X64575601Y-121805410D01*
X64681425Y-121919574D01*
X64761250Y-122021800D01*
X64819256Y-122128955D01*
X64859622Y-122257906D01*
X64886529Y-122425518D01*
X64904157Y-122648660D01*
X64916685Y-122944198D01*
X64925013Y-123215400D01*
X64937976Y-123710319D01*
X64948221Y-124201315D01*
X64955744Y-124677975D01*
X64960540Y-125129892D01*
X64962603Y-125546653D01*
X64961930Y-125917850D01*
X64958515Y-126233073D01*
X64952353Y-126481910D01*
X64943441Y-126653953D01*
X64931773Y-126738791D01*
X64926626Y-126746000D01*
X64867776Y-126731145D01*
X64725074Y-126689227D01*
X64511413Y-126624209D01*
X64239685Y-126540056D01*
X63922785Y-126440735D01*
X63573604Y-126330211D01*
X63542326Y-126320260D01*
X63108037Y-126178572D01*
X62686327Y-126034473D01*
X62289290Y-125892616D01*
X61929019Y-125757649D01*
X61617608Y-125634224D01*
X61367151Y-125526991D01*
X61189743Y-125440600D01*
X61098198Y-125380430D01*
X61076911Y-125321543D01*
X61038394Y-125177397D01*
X60986041Y-124962219D01*
X60923245Y-124690235D01*
X60853400Y-124375672D01*
X60804985Y-124151158D01*
X60731147Y-123806435D01*
X60661767Y-123485639D01*
X60600454Y-123205216D01*
X60550818Y-122981608D01*
X60516467Y-122831262D01*
X60504836Y-122783600D01*
X60465876Y-122621375D01*
X60416728Y-122396442D01*
X60360381Y-122124650D01*
X60299822Y-121821844D01*
X60238040Y-121503873D01*
X60178022Y-121186584D01*
X60122756Y-120885824D01*
X60075231Y-120617442D01*
X60038434Y-120397283D01*
X60015353Y-120241197D01*
X60008977Y-120165029D01*
X60010245Y-120160421D01*
X60077681Y-120157268D01*
X60077681Y-119299278D01*
X59791599Y-119211696D01*
X59791599Y-118836056D01*
X59791600Y-118460415D01*
X59967440Y-118386944D01*
X60093956Y-118354366D01*
X60310087Y-118322503D01*
X60603852Y-118292747D01*
X60963267Y-118266491D01*
X61046940Y-118261496D01*
X61422808Y-118239682D01*
X61842006Y-118215039D01*
X62261780Y-118190097D01*
X62639375Y-118167388D01*
X62764759Y-118159759D01*
X63230564Y-118133165D01*
X63607365Y-118116502D01*
X63907309Y-118110136D01*
X63907309Y-117706616D01*
X63842670Y-117707713D01*
X63549539Y-117718184D01*
X63231972Y-117733602D01*
X62941200Y-117751456D01*
X62644461Y-117769893D01*
X62283230Y-117789123D01*
X61894580Y-117807350D01*
X61515585Y-117822778D01*
X61345313Y-117828749D01*
X60818259Y-117854306D01*
X60385642Y-117894346D01*
X60041098Y-117950642D01*
X59778263Y-118024963D01*
X59590771Y-118119081D01*
X59472259Y-118234768D01*
X59417999Y-118365103D01*
X59382865Y-118662131D01*
X59390651Y-118957266D01*
X59437291Y-119225805D01*
X59518717Y-119443046D01*
X59616807Y-119572937D01*
X59703205Y-119655915D01*
X59718242Y-119712748D01*
X59671137Y-119779175D01*
X59670267Y-119780137D01*
X59614792Y-119892789D01*
X59588785Y-120049698D01*
X59588399Y-120070158D01*
X59599134Y-120180494D01*
X59630421Y-120382980D01*
X59680882Y-120670563D01*
X59749140Y-121036188D01*
X59833819Y-121472800D01*
X59933541Y-121973344D01*
X60046929Y-122530767D01*
X60172607Y-123138013D01*
X60309196Y-123788028D01*
X60370771Y-124078124D01*
X60436848Y-124392592D01*
X60493858Y-124671790D01*
X60538950Y-124901084D01*
X60569272Y-125065841D01*
X60581972Y-125151426D01*
X60581611Y-125160121D01*
X60528064Y-125149301D01*
X60403472Y-125098954D01*
X60226018Y-125018142D01*
X60013887Y-124915930D01*
X59785261Y-124801381D01*
X59558323Y-124683558D01*
X59351256Y-124571524D01*
X59182243Y-124474342D01*
X59095076Y-124419166D01*
X58885818Y-124263192D01*
X58710054Y-124105950D01*
X58584134Y-123964131D01*
X58524406Y-123854429D01*
X58521733Y-123833802D01*
X58507041Y-123767602D01*
X58467110Y-123625214D01*
X58408297Y-123427013D01*
X58336958Y-123193374D01*
X58259450Y-122944670D01*
X58182130Y-122701278D01*
X58111356Y-122483570D01*
X58053485Y-122311922D01*
X58014872Y-122206708D01*
X58011785Y-122199400D01*
X57970026Y-122087114D01*
X57914106Y-121908286D01*
X57842503Y-121657317D01*
X57753698Y-121328605D01*
X57646171Y-120916551D01*
X57518403Y-120415555D01*
X57402046Y-119952766D01*
X57264008Y-119394017D01*
X57152638Y-118927056D01*
X57066750Y-118545962D01*
X57005157Y-118244815D01*
X56966672Y-118017697D01*
X56950107Y-117858688D01*
X56954275Y-117761867D01*
X56959220Y-117744507D01*
X56993378Y-117710273D01*
X57075693Y-117683866D01*
X57220747Y-117662915D01*
X57443122Y-117645051D01*
X57640864Y-117633721D01*
X57986915Y-117616787D01*
X58414220Y-117597556D01*
X58902482Y-117576828D01*
X59431403Y-117555404D01*
X59980685Y-117534083D01*
X60530031Y-117513665D01*
X61059141Y-117494950D01*
X61547719Y-117478739D01*
X61671200Y-117474860D01*
X61978511Y-117464375D01*
X62257924Y-117453043D01*
X62490660Y-117441766D01*
X62657939Y-117431447D01*
X62738000Y-117423555D01*
X62833236Y-117411820D01*
X63007681Y-117394806D01*
X63239201Y-117374514D01*
X63505667Y-117352942D01*
X63600988Y-117345618D01*
X63855529Y-117325539D01*
X64062457Y-117303442D01*
X64237766Y-117272078D01*
X64397448Y-117224195D01*
X64557498Y-117152543D01*
X64733908Y-117049871D01*
X64942673Y-116908928D01*
X65199786Y-116722465D01*
X65521240Y-116483229D01*
X65549060Y-116462456D01*
X65908277Y-116198733D01*
X66203229Y-115991772D01*
X66430756Y-115843603D01*
X66587701Y-115756255D01*
X66670901Y-115731757D01*
X66670901Y-115219465D01*
X66550839Y-115306895D01*
X66353781Y-115431379D01*
X66319400Y-115452466D01*
X66086023Y-115599388D01*
X65846035Y-115757111D01*
X65637529Y-115900361D01*
X65561176Y-115955547D01*
X65414105Y-116061130D01*
X65302139Y-116135049D01*
X65246515Y-116163410D01*
X65244321Y-116162854D01*
X65264250Y-116115922D01*
X65333326Y-116000245D01*
X65441944Y-115829971D01*
X65580502Y-115619248D01*
X65739399Y-115382223D01*
X65909030Y-115133046D01*
X66079795Y-114885864D01*
X66242089Y-114654824D01*
X66386311Y-114454076D01*
X66502859Y-114297766D01*
X66554745Y-114232125D01*
X66896830Y-113820988D01*
X67183450Y-113488058D01*
X67413871Y-113234093D01*
X67587358Y-113059856D01*
X67703178Y-112966106D01*
X67760597Y-112953605D01*
X67760597Y-111547806D01*
X67742676Y-111727309D01*
X67738588Y-111777168D01*
X67724716Y-111939736D01*
X67705881Y-112073605D01*
X67673833Y-112192921D01*
X67620322Y-112311828D01*
X67537099Y-112444473D01*
X67415914Y-112605002D01*
X67248519Y-112807559D01*
X67026664Y-113066291D01*
X66904283Y-113207800D01*
X66530825Y-113646562D01*
X66210455Y-114040243D01*
X65923396Y-114414570D01*
X65649876Y-114795269D01*
X65390403Y-115177467D01*
X65238080Y-115404334D01*
X65103061Y-115600527D01*
X64996239Y-115750591D01*
X64928510Y-115839067D01*
X64912419Y-115855568D01*
X64887157Y-115833733D01*
X64890274Y-115734850D01*
X64893365Y-115714700D01*
X65043250Y-114822429D01*
X65194163Y-113943886D01*
X65343915Y-113091086D01*
X65490315Y-112276043D01*
X65631174Y-111510769D01*
X65764302Y-110807279D01*
X65887510Y-110177587D01*
X65998606Y-109633706D01*
X66021622Y-109524800D01*
X66094368Y-109191902D01*
X66181874Y-108805948D01*
X66280824Y-108380384D01*
X66387897Y-107928656D01*
X66499776Y-107464210D01*
X66613141Y-107000490D01*
X66724674Y-106550943D01*
X66831057Y-106129014D01*
X66928970Y-105748149D01*
X67015094Y-105421795D01*
X67086112Y-105163395D01*
X67138704Y-104986397D01*
X67150747Y-104950160D01*
X67261186Y-104683254D01*
X67404720Y-104409053D01*
X67565557Y-104152391D01*
X67727905Y-103938101D01*
X67875971Y-103791017D01*
X67898210Y-103774740D01*
X68108376Y-103651822D01*
X68363398Y-103534030D01*
X68631774Y-103433013D01*
X68882001Y-103360421D01*
X69082576Y-103327905D01*
X69108439Y-103327200D01*
X69108439Y-102912810D01*
X69085115Y-102910151D01*
X69068308Y-102873346D01*
X69131990Y-102803095D01*
X69280046Y-102692110D01*
X69312311Y-102669750D01*
X69479826Y-102560808D01*
X69587485Y-102515622D01*
X69587485Y-102054362D01*
X69508788Y-102096275D01*
X69266432Y-102235812D01*
X68989558Y-102402749D01*
X68694503Y-102586937D01*
X68397604Y-102778229D01*
X68115198Y-102966479D01*
X67863622Y-103141538D01*
X67716400Y-103249448D01*
X67590132Y-103344457D01*
X67475976Y-103428093D01*
X67365738Y-103503942D01*
X67251222Y-103575591D01*
X67124235Y-103646626D01*
X67018932Y-103699406D01*
X67018932Y-104191360D01*
X67022732Y-104230702D01*
X66986172Y-104330369D01*
X66961876Y-104381300D01*
X66912666Y-104499444D01*
X66844301Y-104691584D01*
X66764820Y-104933822D01*
X66682264Y-105202259D01*
X66658486Y-105283000D01*
X66406036Y-106189635D01*
X66151099Y-107182479D01*
X65896990Y-108246308D01*
X65647024Y-109365897D01*
X65404515Y-110526020D01*
X65172778Y-111711453D01*
X64955128Y-112906971D01*
X64800441Y-113817400D01*
X64696455Y-114448523D01*
X64607127Y-114986813D01*
X64530873Y-115439732D01*
X64466108Y-115814739D01*
X64411246Y-116119295D01*
X64364703Y-116360860D01*
X64324893Y-116546896D01*
X64290231Y-116684862D01*
X64259133Y-116782220D01*
X64230013Y-116846429D01*
X64201287Y-116884951D01*
X64171369Y-116905245D01*
X64142555Y-116914001D01*
X64058725Y-116923361D01*
X63887634Y-116936306D01*
X63643527Y-116952107D01*
X63340651Y-116970034D01*
X62993252Y-116989360D01*
X62615578Y-117009355D01*
X62221874Y-117029291D01*
X61826388Y-117048438D01*
X61443365Y-117066067D01*
X61087052Y-117081450D01*
X60771696Y-117093858D01*
X60511543Y-117102562D01*
X60401200Y-117105417D01*
X59766200Y-117119400D01*
X59751527Y-116992400D01*
X59757573Y-116911160D01*
X59781961Y-116741878D01*
X59822487Y-116496010D01*
X59876948Y-116185013D01*
X59943143Y-115820347D01*
X60018867Y-115413468D01*
X60101919Y-114975835D01*
X60190096Y-114518905D01*
X60281194Y-114054135D01*
X60373012Y-113592985D01*
X60463346Y-113146911D01*
X60549994Y-112727371D01*
X60630752Y-112345823D01*
X60703419Y-112013725D01*
X60737918Y-111861600D01*
X60905248Y-111147826D01*
X61094003Y-110364723D01*
X61297174Y-109540500D01*
X61507747Y-108703367D01*
X61718711Y-107881533D01*
X61883631Y-107251856D01*
X62195983Y-106071112D01*
X62619473Y-105868927D01*
X62788443Y-105793256D01*
X63033409Y-105690332D01*
X63335004Y-105567948D01*
X63673861Y-105433899D01*
X64030611Y-105295978D01*
X64249381Y-105213034D01*
X64596344Y-105082283D01*
X64927387Y-104957038D01*
X65225651Y-104843715D01*
X65474277Y-104748731D01*
X65656405Y-104678503D01*
X65735200Y-104647548D01*
X65916872Y-104576964D01*
X66134341Y-104495616D01*
X66366347Y-104411059D01*
X66591629Y-104330849D01*
X66788929Y-104262539D01*
X66936987Y-104213686D01*
X67014544Y-104191843D01*
X67018932Y-104191360D01*
X67018932Y-103699406D01*
X66976580Y-103720634D01*
X66800063Y-103801202D01*
X66586490Y-103891916D01*
X66327665Y-103996362D01*
X66015395Y-104118127D01*
X65641483Y-104260799D01*
X65197735Y-104427962D01*
X64675957Y-104623205D01*
X64067953Y-104850113D01*
X64008000Y-104872480D01*
X63526693Y-105055164D01*
X63101845Y-105224309D01*
X62708180Y-105391283D01*
X62320422Y-105567456D01*
X61913292Y-105764198D01*
X61592138Y-105926759D01*
X61592138Y-106381139D01*
X61617354Y-106383207D01*
X61620400Y-106393411D01*
X61608698Y-106445146D01*
X61575365Y-106584604D01*
X61523061Y-106800858D01*
X61454443Y-107082977D01*
X61372171Y-107420033D01*
X61278904Y-107801095D01*
X61177301Y-108215234D01*
X61166228Y-108260311D01*
X61053968Y-108719046D01*
X60941449Y-109182124D01*
X60832951Y-109631698D01*
X60732753Y-110049921D01*
X60645135Y-110418947D01*
X60574375Y-110720929D01*
X60534104Y-110896400D01*
X60449879Y-111274757D01*
X60356185Y-111705529D01*
X60255668Y-112175734D01*
X60150975Y-112672390D01*
X60044750Y-113182516D01*
X59939640Y-113693132D01*
X59838292Y-114191255D01*
X59743351Y-114663905D01*
X59657463Y-115098100D01*
X59583276Y-115480860D01*
X59523434Y-115799203D01*
X59480583Y-116040148D01*
X59462349Y-116154200D01*
X59404430Y-116524738D01*
X59352115Y-116800442D01*
X59303863Y-116987825D01*
X59258135Y-117093400D01*
X59234245Y-117118506D01*
X59212312Y-117128062D01*
X59172265Y-117136729D01*
X59102924Y-117145285D01*
X58993111Y-117154512D01*
X58831646Y-117165187D01*
X58607351Y-117178092D01*
X58309045Y-117194005D01*
X57925552Y-117213706D01*
X57718707Y-117224192D01*
X56992014Y-117260943D01*
X57019113Y-117139371D01*
X57036955Y-117047709D01*
X57067901Y-116876901D01*
X57108218Y-116648000D01*
X57154175Y-116382056D01*
X57175720Y-116255800D01*
X57241245Y-115885048D01*
X57314124Y-115503127D01*
X57397018Y-115098189D01*
X57492589Y-114658388D01*
X57603498Y-114171875D01*
X57732406Y-113626803D01*
X57881974Y-113011326D01*
X58054864Y-112313596D01*
X58117107Y-112064800D01*
X58272237Y-111452272D01*
X58424398Y-110863556D01*
X58571107Y-110307578D01*
X58709876Y-109793268D01*
X58838222Y-109329555D01*
X58953658Y-108925367D01*
X59053701Y-108589633D01*
X59135864Y-108331281D01*
X59197662Y-108159241D01*
X59215910Y-108117041D01*
X59353938Y-107888530D01*
X59554655Y-107658976D01*
X59825348Y-107422514D01*
X60173308Y-107173285D01*
X60605822Y-106905426D01*
X60995888Y-106685613D01*
X61245351Y-106550374D01*
X61419183Y-106458619D01*
X61530430Y-106404242D01*
X61592138Y-106381139D01*
X61592138Y-105926759D01*
X61461514Y-105992878D01*
X61103498Y-106178921D01*
X60669745Y-106409507D01*
X60314571Y-106607226D01*
X60024134Y-106781410D01*
X59784591Y-106941392D01*
X59582101Y-107096507D01*
X59402821Y-107256085D01*
X59232909Y-107429462D01*
X59207020Y-107457624D01*
X59110493Y-107564471D01*
X59029010Y-107661188D01*
X58958346Y-107758678D01*
X58894276Y-107867845D01*
X58832575Y-107999592D01*
X58769019Y-108164822D01*
X58699384Y-108374438D01*
X58619445Y-108639343D01*
X58524976Y-108970441D01*
X58411754Y-109378634D01*
X58287953Y-109829600D01*
X58070033Y-110636920D01*
X57858979Y-111443051D01*
X57656754Y-112239266D01*
X57465319Y-113016838D01*
X57286636Y-113767040D01*
X57122669Y-114481144D01*
X56975378Y-115150424D01*
X56846725Y-115766151D01*
X56738674Y-116319599D01*
X56653185Y-116802041D01*
X56592221Y-117204749D01*
X56557743Y-117518996D01*
X56556994Y-117528912D01*
X56549486Y-117661527D01*
X56548582Y-117792581D01*
X56556268Y-117932900D01*
G37*
X56556268Y-117932900D02*
X56574530Y-118093308D01*
X56605354Y-118284632D01*
X56650726Y-118517696D01*
X56712632Y-118803325D01*
X56793059Y-119152345D01*
X56893993Y-119575580D01*
X57017419Y-120083855D01*
X57050908Y-120220918D01*
X57133499Y-120545741D01*
X57232939Y-120915744D01*
X57345309Y-121318123D01*
X57466687Y-121740077D01*
X57593155Y-122168802D01*
X57720793Y-122591496D01*
X57845680Y-122995355D01*
X57963896Y-123367577D01*
X58071523Y-123695359D01*
X58164639Y-123965898D01*
X58239326Y-124166391D01*
X58291662Y-124284035D01*
X58298401Y-124295415D01*
X58416211Y-124432583D01*
X58606540Y-124587857D01*
X58873222Y-124763391D01*
X59220093Y-124961340D01*
X59650987Y-125183859D01*
X60169740Y-125433103D01*
X60780185Y-125711226D01*
X60960000Y-125791010D01*
X61651070Y-126081538D01*
X62399076Y-126367421D01*
X63213232Y-126651770D01*
X64102753Y-126937697D01*
X65076853Y-127228314D01*
X65913000Y-127463467D01*
X66322743Y-127567502D01*
X66754154Y-127662103D01*
X67183353Y-127743119D01*
X67586460Y-127806400D01*
X67939596Y-127847793D01*
X68212162Y-127863111D01*
X68285938Y-127896166D01*
X68394364Y-127978467D01*
X68435596Y-128016000D01*
X68518792Y-128089768D01*
X68597571Y-128134860D01*
X68699658Y-128158306D01*
X68852781Y-128167136D01*
X69036702Y-128168400D01*
X69265503Y-128171053D01*
X69557380Y-128178267D01*
X69873969Y-128188925D01*
X70162710Y-128201222D01*
X70847084Y-128234044D01*
X71097842Y-127997502D01*
X71242797Y-127871533D01*
X71374846Y-127775090D01*
X71459402Y-127731451D01*
X71550390Y-127726831D01*
X71718640Y-127735560D01*
X71940947Y-127755869D01*
X72194104Y-127785990D01*
X72219517Y-127789379D01*
X72626512Y-127832691D01*
X73027566Y-127854254D01*
X73403723Y-127854575D01*
X73736029Y-127834163D01*
X74005530Y-127793526D01*
X74186093Y-127736662D01*
X74334856Y-127631125D01*
X74466215Y-127459016D01*
X74585393Y-127210441D01*
X74697616Y-126875511D01*
X74757201Y-126655105D01*
X74835500Y-126307887D01*
X74872124Y-126039382D01*
X74867355Y-125835767D01*
X74821475Y-125683225D01*
X74778403Y-125615559D01*
X74638626Y-125490666D01*
X74490986Y-125444895D01*
X74358260Y-125482467D01*
X74308774Y-125528542D01*
X74229684Y-125663382D01*
X74243929Y-125762885D01*
X74352538Y-125834161D01*
X74353007Y-125834340D01*
X74425043Y-125867191D01*
X74462289Y-125913709D01*
X74472138Y-126000653D01*
X74461982Y-126154784D01*
X74456872Y-126210292D01*
X74427398Y-126418317D01*
X74382963Y-126616306D01*
X74346946Y-126725691D01*
X74267362Y-126916162D01*
X74103381Y-126760357D01*
X73961487Y-126641839D01*
X73794192Y-126537735D01*
X73583298Y-126439674D01*
X73310606Y-126339285D01*
X72957919Y-126228197D01*
X72925409Y-126218510D01*
X72693561Y-126148032D01*
X72498664Y-126085728D01*
X72360671Y-126038190D01*
X72299533Y-126012011D01*
X72298969Y-126011503D01*
X72298564Y-125951952D01*
X72325569Y-125823349D01*
X72374226Y-125652674D01*
X72378265Y-125639940D01*
X72445073Y-125422226D01*
X72528404Y-125137138D01*
X72625170Y-124796346D01*
X72732285Y-124411522D01*
X72846659Y-123994337D01*
X72965206Y-123556461D01*
X73084839Y-123109566D01*
X73202469Y-122665323D01*
X73315009Y-122235402D01*
X73419371Y-121831475D01*
X73512468Y-121465212D01*
X73591212Y-121148286D01*
X73652516Y-120892366D01*
X73693292Y-120709123D01*
X73710452Y-120610229D01*
X73710800Y-120602999D01*
X73727323Y-120518672D01*
X73796439Y-120510378D01*
X73825100Y-120517540D01*
X74073558Y-120569087D01*
X74405444Y-120610942D01*
X74802905Y-120641460D01*
X75248090Y-120658995D01*
X75387710Y-120661471D01*
X75828780Y-120658255D01*
X76183109Y-120632330D01*
X76464100Y-120578126D01*
X76685156Y-120490073D01*
X76859680Y-120362600D01*
X77001076Y-120190136D01*
X77122747Y-119967110D01*
X77137831Y-119934075D01*
X77225495Y-119695204D01*
X77310147Y-119387571D01*
X77384878Y-119043941D01*
X77442783Y-118697078D01*
X77476955Y-118379744D01*
X77481121Y-118305610D01*
X77482435Y-118108765D01*
X77460250Y-117973404D01*
X77406278Y-117860558D01*
X77377410Y-117817854D01*
X77256667Y-117690604D01*
X77133517Y-117659693D01*
X76989066Y-117721207D01*
X76970805Y-117733630D01*
X76855404Y-117814460D01*
X76991730Y-117993192D01*
X77128055Y-118171924D01*
X77011728Y-118775962D01*
X76964996Y-119008367D01*
X76922839Y-119199322D01*
X76889775Y-119329587D01*
X76870321Y-119379921D01*
X76869893Y-119380000D01*
X76819432Y-119351514D01*
X76712839Y-119277158D01*
X76585692Y-119182473D01*
X76308694Y-118993303D01*
X75999333Y-118827825D01*
X75643378Y-118680776D01*
X75226596Y-118546891D01*
X74734755Y-118420908D01*
X74238698Y-118314429D01*
X73781411Y-118227761D01*
X73400077Y-118167873D01*
X73073126Y-118133057D01*
X72778987Y-118121604D01*
X72771000Y-118121892D01*
X72771000Y-118545288D01*
X73245255Y-118568826D01*
X73764189Y-118636918D01*
X74340691Y-118751848D01*
X74987649Y-118915899D01*
X75198312Y-118975296D01*
X75624762Y-119111912D01*
X75961905Y-119253200D01*
X76221996Y-119406592D01*
X76417289Y-119579522D01*
X76560040Y-119779423D01*
X76577474Y-119811800D01*
X76638942Y-119941728D01*
X76646032Y-120018364D01*
X76594715Y-120076659D01*
X76542900Y-120111787D01*
X76384828Y-120174688D01*
X76144379Y-120220205D01*
X75839283Y-120248313D01*
X75487268Y-120258989D01*
X75106064Y-120252209D01*
X74713399Y-120227947D01*
X74327003Y-120186179D01*
X73964605Y-120126881D01*
X73908364Y-120115414D01*
X73628043Y-120046886D01*
X73294807Y-119950569D01*
X72937887Y-119836309D01*
X72586515Y-119713948D01*
X72269919Y-119593333D01*
X72017330Y-119484308D01*
X71978381Y-119465415D01*
X71783760Y-119357985D01*
X71658121Y-119256916D01*
X71573464Y-119138292D01*
X71556346Y-119104990D01*
X71459292Y-118906181D01*
X71595256Y-118789230D01*
X71746607Y-118687091D01*
X71936415Y-118615218D01*
X72181339Y-118570154D01*
X72498039Y-118548443D01*
X72771000Y-118545288D01*
X72771000Y-118121892D01*
X72496089Y-118131808D01*
X72245381Y-118156596D01*
X71853251Y-118229014D01*
X71533301Y-118338963D01*
X71292071Y-118482350D01*
X71136100Y-118655086D01*
X71071925Y-118853079D01*
X71070631Y-118891550D01*
X71094758Y-119032737D01*
X71154035Y-119205706D01*
X71187352Y-119278400D01*
X71287865Y-119429115D01*
X71443779Y-119583340D01*
X71666776Y-119750466D01*
X71968536Y-119939885D01*
X72116469Y-120025451D01*
X72313800Y-120137502D01*
X72073570Y-120139751D01*
X71937389Y-120126917D01*
X71726526Y-120090400D01*
X71463603Y-120035740D01*
X71325111Y-120003879D01*
X71325111Y-120523000D01*
X72200455Y-120532258D01*
X72491290Y-120535491D01*
X72748346Y-120538643D01*
X72953711Y-120541473D01*
X73089477Y-120543735D01*
X73135671Y-120544958D01*
X73218231Y-120580886D01*
X73270975Y-120623832D01*
X73313273Y-120684450D01*
X73319213Y-120767089D01*
X73289755Y-120905316D01*
X73280043Y-120941332D01*
X73252766Y-121040922D01*
X73201802Y-121227082D01*
X73130280Y-121488382D01*
X73041327Y-121813394D01*
X72938072Y-122190689D01*
X72823642Y-122608840D01*
X72701164Y-123056417D01*
X72624039Y-123338272D01*
X72500827Y-123790016D01*
X72386344Y-124212565D01*
X72283323Y-124595628D01*
X72194496Y-124928914D01*
X72122597Y-125202132D01*
X72070357Y-125404989D01*
X72040511Y-125527194D01*
X72034400Y-125558985D01*
X72006879Y-125629706D01*
X71917987Y-125683894D01*
X71758227Y-125723727D01*
X71518102Y-125751383D01*
X71188117Y-125769041D01*
X71107300Y-125771660D01*
X71022277Y-125773169D01*
X71022277Y-126348123D01*
X71342966Y-126355346D01*
X71851927Y-126399089D01*
X72341060Y-126477327D01*
X72795055Y-126585521D01*
X73198600Y-126719135D01*
X73536383Y-126873629D01*
X73793093Y-127044466D01*
X73853036Y-127099252D01*
X73966339Y-127231969D01*
X73992635Y-127323857D01*
X73932156Y-127386172D01*
X73859433Y-127412635D01*
X73673326Y-127441262D01*
X73407701Y-127450406D01*
X73082330Y-127442125D01*
X72716987Y-127418478D01*
X72331442Y-127381522D01*
X71945469Y-127333316D01*
X71578839Y-127275918D01*
X71251326Y-127211386D01*
X70982701Y-127141778D01*
X70864036Y-127100825D01*
X70553979Y-126968349D01*
X70301051Y-126839598D01*
X70134483Y-126733728D01*
X70134483Y-127563009D01*
X70264766Y-127568546D01*
X70444900Y-127582205D01*
X70490966Y-127586393D01*
X70885489Y-127623363D01*
X70765790Y-127720288D01*
X70668000Y-127777691D01*
X70538880Y-127803006D01*
X70344739Y-127802675D01*
X70336946Y-127802307D01*
X70166430Y-127790646D01*
X70075848Y-127770888D01*
X70043533Y-127734377D01*
X70045329Y-127685800D01*
X70066998Y-127594766D01*
X70079651Y-127566811D01*
X70134483Y-127563009D01*
X70134483Y-126733728D01*
X70113637Y-126720478D01*
X70000123Y-126616896D01*
X69968895Y-126534758D01*
X70000919Y-126492914D01*
X70154453Y-126433533D01*
X70389061Y-126388254D01*
X70684938Y-126359107D01*
X71022277Y-126348123D01*
X71022277Y-125773169D01*
X70854275Y-125776152D01*
X70642145Y-125774212D01*
X70489217Y-125766446D01*
X70413798Y-125753463D01*
X70409019Y-125748464D01*
X70417710Y-125688930D01*
X70442152Y-125542476D01*
X70480071Y-125322172D01*
X70529197Y-125041088D01*
X70587258Y-124712293D01*
X70651981Y-124348857D01*
X70663907Y-124282200D01*
X70740315Y-123852991D01*
X70820064Y-123400694D01*
X70898627Y-122951280D01*
X70971480Y-122530723D01*
X71034096Y-122164994D01*
X71071102Y-121945400D01*
X71123800Y-121632244D01*
X71174625Y-121335242D01*
X71219731Y-121076485D01*
X71255277Y-120878062D01*
X71274370Y-120777000D01*
X71325111Y-120523000D01*
X71325111Y-120003879D01*
X71171245Y-119968480D01*
X70872075Y-119894159D01*
X70588716Y-119818318D01*
X70343793Y-119746499D01*
X70159929Y-119684242D01*
X70087338Y-119653288D01*
X69972548Y-119578262D01*
X69818267Y-119454818D01*
X69760872Y-119403050D01*
X69760872Y-119981873D01*
X69904979Y-120024751D01*
X70107563Y-120110556D01*
X70318736Y-120203181D01*
X70525480Y-120286409D01*
X70686716Y-120343791D01*
X70700900Y-120348113D01*
X70827570Y-120393004D01*
X70893937Y-120449779D01*
X70909689Y-120543858D01*
X70884517Y-120700659D01*
X70866255Y-120781896D01*
X70844997Y-120886956D01*
X70809662Y-121076627D01*
X70763030Y-121335332D01*
X70707879Y-121647489D01*
X70646988Y-121997519D01*
X70585375Y-122356696D01*
X70510748Y-122791971D01*
X70429259Y-123262466D01*
X70346141Y-123738295D01*
X70266625Y-124189573D01*
X70195943Y-124586415D01*
X70163790Y-124764800D01*
X69975023Y-125806200D01*
X69537055Y-125863930D01*
X69382401Y-125888258D01*
X69382401Y-126292664D01*
X69495190Y-126297124D01*
X69532921Y-126338256D01*
X69521822Y-126446670D01*
X69520545Y-126453900D01*
X69525842Y-126631510D01*
X69594109Y-126771400D01*
X69673622Y-126899992D01*
X69685581Y-126961738D01*
X69626266Y-126968831D01*
X69540321Y-126947800D01*
X69364187Y-126882270D01*
X69183590Y-126791094D01*
X69022979Y-126689781D01*
X68913679Y-126599519D01*
X68913679Y-127203597D01*
X68985745Y-127216539D01*
X69122728Y-127250030D01*
X69292230Y-127295433D01*
X69461849Y-127344114D01*
X69583300Y-127382077D01*
X69630164Y-127401857D01*
X69641444Y-127438603D01*
X69618231Y-127523346D01*
X69591030Y-127602019D01*
X69547969Y-127700101D01*
X69486623Y-127746792D01*
X69372801Y-127760736D01*
X69298930Y-127761306D01*
X69081482Y-127755321D01*
X68946765Y-127730348D01*
X68876092Y-127673526D01*
X68850781Y-127571995D01*
X68850536Y-127452675D01*
X68865613Y-127309384D01*
X68894259Y-127219315D01*
X68913679Y-127203597D01*
X68913679Y-126599519D01*
X68906805Y-126593842D01*
X68859517Y-126518785D01*
X68859400Y-126515859D01*
X68905822Y-126436601D01*
X69027663Y-126365516D01*
X69198788Y-126313757D01*
X69382401Y-126292664D01*
X69382401Y-125888258D01*
X69185643Y-125919210D01*
X68920878Y-125982692D01*
X68727873Y-126058904D01*
X68593477Y-126150781D01*
X68490045Y-126299909D01*
X68442969Y-126483519D01*
X68461663Y-126657237D01*
X68478109Y-126694658D01*
X68512648Y-126773963D01*
X68478393Y-126787134D01*
X68419260Y-126772020D01*
X68218648Y-126677353D01*
X68062717Y-126534701D01*
X67997280Y-126419292D01*
X67974707Y-126310203D01*
X68018183Y-126231727D01*
X68073480Y-126185591D01*
X68219313Y-126097563D01*
X68433002Y-126006464D01*
X68728674Y-125906511D01*
X68833555Y-125874509D01*
X68968978Y-125828613D01*
X69041277Y-125774279D01*
X69077397Y-125678489D01*
X69098318Y-125550055D01*
X69111547Y-125442253D01*
X69133940Y-125241345D01*
X69164673Y-124955334D01*
X69202921Y-124592221D01*
X69247860Y-124160009D01*
X69298665Y-123666699D01*
X69354513Y-123120293D01*
X69414578Y-122528795D01*
X69478036Y-121900205D01*
X69544064Y-121242526D01*
X69606827Y-120614054D01*
X69632423Y-120380838D01*
X69658479Y-120183638D01*
X69681700Y-120045278D01*
X69696834Y-119990838D01*
X69760872Y-119981873D01*
X69760872Y-119403050D01*
X69655336Y-119307858D01*
X69634100Y-119287322D01*
X69480024Y-119128871D01*
X69390052Y-119011257D01*
X69349274Y-118911446D01*
X69342000Y-118836127D01*
X69358117Y-118740583D01*
X69414343Y-118650230D01*
X69522486Y-118556010D01*
X69694354Y-118448863D01*
X69941757Y-118319727D01*
X70140269Y-118223693D01*
X70508265Y-118048933D01*
X71411032Y-118038826D01*
X71750027Y-118033701D01*
X72013088Y-118025046D01*
X72225880Y-118009996D01*
X72414066Y-117985684D01*
X72603311Y-117949245D01*
X72819278Y-117897812D01*
X72932303Y-117868939D01*
X73458608Y-117712633D01*
X73886976Y-117540386D01*
X74220041Y-117350692D01*
X74460435Y-117142040D01*
X74610791Y-116912922D01*
X74614076Y-116905397D01*
X74665085Y-116755045D01*
X74730614Y-116509132D01*
X74809702Y-116172512D01*
X74901387Y-115750038D01*
X75004710Y-115246563D01*
X75118709Y-114666941D01*
X75242424Y-114016025D01*
X75374894Y-113298669D01*
X75515158Y-112519725D01*
X75662256Y-111684047D01*
X75763336Y-111099600D01*
X75819734Y-110776362D01*
X75890790Y-110377072D01*
X75972193Y-109925489D01*
X76059634Y-109445375D01*
X76148801Y-108960490D01*
X76235385Y-108494595D01*
X76251748Y-108407200D01*
X76379091Y-107725258D01*
X76488117Y-107134818D01*
X76580132Y-106627693D01*
X76656439Y-106195696D01*
X76718344Y-105830641D01*
X76767149Y-105524342D01*
X76804160Y-105268613D01*
X76830680Y-105055267D01*
X76848015Y-104876117D01*
X76857469Y-104722978D01*
X76860345Y-104587662D01*
X76860345Y-104587498D01*
X76853958Y-104358541D01*
X76836039Y-104195485D01*
X76808543Y-104114917D01*
X76804176Y-104111248D01*
X76773728Y-104066396D01*
X76824874Y-104032005D01*
X76937713Y-104013929D01*
X77092343Y-104018022D01*
X77113261Y-104020341D01*
X77370571Y-104063873D01*
X77676644Y-104134635D01*
X77995466Y-104222581D01*
X78291023Y-104317663D01*
X78527303Y-104409834D01*
X78554789Y-104422495D01*
X78877490Y-104629845D01*
X79135948Y-104915429D01*
X79329514Y-105278247D01*
X79457540Y-105717297D01*
X79481281Y-105851980D01*
X79482860Y-106126961D01*
X79419249Y-106441545D01*
X79301750Y-106768466D01*
X79141667Y-107080457D01*
X78950302Y-107350253D01*
X78795434Y-107506504D01*
X78666090Y-107582314D01*
X78470950Y-107659983D01*
X78245043Y-107728856D01*
X78023399Y-107778278D01*
X77841048Y-107797593D01*
X77838431Y-107797600D01*
X77706979Y-107841524D01*
X77630638Y-107952951D01*
X77622400Y-108012217D01*
X77666877Y-108106537D01*
X77787815Y-108165044D01*
X77966473Y-108187412D01*
X78184111Y-108173314D01*
X78421989Y-108122425D01*
X78661366Y-108034418D01*
X78669987Y-108030455D01*
X79032873Y-107807156D01*
X79342073Y-107501325D01*
X79591541Y-107120168D01*
X79753123Y-106739340D01*
X79820689Y-106445062D01*
X79851733Y-106098605D01*
X79845334Y-105742950D01*
X79800568Y-105421078D01*
X79782936Y-105349695D01*
X79629790Y-104932000D01*
X79416298Y-104589561D01*
X79131420Y-104308798D01*
X78764116Y-104076135D01*
X78735703Y-104061636D01*
X78297862Y-103865618D01*
X77874866Y-103732805D01*
X77416716Y-103648185D01*
X77317600Y-103635854D01*
X77028675Y-103601901D01*
X76824740Y-103573912D01*
X76689954Y-103545377D01*
X76608475Y-103509784D01*
X76564461Y-103460619D01*
X76542071Y-103391373D01*
X76528122Y-103311326D01*
X76481943Y-103112383D01*
X76405669Y-102939565D01*
X76281464Y-102759278D01*
X76155636Y-102609717D01*
X76046409Y-102491500D01*
X75953135Y-102416668D01*
X75843892Y-102369704D01*
X75686761Y-102335087D01*
X75542553Y-102311659D01*
X75326082Y-102285189D01*
X75126655Y-102273204D01*
X74982630Y-102277802D01*
X74967498Y-102280178D01*
X74843375Y-102286835D01*
X74716710Y-102248680D01*
X74551027Y-102154897D01*
X74377878Y-102065913D01*
X74148214Y-101975317D01*
X73896991Y-101894154D01*
X73659168Y-101833464D01*
X73469702Y-101804291D01*
X73437672Y-101803200D01*
X73378515Y-101812606D01*
X73378515Y-102242309D01*
X73680309Y-102248155D01*
X74015309Y-102348258D01*
X74384829Y-102542895D01*
X74515199Y-102628350D01*
X74650573Y-102715389D01*
X74748388Y-102750944D01*
X74852883Y-102743792D01*
X74959450Y-102716465D01*
X75252909Y-102680136D01*
X75553630Y-102721358D01*
X75743228Y-102794021D01*
X75914817Y-102936916D01*
X76053460Y-103172150D01*
X76160448Y-103501961D01*
X76167192Y-103530400D01*
X76225237Y-103746823D01*
X76295462Y-103962239D01*
X76345307Y-104089200D01*
X76414775Y-104328154D01*
X76448283Y-104634587D01*
X76444417Y-104980433D01*
X76406782Y-105308400D01*
X76388405Y-105413458D01*
X76353603Y-105607488D01*
X76304371Y-105879542D01*
X76242703Y-106218674D01*
X76170594Y-106613939D01*
X76090036Y-107054390D01*
X76003025Y-107529082D01*
X75911555Y-108027069D01*
X75902374Y-108077000D01*
X75793385Y-108671649D01*
X75674656Y-109322996D01*
X75550635Y-110006418D01*
X75425768Y-110697289D01*
X75304504Y-111370987D01*
X75191289Y-112002886D01*
X75090571Y-112568364D01*
X75058287Y-112750600D01*
X74919058Y-113527612D01*
X74788866Y-114233423D01*
X74668573Y-114863784D01*
X74559045Y-115414444D01*
X74461145Y-115881152D01*
X74375737Y-116259658D01*
X74303686Y-116545712D01*
X74251460Y-116719196D01*
X74135439Y-116903134D01*
X73920822Y-117072293D01*
X73609698Y-117225522D01*
X73204152Y-117361671D01*
X72981785Y-117419370D01*
X72736465Y-117479243D01*
X72511254Y-117536258D01*
X72334310Y-117583172D01*
X72246496Y-117608541D01*
X72126326Y-117637066D01*
X72053484Y-117636653D01*
X72049317Y-117633850D01*
X71986739Y-117629642D01*
X71938820Y-117647584D01*
X71858095Y-117660730D01*
X71699113Y-117665456D01*
X71484873Y-117661702D01*
X71238811Y-117649434D01*
X70879507Y-117618435D01*
X70608929Y-117572787D01*
X70414389Y-117503969D01*
X70283199Y-117403461D01*
X70202670Y-117262740D01*
X70160114Y-117073285D01*
X70146585Y-116915921D01*
X70124893Y-116692489D01*
X70076704Y-116523688D01*
X69985329Y-116378912D01*
X69834078Y-116227557D01*
X69794676Y-116194223D01*
X69794676Y-117529240D01*
X69923938Y-117650675D01*
X70010501Y-117740549D01*
X70052460Y-117800908D01*
X70053200Y-117805134D01*
X70010733Y-117841572D01*
X69899642Y-117904757D01*
X69751162Y-117977599D01*
X69429084Y-118143605D01*
X69199245Y-118303704D01*
X69053109Y-118464910D01*
X68989558Y-118603536D01*
X68939045Y-118849648D01*
X68948827Y-119041189D01*
X69024499Y-119209208D01*
X69120524Y-119330396D01*
X69217719Y-119447923D01*
X69272725Y-119534425D01*
X69277135Y-119563397D01*
X69218394Y-119556483D01*
X69104417Y-119497581D01*
X68956505Y-119401525D01*
X68795956Y-119283148D01*
X68644068Y-119157285D01*
X68522141Y-119038769D01*
X68519233Y-119035553D01*
X68375423Y-118835080D01*
X68278592Y-118617711D01*
X68239890Y-118414341D01*
X68253008Y-118298002D01*
X68365952Y-118095576D01*
X68570565Y-117916567D01*
X68858580Y-117766073D01*
X69221732Y-117649195D01*
X69352438Y-117619730D01*
X69794676Y-117529240D01*
X69794676Y-116194223D01*
X69717346Y-116128800D01*
X69596645Y-116020353D01*
X69516588Y-115930385D01*
X69497487Y-115892540D01*
X69517974Y-115822907D01*
X69575220Y-115688533D01*
X69658318Y-115514404D01*
X69689904Y-115451791D01*
X69771986Y-115267837D01*
X69873629Y-115002259D01*
X69988976Y-114671803D01*
X70112171Y-114293214D01*
X70231167Y-113904137D01*
X70576925Y-112738771D01*
X70810362Y-112566118D01*
X70930369Y-112466314D01*
X71037831Y-112348345D01*
X71140040Y-112198785D01*
X71244289Y-112004209D01*
X71357869Y-111751193D01*
X71488073Y-111426312D01*
X71620755Y-111074200D01*
X71845099Y-110437079D01*
X72053183Y-109785772D01*
X72240524Y-109137707D01*
X72402643Y-108510314D01*
X72535057Y-107921021D01*
X72633285Y-107387259D01*
X72692847Y-106926457D01*
X72695862Y-106892625D01*
X72722786Y-106583019D01*
X72752479Y-106249276D01*
X72780876Y-105936742D01*
X72799194Y-105740200D01*
X72817688Y-105448080D01*
X72824149Y-105122208D01*
X72817725Y-104821539D01*
X72813511Y-104750031D01*
X72794635Y-104518836D01*
X72772473Y-104364425D01*
X72740237Y-104262041D01*
X72691140Y-104186929D01*
X72646372Y-104140431D01*
X72530271Y-104039103D01*
X72428736Y-103965498D01*
X72423059Y-103962200D01*
X72389221Y-103936770D01*
X72367239Y-103894976D01*
X72356619Y-103820954D01*
X72356868Y-103698838D01*
X72367495Y-103512763D01*
X72388005Y-103246863D01*
X72397316Y-103133361D01*
X72461578Y-102355323D01*
X72699900Y-102388101D01*
X72900913Y-102396655D01*
X73064955Y-102351949D01*
X73108611Y-102330440D01*
X73378515Y-102242309D01*
X73378515Y-101812606D01*
X73325703Y-101821004D01*
X73172782Y-101865497D01*
X73122439Y-101883688D01*
X73020129Y-101918283D01*
X72921609Y-101936033D01*
X72801736Y-101936879D01*
X72635363Y-101920762D01*
X72397345Y-101887623D01*
X72358741Y-101881900D01*
X71787414Y-101807493D01*
X71377609Y-101774622D01*
X71377609Y-102186676D01*
X71584693Y-102189151D01*
X71724890Y-102197288D01*
X71815556Y-102213596D01*
X71874045Y-102240584D01*
X71917714Y-102280759D01*
X71943178Y-102311200D01*
X71999478Y-102396468D01*
X72025278Y-102494074D01*
X72025833Y-102637304D01*
X72015357Y-102768400D01*
X71998361Y-102979909D01*
X71986618Y-103184161D01*
X71983183Y-103301800D01*
X71971157Y-103488007D01*
X71930477Y-103582119D01*
X71850285Y-103592071D01*
X71719724Y-103525797D01*
X71696948Y-103510980D01*
X71485332Y-103396148D01*
X71220439Y-103288216D01*
X70938968Y-103199086D01*
X70677620Y-103140656D01*
X70503460Y-103124000D01*
X70467630Y-103123636D01*
X70467630Y-103539938D01*
X70819534Y-103593889D01*
X71209127Y-103735714D01*
X71632180Y-103964094D01*
X71840564Y-104100402D01*
X72014003Y-104215159D01*
X72167052Y-104308161D01*
X72271622Y-104362526D01*
X72285064Y-104367541D01*
X72328406Y-104387418D01*
X72357841Y-104426082D01*
X72376042Y-104500821D01*
X72385682Y-104628923D01*
X72389437Y-104827676D01*
X72390000Y-105045975D01*
X72385266Y-105321799D01*
X72372195Y-105664759D01*
X72352479Y-106040887D01*
X72327809Y-106416215D01*
X72311069Y-106630051D01*
X72279968Y-106992170D01*
X72252030Y-107280580D01*
X72222604Y-107520032D01*
X72187041Y-107735274D01*
X72140690Y-107951057D01*
X72078902Y-108192131D01*
X71997027Y-108483244D01*
X71900823Y-108813600D01*
X71753311Y-109307066D01*
X71602128Y-109793829D01*
X71451615Y-110261212D01*
X71306113Y-110696535D01*
X71169961Y-111087121D01*
X71047501Y-111420292D01*
X70943073Y-111683368D01*
X70861018Y-111863672D01*
X70848606Y-111887000D01*
X70728437Y-112080163D01*
X70604250Y-112212979D01*
X70440980Y-112321841D01*
X70416722Y-112335226D01*
X70207026Y-112429935D01*
X70053200Y-112483383D01*
X70053200Y-112954661D01*
X70040431Y-113003211D01*
X70005754Y-113129836D01*
X69954613Y-113314764D01*
X69898511Y-113516489D01*
X69750621Y-114038870D01*
X69621024Y-114472782D01*
X69504104Y-114828504D01*
X69394249Y-115116313D01*
X69285845Y-115346489D01*
X69173278Y-115529310D01*
X69050935Y-115675054D01*
X68913201Y-115794000D01*
X68754465Y-115896426D01*
X68569111Y-115992612D01*
X68538096Y-116007406D01*
X68358030Y-116079624D01*
X68137042Y-116149196D01*
X67897511Y-116211435D01*
X67661812Y-116261649D01*
X67452323Y-116295150D01*
X67291420Y-116307247D01*
X67201481Y-116293252D01*
X67195630Y-116288750D01*
X67155279Y-116186108D01*
X67148022Y-116002686D01*
X67172646Y-115753337D01*
X67227938Y-115452914D01*
X67282175Y-115228026D01*
X67348713Y-115016691D01*
X67447777Y-114754606D01*
X67569516Y-114463091D01*
X67704077Y-114163469D01*
X67841610Y-113877062D01*
X67972262Y-113625193D01*
X68086183Y-113429183D01*
X68162780Y-113322100D01*
X68284495Y-113253126D01*
X68473573Y-113231572D01*
X68612175Y-113220412D01*
X68822532Y-113191108D01*
X69077308Y-113147962D01*
X69349168Y-113095279D01*
X69380100Y-113088844D01*
X69625771Y-113037824D01*
X69831277Y-112996059D01*
X69978538Y-112967155D01*
X70049475Y-112954714D01*
X70053200Y-112954661D01*
X70053200Y-112483383D01*
X69936371Y-112523977D01*
X69626709Y-112612605D01*
X69299992Y-112691074D01*
X68978171Y-112754635D01*
X68683200Y-112798543D01*
X68437031Y-112818052D01*
X68261615Y-112808414D01*
X68245152Y-112804772D01*
X68107713Y-112770277D01*
X68137851Y-112125438D01*
X68158997Y-111759892D01*
X68188877Y-111407120D01*
X68230057Y-111051007D01*
X68285101Y-110675439D01*
X68356575Y-110264302D01*
X68447044Y-109801482D01*
X68559074Y-109270864D01*
X68677724Y-108734191D01*
X68865447Y-107900868D01*
X69033676Y-107161402D01*
X69183998Y-106510261D01*
X69317999Y-105941914D01*
X69437267Y-105450829D01*
X69543388Y-105031474D01*
X69637949Y-104678317D01*
X69722537Y-104385827D01*
X69798739Y-104148472D01*
X69868142Y-103960720D01*
X69932332Y-103817039D01*
X69992897Y-103711899D01*
X70051422Y-103639766D01*
X70109496Y-103595109D01*
X70157644Y-103575182D01*
X70467630Y-103539938D01*
X70467630Y-103123636D01*
X70394146Y-103122887D01*
X70317683Y-103108639D01*
X70263364Y-103064888D01*
X70220483Y-102975266D01*
X70178333Y-102823408D01*
X70126207Y-102592945D01*
X70111008Y-102524050D01*
X70085379Y-102386268D01*
X70095803Y-102312351D01*
X70153114Y-102267746D01*
X70197614Y-102247806D01*
X70301816Y-102225399D01*
X70488706Y-102207053D01*
X70739413Y-102194052D01*
X71035062Y-102187679D01*
X71086282Y-102187356D01*
X71377609Y-102186676D01*
X71377609Y-101774622D01*
X71293982Y-101767914D01*
X70860750Y-101763569D01*
X70470020Y-101794864D01*
X70104098Y-101862204D01*
X69824600Y-101939986D01*
X69700290Y-101994284D01*
X69587485Y-102054362D01*
X69587485Y-102515622D01*
X69655403Y-102535278D01*
X69703692Y-102620862D01*
X69727853Y-102692200D01*
X69782960Y-102881140D01*
X69796249Y-102989012D01*
X69759565Y-103030609D01*
X69664749Y-103020723D01*
X69562526Y-102992028D01*
X69387032Y-102948510D01*
X69225612Y-102923313D01*
X69178528Y-102920800D01*
X69108439Y-102912810D01*
X69108439Y-103327200D01*
X69315582Y-103344240D01*
X69472419Y-103390214D01*
X69561129Y-103457406D01*
X69569165Y-103526748D01*
X69544074Y-103604644D01*
X69498213Y-103758480D01*
X69438015Y-103966302D01*
X69369916Y-104206161D01*
X69367094Y-104216200D01*
X69230738Y-104715228D01*
X69084689Y-105274552D01*
X68932329Y-105879403D01*
X68777042Y-106515011D01*
X68622209Y-107166608D01*
X68471213Y-107819424D01*
X68327437Y-108458690D01*
X68194262Y-109069638D01*
X68075072Y-109637498D01*
X67973248Y-110147501D01*
X67892174Y-110584878D01*
X67848427Y-110847293D01*
X67808658Y-111129762D01*
X67771077Y-111442836D01*
X67760597Y-111547806D01*
X67760597Y-112953605D01*
X67767200Y-112976123D01*
X67750499Y-113047313D01*
X67707108Y-113181667D01*
X67657421Y-113320194D01*
X67585653Y-113490315D01*
X67479579Y-113714823D01*
X67355528Y-113960022D01*
X67268789Y-114122200D01*
X67142714Y-114358920D01*
X67023800Y-114594558D01*
X66928023Y-114796831D01*
X66883267Y-114901362D01*
X66828892Y-115027626D01*
X66768575Y-115124389D01*
X66682497Y-115211021D01*
X66670901Y-115219465D01*
X66670901Y-115731757D01*
X66680175Y-115736041D01*
X66697078Y-115795441D01*
X66718836Y-115930026D01*
X66741417Y-116113774D01*
X66747033Y-116167461D01*
X66773620Y-116400246D01*
X66802661Y-116552870D01*
X66842739Y-116646588D01*
X66902438Y-116702653D01*
X66977205Y-116737413D01*
X67115490Y-116755422D01*
X67327803Y-116740861D01*
X67593720Y-116698589D01*
X67892815Y-116633469D01*
X68204663Y-116550360D01*
X68508839Y-116454124D01*
X68784918Y-116349622D01*
X68973994Y-116262214D01*
X69071189Y-116218530D01*
X69146865Y-116217098D01*
X69239165Y-116265153D01*
X69331107Y-116329949D01*
X69527926Y-116492949D01*
X69642021Y-116645023D01*
X69686804Y-116808114D01*
X69686668Y-116911604D01*
X69672200Y-117110209D01*
X69265800Y-117217916D01*
X68813637Y-117364339D01*
X68442305Y-117541174D01*
X68157755Y-117744833D01*
X67965937Y-117971726D01*
X67940473Y-118017152D01*
X67883833Y-118202697D01*
X67864557Y-118439170D01*
X67882829Y-118682949D01*
X67936831Y-118885686D01*
X68054710Y-119086778D01*
X68241049Y-119310053D01*
X68473390Y-119532350D01*
X68729273Y-119730510D01*
X68803477Y-119779397D01*
X68968492Y-119888982D01*
X69104874Y-119989215D01*
X69183870Y-120058923D01*
X69185129Y-120060413D01*
X69202749Y-120095319D01*
X69213518Y-120156403D01*
X69216825Y-120253546D01*
X69212057Y-120396633D01*
X69198603Y-120595547D01*
X69175850Y-120860169D01*
X69143187Y-121200383D01*
X69100001Y-121626072D01*
X69070675Y-121908516D01*
X69022932Y-122367747D01*
X68974667Y-122835590D01*
X68927911Y-123292083D01*
X68884698Y-123717264D01*
X68847061Y-124091174D01*
X68817032Y-124393849D01*
X68805645Y-124510800D01*
X68776576Y-124795344D01*
X68747847Y-125046628D01*
X68721807Y-125246227D01*
X68700802Y-125375718D01*
X68690499Y-125414506D01*
X68630588Y-125463505D01*
X68500604Y-125537363D01*
X68324659Y-125622835D01*
X68254455Y-125654009D01*
X67948196Y-125803180D01*
X67735914Y-125946778D01*
X67610660Y-126090911D01*
X67565487Y-126241691D01*
X67565115Y-126260204D01*
X67612889Y-126507297D01*
X67739608Y-126752964D01*
X67925512Y-126971689D01*
X68150844Y-127137956D01*
X68293485Y-127200852D01*
X68420267Y-127262120D01*
X68446296Y-127329242D01*
X68445550Y-127331295D01*
X68412707Y-127382932D01*
X68351298Y-127415830D01*
X68246418Y-127430921D01*
X68083160Y-127429135D01*
X67846617Y-127411405D01*
X67583145Y-127385162D01*
X67221243Y-127337431D01*
X66896560Y-127276063D01*
X66623175Y-127205068D01*
X66415170Y-127128455D01*
X66286624Y-127050233D01*
X66254455Y-127006858D01*
X66243209Y-126906179D01*
X66248869Y-126719309D01*
X66269472Y-126459892D01*
X66303059Y-126141569D01*
X66347668Y-125777983D01*
X66401339Y-125382778D01*
X66462110Y-124969595D01*
X66528021Y-124552077D01*
X66597111Y-124143867D01*
X66667418Y-123758606D01*
X66736982Y-123409939D01*
X66803842Y-123111508D01*
X66828627Y-123012200D01*
X66968103Y-122503505D01*
X67131119Y-121958616D01*
X67306892Y-121411071D01*
X67484636Y-120894411D01*
X67653568Y-120442177D01*
X67661331Y-120422513D01*
X67755501Y-120174138D01*
X67806606Y-120002186D01*
X67814181Y-119890842D01*
X67777760Y-119824292D01*
X67696878Y-119786720D01*
X67642261Y-119774360D01*
X67591596Y-119771366D01*
X67546360Y-119793079D01*
X67497960Y-119853285D01*
X67437805Y-119965770D01*
X67357303Y-120144323D01*
X67247862Y-120402729D01*
X67242127Y-120416435D01*
X67102510Y-120758305D01*
X66982268Y-121073542D01*
X66874262Y-121384538D01*
X66771357Y-121713682D01*
X66666416Y-122083364D01*
X66552302Y-122515975D01*
X66472365Y-122831402D01*
X66338081Y-123382477D01*
X66229288Y-123868521D01*
X66140341Y-124321213D01*
X66065591Y-124772234D01*
X65999392Y-125253263D01*
X65936096Y-125795979D01*
X65924089Y-125907222D01*
X65884272Y-126275381D01*
X65850932Y-126553992D01*
X65819649Y-126754525D01*
X65786006Y-126888445D01*
X65745584Y-126967221D01*
X65693965Y-127002320D01*
X65626732Y-127005209D01*
X65539464Y-126987357D01*
X65510698Y-126980168D01*
X65395833Y-126951338D01*
X65360134Y-124600769D01*
X65351686Y-124051064D01*
X65344154Y-123593349D01*
X65336965Y-123218026D01*
X65329549Y-122915496D01*
X65321335Y-122676159D01*
X65311750Y-122490417D01*
X65300223Y-122348671D01*
X65286184Y-122241322D01*
X65269060Y-122158772D01*
X65248281Y-122091421D01*
X65223275Y-122029671D01*
X65204628Y-121988306D01*
X65030806Y-121706537D01*
X64787652Y-121445008D01*
X64506735Y-121235833D01*
X64416126Y-121186245D01*
X64277754Y-121124591D01*
X64070983Y-121041406D01*
X63823707Y-120947565D01*
X63563821Y-120853942D01*
X63562354Y-120853429D01*
X63287240Y-120754434D01*
X63096978Y-120680057D01*
X62993729Y-120631752D01*
X62979655Y-120610976D01*
X63056918Y-120619182D01*
X63227679Y-120657826D01*
X63298490Y-120675838D01*
X63589701Y-120739085D01*
X63820049Y-120755736D01*
X64019834Y-120724047D01*
X64219358Y-120642270D01*
X64260689Y-120620410D01*
X64409344Y-120532061D01*
X64525624Y-120438636D01*
X64624979Y-120320005D01*
X64722856Y-120156039D01*
X64834706Y-119926609D01*
X64894850Y-119794107D01*
X65012796Y-119492375D01*
X65107839Y-119173169D01*
X65176506Y-118857438D01*
X65215329Y-118566130D01*
X65220834Y-118320194D01*
X65189552Y-118140577D01*
X65174487Y-118106426D01*
X65103274Y-118033235D01*
X64969719Y-117939838D01*
X64820335Y-117855765D01*
X64656463Y-117779196D01*
X64514347Y-117733484D01*
X64356343Y-117710974D01*
X64144806Y-117704013D01*
X64072948Y-117703806D01*
X63907309Y-117706616D01*
X63907309Y-118110136D01*
X64142539Y-118114435D01*
X64325203Y-118129764D01*
X64467444Y-118156493D01*
X64581410Y-118194986D01*
X64626274Y-118216025D01*
X64834100Y-118322050D01*
X64805388Y-118584325D01*
X64774918Y-118757070D01*
X64719456Y-118983249D01*
X64649533Y-119221109D01*
X64629117Y-119283170D01*
X64508243Y-119617446D01*
X64396719Y-119868286D01*
X64284439Y-120051973D01*
X64161295Y-120184789D01*
X64017183Y-120283017D01*
X64004223Y-120289987D01*
X63772510Y-120412574D01*
X62963155Y-120173719D01*
X62839600Y-120137006D01*
X62839600Y-120548400D01*
X62881414Y-120566986D01*
X62873466Y-120582266D01*
X62813178Y-120588346D01*
X62805733Y-120582266D01*
X62812706Y-120552066D01*
X62839600Y-120548400D01*
X62839600Y-120137006D01*
X62666262Y-120085500D01*
X62300725Y-119975947D01*
X61894997Y-119853642D01*
X61477530Y-119727169D01*
X61076777Y-119605110D01*
X60972700Y-119573280D01*
X60077681Y-119299278D01*
X60077681Y-120157268D01*
X60234843Y-120188325D01*
X60476373Y-120252007D01*
X60796911Y-120346732D01*
X61191097Y-120470915D01*
X61653573Y-120622973D01*
X62178978Y-120801321D01*
X62179200Y-120801397D01*
X62711422Y-120985718D01*
X63155882Y-121142729D01*
X63521552Y-121276191D01*
X63817402Y-121389861D01*
X64052405Y-121487499D01*
X64235532Y-121572862D01*
X64375753Y-121649711D01*
X64482042Y-121721803D01*
X64563368Y-121792897D01*
X64575601Y-121805410D01*
X64681425Y-121919574D01*
X64761250Y-122021800D01*
X64819256Y-122128955D01*
X64859622Y-122257906D01*
X64886529Y-122425518D01*
X64904157Y-122648660D01*
X64916685Y-122944198D01*
X64925013Y-123215400D01*
X64937976Y-123710319D01*
X64948221Y-124201315D01*
X64955744Y-124677975D01*
X64960540Y-125129892D01*
X64962603Y-125546653D01*
X64961930Y-125917850D01*
X64958515Y-126233073D01*
X64952353Y-126481910D01*
X64943441Y-126653953D01*
X64931773Y-126738791D01*
X64926626Y-126746000D01*
X64867776Y-126731145D01*
X64725074Y-126689227D01*
X64511413Y-126624209D01*
X64239685Y-126540056D01*
X63922785Y-126440735D01*
X63573604Y-126330211D01*
X63542326Y-126320260D01*
X63108037Y-126178572D01*
X62686327Y-126034473D01*
X62289290Y-125892616D01*
X61929019Y-125757649D01*
X61617608Y-125634224D01*
X61367151Y-125526991D01*
X61189743Y-125440600D01*
X61098198Y-125380430D01*
X61076911Y-125321543D01*
X61038394Y-125177397D01*
X60986041Y-124962219D01*
X60923245Y-124690235D01*
X60853400Y-124375672D01*
X60804985Y-124151158D01*
X60731147Y-123806435D01*
X60661767Y-123485639D01*
X60600454Y-123205216D01*
X60550818Y-122981608D01*
X60516467Y-122831262D01*
X60504836Y-122783600D01*
X60465876Y-122621375D01*
X60416728Y-122396442D01*
X60360381Y-122124650D01*
X60299822Y-121821844D01*
X60238040Y-121503873D01*
X60178022Y-121186584D01*
X60122756Y-120885824D01*
X60075231Y-120617442D01*
X60038434Y-120397283D01*
X60015353Y-120241197D01*
X60008977Y-120165029D01*
X60010245Y-120160421D01*
X60077681Y-120157268D01*
X60077681Y-119299278D01*
X59791599Y-119211696D01*
X59791599Y-118836056D01*
X59791600Y-118460415D01*
X59967440Y-118386944D01*
X60093956Y-118354366D01*
X60310087Y-118322503D01*
X60603852Y-118292747D01*
X60963267Y-118266491D01*
X61046940Y-118261496D01*
X61422808Y-118239682D01*
X61842006Y-118215039D01*
X62261780Y-118190097D01*
X62639375Y-118167388D01*
X62764759Y-118159759D01*
X63230564Y-118133165D01*
X63607365Y-118116502D01*
X63907309Y-118110136D01*
X63907309Y-117706616D01*
X63842670Y-117707713D01*
X63549539Y-117718184D01*
X63231972Y-117733602D01*
X62941200Y-117751456D01*
X62644461Y-117769893D01*
X62283230Y-117789123D01*
X61894580Y-117807350D01*
X61515585Y-117822778D01*
X61345313Y-117828749D01*
X60818259Y-117854306D01*
X60385642Y-117894346D01*
X60041098Y-117950642D01*
X59778263Y-118024963D01*
X59590771Y-118119081D01*
X59472259Y-118234768D01*
X59417999Y-118365103D01*
X59382865Y-118662131D01*
X59390651Y-118957266D01*
X59437291Y-119225805D01*
X59518717Y-119443046D01*
X59616807Y-119572937D01*
X59703205Y-119655915D01*
X59718242Y-119712748D01*
X59671137Y-119779175D01*
X59670267Y-119780137D01*
X59614792Y-119892789D01*
X59588785Y-120049698D01*
X59588399Y-120070158D01*
X59599134Y-120180494D01*
X59630421Y-120382980D01*
X59680882Y-120670563D01*
X59749140Y-121036188D01*
X59833819Y-121472800D01*
X59933541Y-121973344D01*
X60046929Y-122530767D01*
X60172607Y-123138013D01*
X60309196Y-123788028D01*
X60370771Y-124078124D01*
X60436848Y-124392592D01*
X60493858Y-124671790D01*
X60538950Y-124901084D01*
X60569272Y-125065841D01*
X60581972Y-125151426D01*
X60581611Y-125160121D01*
X60528064Y-125149301D01*
X60403472Y-125098954D01*
X60226018Y-125018142D01*
X60013887Y-124915930D01*
X59785261Y-124801381D01*
X59558323Y-124683558D01*
X59351256Y-124571524D01*
X59182243Y-124474342D01*
X59095076Y-124419166D01*
X58885818Y-124263192D01*
X58710054Y-124105950D01*
X58584134Y-123964131D01*
X58524406Y-123854429D01*
X58521733Y-123833802D01*
X58507041Y-123767602D01*
X58467110Y-123625214D01*
X58408297Y-123427013D01*
X58336958Y-123193374D01*
X58259450Y-122944670D01*
X58182130Y-122701278D01*
X58111356Y-122483570D01*
X58053485Y-122311922D01*
X58014872Y-122206708D01*
X58011785Y-122199400D01*
X57970026Y-122087114D01*
X57914106Y-121908286D01*
X57842503Y-121657317D01*
X57753698Y-121328605D01*
X57646171Y-120916551D01*
X57518403Y-120415555D01*
X57402046Y-119952766D01*
X57264008Y-119394017D01*
X57152638Y-118927056D01*
X57066750Y-118545962D01*
X57005157Y-118244815D01*
X56966672Y-118017697D01*
X56950107Y-117858688D01*
X56954275Y-117761867D01*
X56959220Y-117744507D01*
X56993378Y-117710273D01*
X57075693Y-117683866D01*
X57220747Y-117662915D01*
X57443122Y-117645051D01*
X57640864Y-117633721D01*
X57986915Y-117616787D01*
X58414220Y-117597556D01*
X58902482Y-117576828D01*
X59431403Y-117555404D01*
X59980685Y-117534083D01*
X60530031Y-117513665D01*
X61059141Y-117494950D01*
X61547719Y-117478739D01*
X61671200Y-117474860D01*
X61978511Y-117464375D01*
X62257924Y-117453043D01*
X62490660Y-117441766D01*
X62657939Y-117431447D01*
X62738000Y-117423555D01*
X62833236Y-117411820D01*
X63007681Y-117394806D01*
X63239201Y-117374514D01*
X63505667Y-117352942D01*
X63600988Y-117345618D01*
X63855529Y-117325539D01*
X64062457Y-117303442D01*
X64237766Y-117272078D01*
X64397448Y-117224195D01*
X64557498Y-117152543D01*
X64733908Y-117049871D01*
X64942673Y-116908928D01*
X65199786Y-116722465D01*
X65521240Y-116483229D01*
X65549060Y-116462456D01*
X65908277Y-116198733D01*
X66203229Y-115991772D01*
X66430756Y-115843603D01*
X66587701Y-115756255D01*
X66670901Y-115731757D01*
X66670901Y-115219465D01*
X66550839Y-115306895D01*
X66353781Y-115431379D01*
X66319400Y-115452466D01*
X66086023Y-115599388D01*
X65846035Y-115757111D01*
X65637529Y-115900361D01*
X65561176Y-115955547D01*
X65414105Y-116061130D01*
X65302139Y-116135049D01*
X65246515Y-116163410D01*
X65244321Y-116162854D01*
X65264250Y-116115922D01*
X65333326Y-116000245D01*
X65441944Y-115829971D01*
X65580502Y-115619248D01*
X65739399Y-115382223D01*
X65909030Y-115133046D01*
X66079795Y-114885864D01*
X66242089Y-114654824D01*
X66386311Y-114454076D01*
X66502859Y-114297766D01*
X66554745Y-114232125D01*
X66896830Y-113820988D01*
X67183450Y-113488058D01*
X67413871Y-113234093D01*
X67587358Y-113059856D01*
X67703178Y-112966106D01*
X67760597Y-112953605D01*
X67760597Y-111547806D01*
X67742676Y-111727309D01*
X67738588Y-111777168D01*
X67724716Y-111939736D01*
X67705881Y-112073605D01*
X67673833Y-112192921D01*
X67620322Y-112311828D01*
X67537099Y-112444473D01*
X67415914Y-112605002D01*
X67248519Y-112807559D01*
X67026664Y-113066291D01*
X66904283Y-113207800D01*
X66530825Y-113646562D01*
X66210455Y-114040243D01*
X65923396Y-114414570D01*
X65649876Y-114795269D01*
X65390403Y-115177467D01*
X65238080Y-115404334D01*
X65103061Y-115600527D01*
X64996239Y-115750591D01*
X64928510Y-115839067D01*
X64912419Y-115855568D01*
X64887157Y-115833733D01*
X64890274Y-115734850D01*
X64893365Y-115714700D01*
X65043250Y-114822429D01*
X65194163Y-113943886D01*
X65343915Y-113091086D01*
X65490315Y-112276043D01*
X65631174Y-111510769D01*
X65764302Y-110807279D01*
X65887510Y-110177587D01*
X65998606Y-109633706D01*
X66021622Y-109524800D01*
X66094368Y-109191902D01*
X66181874Y-108805948D01*
X66280824Y-108380384D01*
X66387897Y-107928656D01*
X66499776Y-107464210D01*
X66613141Y-107000490D01*
X66724674Y-106550943D01*
X66831057Y-106129014D01*
X66928970Y-105748149D01*
X67015094Y-105421795D01*
X67086112Y-105163395D01*
X67138704Y-104986397D01*
X67150747Y-104950160D01*
X67261186Y-104683254D01*
X67404720Y-104409053D01*
X67565557Y-104152391D01*
X67727905Y-103938101D01*
X67875971Y-103791017D01*
X67898210Y-103774740D01*
X68108376Y-103651822D01*
X68363398Y-103534030D01*
X68631774Y-103433013D01*
X68882001Y-103360421D01*
X69082576Y-103327905D01*
X69108439Y-103327200D01*
X69108439Y-102912810D01*
X69085115Y-102910151D01*
X69068308Y-102873346D01*
X69131990Y-102803095D01*
X69280046Y-102692110D01*
X69312311Y-102669750D01*
X69479826Y-102560808D01*
X69587485Y-102515622D01*
X69587485Y-102054362D01*
X69508788Y-102096275D01*
X69266432Y-102235812D01*
X68989558Y-102402749D01*
X68694503Y-102586937D01*
X68397604Y-102778229D01*
X68115198Y-102966479D01*
X67863622Y-103141538D01*
X67716400Y-103249448D01*
X67590132Y-103344457D01*
X67475976Y-103428093D01*
X67365738Y-103503942D01*
X67251222Y-103575591D01*
X67124235Y-103646626D01*
X67018932Y-103699406D01*
X67018932Y-104191360D01*
X67022732Y-104230702D01*
X66986172Y-104330369D01*
X66961876Y-104381300D01*
X66912666Y-104499444D01*
X66844301Y-104691584D01*
X66764820Y-104933822D01*
X66682264Y-105202259D01*
X66658486Y-105283000D01*
X66406036Y-106189635D01*
X66151099Y-107182479D01*
X65896990Y-108246308D01*
X65647024Y-109365897D01*
X65404515Y-110526020D01*
X65172778Y-111711453D01*
X64955128Y-112906971D01*
X64800441Y-113817400D01*
X64696455Y-114448523D01*
X64607127Y-114986813D01*
X64530873Y-115439732D01*
X64466108Y-115814739D01*
X64411246Y-116119295D01*
X64364703Y-116360860D01*
X64324893Y-116546896D01*
X64290231Y-116684862D01*
X64259133Y-116782220D01*
X64230013Y-116846429D01*
X64201287Y-116884951D01*
X64171369Y-116905245D01*
X64142555Y-116914001D01*
X64058725Y-116923361D01*
X63887634Y-116936306D01*
X63643527Y-116952107D01*
X63340651Y-116970034D01*
X62993252Y-116989360D01*
X62615578Y-117009355D01*
X62221874Y-117029291D01*
X61826388Y-117048438D01*
X61443365Y-117066067D01*
X61087052Y-117081450D01*
X60771696Y-117093858D01*
X60511543Y-117102562D01*
X60401200Y-117105417D01*
X59766200Y-117119400D01*
X59751527Y-116992400D01*
X59757573Y-116911160D01*
X59781961Y-116741878D01*
X59822487Y-116496010D01*
X59876948Y-116185013D01*
X59943143Y-115820347D01*
X60018867Y-115413468D01*
X60101919Y-114975835D01*
X60190096Y-114518905D01*
X60281194Y-114054135D01*
X60373012Y-113592985D01*
X60463346Y-113146911D01*
X60549994Y-112727371D01*
X60630752Y-112345823D01*
X60703419Y-112013725D01*
X60737918Y-111861600D01*
X60905248Y-111147826D01*
X61094003Y-110364723D01*
X61297174Y-109540500D01*
X61507747Y-108703367D01*
X61718711Y-107881533D01*
X61883631Y-107251856D01*
X62195983Y-106071112D01*
X62619473Y-105868927D01*
X62788443Y-105793256D01*
X63033409Y-105690332D01*
X63335004Y-105567948D01*
X63673861Y-105433899D01*
X64030611Y-105295978D01*
X64249381Y-105213034D01*
X64596344Y-105082283D01*
X64927387Y-104957038D01*
X65225651Y-104843715D01*
X65474277Y-104748731D01*
X65656405Y-104678503D01*
X65735200Y-104647548D01*
X65916872Y-104576964D01*
X66134341Y-104495616D01*
X66366347Y-104411059D01*
X66591629Y-104330849D01*
X66788929Y-104262539D01*
X66936987Y-104213686D01*
X67014544Y-104191843D01*
X67018932Y-104191360D01*
X67018932Y-103699406D01*
X66976580Y-103720634D01*
X66800063Y-103801202D01*
X66586490Y-103891916D01*
X66327665Y-103996362D01*
X66015395Y-104118127D01*
X65641483Y-104260799D01*
X65197735Y-104427962D01*
X64675957Y-104623205D01*
X64067953Y-104850113D01*
X64008000Y-104872480D01*
X63526693Y-105055164D01*
X63101845Y-105224309D01*
X62708180Y-105391283D01*
X62320422Y-105567456D01*
X61913292Y-105764198D01*
X61592138Y-105926759D01*
X61592138Y-106381139D01*
X61617354Y-106383207D01*
X61620400Y-106393411D01*
X61608698Y-106445146D01*
X61575365Y-106584604D01*
X61523061Y-106800858D01*
X61454443Y-107082977D01*
X61372171Y-107420033D01*
X61278904Y-107801095D01*
X61177301Y-108215234D01*
X61166228Y-108260311D01*
X61053968Y-108719046D01*
X60941449Y-109182124D01*
X60832951Y-109631698D01*
X60732753Y-110049921D01*
X60645135Y-110418947D01*
X60574375Y-110720929D01*
X60534104Y-110896400D01*
X60449879Y-111274757D01*
X60356185Y-111705529D01*
X60255668Y-112175734D01*
X60150975Y-112672390D01*
X60044750Y-113182516D01*
X59939640Y-113693132D01*
X59838292Y-114191255D01*
X59743351Y-114663905D01*
X59657463Y-115098100D01*
X59583276Y-115480860D01*
X59523434Y-115799203D01*
X59480583Y-116040148D01*
X59462349Y-116154200D01*
X59404430Y-116524738D01*
X59352115Y-116800442D01*
X59303863Y-116987825D01*
X59258135Y-117093400D01*
X59234245Y-117118506D01*
X59212312Y-117128062D01*
X59172265Y-117136729D01*
X59102924Y-117145285D01*
X58993111Y-117154512D01*
X58831646Y-117165187D01*
X58607351Y-117178092D01*
X58309045Y-117194005D01*
X57925552Y-117213706D01*
X57718707Y-117224192D01*
X56992014Y-117260943D01*
X57019113Y-117139371D01*
X57036955Y-117047709D01*
X57067901Y-116876901D01*
X57108218Y-116648000D01*
X57154175Y-116382056D01*
X57175720Y-116255800D01*
X57241245Y-115885048D01*
X57314124Y-115503127D01*
X57397018Y-115098189D01*
X57492589Y-114658388D01*
X57603498Y-114171875D01*
X57732406Y-113626803D01*
X57881974Y-113011326D01*
X58054864Y-112313596D01*
X58117107Y-112064800D01*
X58272237Y-111452272D01*
X58424398Y-110863556D01*
X58571107Y-110307578D01*
X58709876Y-109793268D01*
X58838222Y-109329555D01*
X58953658Y-108925367D01*
X59053701Y-108589633D01*
X59135864Y-108331281D01*
X59197662Y-108159241D01*
X59215910Y-108117041D01*
X59353938Y-107888530D01*
X59554655Y-107658976D01*
X59825348Y-107422514D01*
X60173308Y-107173285D01*
X60605822Y-106905426D01*
X60995888Y-106685613D01*
X61245351Y-106550374D01*
X61419183Y-106458619D01*
X61530430Y-106404242D01*
X61592138Y-106381139D01*
X61592138Y-105926759D01*
X61461514Y-105992878D01*
X61103498Y-106178921D01*
X60669745Y-106409507D01*
X60314571Y-106607226D01*
X60024134Y-106781410D01*
X59784591Y-106941392D01*
X59582101Y-107096507D01*
X59402821Y-107256085D01*
X59232909Y-107429462D01*
X59207020Y-107457624D01*
X59110493Y-107564471D01*
X59029010Y-107661188D01*
X58958346Y-107758678D01*
X58894276Y-107867845D01*
X58832575Y-107999592D01*
X58769019Y-108164822D01*
X58699384Y-108374438D01*
X58619445Y-108639343D01*
X58524976Y-108970441D01*
X58411754Y-109378634D01*
X58287953Y-109829600D01*
X58070033Y-110636920D01*
X57858979Y-111443051D01*
X57656754Y-112239266D01*
X57465319Y-113016838D01*
X57286636Y-113767040D01*
X57122669Y-114481144D01*
X56975378Y-115150424D01*
X56846725Y-115766151D01*
X56738674Y-116319599D01*
X56653185Y-116802041D01*
X56592221Y-117204749D01*
X56557743Y-117518996D01*
X56556994Y-117528912D01*
X56549486Y-117661527D01*
X56548582Y-117792581D01*
X56556268Y-117932900D01*
G36*
X60023762Y-134304286D02*
G01*
X60072856Y-134387104D01*
X60162231Y-134495045D01*
X60232487Y-134509224D01*
X60277757Y-134461843D01*
X60342292Y-134408876D01*
X60465638Y-134339593D01*
X60534827Y-134307034D01*
X60660651Y-134262889D01*
X60824158Y-134228811D01*
X61043704Y-134202247D01*
X61337646Y-134180646D01*
X61511203Y-134171257D01*
X61863285Y-134149711D01*
X62126109Y-134121897D01*
X62312002Y-134083232D01*
X62433291Y-134029130D01*
X62502306Y-133955007D01*
X62531373Y-133856278D01*
X62534800Y-133790594D01*
X62508571Y-133659713D01*
X62423567Y-133525655D01*
X62270308Y-133378831D01*
X62039314Y-133209650D01*
X61823600Y-133071121D01*
X61645127Y-132959664D01*
X61545769Y-132892448D01*
X61517890Y-132860827D01*
X61553855Y-132856152D01*
X61645800Y-132869737D01*
X61796390Y-132898811D01*
X62030573Y-132948650D01*
X62333276Y-133015763D01*
X62689429Y-133096663D01*
X63083961Y-133187859D01*
X63501801Y-133285863D01*
X63927877Y-133387185D01*
X64347119Y-133488337D01*
X64744455Y-133585829D01*
X64820800Y-133604788D01*
X65178560Y-133690094D01*
X65525661Y-133766011D01*
X65840006Y-133828161D01*
X66099500Y-133872162D01*
X66275667Y-133893204D01*
X66480634Y-133906074D01*
X66609206Y-133905785D01*
X66686265Y-133887291D01*
X66736691Y-133845545D01*
X66774577Y-133792015D01*
X66829527Y-133676326D01*
X66813931Y-133577121D01*
X66802639Y-133554394D01*
X66728398Y-133485455D01*
X66560902Y-133380480D01*
X66301614Y-133240187D01*
X65952000Y-133065290D01*
X65513523Y-132856506D01*
X64987649Y-132614551D01*
X64375841Y-132340141D01*
X63804800Y-132088671D01*
X63440986Y-131929341D01*
X63096837Y-131778132D01*
X62786354Y-131641232D01*
X62523540Y-131524834D01*
X62322398Y-131435125D01*
X62196928Y-131378296D01*
X62179200Y-131370034D01*
X62049335Y-131307551D01*
X62006620Y-131280448D01*
X62046004Y-131281425D01*
X62128400Y-131296582D01*
X62206873Y-131316272D01*
X62375231Y-131361905D01*
X62625732Y-131431279D01*
X62950637Y-131522195D01*
X63342204Y-131632450D01*
X63792693Y-131759845D01*
X64294364Y-131902179D01*
X64839477Y-132057250D01*
X65420291Y-132222858D01*
X66029065Y-132396802D01*
X66658059Y-132576881D01*
X67299534Y-132760895D01*
X67945747Y-132946642D01*
X68588960Y-133131922D01*
X68961000Y-133239285D01*
X69269804Y-133326336D01*
X69571213Y-133407494D01*
X69840797Y-133476453D01*
X70054127Y-133526906D01*
X70154800Y-133547463D01*
X70383287Y-133584362D01*
X70622596Y-133616767D01*
X70851726Y-133642636D01*
X71049676Y-133659929D01*
X71195445Y-133666605D01*
X71268033Y-133660621D01*
X71272400Y-133656088D01*
X71236309Y-133600400D01*
X71141831Y-133499826D01*
X71009655Y-133373273D01*
X70860470Y-133239644D01*
X70714965Y-133117847D01*
X70593832Y-133026786D01*
X70559844Y-133004973D01*
X70454941Y-132951316D01*
X70274853Y-132868367D01*
X70038729Y-132764567D01*
X69765718Y-132648358D01*
X69518444Y-132545917D01*
X69271525Y-132444815D01*
X68947475Y-132311943D01*
X68563110Y-132154207D01*
X68135251Y-131978513D01*
X67680715Y-131791767D01*
X67216320Y-131600875D01*
X66758886Y-131412744D01*
X66751200Y-131409582D01*
X66297119Y-131222913D01*
X65838417Y-131034599D01*
X65391406Y-130851320D01*
X64972396Y-130679753D01*
X64597699Y-130526578D01*
X64283625Y-130398472D01*
X64046485Y-130302115D01*
X64038379Y-130298833D01*
X63780199Y-130192021D01*
X63564360Y-130098286D01*
X63404422Y-130023892D01*
X63313945Y-129975106D01*
X63301779Y-129958453D01*
X63374495Y-129967921D01*
X63523810Y-130003211D01*
X63729592Y-130059075D01*
X63971707Y-130130263D01*
X64033400Y-130149174D01*
X64330754Y-130240216D01*
X64695974Y-130350650D01*
X65119613Y-130477712D01*
X65592228Y-130618638D01*
X66104372Y-130770665D01*
X66646600Y-130931031D01*
X67209467Y-131096972D01*
X67783528Y-131265724D01*
X68359338Y-131434525D01*
X68927450Y-131600610D01*
X69478421Y-131761218D01*
X70002804Y-131913585D01*
X70491154Y-132054947D01*
X70934027Y-132182541D01*
X71321976Y-132293605D01*
X71645557Y-132385374D01*
X71895324Y-132455086D01*
X72061833Y-132499977D01*
X72110600Y-132512177D01*
X72488003Y-132596029D01*
X72782299Y-132649385D01*
X73006843Y-132673649D01*
X73174991Y-132670222D01*
X73300098Y-132640506D01*
X73306930Y-132637751D01*
X73410469Y-132584794D01*
X73456642Y-132541265D01*
X73456800Y-132539539D01*
X73417285Y-132483359D01*
X73313173Y-132390246D01*
X73166107Y-132276975D01*
X72997733Y-132160321D01*
X72847200Y-132067076D01*
X72751197Y-132019011D01*
X72572637Y-131936986D01*
X72322829Y-131825923D01*
X72034400Y-131700046D01*
X72034400Y-132080000D01*
X72076214Y-132098586D01*
X72068266Y-132113866D01*
X72007978Y-132119946D01*
X72000533Y-132113866D01*
X72007506Y-132083666D01*
X72034400Y-132080000D01*
X72034400Y-131700046D01*
X72013082Y-131690742D01*
X71654705Y-131536364D01*
X71259007Y-131367711D01*
X70837298Y-131189704D01*
X70662800Y-131116539D01*
X69897618Y-130796141D01*
X69222276Y-130512925D01*
X68632755Y-130265178D01*
X68125036Y-130051185D01*
X67695099Y-129869231D01*
X67338925Y-129717602D01*
X67052495Y-129594583D01*
X66831791Y-129498459D01*
X66672792Y-129427516D01*
X66571480Y-129380040D01*
X66523835Y-129354315D01*
X66519057Y-129348808D01*
X66569759Y-129358634D01*
X66709571Y-129392915D01*
X66929600Y-129449302D01*
X67220956Y-129525449D01*
X67574745Y-129619008D01*
X67982077Y-129727633D01*
X68434059Y-129848976D01*
X68921800Y-129980690D01*
X69246960Y-130068896D01*
X69913564Y-130249889D01*
X70490054Y-130405976D01*
X70984300Y-130539121D01*
X71404173Y-130651284D01*
X71757541Y-130744428D01*
X72052274Y-130820516D01*
X72296242Y-130881509D01*
X72497315Y-130929370D01*
X72663362Y-130966061D01*
X72802254Y-130993544D01*
X72921859Y-131013781D01*
X73030048Y-131028735D01*
X73134690Y-131040366D01*
X73148975Y-131041789D01*
X73378230Y-131054619D01*
X73537543Y-131037725D01*
X73629148Y-131003559D01*
X73766573Y-130931554D01*
X73556061Y-130692399D01*
X73424821Y-130559493D01*
X73263530Y-130429129D01*
X73060440Y-130294414D01*
X72803803Y-130148453D01*
X72481870Y-129984352D01*
X72082892Y-129795217D01*
X71831200Y-129680214D01*
X71406766Y-129486606D01*
X71072048Y-129330304D01*
X70823082Y-129209283D01*
X70655906Y-129121519D01*
X70566556Y-129064988D01*
X70551069Y-129037665D01*
X70566942Y-129034365D01*
X70642458Y-129042924D01*
X70799087Y-129068111D01*
X71018301Y-129106695D01*
X71281571Y-129155448D01*
X71481342Y-129193739D01*
X71893190Y-129268537D01*
X72239333Y-129318467D01*
X72551569Y-129347211D01*
X72861698Y-129358454D01*
X72906381Y-129358839D01*
X73162562Y-129358959D01*
X73338400Y-129353571D01*
X73455131Y-129339220D01*
X73533992Y-129312448D01*
X73596219Y-129269799D01*
X73627763Y-129241410D01*
X73723817Y-129112196D01*
X73767424Y-128936962D01*
X73771781Y-128885810D01*
X73787000Y-128651000D01*
X74218800Y-128509857D01*
X74412446Y-128442229D01*
X74565039Y-128380765D01*
X74653671Y-128335066D01*
X74666582Y-128322211D01*
X74718749Y-128293523D01*
X74742782Y-128298779D01*
X74769514Y-128254842D01*
X74834003Y-128117859D01*
X74935792Y-127888922D01*
X75074423Y-127569124D01*
X75249438Y-127159559D01*
X75460382Y-126661319D01*
X75706796Y-126075497D01*
X75988222Y-125403186D01*
X76304204Y-124645480D01*
X76654284Y-123803470D01*
X77038006Y-122878250D01*
X77454910Y-121870913D01*
X77904541Y-120782552D01*
X78386440Y-119614259D01*
X78900151Y-118367128D01*
X78979635Y-118174025D01*
X79379071Y-117203488D01*
X79768391Y-116257444D01*
X80145818Y-115340218D01*
X80509574Y-114456135D01*
X80857880Y-113609517D01*
X81188958Y-112804691D01*
X81501030Y-112045980D01*
X81792318Y-111337707D01*
X82061044Y-110684198D01*
X82305430Y-110089777D01*
X82523697Y-109558768D01*
X82714068Y-109095494D01*
X82874764Y-108704281D01*
X83004007Y-108389453D01*
X83100019Y-108155333D01*
X83161022Y-108006246D01*
X83185238Y-107946517D01*
X83185488Y-107945851D01*
X83175092Y-107880235D01*
X83083694Y-107816994D01*
X83006605Y-107783758D01*
X82875906Y-107736374D01*
X82808745Y-107729721D01*
X82775509Y-107763965D01*
X82766626Y-107785083D01*
X82744491Y-107839392D01*
X82685459Y-107983310D01*
X82591317Y-108212499D01*
X82463849Y-108522619D01*
X82304840Y-108909331D01*
X82116077Y-109368297D01*
X81899344Y-109895177D01*
X81656426Y-110485632D01*
X81389109Y-111135324D01*
X81099179Y-111839913D01*
X80788419Y-112595061D01*
X80458617Y-113396428D01*
X80111556Y-114239675D01*
X79749023Y-115120463D01*
X79372802Y-116034454D01*
X78984679Y-116977308D01*
X78586439Y-117944686D01*
X78582285Y-117954776D01*
X74429822Y-128041400D01*
X74235411Y-128105340D01*
X73929878Y-128210030D01*
X73709176Y-128299246D01*
X73559900Y-128383435D01*
X73468643Y-128473044D01*
X73421997Y-128578519D01*
X73406557Y-128710307D01*
X73406000Y-128751632D01*
X73399106Y-128895625D01*
X73367784Y-128970027D01*
X73296076Y-129006494D01*
X73274609Y-129012241D01*
X73108912Y-129027818D01*
X72847822Y-129015880D01*
X72493678Y-128976679D01*
X72048819Y-128910469D01*
X71564781Y-128826531D01*
X71093521Y-128747050D01*
X70712870Y-128698227D01*
X70416506Y-128680271D01*
X70198109Y-128693388D01*
X70051359Y-128737787D01*
X69969935Y-128813675D01*
X69949094Y-128879600D01*
X69949183Y-128985839D01*
X69984625Y-129083194D01*
X70065637Y-129179717D01*
X70202436Y-129283467D01*
X70405238Y-129402497D01*
X70684260Y-129544864D01*
X70959922Y-129676608D01*
X71274502Y-129825582D01*
X71616430Y-129989519D01*
X71948503Y-130150463D01*
X72233517Y-130290462D01*
X72284576Y-130315853D01*
X72518881Y-130434271D01*
X72669240Y-130515013D01*
X72743645Y-130563643D01*
X72750087Y-130585729D01*
X72696559Y-130586835D01*
X72669400Y-130583833D01*
X72584752Y-130566198D01*
X72411272Y-130524142D01*
X72158121Y-130460066D01*
X71834461Y-130376373D01*
X71449455Y-130275464D01*
X71012265Y-130159740D01*
X70532053Y-130031603D01*
X70017981Y-129893455D01*
X69479211Y-129747698D01*
X69469000Y-129744926D01*
X68708580Y-129539827D01*
X68039763Y-129362421D01*
X67456777Y-129211400D01*
X66953852Y-129085457D01*
X66525217Y-128983283D01*
X66165102Y-128903570D01*
X65867735Y-128845011D01*
X65627346Y-128806297D01*
X65438163Y-128786119D01*
X65294418Y-128783171D01*
X65243343Y-128787079D01*
X65101986Y-128803400D01*
X65294274Y-129015724D01*
X65457973Y-129174111D01*
X65648805Y-129328309D01*
X65726987Y-129382330D01*
X65830922Y-129439983D01*
X66009790Y-129527344D01*
X66265690Y-129645324D01*
X66600722Y-129794832D01*
X67016987Y-129976777D01*
X67516582Y-130192069D01*
X68101610Y-130441617D01*
X68774168Y-130726332D01*
X69536356Y-131047122D01*
X70390275Y-131404898D01*
X70551838Y-131472440D01*
X70899481Y-131618750D01*
X71212461Y-131752441D01*
X71479679Y-131868612D01*
X71690035Y-131962364D01*
X71832429Y-132028796D01*
X71895761Y-132063007D01*
X71897337Y-132066420D01*
X71844146Y-132054395D01*
X71702448Y-132016073D01*
X71481139Y-131954059D01*
X71189113Y-131870959D01*
X70835268Y-131769377D01*
X70428498Y-131651918D01*
X69977700Y-131521188D01*
X69491768Y-131379790D01*
X68979600Y-131230330D01*
X68450089Y-131075412D01*
X67912132Y-130917642D01*
X67374625Y-130759623D01*
X66846462Y-130603963D01*
X66336541Y-130453264D01*
X65853756Y-130310132D01*
X65407003Y-130177171D01*
X65005178Y-130056988D01*
X64657177Y-129952185D01*
X64371894Y-129865369D01*
X64211200Y-129815735D01*
X63927568Y-129730722D01*
X63626509Y-129646074D01*
X63350294Y-129573422D01*
X63195200Y-129536123D01*
X63169800Y-129531274D01*
X63169800Y-129895600D01*
X63195200Y-129921000D01*
X63169800Y-129946400D01*
X63144400Y-129921000D01*
X63169800Y-129895600D01*
X63169800Y-129531274D01*
X63008114Y-129500405D01*
X62780047Y-129466616D01*
X62531006Y-129436498D01*
X62280999Y-129411791D01*
X62050035Y-129394237D01*
X61858123Y-129385574D01*
X61725271Y-129387546D01*
X61671488Y-129401891D01*
X61671199Y-129403535D01*
X61712053Y-129459114D01*
X61822206Y-129552898D01*
X61983048Y-129672157D01*
X62175965Y-129804163D01*
X62382347Y-129936187D01*
X62583581Y-130055500D01*
X62761057Y-130149373D01*
X62763400Y-130150502D01*
X62895098Y-130210345D01*
X63109292Y-130303364D01*
X63394283Y-130424658D01*
X63738370Y-130569326D01*
X64129856Y-130732466D01*
X64557041Y-130909179D01*
X65008226Y-131094561D01*
X65354200Y-131235881D01*
X65849946Y-131438040D01*
X66359280Y-131646083D01*
X66865519Y-131853171D01*
X67351981Y-132052468D01*
X67801982Y-132237135D01*
X68198838Y-132400337D01*
X68525868Y-132535235D01*
X68647328Y-132585515D01*
X68962341Y-132715184D01*
X69247269Y-132830688D01*
X69488346Y-132926589D01*
X69671805Y-132997454D01*
X69783881Y-133037845D01*
X69811494Y-133045200D01*
X69844108Y-133064507D01*
X69837245Y-133074888D01*
X69782926Y-133068597D01*
X69643316Y-133036593D01*
X69430513Y-132982097D01*
X69156621Y-132908329D01*
X68833739Y-132818508D01*
X68473969Y-132715856D01*
X68317478Y-132670477D01*
X67820941Y-132526206D01*
X67291177Y-132372972D01*
X66738524Y-132213717D01*
X66173324Y-132051381D01*
X65605917Y-131888903D01*
X65046642Y-131729224D01*
X64505839Y-131575285D01*
X63993849Y-131430025D01*
X63521011Y-131296385D01*
X63097666Y-131177304D01*
X62734154Y-131075724D01*
X62440814Y-130994585D01*
X62227987Y-130936827D01*
X62137481Y-130913153D01*
X61945854Y-130868608D01*
X61717859Y-130821714D01*
X61474818Y-130776078D01*
X61238052Y-130735309D01*
X61028884Y-130703015D01*
X60868634Y-130682802D01*
X60778624Y-130678280D01*
X60767374Y-130681323D01*
X60775350Y-130732489D01*
X60812848Y-130844467D01*
X60834681Y-130900988D01*
X60957958Y-131099976D01*
X61110534Y-131240507D01*
X61248635Y-131322665D01*
X61476253Y-131440483D01*
X61788635Y-131591737D01*
X62181025Y-131774202D01*
X62648667Y-131985655D01*
X63186807Y-132223871D01*
X63576200Y-132393767D01*
X63978490Y-132569310D01*
X64371517Y-132742536D01*
X64744676Y-132908617D01*
X65087358Y-133062729D01*
X65388957Y-133200043D01*
X65638867Y-133315736D01*
X65826481Y-133404979D01*
X65941192Y-133462948D01*
X65973272Y-133484461D01*
X65921975Y-133476881D01*
X65785030Y-133447834D01*
X65575399Y-133400311D01*
X65306047Y-133337304D01*
X64989936Y-133261803D01*
X64640188Y-133176839D01*
X63971923Y-133014065D01*
X63394677Y-132875679D01*
X62901142Y-132760488D01*
X62484011Y-132667297D01*
X62135976Y-132594913D01*
X61849730Y-132542140D01*
X61617966Y-132507785D01*
X61433375Y-132490653D01*
X61288652Y-132489550D01*
X61176487Y-132503282D01*
X61089573Y-132530654D01*
X61020604Y-132570472D01*
X61004751Y-132582682D01*
X60923960Y-132667549D01*
X60917277Y-132759131D01*
X60936842Y-132823970D01*
X60965353Y-132885296D01*
X61014069Y-132948309D01*
X61094795Y-133022142D01*
X61219331Y-133115932D01*
X61399481Y-133238811D01*
X61647047Y-133399916D01*
X61842094Y-133524611D01*
X61983005Y-133623330D01*
X62074292Y-133705097D01*
X62097681Y-133753323D01*
X62096094Y-133755215D01*
X62031572Y-133771867D01*
X61885587Y-133788826D01*
X61678257Y-133804337D01*
X61429698Y-133816642D01*
X61366400Y-133818914D01*
X60941084Y-133846008D01*
X60604340Y-133897696D01*
X60345498Y-133976814D01*
X60153886Y-134086197D01*
X60070636Y-134163201D01*
X60017128Y-134236531D01*
X60023762Y-134304286D01*
G37*
X60023762Y-134304286D02*
X60072856Y-134387104D01*
X60162231Y-134495045D01*
X60232487Y-134509224D01*
X60277757Y-134461843D01*
X60342292Y-134408876D01*
X60465638Y-134339593D01*
X60534827Y-134307034D01*
X60660651Y-134262889D01*
X60824158Y-134228811D01*
X61043704Y-134202247D01*
X61337646Y-134180646D01*
X61511203Y-134171257D01*
X61863285Y-134149711D01*
X62126109Y-134121897D01*
X62312002Y-134083232D01*
X62433291Y-134029130D01*
X62502306Y-133955007D01*
X62531373Y-133856278D01*
X62534800Y-133790594D01*
X62508571Y-133659713D01*
X62423567Y-133525655D01*
X62270308Y-133378831D01*
X62039314Y-133209650D01*
X61823600Y-133071121D01*
X61645127Y-132959664D01*
X61545769Y-132892448D01*
X61517890Y-132860827D01*
X61553855Y-132856152D01*
X61645800Y-132869737D01*
X61796390Y-132898811D01*
X62030573Y-132948650D01*
X62333276Y-133015763D01*
X62689429Y-133096663D01*
X63083961Y-133187859D01*
X63501801Y-133285863D01*
X63927877Y-133387185D01*
X64347119Y-133488337D01*
X64744455Y-133585829D01*
X64820800Y-133604788D01*
X65178560Y-133690094D01*
X65525661Y-133766011D01*
X65840006Y-133828161D01*
X66099500Y-133872162D01*
X66275667Y-133893204D01*
X66480634Y-133906074D01*
X66609206Y-133905785D01*
X66686265Y-133887291D01*
X66736691Y-133845545D01*
X66774577Y-133792015D01*
X66829527Y-133676326D01*
X66813931Y-133577121D01*
X66802639Y-133554394D01*
X66728398Y-133485455D01*
X66560902Y-133380480D01*
X66301614Y-133240187D01*
X65952000Y-133065290D01*
X65513523Y-132856506D01*
X64987649Y-132614551D01*
X64375841Y-132340141D01*
X63804800Y-132088671D01*
X63440986Y-131929341D01*
X63096837Y-131778132D01*
X62786354Y-131641232D01*
X62523540Y-131524834D01*
X62322398Y-131435125D01*
X62196928Y-131378296D01*
X62179200Y-131370034D01*
X62049335Y-131307551D01*
X62006620Y-131280448D01*
X62046004Y-131281425D01*
X62128400Y-131296582D01*
X62206873Y-131316272D01*
X62375231Y-131361905D01*
X62625732Y-131431279D01*
X62950637Y-131522195D01*
X63342204Y-131632450D01*
X63792693Y-131759845D01*
X64294364Y-131902179D01*
X64839477Y-132057250D01*
X65420291Y-132222858D01*
X66029065Y-132396802D01*
X66658059Y-132576881D01*
X67299534Y-132760895D01*
X67945747Y-132946642D01*
X68588960Y-133131922D01*
X68961000Y-133239285D01*
X69269804Y-133326336D01*
X69571213Y-133407494D01*
X69840797Y-133476453D01*
X70054127Y-133526906D01*
X70154800Y-133547463D01*
X70383287Y-133584362D01*
X70622596Y-133616767D01*
X70851726Y-133642636D01*
X71049676Y-133659929D01*
X71195445Y-133666605D01*
X71268033Y-133660621D01*
X71272400Y-133656088D01*
X71236309Y-133600400D01*
X71141831Y-133499826D01*
X71009655Y-133373273D01*
X70860470Y-133239644D01*
X70714965Y-133117847D01*
X70593832Y-133026786D01*
X70559844Y-133004973D01*
X70454941Y-132951316D01*
X70274853Y-132868367D01*
X70038729Y-132764567D01*
X69765718Y-132648358D01*
X69518444Y-132545917D01*
X69271525Y-132444815D01*
X68947475Y-132311943D01*
X68563110Y-132154207D01*
X68135251Y-131978513D01*
X67680715Y-131791767D01*
X67216320Y-131600875D01*
X66758886Y-131412744D01*
X66751200Y-131409582D01*
X66297119Y-131222913D01*
X65838417Y-131034599D01*
X65391406Y-130851320D01*
X64972396Y-130679753D01*
X64597699Y-130526578D01*
X64283625Y-130398472D01*
X64046485Y-130302115D01*
X64038379Y-130298833D01*
X63780199Y-130192021D01*
X63564360Y-130098286D01*
X63404422Y-130023892D01*
X63313945Y-129975106D01*
X63301779Y-129958453D01*
X63374495Y-129967921D01*
X63523810Y-130003211D01*
X63729592Y-130059075D01*
X63971707Y-130130263D01*
X64033400Y-130149174D01*
X64330754Y-130240216D01*
X64695974Y-130350650D01*
X65119613Y-130477712D01*
X65592228Y-130618638D01*
X66104372Y-130770665D01*
X66646600Y-130931031D01*
X67209467Y-131096972D01*
X67783528Y-131265724D01*
X68359338Y-131434525D01*
X68927450Y-131600610D01*
X69478421Y-131761218D01*
X70002804Y-131913585D01*
X70491154Y-132054947D01*
X70934027Y-132182541D01*
X71321976Y-132293605D01*
X71645557Y-132385374D01*
X71895324Y-132455086D01*
X72061833Y-132499977D01*
X72110600Y-132512177D01*
X72488003Y-132596029D01*
X72782299Y-132649385D01*
X73006843Y-132673649D01*
X73174991Y-132670222D01*
X73300098Y-132640506D01*
X73306930Y-132637751D01*
X73410469Y-132584794D01*
X73456642Y-132541265D01*
X73456800Y-132539539D01*
X73417285Y-132483359D01*
X73313173Y-132390246D01*
X73166107Y-132276975D01*
X72997733Y-132160321D01*
X72847200Y-132067076D01*
X72751197Y-132019011D01*
X72572637Y-131936986D01*
X72322829Y-131825923D01*
X72034400Y-131700046D01*
X72034400Y-132080000D01*
X72076214Y-132098586D01*
X72068266Y-132113866D01*
X72007978Y-132119946D01*
X72000533Y-132113866D01*
X72007506Y-132083666D01*
X72034400Y-132080000D01*
X72034400Y-131700046D01*
X72013082Y-131690742D01*
X71654705Y-131536364D01*
X71259007Y-131367711D01*
X70837298Y-131189704D01*
X70662800Y-131116539D01*
X69897618Y-130796141D01*
X69222276Y-130512925D01*
X68632755Y-130265178D01*
X68125036Y-130051185D01*
X67695099Y-129869231D01*
X67338925Y-129717602D01*
X67052495Y-129594583D01*
X66831791Y-129498459D01*
X66672792Y-129427516D01*
X66571480Y-129380040D01*
X66523835Y-129354315D01*
X66519057Y-129348808D01*
X66569759Y-129358634D01*
X66709571Y-129392915D01*
X66929600Y-129449302D01*
X67220956Y-129525449D01*
X67574745Y-129619008D01*
X67982077Y-129727633D01*
X68434059Y-129848976D01*
X68921800Y-129980690D01*
X69246960Y-130068896D01*
X69913564Y-130249889D01*
X70490054Y-130405976D01*
X70984300Y-130539121D01*
X71404173Y-130651284D01*
X71757541Y-130744428D01*
X72052274Y-130820516D01*
X72296242Y-130881509D01*
X72497315Y-130929370D01*
X72663362Y-130966061D01*
X72802254Y-130993544D01*
X72921859Y-131013781D01*
X73030048Y-131028735D01*
X73134690Y-131040366D01*
X73148975Y-131041789D01*
X73378230Y-131054619D01*
X73537543Y-131037725D01*
X73629148Y-131003559D01*
X73766573Y-130931554D01*
X73556061Y-130692399D01*
X73424821Y-130559493D01*
X73263530Y-130429129D01*
X73060440Y-130294414D01*
X72803803Y-130148453D01*
X72481870Y-129984352D01*
X72082892Y-129795217D01*
X71831200Y-129680214D01*
X71406766Y-129486606D01*
X71072048Y-129330304D01*
X70823082Y-129209283D01*
X70655906Y-129121519D01*
X70566556Y-129064988D01*
X70551069Y-129037665D01*
X70566942Y-129034365D01*
X70642458Y-129042924D01*
X70799087Y-129068111D01*
X71018301Y-129106695D01*
X71281571Y-129155448D01*
X71481342Y-129193739D01*
X71893190Y-129268537D01*
X72239333Y-129318467D01*
X72551569Y-129347211D01*
X72861698Y-129358454D01*
X72906381Y-129358839D01*
X73162562Y-129358959D01*
X73338400Y-129353571D01*
X73455131Y-129339220D01*
X73533992Y-129312448D01*
X73596219Y-129269799D01*
X73627763Y-129241410D01*
X73723817Y-129112196D01*
X73767424Y-128936962D01*
X73771781Y-128885810D01*
X73787000Y-128651000D01*
X74218800Y-128509857D01*
X74412446Y-128442229D01*
X74565039Y-128380765D01*
X74653671Y-128335066D01*
X74666582Y-128322211D01*
X74718749Y-128293523D01*
X74742782Y-128298779D01*
X74769514Y-128254842D01*
X74834003Y-128117859D01*
X74935792Y-127888922D01*
X75074423Y-127569124D01*
X75249438Y-127159559D01*
X75460382Y-126661319D01*
X75706796Y-126075497D01*
X75988222Y-125403186D01*
X76304204Y-124645480D01*
X76654284Y-123803470D01*
X77038006Y-122878250D01*
X77454910Y-121870913D01*
X77904541Y-120782552D01*
X78386440Y-119614259D01*
X78900151Y-118367128D01*
X78979635Y-118174025D01*
X79379071Y-117203488D01*
X79768391Y-116257444D01*
X80145818Y-115340218D01*
X80509574Y-114456135D01*
X80857880Y-113609517D01*
X81188958Y-112804691D01*
X81501030Y-112045980D01*
X81792318Y-111337707D01*
X82061044Y-110684198D01*
X82305430Y-110089777D01*
X82523697Y-109558768D01*
X82714068Y-109095494D01*
X82874764Y-108704281D01*
X83004007Y-108389453D01*
X83100019Y-108155333D01*
X83161022Y-108006246D01*
X83185238Y-107946517D01*
X83185488Y-107945851D01*
X83175092Y-107880235D01*
X83083694Y-107816994D01*
X83006605Y-107783758D01*
X82875906Y-107736374D01*
X82808745Y-107729721D01*
X82775509Y-107763965D01*
X82766626Y-107785083D01*
X82744491Y-107839392D01*
X82685459Y-107983310D01*
X82591317Y-108212499D01*
X82463849Y-108522619D01*
X82304840Y-108909331D01*
X82116077Y-109368297D01*
X81899344Y-109895177D01*
X81656426Y-110485632D01*
X81389109Y-111135324D01*
X81099179Y-111839913D01*
X80788419Y-112595061D01*
X80458617Y-113396428D01*
X80111556Y-114239675D01*
X79749023Y-115120463D01*
X79372802Y-116034454D01*
X78984679Y-116977308D01*
X78586439Y-117944686D01*
X78582285Y-117954776D01*
X74429822Y-128041400D01*
X74235411Y-128105340D01*
X73929878Y-128210030D01*
X73709176Y-128299246D01*
X73559900Y-128383435D01*
X73468643Y-128473044D01*
X73421997Y-128578519D01*
X73406557Y-128710307D01*
X73406000Y-128751632D01*
X73399106Y-128895625D01*
X73367784Y-128970027D01*
X73296076Y-129006494D01*
X73274609Y-129012241D01*
X73108912Y-129027818D01*
X72847822Y-129015880D01*
X72493678Y-128976679D01*
X72048819Y-128910469D01*
X71564781Y-128826531D01*
X71093521Y-128747050D01*
X70712870Y-128698227D01*
X70416506Y-128680271D01*
X70198109Y-128693388D01*
X70051359Y-128737787D01*
X69969935Y-128813675D01*
X69949094Y-128879600D01*
X69949183Y-128985839D01*
X69984625Y-129083194D01*
X70065637Y-129179717D01*
X70202436Y-129283467D01*
X70405238Y-129402497D01*
X70684260Y-129544864D01*
X70959922Y-129676608D01*
X71274502Y-129825582D01*
X71616430Y-129989519D01*
X71948503Y-130150463D01*
X72233517Y-130290462D01*
X72284576Y-130315853D01*
X72518881Y-130434271D01*
X72669240Y-130515013D01*
X72743645Y-130563643D01*
X72750087Y-130585729D01*
X72696559Y-130586835D01*
X72669400Y-130583833D01*
X72584752Y-130566198D01*
X72411272Y-130524142D01*
X72158121Y-130460066D01*
X71834461Y-130376373D01*
X71449455Y-130275464D01*
X71012265Y-130159740D01*
X70532053Y-130031603D01*
X70017981Y-129893455D01*
X69479211Y-129747698D01*
X69469000Y-129744926D01*
X68708580Y-129539827D01*
X68039763Y-129362421D01*
X67456777Y-129211400D01*
X66953852Y-129085457D01*
X66525217Y-128983283D01*
X66165102Y-128903570D01*
X65867735Y-128845011D01*
X65627346Y-128806297D01*
X65438163Y-128786119D01*
X65294418Y-128783171D01*
X65243343Y-128787079D01*
X65101986Y-128803400D01*
X65294274Y-129015724D01*
X65457973Y-129174111D01*
X65648805Y-129328309D01*
X65726987Y-129382330D01*
X65830922Y-129439983D01*
X66009790Y-129527344D01*
X66265690Y-129645324D01*
X66600722Y-129794832D01*
X67016987Y-129976777D01*
X67516582Y-130192069D01*
X68101610Y-130441617D01*
X68774168Y-130726332D01*
X69536356Y-131047122D01*
X70390275Y-131404898D01*
X70551838Y-131472440D01*
X70899481Y-131618750D01*
X71212461Y-131752441D01*
X71479679Y-131868612D01*
X71690035Y-131962364D01*
X71832429Y-132028796D01*
X71895761Y-132063007D01*
X71897337Y-132066420D01*
X71844146Y-132054395D01*
X71702448Y-132016073D01*
X71481139Y-131954059D01*
X71189113Y-131870959D01*
X70835268Y-131769377D01*
X70428498Y-131651918D01*
X69977700Y-131521188D01*
X69491768Y-131379790D01*
X68979600Y-131230330D01*
X68450089Y-131075412D01*
X67912132Y-130917642D01*
X67374625Y-130759623D01*
X66846462Y-130603963D01*
X66336541Y-130453264D01*
X65853756Y-130310132D01*
X65407003Y-130177171D01*
X65005178Y-130056988D01*
X64657177Y-129952185D01*
X64371894Y-129865369D01*
X64211200Y-129815735D01*
X63927568Y-129730722D01*
X63626509Y-129646074D01*
X63350294Y-129573422D01*
X63195200Y-129536123D01*
X63169800Y-129531274D01*
X63169800Y-129895600D01*
X63195200Y-129921000D01*
X63169800Y-129946400D01*
X63144400Y-129921000D01*
X63169800Y-129895600D01*
X63169800Y-129531274D01*
X63008114Y-129500405D01*
X62780047Y-129466616D01*
X62531006Y-129436498D01*
X62280999Y-129411791D01*
X62050035Y-129394237D01*
X61858123Y-129385574D01*
X61725271Y-129387546D01*
X61671488Y-129401891D01*
X61671199Y-129403535D01*
X61712053Y-129459114D01*
X61822206Y-129552898D01*
X61983048Y-129672157D01*
X62175965Y-129804163D01*
X62382347Y-129936187D01*
X62583581Y-130055500D01*
X62761057Y-130149373D01*
X62763400Y-130150502D01*
X62895098Y-130210345D01*
X63109292Y-130303364D01*
X63394283Y-130424658D01*
X63738370Y-130569326D01*
X64129856Y-130732466D01*
X64557041Y-130909179D01*
X65008226Y-131094561D01*
X65354200Y-131235881D01*
X65849946Y-131438040D01*
X66359280Y-131646083D01*
X66865519Y-131853171D01*
X67351981Y-132052468D01*
X67801982Y-132237135D01*
X68198838Y-132400337D01*
X68525868Y-132535235D01*
X68647328Y-132585515D01*
X68962341Y-132715184D01*
X69247269Y-132830688D01*
X69488346Y-132926589D01*
X69671805Y-132997454D01*
X69783881Y-133037845D01*
X69811494Y-133045200D01*
X69844108Y-133064507D01*
X69837245Y-133074888D01*
X69782926Y-133068597D01*
X69643316Y-133036593D01*
X69430513Y-132982097D01*
X69156621Y-132908329D01*
X68833739Y-132818508D01*
X68473969Y-132715856D01*
X68317478Y-132670477D01*
X67820941Y-132526206D01*
X67291177Y-132372972D01*
X66738524Y-132213717D01*
X66173324Y-132051381D01*
X65605917Y-131888903D01*
X65046642Y-131729224D01*
X64505839Y-131575285D01*
X63993849Y-131430025D01*
X63521011Y-131296385D01*
X63097666Y-131177304D01*
X62734154Y-131075724D01*
X62440814Y-130994585D01*
X62227987Y-130936827D01*
X62137481Y-130913153D01*
X61945854Y-130868608D01*
X61717859Y-130821714D01*
X61474818Y-130776078D01*
X61238052Y-130735309D01*
X61028884Y-130703015D01*
X60868634Y-130682802D01*
X60778624Y-130678280D01*
X60767374Y-130681323D01*
X60775350Y-130732489D01*
X60812848Y-130844467D01*
X60834681Y-130900988D01*
X60957958Y-131099976D01*
X61110534Y-131240507D01*
X61248635Y-131322665D01*
X61476253Y-131440483D01*
X61788635Y-131591737D01*
X62181025Y-131774202D01*
X62648667Y-131985655D01*
X63186807Y-132223871D01*
X63576200Y-132393767D01*
X63978490Y-132569310D01*
X64371517Y-132742536D01*
X64744676Y-132908617D01*
X65087358Y-133062729D01*
X65388957Y-133200043D01*
X65638867Y-133315736D01*
X65826481Y-133404979D01*
X65941192Y-133462948D01*
X65973272Y-133484461D01*
X65921975Y-133476881D01*
X65785030Y-133447834D01*
X65575399Y-133400311D01*
X65306047Y-133337304D01*
X64989936Y-133261803D01*
X64640188Y-133176839D01*
X63971923Y-133014065D01*
X63394677Y-132875679D01*
X62901142Y-132760488D01*
X62484011Y-132667297D01*
X62135976Y-132594913D01*
X61849730Y-132542140D01*
X61617966Y-132507785D01*
X61433375Y-132490653D01*
X61288652Y-132489550D01*
X61176487Y-132503282D01*
X61089573Y-132530654D01*
X61020604Y-132570472D01*
X61004751Y-132582682D01*
X60923960Y-132667549D01*
X60917277Y-132759131D01*
X60936842Y-132823970D01*
X60965353Y-132885296D01*
X61014069Y-132948309D01*
X61094795Y-133022142D01*
X61219331Y-133115932D01*
X61399481Y-133238811D01*
X61647047Y-133399916D01*
X61842094Y-133524611D01*
X61983005Y-133623330D01*
X62074292Y-133705097D01*
X62097681Y-133753323D01*
X62096094Y-133755215D01*
X62031572Y-133771867D01*
X61885587Y-133788826D01*
X61678257Y-133804337D01*
X61429698Y-133816642D01*
X61366400Y-133818914D01*
X60941084Y-133846008D01*
X60604340Y-133897696D01*
X60345498Y-133976814D01*
X60153886Y-134086197D01*
X60070636Y-134163201D01*
X60017128Y-134236531D01*
X60023762Y-134304286D01*
D12*
X78230883Y-118462437D02*
X78584437Y-118108883D01*
X79249117Y-118773563D02*
X78895563Y-119127117D01*
X85030000Y-133410000D02*
X86360000Y-133410000D01*
X85030000Y-132080000D02*
X85030000Y-133410000D01*
X85030000Y-130810000D02*
X87690000Y-130810000D01*
X87690000Y-130810000D02*
X87690000Y-123130000D01*
X85030000Y-130810000D02*
X85030000Y-123130000D01*
X85030000Y-123130000D02*
X87690000Y-123130000D01*
X52010000Y-133410000D02*
X53340000Y-133410000D01*
X52010000Y-132080000D02*
X52010000Y-133410000D01*
X52010000Y-130810000D02*
X54670000Y-130810000D01*
X54670000Y-130810000D02*
X54670000Y-123130000D01*
X52010000Y-130810000D02*
X52010000Y-123130000D01*
X52010000Y-123130000D02*
X54670000Y-123130000D01*
X85030000Y-113090000D02*
X86360000Y-113090000D01*
X85030000Y-111760000D02*
X85030000Y-113090000D01*
X85030000Y-110490000D02*
X87690000Y-110490000D01*
X87690000Y-110490000D02*
X87690000Y-102810000D01*
X85030000Y-110490000D02*
X85030000Y-102810000D01*
X85030000Y-102810000D02*
X87690000Y-102810000D01*
X52010000Y-113090000D02*
X53340000Y-113090000D01*
X52010000Y-111760000D02*
X52010000Y-113090000D01*
X52010000Y-110490000D02*
X54670000Y-110490000D01*
X54670000Y-110490000D02*
X54670000Y-102810000D01*
X52010000Y-110490000D02*
X52010000Y-102810000D01*
X52010000Y-102810000D02*
X54670000Y-102810000D01*
D10*
X80008415Y-119650713D02*
X80075758Y-119650713D01*
X80210445Y-119583369D01*
X80277789Y-119516026D01*
X80345132Y-119381338D01*
X80345132Y-119246651D01*
X80311461Y-119145636D01*
X80210445Y-118977277D01*
X80109430Y-118876262D01*
X79941071Y-118775247D01*
X79840056Y-118741575D01*
X79705369Y-118741575D01*
X79570682Y-118808919D01*
X79503338Y-118876262D01*
X79435995Y-119010949D01*
X79435995Y-119078293D01*
X79132949Y-119246651D02*
X78695216Y-119684384D01*
X79200293Y-119718056D01*
X79099277Y-119819071D01*
X79065606Y-119920087D01*
X79065606Y-119987430D01*
X79099277Y-120088445D01*
X79267636Y-120256804D01*
X79368651Y-120290476D01*
X79435995Y-120290476D01*
X79537010Y-120256804D01*
X79739041Y-120054774D01*
X79772713Y-119953758D01*
X79772713Y-119886415D01*
X88217333Y-121118380D02*
X88217333Y-121832666D01*
X88264952Y-121975523D01*
X88360190Y-122070761D01*
X88503047Y-122118380D01*
X88598285Y-122118380D01*
X87217333Y-122118380D02*
X87788761Y-122118380D01*
X87503047Y-122118380D02*
X87503047Y-121118380D01*
X87598285Y-121261238D01*
X87693523Y-121356476D01*
X87788761Y-121404095D01*
X52149333Y-121372380D02*
X52149333Y-122086666D01*
X52196952Y-122229523D01*
X52292190Y-122324761D01*
X52435047Y-122372380D01*
X52530285Y-122372380D01*
X51244571Y-121705714D02*
X51244571Y-122372380D01*
X51482666Y-121324761D02*
X51720761Y-122039047D01*
X51101714Y-122039047D01*
X88217333Y-113752380D02*
X88217333Y-114466666D01*
X88264952Y-114609523D01*
X88360190Y-114704761D01*
X88503047Y-114752380D01*
X88598285Y-114752380D01*
X87836380Y-113752380D02*
X87217333Y-113752380D01*
X87550666Y-114133333D01*
X87407809Y-114133333D01*
X87312571Y-114180952D01*
X87264952Y-114228571D01*
X87217333Y-114323809D01*
X87217333Y-114561904D01*
X87264952Y-114657142D01*
X87312571Y-114704761D01*
X87407809Y-114752380D01*
X87693523Y-114752380D01*
X87788761Y-114704761D01*
X87836380Y-114657142D01*
X52149333Y-114006380D02*
X52149333Y-114720666D01*
X52196952Y-114863523D01*
X52292190Y-114958761D01*
X52435047Y-115006380D01*
X52530285Y-115006380D01*
X51720761Y-114101619D02*
X51673142Y-114054000D01*
X51577904Y-114006380D01*
X51339809Y-114006380D01*
X51244571Y-114054000D01*
X51196952Y-114101619D01*
X51149333Y-114196857D01*
X51149333Y-114292095D01*
X51196952Y-114434952D01*
X51768380Y-115006380D01*
X51149333Y-115006380D01*
M02*
