G04 #@! TF.GenerationSoftware,KiCad,Pcbnew,(5.1.5)-3*
G04 #@! TF.CreationDate,2022-02-08T12:26:58-07:00*
G04 #@! TF.ProjectId,lm2596_breakout,6c6d3235-3936-45f6-9272-65616b6f7574,rev?*
G04 #@! TF.SameCoordinates,Original*
G04 #@! TF.FileFunction,Legend,Top*
G04 #@! TF.FilePolarity,Positive*
%FSLAX46Y46*%
G04 Gerber Fmt 4.6, Leading zero omitted, Abs format (unit mm)*
G04 Created by KiCad (PCBNEW (5.1.5)-3) date 2022-02-08 12:26:58*
%MOMM*%
%LPD*%
G04 APERTURE LIST*
%ADD10C,0.150000*%
%ADD11C,0.010000*%
%ADD12C,0.120000*%
G04 APERTURE END LIST*
D10*
X83257571Y-105373714D02*
X83257571Y-105954285D01*
X82967285Y-105664000D02*
X83547857Y-105664000D01*
X83511571Y-105119714D02*
X83511571Y-105700285D01*
X83221285Y-105410000D02*
X83801857Y-105410000D01*
X51689000Y-111179428D02*
X51725285Y-111106857D01*
X51725285Y-110998000D01*
X51689000Y-110889142D01*
X51616428Y-110816571D01*
X51543857Y-110780285D01*
X51398714Y-110744000D01*
X51289857Y-110744000D01*
X51144714Y-110780285D01*
X51072142Y-110816571D01*
X50999571Y-110889142D01*
X50963285Y-110998000D01*
X50963285Y-111070571D01*
X50999571Y-111179428D01*
X51035857Y-111215714D01*
X51289857Y-111215714D01*
X51289857Y-111070571D01*
X50963285Y-111542285D02*
X51725285Y-111542285D01*
X50963285Y-111977714D01*
X51725285Y-111977714D01*
X50963285Y-112340571D02*
X51725285Y-112340571D01*
X51725285Y-112522000D01*
X51689000Y-112630857D01*
X51616428Y-112703428D01*
X51543857Y-112739714D01*
X51398714Y-112776000D01*
X51289857Y-112776000D01*
X51144714Y-112739714D01*
X51072142Y-112703428D01*
X50999571Y-112630857D01*
X50963285Y-112522000D01*
X50963285Y-112340571D01*
X51253571Y-106389714D02*
X51253571Y-106970285D01*
X50963285Y-106680000D02*
X51543857Y-106680000D01*
X51253571Y-103849714D02*
X51253571Y-104430285D01*
X51362428Y-124187857D02*
X51362428Y-123933857D01*
X50963285Y-123933857D02*
X51725285Y-123933857D01*
X51725285Y-124296714D01*
X51362428Y-124841000D02*
X51326142Y-124949857D01*
X51289857Y-124986142D01*
X51217285Y-125022428D01*
X51108428Y-125022428D01*
X51035857Y-124986142D01*
X50999571Y-124949857D01*
X50963285Y-124877285D01*
X50963285Y-124587000D01*
X51725285Y-124587000D01*
X51725285Y-124841000D01*
X51689000Y-124913571D01*
X51652714Y-124949857D01*
X51580142Y-124986142D01*
X51507571Y-124986142D01*
X51435000Y-124949857D01*
X51398714Y-124913571D01*
X51362428Y-124841000D01*
X51362428Y-124587000D01*
X51362428Y-126437571D02*
X51362428Y-126691571D01*
X50963285Y-126800428D02*
X50963285Y-126437571D01*
X51725285Y-126437571D01*
X51725285Y-126800428D01*
X50963285Y-127127000D02*
X51725285Y-127127000D01*
X50963285Y-127562428D01*
X51725285Y-127562428D01*
X51689000Y-131499428D02*
X51725285Y-131426857D01*
X51725285Y-131318000D01*
X51689000Y-131209142D01*
X51616428Y-131136571D01*
X51543857Y-131100285D01*
X51398714Y-131064000D01*
X51289857Y-131064000D01*
X51144714Y-131100285D01*
X51072142Y-131136571D01*
X50999571Y-131209142D01*
X50963285Y-131318000D01*
X50963285Y-131390571D01*
X50999571Y-131499428D01*
X51035857Y-131535714D01*
X51289857Y-131535714D01*
X51289857Y-131390571D01*
X50963285Y-131862285D02*
X51725285Y-131862285D01*
X50963285Y-132297714D01*
X51725285Y-132297714D01*
X50963285Y-132660571D02*
X51725285Y-132660571D01*
X51725285Y-132842000D01*
X51689000Y-132950857D01*
X51616428Y-133023428D01*
X51543857Y-133059714D01*
X51398714Y-133096000D01*
X51289857Y-133096000D01*
X51144714Y-133059714D01*
X51072142Y-133023428D01*
X50999571Y-132950857D01*
X50963285Y-132842000D01*
X50963285Y-132660571D01*
X87720714Y-126564571D02*
X88482714Y-126310571D01*
X87720714Y-126056571D01*
X88482714Y-125802571D02*
X87720714Y-125802571D01*
X88482714Y-125439714D02*
X87720714Y-125439714D01*
X88482714Y-125004285D01*
X87720714Y-125004285D01*
X87720714Y-106172000D02*
X87720714Y-106026857D01*
X87757000Y-105954285D01*
X87829571Y-105881714D01*
X87974714Y-105845428D01*
X88228714Y-105845428D01*
X88373857Y-105881714D01*
X88446428Y-105954285D01*
X88482714Y-106026857D01*
X88482714Y-106172000D01*
X88446428Y-106244571D01*
X88373857Y-106317142D01*
X88228714Y-106353428D01*
X87974714Y-106353428D01*
X87829571Y-106317142D01*
X87757000Y-106244571D01*
X87720714Y-106172000D01*
X87720714Y-105518857D02*
X88337571Y-105518857D01*
X88410142Y-105482571D01*
X88446428Y-105446285D01*
X88482714Y-105373714D01*
X88482714Y-105228571D01*
X88446428Y-105156000D01*
X88410142Y-105119714D01*
X88337571Y-105083428D01*
X87720714Y-105083428D01*
X87720714Y-104829428D02*
X87720714Y-104394000D01*
X88482714Y-104611714D02*
X87720714Y-104611714D01*
X87757000Y-110816571D02*
X87720714Y-110889142D01*
X87720714Y-110998000D01*
X87757000Y-111106857D01*
X87829571Y-111179428D01*
X87902142Y-111215714D01*
X88047285Y-111252000D01*
X88156142Y-111252000D01*
X88301285Y-111215714D01*
X88373857Y-111179428D01*
X88446428Y-111106857D01*
X88482714Y-110998000D01*
X88482714Y-110925428D01*
X88446428Y-110816571D01*
X88410142Y-110780285D01*
X88156142Y-110780285D01*
X88156142Y-110925428D01*
X88482714Y-110453714D02*
X87720714Y-110453714D01*
X88482714Y-110018285D01*
X87720714Y-110018285D01*
X88482714Y-109655428D02*
X87720714Y-109655428D01*
X87720714Y-109474000D01*
X87757000Y-109365142D01*
X87829571Y-109292571D01*
X87902142Y-109256285D01*
X88047285Y-109220000D01*
X88156142Y-109220000D01*
X88301285Y-109256285D01*
X88373857Y-109292571D01*
X88446428Y-109365142D01*
X88482714Y-109474000D01*
X88482714Y-109655428D01*
X87757000Y-131136571D02*
X87720714Y-131209142D01*
X87720714Y-131318000D01*
X87757000Y-131426857D01*
X87829571Y-131499428D01*
X87902142Y-131535714D01*
X88047285Y-131572000D01*
X88156142Y-131572000D01*
X88301285Y-131535714D01*
X88373857Y-131499428D01*
X88446428Y-131426857D01*
X88482714Y-131318000D01*
X88482714Y-131245428D01*
X88446428Y-131136571D01*
X88410142Y-131100285D01*
X88156142Y-131100285D01*
X88156142Y-131245428D01*
X88482714Y-130773714D02*
X87720714Y-130773714D01*
X88482714Y-130338285D01*
X87720714Y-130338285D01*
X88482714Y-129975428D02*
X87720714Y-129975428D01*
X87720714Y-129794000D01*
X87757000Y-129685142D01*
X87829571Y-129612571D01*
X87902142Y-129576285D01*
X88047285Y-129540000D01*
X88156142Y-129540000D01*
X88301285Y-129576285D01*
X88373857Y-129612571D01*
X88446428Y-129685142D01*
X88482714Y-129794000D01*
X88482714Y-129975428D01*
D11*
G36*
X58419440Y-125825067D02*
G01*
X58472309Y-125895136D01*
X58513111Y-125955144D01*
X58541295Y-125967890D01*
X58555947Y-125933354D01*
X58557914Y-125897018D01*
X58569513Y-125849656D01*
X58596626Y-125841431D01*
X58620871Y-125865476D01*
X58655193Y-125894257D01*
X58694451Y-125913597D01*
X58746944Y-125958627D01*
X58768965Y-126013738D01*
X58785895Y-126064636D01*
X58806473Y-126070581D01*
X58813431Y-126064835D01*
X58842405Y-126042790D01*
X58861843Y-126048957D01*
X58873487Y-126088816D01*
X58879078Y-126167850D01*
X58880375Y-126275512D01*
X58881972Y-126392443D01*
X58888074Y-126471766D01*
X58900650Y-126525418D01*
X58921665Y-126565337D01*
X58929984Y-126576513D01*
X58970155Y-126642792D01*
X58980249Y-126694747D01*
X58960661Y-126723120D01*
X58923783Y-126722587D01*
X58861125Y-126708056D01*
X58782826Y-126693057D01*
X58774892Y-126691709D01*
X58681811Y-126676140D01*
X58718649Y-126764306D01*
X58743146Y-126841556D01*
X58764175Y-126939270D01*
X58771658Y-126990062D01*
X58779072Y-127070735D01*
X58773576Y-127121346D01*
X58749545Y-127160903D01*
X58709198Y-127201105D01*
X58669470Y-127242884D01*
X58648320Y-127283693D01*
X58646505Y-127333393D01*
X58664782Y-127401851D01*
X58703906Y-127498928D01*
X58737906Y-127575469D01*
X58768693Y-127646278D01*
X58788822Y-127704605D01*
X58800041Y-127763528D01*
X58804099Y-127836128D01*
X58802747Y-127935484D01*
X58799275Y-128034356D01*
X58791821Y-128178556D01*
X58780728Y-128286472D01*
X58763882Y-128371405D01*
X58739168Y-128446655D01*
X58730282Y-128468438D01*
X58609022Y-128702919D01*
X58460944Y-128895863D01*
X58285671Y-129047712D01*
X58174393Y-129115548D01*
X58089007Y-129172976D01*
X58041853Y-129237997D01*
X58034928Y-129256134D01*
X58005085Y-129318283D01*
X57954333Y-129398566D01*
X57903508Y-129466974D01*
X57800785Y-129597311D01*
X57727113Y-129701006D01*
X57678678Y-129788579D01*
X57651665Y-129870547D01*
X57642259Y-129957432D01*
X57646646Y-130059752D01*
X57656213Y-130148955D01*
X57668214Y-130225832D01*
X57684495Y-130265019D01*
X57711390Y-130278395D01*
X57725671Y-130279180D01*
X57788635Y-130294046D01*
X57827636Y-130315598D01*
X57890816Y-130345399D01*
X57934216Y-130352805D01*
X57991473Y-130368958D01*
X58056396Y-130407635D01*
X58066343Y-130415606D01*
X58121733Y-130455843D01*
X58165328Y-130476775D01*
X58171500Y-130477617D01*
X58210184Y-130494565D01*
X58249225Y-130528741D01*
X58275512Y-130572163D01*
X58260854Y-130601880D01*
X58202766Y-130619323D01*
X58098763Y-130625925D01*
X58080423Y-130626066D01*
X57991506Y-130630460D01*
X57946288Y-130643857D01*
X57937796Y-130658912D01*
X57924059Y-130704602D01*
X57906713Y-130733887D01*
X57881700Y-130760761D01*
X57863658Y-130746933D01*
X57850902Y-130720024D01*
X57814077Y-130675339D01*
X57750325Y-130628922D01*
X57720488Y-130612890D01*
X57647610Y-130573559D01*
X57589279Y-130534661D01*
X57575076Y-130522402D01*
X57530797Y-130496361D01*
X57469424Y-130501721D01*
X57459164Y-130504528D01*
X57391579Y-130516216D01*
X57359632Y-130499882D01*
X57354886Y-130476038D01*
X57334848Y-130451749D01*
X57284928Y-130418608D01*
X57266567Y-130408760D01*
X57207154Y-130381745D01*
X57162658Y-130377276D01*
X57107772Y-130395041D01*
X57081421Y-130406453D01*
X57018095Y-130430506D01*
X56974801Y-130439858D01*
X56967430Y-130438566D01*
X56954983Y-130406536D01*
X56975776Y-130356939D01*
X57022904Y-130301348D01*
X57073020Y-130261592D01*
X57136590Y-130217613D01*
X57162813Y-130189506D01*
X57156305Y-130166679D01*
X57125443Y-130141287D01*
X57098333Y-130116215D01*
X57102631Y-130090635D01*
X57135569Y-130051736D01*
X57158761Y-130023271D01*
X57162977Y-130014003D01*
X57343062Y-130014003D01*
X57345211Y-130110227D01*
X57349625Y-130187302D01*
X57356274Y-130232221D01*
X57359020Y-130237839D01*
X57392399Y-130252121D01*
X57436882Y-130254028D01*
X57472009Y-130245164D01*
X57478238Y-130228484D01*
X57478235Y-130189907D01*
X57490617Y-130168396D01*
X57504981Y-130132667D01*
X57504581Y-130070617D01*
X57491078Y-129980234D01*
X57468268Y-129880236D01*
X57440008Y-129792862D01*
X57410235Y-129726451D01*
X57382885Y-129689340D01*
X57361896Y-129689869D01*
X57357737Y-129697784D01*
X57350516Y-129740521D01*
X57345683Y-129816142D01*
X57343209Y-129911639D01*
X57343062Y-130014003D01*
X57162977Y-130014003D01*
X57173365Y-129991171D01*
X57180618Y-129944997D01*
X57181756Y-129874309D01*
X57178019Y-129768670D01*
X57175475Y-129715088D01*
X57161846Y-129436250D01*
X57031052Y-129376371D01*
X56954099Y-129334561D01*
X56894590Y-129290376D01*
X56872451Y-129264535D01*
X56839387Y-129223914D01*
X56814512Y-129212422D01*
X56783374Y-129192644D01*
X56745901Y-129144232D01*
X56739894Y-129134123D01*
X56705287Y-129084369D01*
X56678466Y-129076178D01*
X56666720Y-129084670D01*
X56625059Y-129111629D01*
X56601217Y-129097054D01*
X56598343Y-129076931D01*
X56581443Y-129051704D01*
X56563645Y-129053817D01*
X56523900Y-129051641D01*
X56513242Y-129041720D01*
X56480046Y-129026715D01*
X56461123Y-129030280D01*
X56429855Y-129025417D01*
X56424711Y-129005171D01*
X56409178Y-128977703D01*
X56387503Y-128980366D01*
X56355609Y-128979993D01*
X56350296Y-128968727D01*
X56329744Y-128949302D01*
X56300687Y-128946547D01*
X56260298Y-128957811D01*
X56251078Y-128969810D01*
X56233162Y-128988519D01*
X56194075Y-128986684D01*
X56155804Y-128968223D01*
X56142233Y-128950419D01*
X56110082Y-128923157D01*
X56080187Y-128926454D01*
X56045699Y-128926052D01*
X56014053Y-128894316D01*
X55981905Y-128835147D01*
X55945463Y-128743045D01*
X55918296Y-128645793D01*
X55914016Y-128622917D01*
X55896711Y-128545011D01*
X55878388Y-128508579D01*
X55863059Y-128515623D01*
X55854734Y-128568145D01*
X55854203Y-128593064D01*
X55848588Y-128662256D01*
X55830964Y-128686530D01*
X55823197Y-128685587D01*
X55784076Y-128651409D01*
X55750328Y-128587492D01*
X55731481Y-128513531D01*
X55730165Y-128493242D01*
X55720191Y-128429656D01*
X55705375Y-128394024D01*
X55688904Y-128379525D01*
X55681806Y-128407363D01*
X55680950Y-128437432D01*
X55672347Y-128499526D01*
X55646487Y-128515340D01*
X55602084Y-128485565D01*
X55598221Y-128481764D01*
X55577146Y-128442234D01*
X55550867Y-128366958D01*
X55522921Y-128269022D01*
X55496846Y-128161512D01*
X55476180Y-128057515D01*
X55467220Y-127997149D01*
X55458508Y-127937449D01*
X55444374Y-127852542D01*
X55434786Y-127798711D01*
X55423703Y-127741358D01*
X55417375Y-127720171D01*
X55415366Y-127738551D01*
X55417237Y-127799899D01*
X55422049Y-127897930D01*
X55427966Y-128006430D01*
X55433594Y-128100333D01*
X55438073Y-128165651D01*
X55439609Y-128183184D01*
X55429014Y-128224507D01*
X55407718Y-128232793D01*
X55373731Y-128210873D01*
X55333872Y-128153638D01*
X55294406Y-128073873D01*
X55261598Y-127984365D01*
X55241712Y-127897900D01*
X55240993Y-127892509D01*
X55222131Y-127807333D01*
X55188860Y-127707827D01*
X55167045Y-127656109D01*
X55128396Y-127551542D01*
X55099437Y-127434825D01*
X55091853Y-127384158D01*
X55081587Y-127307441D01*
X55070873Y-127277159D01*
X55058564Y-127290145D01*
X55058179Y-127291116D01*
X55039694Y-127385111D01*
X55041842Y-127506143D01*
X55063494Y-127636670D01*
X55085257Y-127711895D01*
X55115076Y-127799014D01*
X55129146Y-127848065D01*
X55127085Y-127868149D01*
X55108511Y-127868366D01*
X55079056Y-127859608D01*
X54979790Y-127804780D01*
X54906152Y-127709807D01*
X54859398Y-127577751D01*
X54840783Y-127411676D01*
X54844366Y-127286956D01*
X54880915Y-127080133D01*
X54959001Y-126898082D01*
X55081500Y-126734490D01*
X55108911Y-126706093D01*
X55237643Y-126595533D01*
X55370938Y-126522294D01*
X55523390Y-126480095D01*
X55670434Y-126464380D01*
X55843255Y-126463441D01*
X55984452Y-126485198D01*
X56108836Y-126534891D01*
X56231218Y-126617758D01*
X56318574Y-126693616D01*
X56404483Y-126778856D01*
X56478834Y-126867328D01*
X56546628Y-126967460D01*
X56612869Y-127087678D01*
X56682558Y-127236410D01*
X56760697Y-127422084D01*
X56781305Y-127473180D01*
X56840031Y-127617911D01*
X56885668Y-127722758D01*
X56922960Y-127794134D01*
X56956652Y-127838447D01*
X56991490Y-127862108D01*
X57032217Y-127871527D01*
X57077351Y-127873125D01*
X57173505Y-127859905D01*
X57275012Y-127826189D01*
X57293820Y-127817315D01*
X57355543Y-127776932D01*
X57412036Y-127717848D01*
X57466565Y-127634178D01*
X57522396Y-127520039D01*
X57582796Y-127369547D01*
X57651032Y-127176818D01*
X57653581Y-127169299D01*
X57695051Y-127050425D01*
X57735620Y-126940393D01*
X57770177Y-126852728D01*
X57790691Y-126806524D01*
X57857873Y-126708108D01*
X57957402Y-126605987D01*
X58075152Y-126513807D01*
X58128381Y-126480327D01*
X58232150Y-126420120D01*
X58111698Y-126377339D01*
X57992879Y-126316315D01*
X57910953Y-126234391D01*
X57869339Y-126138241D01*
X57871458Y-126034544D01*
X57899599Y-125963164D01*
X57934059Y-125901153D01*
X57959545Y-125967857D01*
X58003852Y-126034508D01*
X58068034Y-126078312D01*
X58109799Y-126087188D01*
X58134152Y-126069439D01*
X58133162Y-126026176D01*
X58110149Y-125972379D01*
X58074626Y-125928504D01*
X58036722Y-125880799D01*
X58037890Y-125849967D01*
X58070106Y-125837292D01*
X58125346Y-125844058D01*
X58195584Y-125871551D01*
X58245495Y-125901153D01*
X58303423Y-125938659D01*
X58342620Y-125960709D01*
X58349847Y-125963164D01*
X58352936Y-125941953D01*
X58338324Y-125884388D01*
X58315374Y-125818355D01*
X58321075Y-125794511D01*
X58361515Y-125793550D01*
X58419440Y-125825067D01*
G37*
X58419440Y-125825067D02*
X58472309Y-125895136D01*
X58513111Y-125955144D01*
X58541295Y-125967890D01*
X58555947Y-125933354D01*
X58557914Y-125897018D01*
X58569513Y-125849656D01*
X58596626Y-125841431D01*
X58620871Y-125865476D01*
X58655193Y-125894257D01*
X58694451Y-125913597D01*
X58746944Y-125958627D01*
X58768965Y-126013738D01*
X58785895Y-126064636D01*
X58806473Y-126070581D01*
X58813431Y-126064835D01*
X58842405Y-126042790D01*
X58861843Y-126048957D01*
X58873487Y-126088816D01*
X58879078Y-126167850D01*
X58880375Y-126275512D01*
X58881972Y-126392443D01*
X58888074Y-126471766D01*
X58900650Y-126525418D01*
X58921665Y-126565337D01*
X58929984Y-126576513D01*
X58970155Y-126642792D01*
X58980249Y-126694747D01*
X58960661Y-126723120D01*
X58923783Y-126722587D01*
X58861125Y-126708056D01*
X58782826Y-126693057D01*
X58774892Y-126691709D01*
X58681811Y-126676140D01*
X58718649Y-126764306D01*
X58743146Y-126841556D01*
X58764175Y-126939270D01*
X58771658Y-126990062D01*
X58779072Y-127070735D01*
X58773576Y-127121346D01*
X58749545Y-127160903D01*
X58709198Y-127201105D01*
X58669470Y-127242884D01*
X58648320Y-127283693D01*
X58646505Y-127333393D01*
X58664782Y-127401851D01*
X58703906Y-127498928D01*
X58737906Y-127575469D01*
X58768693Y-127646278D01*
X58788822Y-127704605D01*
X58800041Y-127763528D01*
X58804099Y-127836128D01*
X58802747Y-127935484D01*
X58799275Y-128034356D01*
X58791821Y-128178556D01*
X58780728Y-128286472D01*
X58763882Y-128371405D01*
X58739168Y-128446655D01*
X58730282Y-128468438D01*
X58609022Y-128702919D01*
X58460944Y-128895863D01*
X58285671Y-129047712D01*
X58174393Y-129115548D01*
X58089007Y-129172976D01*
X58041853Y-129237997D01*
X58034928Y-129256134D01*
X58005085Y-129318283D01*
X57954333Y-129398566D01*
X57903508Y-129466974D01*
X57800785Y-129597311D01*
X57727113Y-129701006D01*
X57678678Y-129788579D01*
X57651665Y-129870547D01*
X57642259Y-129957432D01*
X57646646Y-130059752D01*
X57656213Y-130148955D01*
X57668214Y-130225832D01*
X57684495Y-130265019D01*
X57711390Y-130278395D01*
X57725671Y-130279180D01*
X57788635Y-130294046D01*
X57827636Y-130315598D01*
X57890816Y-130345399D01*
X57934216Y-130352805D01*
X57991473Y-130368958D01*
X58056396Y-130407635D01*
X58066343Y-130415606D01*
X58121733Y-130455843D01*
X58165328Y-130476775D01*
X58171500Y-130477617D01*
X58210184Y-130494565D01*
X58249225Y-130528741D01*
X58275512Y-130572163D01*
X58260854Y-130601880D01*
X58202766Y-130619323D01*
X58098763Y-130625925D01*
X58080423Y-130626066D01*
X57991506Y-130630460D01*
X57946288Y-130643857D01*
X57937796Y-130658912D01*
X57924059Y-130704602D01*
X57906713Y-130733887D01*
X57881700Y-130760761D01*
X57863658Y-130746933D01*
X57850902Y-130720024D01*
X57814077Y-130675339D01*
X57750325Y-130628922D01*
X57720488Y-130612890D01*
X57647610Y-130573559D01*
X57589279Y-130534661D01*
X57575076Y-130522402D01*
X57530797Y-130496361D01*
X57469424Y-130501721D01*
X57459164Y-130504528D01*
X57391579Y-130516216D01*
X57359632Y-130499882D01*
X57354886Y-130476038D01*
X57334848Y-130451749D01*
X57284928Y-130418608D01*
X57266567Y-130408760D01*
X57207154Y-130381745D01*
X57162658Y-130377276D01*
X57107772Y-130395041D01*
X57081421Y-130406453D01*
X57018095Y-130430506D01*
X56974801Y-130439858D01*
X56967430Y-130438566D01*
X56954983Y-130406536D01*
X56975776Y-130356939D01*
X57022904Y-130301348D01*
X57073020Y-130261592D01*
X57136590Y-130217613D01*
X57162813Y-130189506D01*
X57156305Y-130166679D01*
X57125443Y-130141287D01*
X57098333Y-130116215D01*
X57102631Y-130090635D01*
X57135569Y-130051736D01*
X57158761Y-130023271D01*
X57162977Y-130014003D01*
X57343062Y-130014003D01*
X57345211Y-130110227D01*
X57349625Y-130187302D01*
X57356274Y-130232221D01*
X57359020Y-130237839D01*
X57392399Y-130252121D01*
X57436882Y-130254028D01*
X57472009Y-130245164D01*
X57478238Y-130228484D01*
X57478235Y-130189907D01*
X57490617Y-130168396D01*
X57504981Y-130132667D01*
X57504581Y-130070617D01*
X57491078Y-129980234D01*
X57468268Y-129880236D01*
X57440008Y-129792862D01*
X57410235Y-129726451D01*
X57382885Y-129689340D01*
X57361896Y-129689869D01*
X57357737Y-129697784D01*
X57350516Y-129740521D01*
X57345683Y-129816142D01*
X57343209Y-129911639D01*
X57343062Y-130014003D01*
X57162977Y-130014003D01*
X57173365Y-129991171D01*
X57180618Y-129944997D01*
X57181756Y-129874309D01*
X57178019Y-129768670D01*
X57175475Y-129715088D01*
X57161846Y-129436250D01*
X57031052Y-129376371D01*
X56954099Y-129334561D01*
X56894590Y-129290376D01*
X56872451Y-129264535D01*
X56839387Y-129223914D01*
X56814512Y-129212422D01*
X56783374Y-129192644D01*
X56745901Y-129144232D01*
X56739894Y-129134123D01*
X56705287Y-129084369D01*
X56678466Y-129076178D01*
X56666720Y-129084670D01*
X56625059Y-129111629D01*
X56601217Y-129097054D01*
X56598343Y-129076931D01*
X56581443Y-129051704D01*
X56563645Y-129053817D01*
X56523900Y-129051641D01*
X56513242Y-129041720D01*
X56480046Y-129026715D01*
X56461123Y-129030280D01*
X56429855Y-129025417D01*
X56424711Y-129005171D01*
X56409178Y-128977703D01*
X56387503Y-128980366D01*
X56355609Y-128979993D01*
X56350296Y-128968727D01*
X56329744Y-128949302D01*
X56300687Y-128946547D01*
X56260298Y-128957811D01*
X56251078Y-128969810D01*
X56233162Y-128988519D01*
X56194075Y-128986684D01*
X56155804Y-128968223D01*
X56142233Y-128950419D01*
X56110082Y-128923157D01*
X56080187Y-128926454D01*
X56045699Y-128926052D01*
X56014053Y-128894316D01*
X55981905Y-128835147D01*
X55945463Y-128743045D01*
X55918296Y-128645793D01*
X55914016Y-128622917D01*
X55896711Y-128545011D01*
X55878388Y-128508579D01*
X55863059Y-128515623D01*
X55854734Y-128568145D01*
X55854203Y-128593064D01*
X55848588Y-128662256D01*
X55830964Y-128686530D01*
X55823197Y-128685587D01*
X55784076Y-128651409D01*
X55750328Y-128587492D01*
X55731481Y-128513531D01*
X55730165Y-128493242D01*
X55720191Y-128429656D01*
X55705375Y-128394024D01*
X55688904Y-128379525D01*
X55681806Y-128407363D01*
X55680950Y-128437432D01*
X55672347Y-128499526D01*
X55646487Y-128515340D01*
X55602084Y-128485565D01*
X55598221Y-128481764D01*
X55577146Y-128442234D01*
X55550867Y-128366958D01*
X55522921Y-128269022D01*
X55496846Y-128161512D01*
X55476180Y-128057515D01*
X55467220Y-127997149D01*
X55458508Y-127937449D01*
X55444374Y-127852542D01*
X55434786Y-127798711D01*
X55423703Y-127741358D01*
X55417375Y-127720171D01*
X55415366Y-127738551D01*
X55417237Y-127799899D01*
X55422049Y-127897930D01*
X55427966Y-128006430D01*
X55433594Y-128100333D01*
X55438073Y-128165651D01*
X55439609Y-128183184D01*
X55429014Y-128224507D01*
X55407718Y-128232793D01*
X55373731Y-128210873D01*
X55333872Y-128153638D01*
X55294406Y-128073873D01*
X55261598Y-127984365D01*
X55241712Y-127897900D01*
X55240993Y-127892509D01*
X55222131Y-127807333D01*
X55188860Y-127707827D01*
X55167045Y-127656109D01*
X55128396Y-127551542D01*
X55099437Y-127434825D01*
X55091853Y-127384158D01*
X55081587Y-127307441D01*
X55070873Y-127277159D01*
X55058564Y-127290145D01*
X55058179Y-127291116D01*
X55039694Y-127385111D01*
X55041842Y-127506143D01*
X55063494Y-127636670D01*
X55085257Y-127711895D01*
X55115076Y-127799014D01*
X55129146Y-127848065D01*
X55127085Y-127868149D01*
X55108511Y-127868366D01*
X55079056Y-127859608D01*
X54979790Y-127804780D01*
X54906152Y-127709807D01*
X54859398Y-127577751D01*
X54840783Y-127411676D01*
X54844366Y-127286956D01*
X54880915Y-127080133D01*
X54959001Y-126898082D01*
X55081500Y-126734490D01*
X55108911Y-126706093D01*
X55237643Y-126595533D01*
X55370938Y-126522294D01*
X55523390Y-126480095D01*
X55670434Y-126464380D01*
X55843255Y-126463441D01*
X55984452Y-126485198D01*
X56108836Y-126534891D01*
X56231218Y-126617758D01*
X56318574Y-126693616D01*
X56404483Y-126778856D01*
X56478834Y-126867328D01*
X56546628Y-126967460D01*
X56612869Y-127087678D01*
X56682558Y-127236410D01*
X56760697Y-127422084D01*
X56781305Y-127473180D01*
X56840031Y-127617911D01*
X56885668Y-127722758D01*
X56922960Y-127794134D01*
X56956652Y-127838447D01*
X56991490Y-127862108D01*
X57032217Y-127871527D01*
X57077351Y-127873125D01*
X57173505Y-127859905D01*
X57275012Y-127826189D01*
X57293820Y-127817315D01*
X57355543Y-127776932D01*
X57412036Y-127717848D01*
X57466565Y-127634178D01*
X57522396Y-127520039D01*
X57582796Y-127369547D01*
X57651032Y-127176818D01*
X57653581Y-127169299D01*
X57695051Y-127050425D01*
X57735620Y-126940393D01*
X57770177Y-126852728D01*
X57790691Y-126806524D01*
X57857873Y-126708108D01*
X57957402Y-126605987D01*
X58075152Y-126513807D01*
X58128381Y-126480327D01*
X58232150Y-126420120D01*
X58111698Y-126377339D01*
X57992879Y-126316315D01*
X57910953Y-126234391D01*
X57869339Y-126138241D01*
X57871458Y-126034544D01*
X57899599Y-125963164D01*
X57934059Y-125901153D01*
X57959545Y-125967857D01*
X58003852Y-126034508D01*
X58068034Y-126078312D01*
X58109799Y-126087188D01*
X58134152Y-126069439D01*
X58133162Y-126026176D01*
X58110149Y-125972379D01*
X58074626Y-125928504D01*
X58036722Y-125880799D01*
X58037890Y-125849967D01*
X58070106Y-125837292D01*
X58125346Y-125844058D01*
X58195584Y-125871551D01*
X58245495Y-125901153D01*
X58303423Y-125938659D01*
X58342620Y-125960709D01*
X58349847Y-125963164D01*
X58352936Y-125941953D01*
X58338324Y-125884388D01*
X58315374Y-125818355D01*
X58321075Y-125794511D01*
X58361515Y-125793550D01*
X58419440Y-125825067D01*
D12*
X79236000Y-124288000D02*
X77736000Y-124288000D01*
X78486000Y-123538000D02*
X78486000Y-125038000D01*
X78765000Y-133819000D02*
X78207000Y-133819000D01*
X79158000Y-133779000D02*
X77814000Y-133779000D01*
X79399000Y-133739000D02*
X77573000Y-133739000D01*
X79590000Y-133699000D02*
X77382000Y-133699000D01*
X79751000Y-133659000D02*
X77221000Y-133659000D01*
X79893000Y-133619000D02*
X77079000Y-133619000D01*
X80022000Y-133579000D02*
X76950000Y-133579000D01*
X80140000Y-133539000D02*
X76832000Y-133539000D01*
X80249000Y-133499000D02*
X76723000Y-133499000D01*
X80352000Y-133459000D02*
X76620000Y-133459000D01*
X80448000Y-133419000D02*
X76524000Y-133419000D01*
X80539000Y-133379000D02*
X76433000Y-133379000D01*
X80626000Y-133339000D02*
X76346000Y-133339000D01*
X80708000Y-133299000D02*
X76264000Y-133299000D01*
X80787000Y-133259000D02*
X76185000Y-133259000D01*
X80863000Y-133219000D02*
X76109000Y-133219000D01*
X80935000Y-133179000D02*
X76037000Y-133179000D01*
X81005000Y-133139000D02*
X75967000Y-133139000D01*
X81073000Y-133099000D02*
X75899000Y-133099000D01*
X81138000Y-133059000D02*
X75834000Y-133059000D01*
X81201000Y-133019000D02*
X75771000Y-133019000D01*
X81263000Y-132979000D02*
X75709000Y-132979000D01*
X81322000Y-132939000D02*
X75650000Y-132939000D01*
X81380000Y-132899000D02*
X75592000Y-132899000D01*
X81435000Y-132859000D02*
X75537000Y-132859000D01*
X81490000Y-132819000D02*
X75482000Y-132819000D01*
X81543000Y-132779000D02*
X75429000Y-132779000D01*
X81594000Y-132739000D02*
X75378000Y-132739000D01*
X81644000Y-132699000D02*
X75328000Y-132699000D01*
X81693000Y-132659000D02*
X75279000Y-132659000D01*
X81741000Y-132619000D02*
X75231000Y-132619000D01*
X81788000Y-132579000D02*
X75184000Y-132579000D01*
X81833000Y-132539000D02*
X75139000Y-132539000D01*
X81877000Y-132499000D02*
X75095000Y-132499000D01*
X81921000Y-132459000D02*
X75051000Y-132459000D01*
X81963000Y-132419000D02*
X75009000Y-132419000D01*
X77305000Y-132379000D02*
X74968000Y-132379000D01*
X82004000Y-132379000D02*
X79667000Y-132379000D01*
X77305000Y-132339000D02*
X74927000Y-132339000D01*
X82045000Y-132339000D02*
X79667000Y-132339000D01*
X77305000Y-132299000D02*
X74888000Y-132299000D01*
X82084000Y-132299000D02*
X79667000Y-132299000D01*
X77305000Y-132259000D02*
X74849000Y-132259000D01*
X82123000Y-132259000D02*
X79667000Y-132259000D01*
X77305000Y-132219000D02*
X74811000Y-132219000D01*
X82161000Y-132219000D02*
X79667000Y-132219000D01*
X77305000Y-132179000D02*
X74774000Y-132179000D01*
X82198000Y-132179000D02*
X79667000Y-132179000D01*
X77305000Y-132139000D02*
X74738000Y-132139000D01*
X82234000Y-132139000D02*
X79667000Y-132139000D01*
X77305000Y-132099000D02*
X74702000Y-132099000D01*
X82270000Y-132099000D02*
X79667000Y-132099000D01*
X77305000Y-132059000D02*
X74667000Y-132059000D01*
X82305000Y-132059000D02*
X79667000Y-132059000D01*
X77305000Y-132019000D02*
X74633000Y-132019000D01*
X82339000Y-132019000D02*
X79667000Y-132019000D01*
X77305000Y-131979000D02*
X74600000Y-131979000D01*
X82372000Y-131979000D02*
X79667000Y-131979000D01*
X77305000Y-131939000D02*
X74567000Y-131939000D01*
X82405000Y-131939000D02*
X79667000Y-131939000D01*
X77305000Y-131899000D02*
X74535000Y-131899000D01*
X82437000Y-131899000D02*
X79667000Y-131899000D01*
X77305000Y-131859000D02*
X74504000Y-131859000D01*
X82468000Y-131859000D02*
X79667000Y-131859000D01*
X77305000Y-131819000D02*
X74473000Y-131819000D01*
X82499000Y-131819000D02*
X79667000Y-131819000D01*
X77305000Y-131779000D02*
X74443000Y-131779000D01*
X82529000Y-131779000D02*
X79667000Y-131779000D01*
X77305000Y-131739000D02*
X74414000Y-131739000D01*
X82558000Y-131739000D02*
X79667000Y-131739000D01*
X77305000Y-131699000D02*
X74385000Y-131699000D01*
X82587000Y-131699000D02*
X79667000Y-131699000D01*
X77305000Y-131659000D02*
X74356000Y-131659000D01*
X82616000Y-131659000D02*
X79667000Y-131659000D01*
X77305000Y-131619000D02*
X74329000Y-131619000D01*
X82643000Y-131619000D02*
X79667000Y-131619000D01*
X77305000Y-131579000D02*
X74301000Y-131579000D01*
X82671000Y-131579000D02*
X79667000Y-131579000D01*
X77305000Y-131539000D02*
X74275000Y-131539000D01*
X82697000Y-131539000D02*
X79667000Y-131539000D01*
X77305000Y-131499000D02*
X74249000Y-131499000D01*
X82723000Y-131499000D02*
X79667000Y-131499000D01*
X77305000Y-131459000D02*
X74223000Y-131459000D01*
X82749000Y-131459000D02*
X79667000Y-131459000D01*
X77305000Y-131419000D02*
X74198000Y-131419000D01*
X82774000Y-131419000D02*
X79667000Y-131419000D01*
X77305000Y-131379000D02*
X74174000Y-131379000D01*
X82798000Y-131379000D02*
X79667000Y-131379000D01*
X77305000Y-131339000D02*
X74150000Y-131339000D01*
X82822000Y-131339000D02*
X79667000Y-131339000D01*
X77305000Y-131299000D02*
X74126000Y-131299000D01*
X82846000Y-131299000D02*
X79667000Y-131299000D01*
X77305000Y-131259000D02*
X74103000Y-131259000D01*
X82869000Y-131259000D02*
X79667000Y-131259000D01*
X77305000Y-131219000D02*
X74081000Y-131219000D01*
X82891000Y-131219000D02*
X79667000Y-131219000D01*
X77305000Y-131179000D02*
X74058000Y-131179000D01*
X82914000Y-131179000D02*
X79667000Y-131179000D01*
X77305000Y-131139000D02*
X74037000Y-131139000D01*
X82935000Y-131139000D02*
X79667000Y-131139000D01*
X77305000Y-131099000D02*
X74016000Y-131099000D01*
X82956000Y-131099000D02*
X79667000Y-131099000D01*
X77305000Y-131059000D02*
X73995000Y-131059000D01*
X82977000Y-131059000D02*
X79667000Y-131059000D01*
X77305000Y-131019000D02*
X73975000Y-131019000D01*
X82997000Y-131019000D02*
X79667000Y-131019000D01*
X77305000Y-130979000D02*
X73955000Y-130979000D01*
X83017000Y-130979000D02*
X79667000Y-130979000D01*
X77305000Y-130939000D02*
X73936000Y-130939000D01*
X83036000Y-130939000D02*
X79667000Y-130939000D01*
X77305000Y-130899000D02*
X73917000Y-130899000D01*
X83055000Y-130899000D02*
X79667000Y-130899000D01*
X77305000Y-130859000D02*
X73898000Y-130859000D01*
X83074000Y-130859000D02*
X79667000Y-130859000D01*
X77305000Y-130819000D02*
X73880000Y-130819000D01*
X83092000Y-130819000D02*
X79667000Y-130819000D01*
X77305000Y-130779000D02*
X73862000Y-130779000D01*
X83110000Y-130779000D02*
X79667000Y-130779000D01*
X77305000Y-130739000D02*
X73845000Y-130739000D01*
X83127000Y-130739000D02*
X79667000Y-130739000D01*
X77305000Y-130699000D02*
X73828000Y-130699000D01*
X83144000Y-130699000D02*
X79667000Y-130699000D01*
X77305000Y-130659000D02*
X73812000Y-130659000D01*
X83160000Y-130659000D02*
X79667000Y-130659000D01*
X77305000Y-130619000D02*
X73795000Y-130619000D01*
X83177000Y-130619000D02*
X79667000Y-130619000D01*
X77305000Y-130579000D02*
X73780000Y-130579000D01*
X83192000Y-130579000D02*
X79667000Y-130579000D01*
X77305000Y-130539000D02*
X73764000Y-130539000D01*
X83208000Y-130539000D02*
X79667000Y-130539000D01*
X77305000Y-130499000D02*
X73749000Y-130499000D01*
X83223000Y-130499000D02*
X79667000Y-130499000D01*
X77305000Y-130459000D02*
X73735000Y-130459000D01*
X83237000Y-130459000D02*
X79667000Y-130459000D01*
X77305000Y-130419000D02*
X73721000Y-130419000D01*
X83251000Y-130419000D02*
X79667000Y-130419000D01*
X77305000Y-130379000D02*
X73707000Y-130379000D01*
X83265000Y-130379000D02*
X79667000Y-130379000D01*
X77305000Y-130339000D02*
X73694000Y-130339000D01*
X83278000Y-130339000D02*
X79667000Y-130339000D01*
X77305000Y-130299000D02*
X73680000Y-130299000D01*
X83292000Y-130299000D02*
X79667000Y-130299000D01*
X77305000Y-130259000D02*
X73668000Y-130259000D01*
X83304000Y-130259000D02*
X79667000Y-130259000D01*
X77305000Y-130219000D02*
X73655000Y-130219000D01*
X83317000Y-130219000D02*
X79667000Y-130219000D01*
X77305000Y-130179000D02*
X73643000Y-130179000D01*
X83329000Y-130179000D02*
X79667000Y-130179000D01*
X77305000Y-130139000D02*
X73632000Y-130139000D01*
X83340000Y-130139000D02*
X79667000Y-130139000D01*
X77305000Y-130099000D02*
X73621000Y-130099000D01*
X83351000Y-130099000D02*
X79667000Y-130099000D01*
X77305000Y-130059000D02*
X73610000Y-130059000D01*
X83362000Y-130059000D02*
X79667000Y-130059000D01*
X83373000Y-130019000D02*
X73599000Y-130019000D01*
X83383000Y-129979000D02*
X73589000Y-129979000D01*
X83393000Y-129939000D02*
X73579000Y-129939000D01*
X83403000Y-129899000D02*
X73569000Y-129899000D01*
X83412000Y-129859000D02*
X73560000Y-129859000D01*
X83421000Y-129819000D02*
X73551000Y-129819000D01*
X83429000Y-129779000D02*
X73543000Y-129779000D01*
X83437000Y-129739000D02*
X73535000Y-129739000D01*
X83445000Y-129699000D02*
X73527000Y-129699000D01*
X83453000Y-129659000D02*
X73519000Y-129659000D01*
X83460000Y-129619000D02*
X73512000Y-129619000D01*
X83467000Y-129579000D02*
X73505000Y-129579000D01*
X83473000Y-129539000D02*
X73499000Y-129539000D01*
X83479000Y-129499000D02*
X73493000Y-129499000D01*
X83485000Y-129459000D02*
X73487000Y-129459000D01*
X83491000Y-129418000D02*
X73481000Y-129418000D01*
X83496000Y-129378000D02*
X73476000Y-129378000D01*
X83501000Y-129338000D02*
X73471000Y-129338000D01*
X83506000Y-129298000D02*
X73466000Y-129298000D01*
X83510000Y-129258000D02*
X73462000Y-129258000D01*
X83514000Y-129218000D02*
X73458000Y-129218000D01*
X83517000Y-129178000D02*
X73455000Y-129178000D01*
X83521000Y-129138000D02*
X73451000Y-129138000D01*
X83524000Y-129098000D02*
X73448000Y-129098000D01*
X83526000Y-129058000D02*
X73446000Y-129058000D01*
X83529000Y-129018000D02*
X73443000Y-129018000D01*
X83531000Y-128978000D02*
X73441000Y-128978000D01*
X83533000Y-128938000D02*
X73439000Y-128938000D01*
X83534000Y-128898000D02*
X73438000Y-128898000D01*
X83535000Y-128858000D02*
X73437000Y-128858000D01*
X83536000Y-128818000D02*
X73436000Y-128818000D01*
X83536000Y-128778000D02*
X73436000Y-128778000D01*
X83536000Y-128738000D02*
X73436000Y-128738000D01*
X77102736Y-133636437D02*
G75*
G03X79866000Y-133637357I1383264J4898437D01*
G01*
X77102736Y-133636437D02*
G75*
G02X77106000Y-123838643I1383264J4898437D01*
G01*
X79869264Y-133636437D02*
G75*
G03X79866000Y-123838643I-1383264J4898437D01*
G01*
X61790000Y-122272000D02*
X61790000Y-121172000D01*
X60840000Y-122272000D02*
X61790000Y-122272000D01*
X60840000Y-123772000D02*
X60840000Y-122272000D01*
X70290000Y-122272000D02*
X70290000Y-117147000D01*
X71240000Y-122272000D02*
X70290000Y-122272000D01*
X71240000Y-123772000D02*
X71240000Y-122272000D01*
X75017000Y-117081000D02*
X76629000Y-115471000D01*
X74877000Y-116940000D02*
X76488000Y-115330000D01*
X74423000Y-121096000D02*
X74423000Y-114876000D01*
X84073000Y-121096000D02*
X84073000Y-114876000D01*
X84073000Y-114876000D02*
X74423000Y-114876000D01*
X84073000Y-121096000D02*
X74423000Y-121096000D01*
X76908000Y-116206000D02*
G75*
G03X76908000Y-116206000I-1155000J0D01*
G01*
X85680000Y-117086000D02*
X85680000Y-116086000D01*
X87040000Y-116086000D02*
X87040000Y-117086000D01*
X79744000Y-102952000D02*
X78244000Y-102952000D01*
X78994000Y-102202000D02*
X78994000Y-103702000D01*
X79273000Y-112483000D02*
X78715000Y-112483000D01*
X79666000Y-112443000D02*
X78322000Y-112443000D01*
X79907000Y-112403000D02*
X78081000Y-112403000D01*
X80098000Y-112363000D02*
X77890000Y-112363000D01*
X80259000Y-112323000D02*
X77729000Y-112323000D01*
X80401000Y-112283000D02*
X77587000Y-112283000D01*
X80530000Y-112243000D02*
X77458000Y-112243000D01*
X80648000Y-112203000D02*
X77340000Y-112203000D01*
X80757000Y-112163000D02*
X77231000Y-112163000D01*
X80860000Y-112123000D02*
X77128000Y-112123000D01*
X80956000Y-112083000D02*
X77032000Y-112083000D01*
X81047000Y-112043000D02*
X76941000Y-112043000D01*
X81134000Y-112003000D02*
X76854000Y-112003000D01*
X81216000Y-111963000D02*
X76772000Y-111963000D01*
X81295000Y-111923000D02*
X76693000Y-111923000D01*
X81371000Y-111883000D02*
X76617000Y-111883000D01*
X81443000Y-111843000D02*
X76545000Y-111843000D01*
X81513000Y-111803000D02*
X76475000Y-111803000D01*
X81581000Y-111763000D02*
X76407000Y-111763000D01*
X81646000Y-111723000D02*
X76342000Y-111723000D01*
X81709000Y-111683000D02*
X76279000Y-111683000D01*
X81771000Y-111643000D02*
X76217000Y-111643000D01*
X81830000Y-111603000D02*
X76158000Y-111603000D01*
X81888000Y-111563000D02*
X76100000Y-111563000D01*
X81943000Y-111523000D02*
X76045000Y-111523000D01*
X81998000Y-111483000D02*
X75990000Y-111483000D01*
X82051000Y-111443000D02*
X75937000Y-111443000D01*
X82102000Y-111403000D02*
X75886000Y-111403000D01*
X82152000Y-111363000D02*
X75836000Y-111363000D01*
X82201000Y-111323000D02*
X75787000Y-111323000D01*
X82249000Y-111283000D02*
X75739000Y-111283000D01*
X82296000Y-111243000D02*
X75692000Y-111243000D01*
X82341000Y-111203000D02*
X75647000Y-111203000D01*
X82385000Y-111163000D02*
X75603000Y-111163000D01*
X82429000Y-111123000D02*
X75559000Y-111123000D01*
X82471000Y-111083000D02*
X75517000Y-111083000D01*
X77813000Y-111043000D02*
X75476000Y-111043000D01*
X82512000Y-111043000D02*
X80175000Y-111043000D01*
X77813000Y-111003000D02*
X75435000Y-111003000D01*
X82553000Y-111003000D02*
X80175000Y-111003000D01*
X77813000Y-110963000D02*
X75396000Y-110963000D01*
X82592000Y-110963000D02*
X80175000Y-110963000D01*
X77813000Y-110923000D02*
X75357000Y-110923000D01*
X82631000Y-110923000D02*
X80175000Y-110923000D01*
X77813000Y-110883000D02*
X75319000Y-110883000D01*
X82669000Y-110883000D02*
X80175000Y-110883000D01*
X77813000Y-110843000D02*
X75282000Y-110843000D01*
X82706000Y-110843000D02*
X80175000Y-110843000D01*
X77813000Y-110803000D02*
X75246000Y-110803000D01*
X82742000Y-110803000D02*
X80175000Y-110803000D01*
X77813000Y-110763000D02*
X75210000Y-110763000D01*
X82778000Y-110763000D02*
X80175000Y-110763000D01*
X77813000Y-110723000D02*
X75175000Y-110723000D01*
X82813000Y-110723000D02*
X80175000Y-110723000D01*
X77813000Y-110683000D02*
X75141000Y-110683000D01*
X82847000Y-110683000D02*
X80175000Y-110683000D01*
X77813000Y-110643000D02*
X75108000Y-110643000D01*
X82880000Y-110643000D02*
X80175000Y-110643000D01*
X77813000Y-110603000D02*
X75075000Y-110603000D01*
X82913000Y-110603000D02*
X80175000Y-110603000D01*
X77813000Y-110563000D02*
X75043000Y-110563000D01*
X82945000Y-110563000D02*
X80175000Y-110563000D01*
X77813000Y-110523000D02*
X75012000Y-110523000D01*
X82976000Y-110523000D02*
X80175000Y-110523000D01*
X77813000Y-110483000D02*
X74981000Y-110483000D01*
X83007000Y-110483000D02*
X80175000Y-110483000D01*
X77813000Y-110443000D02*
X74951000Y-110443000D01*
X83037000Y-110443000D02*
X80175000Y-110443000D01*
X77813000Y-110403000D02*
X74922000Y-110403000D01*
X83066000Y-110403000D02*
X80175000Y-110403000D01*
X77813000Y-110363000D02*
X74893000Y-110363000D01*
X83095000Y-110363000D02*
X80175000Y-110363000D01*
X77813000Y-110323000D02*
X74864000Y-110323000D01*
X83124000Y-110323000D02*
X80175000Y-110323000D01*
X77813000Y-110283000D02*
X74837000Y-110283000D01*
X83151000Y-110283000D02*
X80175000Y-110283000D01*
X77813000Y-110243000D02*
X74809000Y-110243000D01*
X83179000Y-110243000D02*
X80175000Y-110243000D01*
X77813000Y-110203000D02*
X74783000Y-110203000D01*
X83205000Y-110203000D02*
X80175000Y-110203000D01*
X77813000Y-110163000D02*
X74757000Y-110163000D01*
X83231000Y-110163000D02*
X80175000Y-110163000D01*
X77813000Y-110123000D02*
X74731000Y-110123000D01*
X83257000Y-110123000D02*
X80175000Y-110123000D01*
X77813000Y-110083000D02*
X74706000Y-110083000D01*
X83282000Y-110083000D02*
X80175000Y-110083000D01*
X77813000Y-110043000D02*
X74682000Y-110043000D01*
X83306000Y-110043000D02*
X80175000Y-110043000D01*
X77813000Y-110003000D02*
X74658000Y-110003000D01*
X83330000Y-110003000D02*
X80175000Y-110003000D01*
X77813000Y-109963000D02*
X74634000Y-109963000D01*
X83354000Y-109963000D02*
X80175000Y-109963000D01*
X77813000Y-109923000D02*
X74611000Y-109923000D01*
X83377000Y-109923000D02*
X80175000Y-109923000D01*
X77813000Y-109883000D02*
X74589000Y-109883000D01*
X83399000Y-109883000D02*
X80175000Y-109883000D01*
X77813000Y-109843000D02*
X74566000Y-109843000D01*
X83422000Y-109843000D02*
X80175000Y-109843000D01*
X77813000Y-109803000D02*
X74545000Y-109803000D01*
X83443000Y-109803000D02*
X80175000Y-109803000D01*
X77813000Y-109763000D02*
X74524000Y-109763000D01*
X83464000Y-109763000D02*
X80175000Y-109763000D01*
X77813000Y-109723000D02*
X74503000Y-109723000D01*
X83485000Y-109723000D02*
X80175000Y-109723000D01*
X77813000Y-109683000D02*
X74483000Y-109683000D01*
X83505000Y-109683000D02*
X80175000Y-109683000D01*
X77813000Y-109643000D02*
X74463000Y-109643000D01*
X83525000Y-109643000D02*
X80175000Y-109643000D01*
X77813000Y-109603000D02*
X74444000Y-109603000D01*
X83544000Y-109603000D02*
X80175000Y-109603000D01*
X77813000Y-109563000D02*
X74425000Y-109563000D01*
X83563000Y-109563000D02*
X80175000Y-109563000D01*
X77813000Y-109523000D02*
X74406000Y-109523000D01*
X83582000Y-109523000D02*
X80175000Y-109523000D01*
X77813000Y-109483000D02*
X74388000Y-109483000D01*
X83600000Y-109483000D02*
X80175000Y-109483000D01*
X77813000Y-109443000D02*
X74370000Y-109443000D01*
X83618000Y-109443000D02*
X80175000Y-109443000D01*
X77813000Y-109403000D02*
X74353000Y-109403000D01*
X83635000Y-109403000D02*
X80175000Y-109403000D01*
X77813000Y-109363000D02*
X74336000Y-109363000D01*
X83652000Y-109363000D02*
X80175000Y-109363000D01*
X77813000Y-109323000D02*
X74320000Y-109323000D01*
X83668000Y-109323000D02*
X80175000Y-109323000D01*
X77813000Y-109283000D02*
X74303000Y-109283000D01*
X83685000Y-109283000D02*
X80175000Y-109283000D01*
X77813000Y-109243000D02*
X74288000Y-109243000D01*
X83700000Y-109243000D02*
X80175000Y-109243000D01*
X77813000Y-109203000D02*
X74272000Y-109203000D01*
X83716000Y-109203000D02*
X80175000Y-109203000D01*
X77813000Y-109163000D02*
X74257000Y-109163000D01*
X83731000Y-109163000D02*
X80175000Y-109163000D01*
X77813000Y-109123000D02*
X74243000Y-109123000D01*
X83745000Y-109123000D02*
X80175000Y-109123000D01*
X77813000Y-109083000D02*
X74229000Y-109083000D01*
X83759000Y-109083000D02*
X80175000Y-109083000D01*
X77813000Y-109043000D02*
X74215000Y-109043000D01*
X83773000Y-109043000D02*
X80175000Y-109043000D01*
X77813000Y-109003000D02*
X74202000Y-109003000D01*
X83786000Y-109003000D02*
X80175000Y-109003000D01*
X77813000Y-108963000D02*
X74188000Y-108963000D01*
X83800000Y-108963000D02*
X80175000Y-108963000D01*
X77813000Y-108923000D02*
X74176000Y-108923000D01*
X83812000Y-108923000D02*
X80175000Y-108923000D01*
X77813000Y-108883000D02*
X74163000Y-108883000D01*
X83825000Y-108883000D02*
X80175000Y-108883000D01*
X77813000Y-108843000D02*
X74151000Y-108843000D01*
X83837000Y-108843000D02*
X80175000Y-108843000D01*
X77813000Y-108803000D02*
X74140000Y-108803000D01*
X83848000Y-108803000D02*
X80175000Y-108803000D01*
X77813000Y-108763000D02*
X74129000Y-108763000D01*
X83859000Y-108763000D02*
X80175000Y-108763000D01*
X77813000Y-108723000D02*
X74118000Y-108723000D01*
X83870000Y-108723000D02*
X80175000Y-108723000D01*
X83881000Y-108683000D02*
X74107000Y-108683000D01*
X83891000Y-108643000D02*
X74097000Y-108643000D01*
X83901000Y-108603000D02*
X74087000Y-108603000D01*
X83911000Y-108563000D02*
X74077000Y-108563000D01*
X83920000Y-108523000D02*
X74068000Y-108523000D01*
X83929000Y-108483000D02*
X74059000Y-108483000D01*
X83937000Y-108443000D02*
X74051000Y-108443000D01*
X83945000Y-108403000D02*
X74043000Y-108403000D01*
X83953000Y-108363000D02*
X74035000Y-108363000D01*
X83961000Y-108323000D02*
X74027000Y-108323000D01*
X83968000Y-108283000D02*
X74020000Y-108283000D01*
X83975000Y-108243000D02*
X74013000Y-108243000D01*
X83981000Y-108203000D02*
X74007000Y-108203000D01*
X83987000Y-108163000D02*
X74001000Y-108163000D01*
X83993000Y-108123000D02*
X73995000Y-108123000D01*
X83999000Y-108082000D02*
X73989000Y-108082000D01*
X84004000Y-108042000D02*
X73984000Y-108042000D01*
X84009000Y-108002000D02*
X73979000Y-108002000D01*
X84014000Y-107962000D02*
X73974000Y-107962000D01*
X84018000Y-107922000D02*
X73970000Y-107922000D01*
X84022000Y-107882000D02*
X73966000Y-107882000D01*
X84025000Y-107842000D02*
X73963000Y-107842000D01*
X84029000Y-107802000D02*
X73959000Y-107802000D01*
X84032000Y-107762000D02*
X73956000Y-107762000D01*
X84034000Y-107722000D02*
X73954000Y-107722000D01*
X84037000Y-107682000D02*
X73951000Y-107682000D01*
X84039000Y-107642000D02*
X73949000Y-107642000D01*
X84041000Y-107602000D02*
X73947000Y-107602000D01*
X84042000Y-107562000D02*
X73946000Y-107562000D01*
X84043000Y-107522000D02*
X73945000Y-107522000D01*
X84044000Y-107482000D02*
X73944000Y-107482000D01*
X84044000Y-107442000D02*
X73944000Y-107442000D01*
X84044000Y-107402000D02*
X73944000Y-107402000D01*
X77610736Y-112300437D02*
G75*
G03X80374000Y-112301357I1383264J4898437D01*
G01*
X77610736Y-112300437D02*
G75*
G02X77614000Y-102502643I1383264J4898437D01*
G01*
X80377264Y-112300437D02*
G75*
G03X80374000Y-102502643I-1383264J4898437D01*
G01*
X69554000Y-108772000D02*
X69554000Y-103572000D01*
X73194000Y-103572000D02*
X73194000Y-108772000D01*
X55676000Y-102412000D02*
X58676000Y-102412000D01*
X55676000Y-115012000D02*
X55676000Y-102412000D01*
X58676000Y-115012000D02*
X55676000Y-115012000D01*
X68276000Y-115012000D02*
X65276000Y-115012000D01*
X68276000Y-102412000D02*
X68276000Y-115012000D01*
X65276000Y-102412000D02*
X68276000Y-102412000D01*
X58772000Y-119760000D02*
X53372000Y-119760000D01*
X58772000Y-116460000D02*
X53372000Y-116460000D01*
X58772000Y-119760000D02*
X58772000Y-116460000D01*
D10*
X73493333Y-134215142D02*
X73445714Y-134262761D01*
X73302857Y-134310380D01*
X73207619Y-134310380D01*
X73064761Y-134262761D01*
X72969523Y-134167523D01*
X72921904Y-134072285D01*
X72874285Y-133881809D01*
X72874285Y-133738952D01*
X72921904Y-133548476D01*
X72969523Y-133453238D01*
X73064761Y-133358000D01*
X73207619Y-133310380D01*
X73302857Y-133310380D01*
X73445714Y-133358000D01*
X73493333Y-133405619D01*
X74445714Y-134310380D02*
X73874285Y-134310380D01*
X74160000Y-134310380D02*
X74160000Y-133310380D01*
X74064761Y-133453238D01*
X73969523Y-133548476D01*
X73874285Y-133596095D01*
X58166095Y-133310380D02*
X58166095Y-134119904D01*
X58213714Y-134215142D01*
X58261333Y-134262761D01*
X58356571Y-134310380D01*
X58547047Y-134310380D01*
X58642285Y-134262761D01*
X58689904Y-134215142D01*
X58737523Y-134119904D01*
X58737523Y-133310380D01*
X59737523Y-134310380D02*
X59166095Y-134310380D01*
X59451809Y-134310380D02*
X59451809Y-133310380D01*
X59356571Y-133453238D01*
X59261333Y-133548476D01*
X59166095Y-133596095D01*
X79922761Y-122880380D02*
X79589428Y-122404190D01*
X79351333Y-122880380D02*
X79351333Y-121880380D01*
X79732285Y-121880380D01*
X79827523Y-121928000D01*
X79875142Y-121975619D01*
X79922761Y-122070857D01*
X79922761Y-122213714D01*
X79875142Y-122308952D01*
X79827523Y-122356571D01*
X79732285Y-122404190D01*
X79351333Y-122404190D01*
X80208476Y-121880380D02*
X80541809Y-122880380D01*
X80875142Y-121880380D01*
X81732285Y-122880380D02*
X81160857Y-122880380D01*
X81446571Y-122880380D02*
X81446571Y-121880380D01*
X81351333Y-122023238D01*
X81256095Y-122118476D01*
X81160857Y-122166095D01*
X88336380Y-117006666D02*
X87860190Y-117340000D01*
X88336380Y-117578095D02*
X87336380Y-117578095D01*
X87336380Y-117197142D01*
X87384000Y-117101904D01*
X87431619Y-117054285D01*
X87526857Y-117006666D01*
X87669714Y-117006666D01*
X87764952Y-117054285D01*
X87812571Y-117101904D01*
X87860190Y-117197142D01*
X87860190Y-117578095D01*
X87431619Y-116625714D02*
X87384000Y-116578095D01*
X87336380Y-116482857D01*
X87336380Y-116244761D01*
X87384000Y-116149523D01*
X87431619Y-116101904D01*
X87526857Y-116054285D01*
X87622095Y-116054285D01*
X87764952Y-116101904D01*
X88336380Y-116673333D01*
X88336380Y-116054285D01*
X74001333Y-112371142D02*
X73953714Y-112418761D01*
X73810857Y-112466380D01*
X73715619Y-112466380D01*
X73572761Y-112418761D01*
X73477523Y-112323523D01*
X73429904Y-112228285D01*
X73382285Y-112037809D01*
X73382285Y-111894952D01*
X73429904Y-111704476D01*
X73477523Y-111609238D01*
X73572761Y-111514000D01*
X73715619Y-111466380D01*
X73810857Y-111466380D01*
X73953714Y-111514000D01*
X74001333Y-111561619D01*
X74382285Y-111561619D02*
X74429904Y-111514000D01*
X74525142Y-111466380D01*
X74763238Y-111466380D01*
X74858476Y-111514000D01*
X74906095Y-111561619D01*
X74953714Y-111656857D01*
X74953714Y-111752095D01*
X74906095Y-111894952D01*
X74334666Y-112466380D01*
X74953714Y-112466380D01*
X70699333Y-111704380D02*
X70366000Y-111228190D01*
X70127904Y-111704380D02*
X70127904Y-110704380D01*
X70508857Y-110704380D01*
X70604095Y-110752000D01*
X70651714Y-110799619D01*
X70699333Y-110894857D01*
X70699333Y-111037714D01*
X70651714Y-111132952D01*
X70604095Y-111180571D01*
X70508857Y-111228190D01*
X70127904Y-111228190D01*
X71651714Y-111704380D02*
X71080285Y-111704380D01*
X71366000Y-111704380D02*
X71366000Y-110704380D01*
X71270761Y-110847238D01*
X71175523Y-110942476D01*
X71080285Y-110990095D01*
X69683333Y-114498380D02*
X69207142Y-114498380D01*
X69207142Y-113498380D01*
X70540476Y-114498380D02*
X69969047Y-114498380D01*
X70254761Y-114498380D02*
X70254761Y-113498380D01*
X70159523Y-113641238D01*
X70064285Y-113736476D01*
X69969047Y-113784095D01*
X54633904Y-121062380D02*
X54633904Y-120062380D01*
X54872000Y-120062380D01*
X55014857Y-120110000D01*
X55110095Y-120205238D01*
X55157714Y-120300476D01*
X55205333Y-120490952D01*
X55205333Y-120633809D01*
X55157714Y-120824285D01*
X55110095Y-120919523D01*
X55014857Y-121014761D01*
X54872000Y-121062380D01*
X54633904Y-121062380D01*
X56157714Y-121062380D02*
X55586285Y-121062380D01*
X55872000Y-121062380D02*
X55872000Y-120062380D01*
X55776761Y-120205238D01*
X55681523Y-120300476D01*
X55586285Y-120348095D01*
M02*
