G04 #@! TF.GenerationSoftware,KiCad,Pcbnew,(5.1.5)-3*
G04 #@! TF.CreationDate,2022-02-16T09:58:32-07:00*
G04 #@! TF.ProjectId,lm2596_breakout,6c6d3235-3936-45f6-9272-65616b6f7574,rev?*
G04 #@! TF.SameCoordinates,Original*
G04 #@! TF.FileFunction,Copper,L2,Bot*
G04 #@! TF.FilePolarity,Positive*
%FSLAX46Y46*%
G04 Gerber Fmt 4.6, Leading zero omitted, Abs format (unit mm)*
G04 Created by KiCad (PCBNEW (5.1.5)-3) date 2022-02-16 09:58:32*
%MOMM*%
%LPD*%
G04 APERTURE LIST*
%ADD10C,0.100000*%
%ADD11O,1.700000X1.700000*%
%ADD12R,1.700000X1.700000*%
%ADD13C,2.000000*%
%ADD14R,2.000000X2.000000*%
%ADD15C,1.440000*%
%ADD16C,0.800000*%
%ADD17C,0.254000*%
%ADD18C,0.250000*%
G04 APERTURE END LIST*
G04 #@! TA.AperFunction,SMDPad,CuDef*
D10*
G36*
X79093554Y-118618000D02*
G01*
X78740000Y-118264446D01*
X79164264Y-117840182D01*
X79517818Y-118193736D01*
X79093554Y-118618000D01*
G37*
G04 #@! TD.AperFunction*
G04 #@! TA.AperFunction,SMDPad,CuDef*
G36*
X78315736Y-119395818D02*
G01*
X77962182Y-119042264D01*
X78386446Y-118618000D01*
X78740000Y-118971554D01*
X78315736Y-119395818D01*
G37*
G04 #@! TD.AperFunction*
D11*
X86360000Y-124460000D03*
X86360000Y-127000000D03*
X86360000Y-129540000D03*
D12*
X86360000Y-132080000D03*
D13*
X78486000Y-131238000D03*
D14*
X78486000Y-126238000D03*
D15*
X81788000Y-119126000D03*
X79248000Y-116586000D03*
X76708000Y-119126000D03*
D13*
X78994000Y-109902000D03*
D14*
X78994000Y-104902000D03*
D11*
X53340000Y-124460000D03*
X53340000Y-127000000D03*
X53340000Y-129540000D03*
D12*
X53340000Y-132080000D03*
D11*
X86360000Y-104140000D03*
X86360000Y-106680000D03*
X86360000Y-109220000D03*
D12*
X86360000Y-111760000D03*
D11*
X53340000Y-104140000D03*
X53340000Y-106680000D03*
X53340000Y-109220000D03*
D12*
X53340000Y-111760000D03*
D16*
X78486000Y-120904000D03*
X79756000Y-120904000D03*
X81280000Y-120904000D03*
X82804000Y-120904000D03*
X84328000Y-120904000D03*
X85852000Y-120904000D03*
X87376000Y-120904000D03*
X88138000Y-120142000D03*
X86614000Y-120142000D03*
X85090000Y-120142000D03*
X83566000Y-120142000D03*
X80518000Y-119888000D03*
X80518000Y-117856000D03*
X84582000Y-115824000D03*
X84582000Y-118110000D03*
X82804000Y-116840000D03*
X74676000Y-129286000D03*
X74676000Y-127508000D03*
X73152000Y-126746000D03*
X74676000Y-131064000D03*
X73152000Y-130302000D03*
X74676000Y-132842000D03*
X73152000Y-132080000D03*
X73152000Y-128524000D03*
X58166000Y-127508000D03*
X59690000Y-126492000D03*
X58166000Y-125476000D03*
X59436000Y-124460000D03*
X58166000Y-123698000D03*
X59690000Y-133858000D03*
X59690000Y-130302000D03*
X59690000Y-132080000D03*
X58166000Y-131318000D03*
X59690000Y-128524000D03*
X58166000Y-129286000D03*
X58166000Y-133096000D03*
X61214000Y-132588000D03*
X64516000Y-132588000D03*
X62738000Y-132588000D03*
X68072000Y-132588000D03*
X66294000Y-132588000D03*
X70104000Y-132588000D03*
X61976000Y-131318000D03*
X65278000Y-131318000D03*
X63500000Y-131318000D03*
X68834000Y-131318000D03*
X67056000Y-131318000D03*
X70866000Y-131318000D03*
X61214000Y-130048000D03*
X64516000Y-130048000D03*
X62738000Y-130048000D03*
X68072000Y-130048000D03*
X66294000Y-130048000D03*
X70104000Y-130048000D03*
X61976000Y-128778000D03*
X65278000Y-128778000D03*
X63500000Y-128778000D03*
X68834000Y-128778000D03*
X67056000Y-128778000D03*
X70866000Y-128778000D03*
X61214000Y-127508000D03*
X64516000Y-127508000D03*
X62738000Y-127508000D03*
X68072000Y-127508000D03*
X66294000Y-127508000D03*
X70104000Y-127508000D03*
X62230000Y-126238000D03*
X65532000Y-126238000D03*
X63754000Y-126238000D03*
X69088000Y-126238000D03*
X67310000Y-126238000D03*
X71120000Y-126238000D03*
X70104000Y-124968000D03*
X68072000Y-124968000D03*
X66294000Y-124968000D03*
X64516000Y-124968000D03*
X62738000Y-124968000D03*
X61214000Y-124968000D03*
X66040000Y-116586000D03*
X51562000Y-118110000D03*
X53340000Y-116586000D03*
X53340000Y-119634000D03*
X69342000Y-116078000D03*
X70612000Y-116078000D03*
X71882000Y-116078000D03*
X73406000Y-116078000D03*
X71374000Y-117348000D03*
X72898000Y-117348000D03*
X74168000Y-117348000D03*
X72136000Y-118618000D03*
X73660000Y-118618000D03*
X71374000Y-119888000D03*
X72898000Y-119888000D03*
X72136000Y-121412000D03*
X73914000Y-121412000D03*
X74168000Y-119888000D03*
X70866000Y-121412000D03*
X70866000Y-118618000D03*
X69088000Y-102362000D03*
D17*
X68678010Y-101952010D02*
X69088000Y-102362000D01*
X53340000Y-104140000D02*
X55527990Y-101952010D01*
X55527990Y-101952010D02*
X68678010Y-101952010D01*
D18*
X76827091Y-119006909D02*
X76708000Y-119126000D01*
X78351091Y-119006909D02*
X76827091Y-119006909D01*
X79128909Y-116705091D02*
X79248000Y-116586000D01*
X79128909Y-118229091D02*
X79128909Y-116705091D01*
D17*
G36*
X53774166Y-102987413D02*
G01*
X53699069Y-102956307D01*
X53461243Y-102909000D01*
X53218757Y-102909000D01*
X52980931Y-102956307D01*
X52756903Y-103049102D01*
X52555283Y-103183820D01*
X52383820Y-103355283D01*
X52249102Y-103556903D01*
X52156307Y-103780931D01*
X52109000Y-104018757D01*
X52109000Y-104261243D01*
X52156307Y-104499069D01*
X52249102Y-104723097D01*
X52383820Y-104924717D01*
X52555283Y-105096180D01*
X52756903Y-105230898D01*
X52980931Y-105323693D01*
X53218757Y-105371000D01*
X53461243Y-105371000D01*
X53699069Y-105323693D01*
X53923097Y-105230898D01*
X54124717Y-105096180D01*
X54296180Y-104924717D01*
X54430898Y-104723097D01*
X54523693Y-104499069D01*
X54571000Y-104261243D01*
X54571000Y-104018757D01*
X54523693Y-103780931D01*
X54492587Y-103705834D01*
X55738411Y-102460010D01*
X67945000Y-102460010D01*
X67945000Y-134214000D01*
X51206000Y-134214000D01*
X51206000Y-132930000D01*
X52107157Y-132930000D01*
X52114513Y-133004689D01*
X52136299Y-133076508D01*
X52171678Y-133142696D01*
X52219289Y-133200711D01*
X52277304Y-133248322D01*
X52343492Y-133283701D01*
X52415311Y-133305487D01*
X52490000Y-133312843D01*
X52863750Y-133311000D01*
X52959000Y-133215750D01*
X52959000Y-132461000D01*
X53721000Y-132461000D01*
X53721000Y-133215750D01*
X53816250Y-133311000D01*
X54190000Y-133312843D01*
X54264689Y-133305487D01*
X54336508Y-133283701D01*
X54402696Y-133248322D01*
X54460711Y-133200711D01*
X54508322Y-133142696D01*
X54543701Y-133076508D01*
X54565487Y-133004689D01*
X54572843Y-132930000D01*
X54571000Y-132556250D01*
X54475750Y-132461000D01*
X53721000Y-132461000D01*
X52959000Y-132461000D01*
X52204250Y-132461000D01*
X52109000Y-132556250D01*
X52107157Y-132930000D01*
X51206000Y-132930000D01*
X51206000Y-131230000D01*
X52107157Y-131230000D01*
X52109000Y-131603750D01*
X52204250Y-131699000D01*
X52959000Y-131699000D01*
X52959000Y-130944250D01*
X53721000Y-130944250D01*
X53721000Y-131699000D01*
X54475750Y-131699000D01*
X54571000Y-131603750D01*
X54572843Y-131230000D01*
X54565487Y-131155311D01*
X54543701Y-131083492D01*
X54508322Y-131017304D01*
X54460711Y-130959289D01*
X54402696Y-130911678D01*
X54336508Y-130876299D01*
X54264689Y-130854513D01*
X54190000Y-130847157D01*
X53816250Y-130849000D01*
X53721000Y-130944250D01*
X52959000Y-130944250D01*
X52863750Y-130849000D01*
X52490000Y-130847157D01*
X52415311Y-130854513D01*
X52343492Y-130876299D01*
X52277304Y-130911678D01*
X52219289Y-130959289D01*
X52171678Y-131017304D01*
X52136299Y-131083492D01*
X52114513Y-131155311D01*
X52107157Y-131230000D01*
X51206000Y-131230000D01*
X51206000Y-129418757D01*
X52109000Y-129418757D01*
X52109000Y-129661243D01*
X52156307Y-129899069D01*
X52249102Y-130123097D01*
X52383820Y-130324717D01*
X52555283Y-130496180D01*
X52756903Y-130630898D01*
X52980931Y-130723693D01*
X53218757Y-130771000D01*
X53461243Y-130771000D01*
X53699069Y-130723693D01*
X53923097Y-130630898D01*
X54124717Y-130496180D01*
X54296180Y-130324717D01*
X54430898Y-130123097D01*
X54523693Y-129899069D01*
X54571000Y-129661243D01*
X54571000Y-129418757D01*
X54523693Y-129180931D01*
X54430898Y-128956903D01*
X54296180Y-128755283D01*
X54124717Y-128583820D01*
X53923097Y-128449102D01*
X53699069Y-128356307D01*
X53461243Y-128309000D01*
X53218757Y-128309000D01*
X52980931Y-128356307D01*
X52756903Y-128449102D01*
X52555283Y-128583820D01*
X52383820Y-128755283D01*
X52249102Y-128956903D01*
X52156307Y-129180931D01*
X52109000Y-129418757D01*
X51206000Y-129418757D01*
X51206000Y-126878757D01*
X52109000Y-126878757D01*
X52109000Y-127121243D01*
X52156307Y-127359069D01*
X52249102Y-127583097D01*
X52383820Y-127784717D01*
X52555283Y-127956180D01*
X52756903Y-128090898D01*
X52980931Y-128183693D01*
X53218757Y-128231000D01*
X53461243Y-128231000D01*
X53699069Y-128183693D01*
X53923097Y-128090898D01*
X54124717Y-127956180D01*
X54296180Y-127784717D01*
X54430898Y-127583097D01*
X54523693Y-127359069D01*
X54571000Y-127121243D01*
X54571000Y-126878757D01*
X54523693Y-126640931D01*
X54430898Y-126416903D01*
X54296180Y-126215283D01*
X54124717Y-126043820D01*
X53923097Y-125909102D01*
X53699069Y-125816307D01*
X53461243Y-125769000D01*
X53218757Y-125769000D01*
X52980931Y-125816307D01*
X52756903Y-125909102D01*
X52555283Y-126043820D01*
X52383820Y-126215283D01*
X52249102Y-126416903D01*
X52156307Y-126640931D01*
X52109000Y-126878757D01*
X51206000Y-126878757D01*
X51206000Y-124338757D01*
X52109000Y-124338757D01*
X52109000Y-124581243D01*
X52156307Y-124819069D01*
X52249102Y-125043097D01*
X52383820Y-125244717D01*
X52555283Y-125416180D01*
X52756903Y-125550898D01*
X52980931Y-125643693D01*
X53218757Y-125691000D01*
X53461243Y-125691000D01*
X53699069Y-125643693D01*
X53923097Y-125550898D01*
X54124717Y-125416180D01*
X54296180Y-125244717D01*
X54430898Y-125043097D01*
X54523693Y-124819069D01*
X54571000Y-124581243D01*
X54571000Y-124338757D01*
X54523693Y-124100931D01*
X54430898Y-123876903D01*
X54296180Y-123675283D01*
X54124717Y-123503820D01*
X53923097Y-123369102D01*
X53699069Y-123276307D01*
X53461243Y-123229000D01*
X53218757Y-123229000D01*
X52980931Y-123276307D01*
X52756903Y-123369102D01*
X52555283Y-123503820D01*
X52383820Y-123675283D01*
X52249102Y-123876903D01*
X52156307Y-124100931D01*
X52109000Y-124338757D01*
X51206000Y-124338757D01*
X51206000Y-112610000D01*
X52107157Y-112610000D01*
X52114513Y-112684689D01*
X52136299Y-112756508D01*
X52171678Y-112822696D01*
X52219289Y-112880711D01*
X52277304Y-112928322D01*
X52343492Y-112963701D01*
X52415311Y-112985487D01*
X52490000Y-112992843D01*
X52863750Y-112991000D01*
X52959000Y-112895750D01*
X52959000Y-112141000D01*
X53721000Y-112141000D01*
X53721000Y-112895750D01*
X53816250Y-112991000D01*
X54190000Y-112992843D01*
X54264689Y-112985487D01*
X54336508Y-112963701D01*
X54402696Y-112928322D01*
X54460711Y-112880711D01*
X54508322Y-112822696D01*
X54543701Y-112756508D01*
X54565487Y-112684689D01*
X54572843Y-112610000D01*
X54571000Y-112236250D01*
X54475750Y-112141000D01*
X53721000Y-112141000D01*
X52959000Y-112141000D01*
X52204250Y-112141000D01*
X52109000Y-112236250D01*
X52107157Y-112610000D01*
X51206000Y-112610000D01*
X51206000Y-110910000D01*
X52107157Y-110910000D01*
X52109000Y-111283750D01*
X52204250Y-111379000D01*
X52959000Y-111379000D01*
X52959000Y-110624250D01*
X53721000Y-110624250D01*
X53721000Y-111379000D01*
X54475750Y-111379000D01*
X54571000Y-111283750D01*
X54572843Y-110910000D01*
X54565487Y-110835311D01*
X54543701Y-110763492D01*
X54508322Y-110697304D01*
X54460711Y-110639289D01*
X54402696Y-110591678D01*
X54336508Y-110556299D01*
X54264689Y-110534513D01*
X54190000Y-110527157D01*
X53816250Y-110529000D01*
X53721000Y-110624250D01*
X52959000Y-110624250D01*
X52863750Y-110529000D01*
X52490000Y-110527157D01*
X52415311Y-110534513D01*
X52343492Y-110556299D01*
X52277304Y-110591678D01*
X52219289Y-110639289D01*
X52171678Y-110697304D01*
X52136299Y-110763492D01*
X52114513Y-110835311D01*
X52107157Y-110910000D01*
X51206000Y-110910000D01*
X51206000Y-109098757D01*
X52109000Y-109098757D01*
X52109000Y-109341243D01*
X52156307Y-109579069D01*
X52249102Y-109803097D01*
X52383820Y-110004717D01*
X52555283Y-110176180D01*
X52756903Y-110310898D01*
X52980931Y-110403693D01*
X53218757Y-110451000D01*
X53461243Y-110451000D01*
X53699069Y-110403693D01*
X53923097Y-110310898D01*
X54124717Y-110176180D01*
X54296180Y-110004717D01*
X54430898Y-109803097D01*
X54523693Y-109579069D01*
X54571000Y-109341243D01*
X54571000Y-109098757D01*
X54523693Y-108860931D01*
X54430898Y-108636903D01*
X54296180Y-108435283D01*
X54124717Y-108263820D01*
X53923097Y-108129102D01*
X53699069Y-108036307D01*
X53461243Y-107989000D01*
X53218757Y-107989000D01*
X52980931Y-108036307D01*
X52756903Y-108129102D01*
X52555283Y-108263820D01*
X52383820Y-108435283D01*
X52249102Y-108636903D01*
X52156307Y-108860931D01*
X52109000Y-109098757D01*
X51206000Y-109098757D01*
X51206000Y-106558757D01*
X52109000Y-106558757D01*
X52109000Y-106801243D01*
X52156307Y-107039069D01*
X52249102Y-107263097D01*
X52383820Y-107464717D01*
X52555283Y-107636180D01*
X52756903Y-107770898D01*
X52980931Y-107863693D01*
X53218757Y-107911000D01*
X53461243Y-107911000D01*
X53699069Y-107863693D01*
X53923097Y-107770898D01*
X54124717Y-107636180D01*
X54296180Y-107464717D01*
X54430898Y-107263097D01*
X54523693Y-107039069D01*
X54571000Y-106801243D01*
X54571000Y-106558757D01*
X54523693Y-106320931D01*
X54430898Y-106096903D01*
X54296180Y-105895283D01*
X54124717Y-105723820D01*
X53923097Y-105589102D01*
X53699069Y-105496307D01*
X53461243Y-105449000D01*
X53218757Y-105449000D01*
X52980931Y-105496307D01*
X52756903Y-105589102D01*
X52555283Y-105723820D01*
X52383820Y-105895283D01*
X52249102Y-106096903D01*
X52156307Y-106320931D01*
X52109000Y-106558757D01*
X51206000Y-106558757D01*
X51206000Y-102006000D01*
X54755579Y-102006000D01*
X53774166Y-102987413D01*
G37*
X53774166Y-102987413D02*
X53699069Y-102956307D01*
X53461243Y-102909000D01*
X53218757Y-102909000D01*
X52980931Y-102956307D01*
X52756903Y-103049102D01*
X52555283Y-103183820D01*
X52383820Y-103355283D01*
X52249102Y-103556903D01*
X52156307Y-103780931D01*
X52109000Y-104018757D01*
X52109000Y-104261243D01*
X52156307Y-104499069D01*
X52249102Y-104723097D01*
X52383820Y-104924717D01*
X52555283Y-105096180D01*
X52756903Y-105230898D01*
X52980931Y-105323693D01*
X53218757Y-105371000D01*
X53461243Y-105371000D01*
X53699069Y-105323693D01*
X53923097Y-105230898D01*
X54124717Y-105096180D01*
X54296180Y-104924717D01*
X54430898Y-104723097D01*
X54523693Y-104499069D01*
X54571000Y-104261243D01*
X54571000Y-104018757D01*
X54523693Y-103780931D01*
X54492587Y-103705834D01*
X55738411Y-102460010D01*
X67945000Y-102460010D01*
X67945000Y-134214000D01*
X51206000Y-134214000D01*
X51206000Y-132930000D01*
X52107157Y-132930000D01*
X52114513Y-133004689D01*
X52136299Y-133076508D01*
X52171678Y-133142696D01*
X52219289Y-133200711D01*
X52277304Y-133248322D01*
X52343492Y-133283701D01*
X52415311Y-133305487D01*
X52490000Y-133312843D01*
X52863750Y-133311000D01*
X52959000Y-133215750D01*
X52959000Y-132461000D01*
X53721000Y-132461000D01*
X53721000Y-133215750D01*
X53816250Y-133311000D01*
X54190000Y-133312843D01*
X54264689Y-133305487D01*
X54336508Y-133283701D01*
X54402696Y-133248322D01*
X54460711Y-133200711D01*
X54508322Y-133142696D01*
X54543701Y-133076508D01*
X54565487Y-133004689D01*
X54572843Y-132930000D01*
X54571000Y-132556250D01*
X54475750Y-132461000D01*
X53721000Y-132461000D01*
X52959000Y-132461000D01*
X52204250Y-132461000D01*
X52109000Y-132556250D01*
X52107157Y-132930000D01*
X51206000Y-132930000D01*
X51206000Y-131230000D01*
X52107157Y-131230000D01*
X52109000Y-131603750D01*
X52204250Y-131699000D01*
X52959000Y-131699000D01*
X52959000Y-130944250D01*
X53721000Y-130944250D01*
X53721000Y-131699000D01*
X54475750Y-131699000D01*
X54571000Y-131603750D01*
X54572843Y-131230000D01*
X54565487Y-131155311D01*
X54543701Y-131083492D01*
X54508322Y-131017304D01*
X54460711Y-130959289D01*
X54402696Y-130911678D01*
X54336508Y-130876299D01*
X54264689Y-130854513D01*
X54190000Y-130847157D01*
X53816250Y-130849000D01*
X53721000Y-130944250D01*
X52959000Y-130944250D01*
X52863750Y-130849000D01*
X52490000Y-130847157D01*
X52415311Y-130854513D01*
X52343492Y-130876299D01*
X52277304Y-130911678D01*
X52219289Y-130959289D01*
X52171678Y-131017304D01*
X52136299Y-131083492D01*
X52114513Y-131155311D01*
X52107157Y-131230000D01*
X51206000Y-131230000D01*
X51206000Y-129418757D01*
X52109000Y-129418757D01*
X52109000Y-129661243D01*
X52156307Y-129899069D01*
X52249102Y-130123097D01*
X52383820Y-130324717D01*
X52555283Y-130496180D01*
X52756903Y-130630898D01*
X52980931Y-130723693D01*
X53218757Y-130771000D01*
X53461243Y-130771000D01*
X53699069Y-130723693D01*
X53923097Y-130630898D01*
X54124717Y-130496180D01*
X54296180Y-130324717D01*
X54430898Y-130123097D01*
X54523693Y-129899069D01*
X54571000Y-129661243D01*
X54571000Y-129418757D01*
X54523693Y-129180931D01*
X54430898Y-128956903D01*
X54296180Y-128755283D01*
X54124717Y-128583820D01*
X53923097Y-128449102D01*
X53699069Y-128356307D01*
X53461243Y-128309000D01*
X53218757Y-128309000D01*
X52980931Y-128356307D01*
X52756903Y-128449102D01*
X52555283Y-128583820D01*
X52383820Y-128755283D01*
X52249102Y-128956903D01*
X52156307Y-129180931D01*
X52109000Y-129418757D01*
X51206000Y-129418757D01*
X51206000Y-126878757D01*
X52109000Y-126878757D01*
X52109000Y-127121243D01*
X52156307Y-127359069D01*
X52249102Y-127583097D01*
X52383820Y-127784717D01*
X52555283Y-127956180D01*
X52756903Y-128090898D01*
X52980931Y-128183693D01*
X53218757Y-128231000D01*
X53461243Y-128231000D01*
X53699069Y-128183693D01*
X53923097Y-128090898D01*
X54124717Y-127956180D01*
X54296180Y-127784717D01*
X54430898Y-127583097D01*
X54523693Y-127359069D01*
X54571000Y-127121243D01*
X54571000Y-126878757D01*
X54523693Y-126640931D01*
X54430898Y-126416903D01*
X54296180Y-126215283D01*
X54124717Y-126043820D01*
X53923097Y-125909102D01*
X53699069Y-125816307D01*
X53461243Y-125769000D01*
X53218757Y-125769000D01*
X52980931Y-125816307D01*
X52756903Y-125909102D01*
X52555283Y-126043820D01*
X52383820Y-126215283D01*
X52249102Y-126416903D01*
X52156307Y-126640931D01*
X52109000Y-126878757D01*
X51206000Y-126878757D01*
X51206000Y-124338757D01*
X52109000Y-124338757D01*
X52109000Y-124581243D01*
X52156307Y-124819069D01*
X52249102Y-125043097D01*
X52383820Y-125244717D01*
X52555283Y-125416180D01*
X52756903Y-125550898D01*
X52980931Y-125643693D01*
X53218757Y-125691000D01*
X53461243Y-125691000D01*
X53699069Y-125643693D01*
X53923097Y-125550898D01*
X54124717Y-125416180D01*
X54296180Y-125244717D01*
X54430898Y-125043097D01*
X54523693Y-124819069D01*
X54571000Y-124581243D01*
X54571000Y-124338757D01*
X54523693Y-124100931D01*
X54430898Y-123876903D01*
X54296180Y-123675283D01*
X54124717Y-123503820D01*
X53923097Y-123369102D01*
X53699069Y-123276307D01*
X53461243Y-123229000D01*
X53218757Y-123229000D01*
X52980931Y-123276307D01*
X52756903Y-123369102D01*
X52555283Y-123503820D01*
X52383820Y-123675283D01*
X52249102Y-123876903D01*
X52156307Y-124100931D01*
X52109000Y-124338757D01*
X51206000Y-124338757D01*
X51206000Y-112610000D01*
X52107157Y-112610000D01*
X52114513Y-112684689D01*
X52136299Y-112756508D01*
X52171678Y-112822696D01*
X52219289Y-112880711D01*
X52277304Y-112928322D01*
X52343492Y-112963701D01*
X52415311Y-112985487D01*
X52490000Y-112992843D01*
X52863750Y-112991000D01*
X52959000Y-112895750D01*
X52959000Y-112141000D01*
X53721000Y-112141000D01*
X53721000Y-112895750D01*
X53816250Y-112991000D01*
X54190000Y-112992843D01*
X54264689Y-112985487D01*
X54336508Y-112963701D01*
X54402696Y-112928322D01*
X54460711Y-112880711D01*
X54508322Y-112822696D01*
X54543701Y-112756508D01*
X54565487Y-112684689D01*
X54572843Y-112610000D01*
X54571000Y-112236250D01*
X54475750Y-112141000D01*
X53721000Y-112141000D01*
X52959000Y-112141000D01*
X52204250Y-112141000D01*
X52109000Y-112236250D01*
X52107157Y-112610000D01*
X51206000Y-112610000D01*
X51206000Y-110910000D01*
X52107157Y-110910000D01*
X52109000Y-111283750D01*
X52204250Y-111379000D01*
X52959000Y-111379000D01*
X52959000Y-110624250D01*
X53721000Y-110624250D01*
X53721000Y-111379000D01*
X54475750Y-111379000D01*
X54571000Y-111283750D01*
X54572843Y-110910000D01*
X54565487Y-110835311D01*
X54543701Y-110763492D01*
X54508322Y-110697304D01*
X54460711Y-110639289D01*
X54402696Y-110591678D01*
X54336508Y-110556299D01*
X54264689Y-110534513D01*
X54190000Y-110527157D01*
X53816250Y-110529000D01*
X53721000Y-110624250D01*
X52959000Y-110624250D01*
X52863750Y-110529000D01*
X52490000Y-110527157D01*
X52415311Y-110534513D01*
X52343492Y-110556299D01*
X52277304Y-110591678D01*
X52219289Y-110639289D01*
X52171678Y-110697304D01*
X52136299Y-110763492D01*
X52114513Y-110835311D01*
X52107157Y-110910000D01*
X51206000Y-110910000D01*
X51206000Y-109098757D01*
X52109000Y-109098757D01*
X52109000Y-109341243D01*
X52156307Y-109579069D01*
X52249102Y-109803097D01*
X52383820Y-110004717D01*
X52555283Y-110176180D01*
X52756903Y-110310898D01*
X52980931Y-110403693D01*
X53218757Y-110451000D01*
X53461243Y-110451000D01*
X53699069Y-110403693D01*
X53923097Y-110310898D01*
X54124717Y-110176180D01*
X54296180Y-110004717D01*
X54430898Y-109803097D01*
X54523693Y-109579069D01*
X54571000Y-109341243D01*
X54571000Y-109098757D01*
X54523693Y-108860931D01*
X54430898Y-108636903D01*
X54296180Y-108435283D01*
X54124717Y-108263820D01*
X53923097Y-108129102D01*
X53699069Y-108036307D01*
X53461243Y-107989000D01*
X53218757Y-107989000D01*
X52980931Y-108036307D01*
X52756903Y-108129102D01*
X52555283Y-108263820D01*
X52383820Y-108435283D01*
X52249102Y-108636903D01*
X52156307Y-108860931D01*
X52109000Y-109098757D01*
X51206000Y-109098757D01*
X51206000Y-106558757D01*
X52109000Y-106558757D01*
X52109000Y-106801243D01*
X52156307Y-107039069D01*
X52249102Y-107263097D01*
X52383820Y-107464717D01*
X52555283Y-107636180D01*
X52756903Y-107770898D01*
X52980931Y-107863693D01*
X53218757Y-107911000D01*
X53461243Y-107911000D01*
X53699069Y-107863693D01*
X53923097Y-107770898D01*
X54124717Y-107636180D01*
X54296180Y-107464717D01*
X54430898Y-107263097D01*
X54523693Y-107039069D01*
X54571000Y-106801243D01*
X54571000Y-106558757D01*
X54523693Y-106320931D01*
X54430898Y-106096903D01*
X54296180Y-105895283D01*
X54124717Y-105723820D01*
X53923097Y-105589102D01*
X53699069Y-105496307D01*
X53461243Y-105449000D01*
X53218757Y-105449000D01*
X52980931Y-105496307D01*
X52756903Y-105589102D01*
X52555283Y-105723820D01*
X52383820Y-105895283D01*
X52249102Y-106096903D01*
X52156307Y-106320931D01*
X52109000Y-106558757D01*
X51206000Y-106558757D01*
X51206000Y-102006000D01*
X54755579Y-102006000D01*
X53774166Y-102987413D01*
G36*
X74549000Y-121920000D02*
G01*
X74551440Y-121944776D01*
X74558667Y-121968601D01*
X74570403Y-121990557D01*
X74586197Y-122009803D01*
X74605443Y-122025597D01*
X74627399Y-122037333D01*
X74651224Y-122044560D01*
X74676000Y-122047000D01*
X88494001Y-122047000D01*
X88494001Y-128143000D01*
X86741002Y-128143000D01*
X86741002Y-128075324D01*
X86919427Y-128096561D01*
X87122606Y-127966352D01*
X87296479Y-127799007D01*
X87434363Y-127600956D01*
X87456542Y-127559424D01*
X87429938Y-127381000D01*
X86741000Y-127381000D01*
X86741000Y-127401000D01*
X85979000Y-127401000D01*
X85979000Y-127381000D01*
X85290062Y-127381000D01*
X85263458Y-127559424D01*
X85285637Y-127600956D01*
X85423521Y-127799007D01*
X85597394Y-127966352D01*
X85800573Y-128096561D01*
X85978998Y-128075324D01*
X85978998Y-128143000D01*
X75131418Y-128143000D01*
X75173859Y-128114642D01*
X75282642Y-128005859D01*
X75368113Y-127877942D01*
X75426987Y-127735809D01*
X75457000Y-127584922D01*
X75457000Y-127431078D01*
X75426987Y-127280191D01*
X75409511Y-127238000D01*
X77103157Y-127238000D01*
X77110513Y-127312689D01*
X77132299Y-127384508D01*
X77167678Y-127450696D01*
X77215289Y-127508711D01*
X77273304Y-127556322D01*
X77339492Y-127591701D01*
X77411311Y-127613487D01*
X77486000Y-127620843D01*
X78009750Y-127619000D01*
X78105000Y-127523750D01*
X78105000Y-126619000D01*
X78867000Y-126619000D01*
X78867000Y-127523750D01*
X78962250Y-127619000D01*
X79486000Y-127620843D01*
X79560689Y-127613487D01*
X79632508Y-127591701D01*
X79698696Y-127556322D01*
X79756711Y-127508711D01*
X79804322Y-127450696D01*
X79839701Y-127384508D01*
X79861487Y-127312689D01*
X79868843Y-127238000D01*
X79867000Y-126714250D01*
X79771750Y-126619000D01*
X78867000Y-126619000D01*
X78105000Y-126619000D01*
X77200250Y-126619000D01*
X77105000Y-126714250D01*
X77103157Y-127238000D01*
X75409511Y-127238000D01*
X75368113Y-127138058D01*
X75282642Y-127010141D01*
X75173859Y-126901358D01*
X75045942Y-126815887D01*
X74903809Y-126757013D01*
X74752922Y-126727000D01*
X74599078Y-126727000D01*
X74448191Y-126757013D01*
X74306058Y-126815887D01*
X74178141Y-126901358D01*
X74069358Y-127010141D01*
X73983887Y-127138058D01*
X73925013Y-127280191D01*
X73895000Y-127431078D01*
X73895000Y-127584922D01*
X73925013Y-127735809D01*
X73941986Y-127776786D01*
X73622889Y-127370662D01*
X73649859Y-127352642D01*
X73758642Y-127243859D01*
X73844113Y-127115942D01*
X73902987Y-126973809D01*
X73933000Y-126822922D01*
X73933000Y-126669078D01*
X73902987Y-126518191D01*
X73870838Y-126440576D01*
X85263458Y-126440576D01*
X85290062Y-126619000D01*
X85979000Y-126619000D01*
X85979000Y-125924676D01*
X86741000Y-125924676D01*
X86741000Y-126619000D01*
X87429938Y-126619000D01*
X87456542Y-126440576D01*
X87434363Y-126399044D01*
X87296479Y-126200993D01*
X87122606Y-126033648D01*
X86919427Y-125903439D01*
X86741000Y-125924676D01*
X85979000Y-125924676D01*
X85800573Y-125903439D01*
X85597394Y-126033648D01*
X85423521Y-126200993D01*
X85285637Y-126399044D01*
X85263458Y-126440576D01*
X73870838Y-126440576D01*
X73844113Y-126376058D01*
X73758642Y-126248141D01*
X73649859Y-126139358D01*
X73521942Y-126053887D01*
X73379809Y-125995013D01*
X73228922Y-125965000D01*
X73075078Y-125965000D01*
X72924191Y-125995013D01*
X72782058Y-126053887D01*
X72654990Y-126138791D01*
X71947226Y-125238000D01*
X77103157Y-125238000D01*
X77105000Y-125761750D01*
X77200250Y-125857000D01*
X78105000Y-125857000D01*
X78105000Y-124952250D01*
X78867000Y-124952250D01*
X78867000Y-125857000D01*
X79771750Y-125857000D01*
X79867000Y-125761750D01*
X79868843Y-125238000D01*
X79861487Y-125163311D01*
X79839701Y-125091492D01*
X79804322Y-125025304D01*
X79799497Y-125019424D01*
X85263458Y-125019424D01*
X85285637Y-125060956D01*
X85423521Y-125259007D01*
X85597394Y-125426352D01*
X85800573Y-125556561D01*
X85979000Y-125535324D01*
X85979000Y-124841000D01*
X86741000Y-124841000D01*
X86741000Y-125535324D01*
X86919427Y-125556561D01*
X87122606Y-125426352D01*
X87296479Y-125259007D01*
X87434363Y-125060956D01*
X87456542Y-125019424D01*
X87429938Y-124841000D01*
X86741000Y-124841000D01*
X85979000Y-124841000D01*
X85290062Y-124841000D01*
X85263458Y-125019424D01*
X79799497Y-125019424D01*
X79756711Y-124967289D01*
X79698696Y-124919678D01*
X79632508Y-124884299D01*
X79560689Y-124862513D01*
X79486000Y-124855157D01*
X78962250Y-124857000D01*
X78867000Y-124952250D01*
X78105000Y-124952250D01*
X78009750Y-124857000D01*
X77486000Y-124855157D01*
X77411311Y-124862513D01*
X77339492Y-124884299D01*
X77273304Y-124919678D01*
X77215289Y-124967289D01*
X77167678Y-125025304D01*
X77132299Y-125091492D01*
X77110513Y-125163311D01*
X77103157Y-125238000D01*
X71947226Y-125238000D01*
X70896393Y-123900576D01*
X85263458Y-123900576D01*
X85290062Y-124079000D01*
X85979000Y-124079000D01*
X85979000Y-123384676D01*
X86741000Y-123384676D01*
X86741000Y-124079000D01*
X87429938Y-124079000D01*
X87456542Y-123900576D01*
X87434363Y-123859044D01*
X87296479Y-123660993D01*
X87122606Y-123493648D01*
X86919427Y-123363439D01*
X86741000Y-123384676D01*
X85979000Y-123384676D01*
X85800573Y-123363439D01*
X85597394Y-123493648D01*
X85423521Y-123660993D01*
X85285637Y-123859044D01*
X85263458Y-123900576D01*
X70896393Y-123900576D01*
X68707000Y-121114076D01*
X68707000Y-115443000D01*
X74549000Y-115443000D01*
X74549000Y-121920000D01*
G37*
X74549000Y-121920000D02*
X74551440Y-121944776D01*
X74558667Y-121968601D01*
X74570403Y-121990557D01*
X74586197Y-122009803D01*
X74605443Y-122025597D01*
X74627399Y-122037333D01*
X74651224Y-122044560D01*
X74676000Y-122047000D01*
X88494001Y-122047000D01*
X88494001Y-128143000D01*
X86741002Y-128143000D01*
X86741002Y-128075324D01*
X86919427Y-128096561D01*
X87122606Y-127966352D01*
X87296479Y-127799007D01*
X87434363Y-127600956D01*
X87456542Y-127559424D01*
X87429938Y-127381000D01*
X86741000Y-127381000D01*
X86741000Y-127401000D01*
X85979000Y-127401000D01*
X85979000Y-127381000D01*
X85290062Y-127381000D01*
X85263458Y-127559424D01*
X85285637Y-127600956D01*
X85423521Y-127799007D01*
X85597394Y-127966352D01*
X85800573Y-128096561D01*
X85978998Y-128075324D01*
X85978998Y-128143000D01*
X75131418Y-128143000D01*
X75173859Y-128114642D01*
X75282642Y-128005859D01*
X75368113Y-127877942D01*
X75426987Y-127735809D01*
X75457000Y-127584922D01*
X75457000Y-127431078D01*
X75426987Y-127280191D01*
X75409511Y-127238000D01*
X77103157Y-127238000D01*
X77110513Y-127312689D01*
X77132299Y-127384508D01*
X77167678Y-127450696D01*
X77215289Y-127508711D01*
X77273304Y-127556322D01*
X77339492Y-127591701D01*
X77411311Y-127613487D01*
X77486000Y-127620843D01*
X78009750Y-127619000D01*
X78105000Y-127523750D01*
X78105000Y-126619000D01*
X78867000Y-126619000D01*
X78867000Y-127523750D01*
X78962250Y-127619000D01*
X79486000Y-127620843D01*
X79560689Y-127613487D01*
X79632508Y-127591701D01*
X79698696Y-127556322D01*
X79756711Y-127508711D01*
X79804322Y-127450696D01*
X79839701Y-127384508D01*
X79861487Y-127312689D01*
X79868843Y-127238000D01*
X79867000Y-126714250D01*
X79771750Y-126619000D01*
X78867000Y-126619000D01*
X78105000Y-126619000D01*
X77200250Y-126619000D01*
X77105000Y-126714250D01*
X77103157Y-127238000D01*
X75409511Y-127238000D01*
X75368113Y-127138058D01*
X75282642Y-127010141D01*
X75173859Y-126901358D01*
X75045942Y-126815887D01*
X74903809Y-126757013D01*
X74752922Y-126727000D01*
X74599078Y-126727000D01*
X74448191Y-126757013D01*
X74306058Y-126815887D01*
X74178141Y-126901358D01*
X74069358Y-127010141D01*
X73983887Y-127138058D01*
X73925013Y-127280191D01*
X73895000Y-127431078D01*
X73895000Y-127584922D01*
X73925013Y-127735809D01*
X73941986Y-127776786D01*
X73622889Y-127370662D01*
X73649859Y-127352642D01*
X73758642Y-127243859D01*
X73844113Y-127115942D01*
X73902987Y-126973809D01*
X73933000Y-126822922D01*
X73933000Y-126669078D01*
X73902987Y-126518191D01*
X73870838Y-126440576D01*
X85263458Y-126440576D01*
X85290062Y-126619000D01*
X85979000Y-126619000D01*
X85979000Y-125924676D01*
X86741000Y-125924676D01*
X86741000Y-126619000D01*
X87429938Y-126619000D01*
X87456542Y-126440576D01*
X87434363Y-126399044D01*
X87296479Y-126200993D01*
X87122606Y-126033648D01*
X86919427Y-125903439D01*
X86741000Y-125924676D01*
X85979000Y-125924676D01*
X85800573Y-125903439D01*
X85597394Y-126033648D01*
X85423521Y-126200993D01*
X85285637Y-126399044D01*
X85263458Y-126440576D01*
X73870838Y-126440576D01*
X73844113Y-126376058D01*
X73758642Y-126248141D01*
X73649859Y-126139358D01*
X73521942Y-126053887D01*
X73379809Y-125995013D01*
X73228922Y-125965000D01*
X73075078Y-125965000D01*
X72924191Y-125995013D01*
X72782058Y-126053887D01*
X72654990Y-126138791D01*
X71947226Y-125238000D01*
X77103157Y-125238000D01*
X77105000Y-125761750D01*
X77200250Y-125857000D01*
X78105000Y-125857000D01*
X78105000Y-124952250D01*
X78867000Y-124952250D01*
X78867000Y-125857000D01*
X79771750Y-125857000D01*
X79867000Y-125761750D01*
X79868843Y-125238000D01*
X79861487Y-125163311D01*
X79839701Y-125091492D01*
X79804322Y-125025304D01*
X79799497Y-125019424D01*
X85263458Y-125019424D01*
X85285637Y-125060956D01*
X85423521Y-125259007D01*
X85597394Y-125426352D01*
X85800573Y-125556561D01*
X85979000Y-125535324D01*
X85979000Y-124841000D01*
X86741000Y-124841000D01*
X86741000Y-125535324D01*
X86919427Y-125556561D01*
X87122606Y-125426352D01*
X87296479Y-125259007D01*
X87434363Y-125060956D01*
X87456542Y-125019424D01*
X87429938Y-124841000D01*
X86741000Y-124841000D01*
X85979000Y-124841000D01*
X85290062Y-124841000D01*
X85263458Y-125019424D01*
X79799497Y-125019424D01*
X79756711Y-124967289D01*
X79698696Y-124919678D01*
X79632508Y-124884299D01*
X79560689Y-124862513D01*
X79486000Y-124855157D01*
X78962250Y-124857000D01*
X78867000Y-124952250D01*
X78105000Y-124952250D01*
X78009750Y-124857000D01*
X77486000Y-124855157D01*
X77411311Y-124862513D01*
X77339492Y-124884299D01*
X77273304Y-124919678D01*
X77215289Y-124967289D01*
X77167678Y-125025304D01*
X77132299Y-125091492D01*
X77110513Y-125163311D01*
X77103157Y-125238000D01*
X71947226Y-125238000D01*
X70896393Y-123900576D01*
X85263458Y-123900576D01*
X85290062Y-124079000D01*
X85979000Y-124079000D01*
X85979000Y-123384676D01*
X86741000Y-123384676D01*
X86741000Y-124079000D01*
X87429938Y-124079000D01*
X87456542Y-123900576D01*
X87434363Y-123859044D01*
X87296479Y-123660993D01*
X87122606Y-123493648D01*
X86919427Y-123363439D01*
X86741000Y-123384676D01*
X85979000Y-123384676D01*
X85800573Y-123363439D01*
X85597394Y-123493648D01*
X85423521Y-123660993D01*
X85285637Y-123859044D01*
X85263458Y-123900576D01*
X70896393Y-123900576D01*
X68707000Y-121114076D01*
X68707000Y-115443000D01*
X74549000Y-115443000D01*
X74549000Y-121920000D01*
G36*
X53774166Y-102987413D02*
G01*
X53699069Y-102956307D01*
X53461243Y-102909000D01*
X53218757Y-102909000D01*
X52980931Y-102956307D01*
X52756903Y-103049102D01*
X52555283Y-103183820D01*
X52383820Y-103355283D01*
X52249102Y-103556903D01*
X52156307Y-103780931D01*
X52109000Y-104018757D01*
X52109000Y-104261243D01*
X52156307Y-104499069D01*
X52249102Y-104723097D01*
X52383820Y-104924717D01*
X52555283Y-105096180D01*
X52756903Y-105230898D01*
X52980931Y-105323693D01*
X53218757Y-105371000D01*
X53461243Y-105371000D01*
X53699069Y-105323693D01*
X53923097Y-105230898D01*
X54124717Y-105096180D01*
X54296180Y-104924717D01*
X54430898Y-104723097D01*
X54523693Y-104499069D01*
X54571000Y-104261243D01*
X54571000Y-104018757D01*
X54547776Y-103902000D01*
X77611157Y-103902000D01*
X77611157Y-105902000D01*
X77618513Y-105976689D01*
X77640299Y-106048508D01*
X77675678Y-106114696D01*
X77723289Y-106172711D01*
X77781304Y-106220322D01*
X77847492Y-106255701D01*
X77919311Y-106277487D01*
X77994000Y-106284843D01*
X79994000Y-106284843D01*
X80068689Y-106277487D01*
X80140508Y-106255701D01*
X80206696Y-106220322D01*
X80264711Y-106172711D01*
X80312322Y-106114696D01*
X80347701Y-106048508D01*
X80369487Y-105976689D01*
X80376843Y-105902000D01*
X80376843Y-104018757D01*
X85129000Y-104018757D01*
X85129000Y-104261243D01*
X85176307Y-104499069D01*
X85269102Y-104723097D01*
X85403820Y-104924717D01*
X85575283Y-105096180D01*
X85776903Y-105230898D01*
X86000931Y-105323693D01*
X86238757Y-105371000D01*
X86481243Y-105371000D01*
X86719069Y-105323693D01*
X86943097Y-105230898D01*
X87144717Y-105096180D01*
X87316180Y-104924717D01*
X87450898Y-104723097D01*
X87543693Y-104499069D01*
X87591000Y-104261243D01*
X87591000Y-104018757D01*
X87543693Y-103780931D01*
X87450898Y-103556903D01*
X87316180Y-103355283D01*
X87144717Y-103183820D01*
X86943097Y-103049102D01*
X86719069Y-102956307D01*
X86481243Y-102909000D01*
X86238757Y-102909000D01*
X86000931Y-102956307D01*
X85776903Y-103049102D01*
X85575283Y-103183820D01*
X85403820Y-103355283D01*
X85269102Y-103556903D01*
X85176307Y-103780931D01*
X85129000Y-104018757D01*
X80376843Y-104018757D01*
X80376843Y-103902000D01*
X80369487Y-103827311D01*
X80347701Y-103755492D01*
X80312322Y-103689304D01*
X80264711Y-103631289D01*
X80206696Y-103583678D01*
X80140508Y-103548299D01*
X80068689Y-103526513D01*
X79994000Y-103519157D01*
X77994000Y-103519157D01*
X77919311Y-103526513D01*
X77847492Y-103548299D01*
X77781304Y-103583678D01*
X77723289Y-103631289D01*
X77675678Y-103689304D01*
X77640299Y-103755492D01*
X77618513Y-103827311D01*
X77611157Y-103902000D01*
X54547776Y-103902000D01*
X54523693Y-103780931D01*
X54492587Y-103705834D01*
X55738411Y-102460010D01*
X68311195Y-102460010D01*
X68337013Y-102589809D01*
X68395887Y-102731942D01*
X68481358Y-102859859D01*
X68590141Y-102968642D01*
X68718058Y-103054113D01*
X68860191Y-103112987D01*
X69011078Y-103143000D01*
X69164922Y-103143000D01*
X69315809Y-103112987D01*
X69457942Y-103054113D01*
X69585859Y-102968642D01*
X69694642Y-102859859D01*
X69780113Y-102731942D01*
X69838987Y-102589809D01*
X69869000Y-102438922D01*
X69869000Y-102285078D01*
X69838987Y-102134191D01*
X69785888Y-102006000D01*
X88494000Y-102006000D01*
X88494000Y-114681000D01*
X51206000Y-114681000D01*
X51206000Y-112610000D01*
X52107157Y-112610000D01*
X52114513Y-112684689D01*
X52136299Y-112756508D01*
X52171678Y-112822696D01*
X52219289Y-112880711D01*
X52277304Y-112928322D01*
X52343492Y-112963701D01*
X52415311Y-112985487D01*
X52490000Y-112992843D01*
X52863750Y-112991000D01*
X52959000Y-112895750D01*
X52959000Y-112141000D01*
X53721000Y-112141000D01*
X53721000Y-112895750D01*
X53816250Y-112991000D01*
X54190000Y-112992843D01*
X54264689Y-112985487D01*
X54336508Y-112963701D01*
X54402696Y-112928322D01*
X54460711Y-112880711D01*
X54508322Y-112822696D01*
X54543701Y-112756508D01*
X54565487Y-112684689D01*
X54572843Y-112610000D01*
X85127157Y-112610000D01*
X85134513Y-112684689D01*
X85156299Y-112756508D01*
X85191678Y-112822696D01*
X85239289Y-112880711D01*
X85297304Y-112928322D01*
X85363492Y-112963701D01*
X85435311Y-112985487D01*
X85510000Y-112992843D01*
X85883750Y-112991000D01*
X85979000Y-112895750D01*
X85979000Y-112141000D01*
X86741000Y-112141000D01*
X86741000Y-112895750D01*
X86836250Y-112991000D01*
X87210000Y-112992843D01*
X87284689Y-112985487D01*
X87356508Y-112963701D01*
X87422696Y-112928322D01*
X87480711Y-112880711D01*
X87528322Y-112822696D01*
X87563701Y-112756508D01*
X87585487Y-112684689D01*
X87592843Y-112610000D01*
X87591000Y-112236250D01*
X87495750Y-112141000D01*
X86741000Y-112141000D01*
X85979000Y-112141000D01*
X85224250Y-112141000D01*
X85129000Y-112236250D01*
X85127157Y-112610000D01*
X54572843Y-112610000D01*
X54571000Y-112236250D01*
X54475750Y-112141000D01*
X53721000Y-112141000D01*
X52959000Y-112141000D01*
X52204250Y-112141000D01*
X52109000Y-112236250D01*
X52107157Y-112610000D01*
X51206000Y-112610000D01*
X51206000Y-110910000D01*
X52107157Y-110910000D01*
X52109000Y-111283750D01*
X52204250Y-111379000D01*
X52959000Y-111379000D01*
X52959000Y-110624250D01*
X53721000Y-110624250D01*
X53721000Y-111379000D01*
X54475750Y-111379000D01*
X54571000Y-111283750D01*
X54572178Y-111044683D01*
X78390132Y-111044683D01*
X78517922Y-111205461D01*
X78781362Y-111273293D01*
X79052974Y-111288427D01*
X79322320Y-111250282D01*
X79470078Y-111205461D01*
X79597868Y-111044683D01*
X79463185Y-110910000D01*
X85127157Y-110910000D01*
X85129000Y-111283750D01*
X85224250Y-111379000D01*
X85979000Y-111379000D01*
X85979000Y-110624250D01*
X86741000Y-110624250D01*
X86741000Y-111379000D01*
X87495750Y-111379000D01*
X87591000Y-111283750D01*
X87592843Y-110910000D01*
X87585487Y-110835311D01*
X87563701Y-110763492D01*
X87528322Y-110697304D01*
X87480711Y-110639289D01*
X87422696Y-110591678D01*
X87356508Y-110556299D01*
X87284689Y-110534513D01*
X87210000Y-110527157D01*
X86836250Y-110529000D01*
X86741000Y-110624250D01*
X85979000Y-110624250D01*
X85883750Y-110529000D01*
X85510000Y-110527157D01*
X85435311Y-110534513D01*
X85363492Y-110556299D01*
X85297304Y-110591678D01*
X85239289Y-110639289D01*
X85191678Y-110697304D01*
X85156299Y-110763492D01*
X85134513Y-110835311D01*
X85127157Y-110910000D01*
X79463185Y-110910000D01*
X78994000Y-110440815D01*
X78390132Y-111044683D01*
X54572178Y-111044683D01*
X54572843Y-110910000D01*
X54565487Y-110835311D01*
X54543701Y-110763492D01*
X54508322Y-110697304D01*
X54460711Y-110639289D01*
X54402696Y-110591678D01*
X54336508Y-110556299D01*
X54264689Y-110534513D01*
X54190000Y-110527157D01*
X53816250Y-110529000D01*
X53721000Y-110624250D01*
X52959000Y-110624250D01*
X52863750Y-110529000D01*
X52490000Y-110527157D01*
X52415311Y-110534513D01*
X52343492Y-110556299D01*
X52277304Y-110591678D01*
X52219289Y-110639289D01*
X52171678Y-110697304D01*
X52136299Y-110763492D01*
X52114513Y-110835311D01*
X52107157Y-110910000D01*
X51206000Y-110910000D01*
X51206000Y-109098757D01*
X52109000Y-109098757D01*
X52109000Y-109341243D01*
X52156307Y-109579069D01*
X52249102Y-109803097D01*
X52383820Y-110004717D01*
X52555283Y-110176180D01*
X52756903Y-110310898D01*
X52980931Y-110403693D01*
X53218757Y-110451000D01*
X53461243Y-110451000D01*
X53699069Y-110403693D01*
X53923097Y-110310898D01*
X54124717Y-110176180D01*
X54296180Y-110004717D01*
X54325408Y-109960974D01*
X77607573Y-109960974D01*
X77645718Y-110230320D01*
X77690539Y-110378078D01*
X77851317Y-110505868D01*
X78455185Y-109902000D01*
X79532815Y-109902000D01*
X80136683Y-110505868D01*
X80297461Y-110378078D01*
X80365293Y-110114638D01*
X80380427Y-109843026D01*
X80371420Y-109779424D01*
X85263458Y-109779424D01*
X85285637Y-109820956D01*
X85423521Y-110019007D01*
X85597394Y-110186352D01*
X85800573Y-110316561D01*
X85979000Y-110295324D01*
X85979000Y-109601000D01*
X86741000Y-109601000D01*
X86741000Y-110295324D01*
X86919427Y-110316561D01*
X87122606Y-110186352D01*
X87296479Y-110019007D01*
X87434363Y-109820956D01*
X87456542Y-109779424D01*
X87429938Y-109601000D01*
X86741000Y-109601000D01*
X85979000Y-109601000D01*
X85290062Y-109601000D01*
X85263458Y-109779424D01*
X80371420Y-109779424D01*
X80342282Y-109573680D01*
X80297461Y-109425922D01*
X80136683Y-109298132D01*
X79532815Y-109902000D01*
X78455185Y-109902000D01*
X77851317Y-109298132D01*
X77690539Y-109425922D01*
X77622707Y-109689362D01*
X77607573Y-109960974D01*
X54325408Y-109960974D01*
X54430898Y-109803097D01*
X54523693Y-109579069D01*
X54571000Y-109341243D01*
X54571000Y-109098757D01*
X54523693Y-108860931D01*
X54481604Y-108759317D01*
X78390132Y-108759317D01*
X78994000Y-109363185D01*
X79597868Y-108759317D01*
X79519387Y-108660576D01*
X85263458Y-108660576D01*
X85290062Y-108839000D01*
X85979000Y-108839000D01*
X85979000Y-108144676D01*
X86741000Y-108144676D01*
X86741000Y-108839000D01*
X87429938Y-108839000D01*
X87456542Y-108660576D01*
X87434363Y-108619044D01*
X87296479Y-108420993D01*
X87122606Y-108253648D01*
X86919427Y-108123439D01*
X86741000Y-108144676D01*
X85979000Y-108144676D01*
X85800573Y-108123439D01*
X85597394Y-108253648D01*
X85423521Y-108420993D01*
X85285637Y-108619044D01*
X85263458Y-108660576D01*
X79519387Y-108660576D01*
X79470078Y-108598539D01*
X79206638Y-108530707D01*
X78935026Y-108515573D01*
X78665680Y-108553718D01*
X78517922Y-108598539D01*
X78390132Y-108759317D01*
X54481604Y-108759317D01*
X54430898Y-108636903D01*
X54296180Y-108435283D01*
X54124717Y-108263820D01*
X53923097Y-108129102D01*
X53699069Y-108036307D01*
X53461243Y-107989000D01*
X53218757Y-107989000D01*
X52980931Y-108036307D01*
X52756903Y-108129102D01*
X52555283Y-108263820D01*
X52383820Y-108435283D01*
X52249102Y-108636903D01*
X52156307Y-108860931D01*
X52109000Y-109098757D01*
X51206000Y-109098757D01*
X51206000Y-106558757D01*
X52109000Y-106558757D01*
X52109000Y-106801243D01*
X52156307Y-107039069D01*
X52249102Y-107263097D01*
X52383820Y-107464717D01*
X52555283Y-107636180D01*
X52756903Y-107770898D01*
X52980931Y-107863693D01*
X53218757Y-107911000D01*
X53461243Y-107911000D01*
X53699069Y-107863693D01*
X53923097Y-107770898D01*
X54124717Y-107636180D01*
X54296180Y-107464717D01*
X54430898Y-107263097D01*
X54523693Y-107039069D01*
X54571000Y-106801243D01*
X54571000Y-106558757D01*
X85129000Y-106558757D01*
X85129000Y-106801243D01*
X85176307Y-107039069D01*
X85269102Y-107263097D01*
X85403820Y-107464717D01*
X85575283Y-107636180D01*
X85776903Y-107770898D01*
X86000931Y-107863693D01*
X86238757Y-107911000D01*
X86481243Y-107911000D01*
X86719069Y-107863693D01*
X86943097Y-107770898D01*
X87144717Y-107636180D01*
X87316180Y-107464717D01*
X87450898Y-107263097D01*
X87543693Y-107039069D01*
X87591000Y-106801243D01*
X87591000Y-106558757D01*
X87543693Y-106320931D01*
X87450898Y-106096903D01*
X87316180Y-105895283D01*
X87144717Y-105723820D01*
X86943097Y-105589102D01*
X86719069Y-105496307D01*
X86481243Y-105449000D01*
X86238757Y-105449000D01*
X86000931Y-105496307D01*
X85776903Y-105589102D01*
X85575283Y-105723820D01*
X85403820Y-105895283D01*
X85269102Y-106096903D01*
X85176307Y-106320931D01*
X85129000Y-106558757D01*
X54571000Y-106558757D01*
X54523693Y-106320931D01*
X54430898Y-106096903D01*
X54296180Y-105895283D01*
X54124717Y-105723820D01*
X53923097Y-105589102D01*
X53699069Y-105496307D01*
X53461243Y-105449000D01*
X53218757Y-105449000D01*
X52980931Y-105496307D01*
X52756903Y-105589102D01*
X52555283Y-105723820D01*
X52383820Y-105895283D01*
X52249102Y-106096903D01*
X52156307Y-106320931D01*
X52109000Y-106558757D01*
X51206000Y-106558757D01*
X51206000Y-102006000D01*
X54755579Y-102006000D01*
X53774166Y-102987413D01*
G37*
X53774166Y-102987413D02*
X53699069Y-102956307D01*
X53461243Y-102909000D01*
X53218757Y-102909000D01*
X52980931Y-102956307D01*
X52756903Y-103049102D01*
X52555283Y-103183820D01*
X52383820Y-103355283D01*
X52249102Y-103556903D01*
X52156307Y-103780931D01*
X52109000Y-104018757D01*
X52109000Y-104261243D01*
X52156307Y-104499069D01*
X52249102Y-104723097D01*
X52383820Y-104924717D01*
X52555283Y-105096180D01*
X52756903Y-105230898D01*
X52980931Y-105323693D01*
X53218757Y-105371000D01*
X53461243Y-105371000D01*
X53699069Y-105323693D01*
X53923097Y-105230898D01*
X54124717Y-105096180D01*
X54296180Y-104924717D01*
X54430898Y-104723097D01*
X54523693Y-104499069D01*
X54571000Y-104261243D01*
X54571000Y-104018757D01*
X54547776Y-103902000D01*
X77611157Y-103902000D01*
X77611157Y-105902000D01*
X77618513Y-105976689D01*
X77640299Y-106048508D01*
X77675678Y-106114696D01*
X77723289Y-106172711D01*
X77781304Y-106220322D01*
X77847492Y-106255701D01*
X77919311Y-106277487D01*
X77994000Y-106284843D01*
X79994000Y-106284843D01*
X80068689Y-106277487D01*
X80140508Y-106255701D01*
X80206696Y-106220322D01*
X80264711Y-106172711D01*
X80312322Y-106114696D01*
X80347701Y-106048508D01*
X80369487Y-105976689D01*
X80376843Y-105902000D01*
X80376843Y-104018757D01*
X85129000Y-104018757D01*
X85129000Y-104261243D01*
X85176307Y-104499069D01*
X85269102Y-104723097D01*
X85403820Y-104924717D01*
X85575283Y-105096180D01*
X85776903Y-105230898D01*
X86000931Y-105323693D01*
X86238757Y-105371000D01*
X86481243Y-105371000D01*
X86719069Y-105323693D01*
X86943097Y-105230898D01*
X87144717Y-105096180D01*
X87316180Y-104924717D01*
X87450898Y-104723097D01*
X87543693Y-104499069D01*
X87591000Y-104261243D01*
X87591000Y-104018757D01*
X87543693Y-103780931D01*
X87450898Y-103556903D01*
X87316180Y-103355283D01*
X87144717Y-103183820D01*
X86943097Y-103049102D01*
X86719069Y-102956307D01*
X86481243Y-102909000D01*
X86238757Y-102909000D01*
X86000931Y-102956307D01*
X85776903Y-103049102D01*
X85575283Y-103183820D01*
X85403820Y-103355283D01*
X85269102Y-103556903D01*
X85176307Y-103780931D01*
X85129000Y-104018757D01*
X80376843Y-104018757D01*
X80376843Y-103902000D01*
X80369487Y-103827311D01*
X80347701Y-103755492D01*
X80312322Y-103689304D01*
X80264711Y-103631289D01*
X80206696Y-103583678D01*
X80140508Y-103548299D01*
X80068689Y-103526513D01*
X79994000Y-103519157D01*
X77994000Y-103519157D01*
X77919311Y-103526513D01*
X77847492Y-103548299D01*
X77781304Y-103583678D01*
X77723289Y-103631289D01*
X77675678Y-103689304D01*
X77640299Y-103755492D01*
X77618513Y-103827311D01*
X77611157Y-103902000D01*
X54547776Y-103902000D01*
X54523693Y-103780931D01*
X54492587Y-103705834D01*
X55738411Y-102460010D01*
X68311195Y-102460010D01*
X68337013Y-102589809D01*
X68395887Y-102731942D01*
X68481358Y-102859859D01*
X68590141Y-102968642D01*
X68718058Y-103054113D01*
X68860191Y-103112987D01*
X69011078Y-103143000D01*
X69164922Y-103143000D01*
X69315809Y-103112987D01*
X69457942Y-103054113D01*
X69585859Y-102968642D01*
X69694642Y-102859859D01*
X69780113Y-102731942D01*
X69838987Y-102589809D01*
X69869000Y-102438922D01*
X69869000Y-102285078D01*
X69838987Y-102134191D01*
X69785888Y-102006000D01*
X88494000Y-102006000D01*
X88494000Y-114681000D01*
X51206000Y-114681000D01*
X51206000Y-112610000D01*
X52107157Y-112610000D01*
X52114513Y-112684689D01*
X52136299Y-112756508D01*
X52171678Y-112822696D01*
X52219289Y-112880711D01*
X52277304Y-112928322D01*
X52343492Y-112963701D01*
X52415311Y-112985487D01*
X52490000Y-112992843D01*
X52863750Y-112991000D01*
X52959000Y-112895750D01*
X52959000Y-112141000D01*
X53721000Y-112141000D01*
X53721000Y-112895750D01*
X53816250Y-112991000D01*
X54190000Y-112992843D01*
X54264689Y-112985487D01*
X54336508Y-112963701D01*
X54402696Y-112928322D01*
X54460711Y-112880711D01*
X54508322Y-112822696D01*
X54543701Y-112756508D01*
X54565487Y-112684689D01*
X54572843Y-112610000D01*
X85127157Y-112610000D01*
X85134513Y-112684689D01*
X85156299Y-112756508D01*
X85191678Y-112822696D01*
X85239289Y-112880711D01*
X85297304Y-112928322D01*
X85363492Y-112963701D01*
X85435311Y-112985487D01*
X85510000Y-112992843D01*
X85883750Y-112991000D01*
X85979000Y-112895750D01*
X85979000Y-112141000D01*
X86741000Y-112141000D01*
X86741000Y-112895750D01*
X86836250Y-112991000D01*
X87210000Y-112992843D01*
X87284689Y-112985487D01*
X87356508Y-112963701D01*
X87422696Y-112928322D01*
X87480711Y-112880711D01*
X87528322Y-112822696D01*
X87563701Y-112756508D01*
X87585487Y-112684689D01*
X87592843Y-112610000D01*
X87591000Y-112236250D01*
X87495750Y-112141000D01*
X86741000Y-112141000D01*
X85979000Y-112141000D01*
X85224250Y-112141000D01*
X85129000Y-112236250D01*
X85127157Y-112610000D01*
X54572843Y-112610000D01*
X54571000Y-112236250D01*
X54475750Y-112141000D01*
X53721000Y-112141000D01*
X52959000Y-112141000D01*
X52204250Y-112141000D01*
X52109000Y-112236250D01*
X52107157Y-112610000D01*
X51206000Y-112610000D01*
X51206000Y-110910000D01*
X52107157Y-110910000D01*
X52109000Y-111283750D01*
X52204250Y-111379000D01*
X52959000Y-111379000D01*
X52959000Y-110624250D01*
X53721000Y-110624250D01*
X53721000Y-111379000D01*
X54475750Y-111379000D01*
X54571000Y-111283750D01*
X54572178Y-111044683D01*
X78390132Y-111044683D01*
X78517922Y-111205461D01*
X78781362Y-111273293D01*
X79052974Y-111288427D01*
X79322320Y-111250282D01*
X79470078Y-111205461D01*
X79597868Y-111044683D01*
X79463185Y-110910000D01*
X85127157Y-110910000D01*
X85129000Y-111283750D01*
X85224250Y-111379000D01*
X85979000Y-111379000D01*
X85979000Y-110624250D01*
X86741000Y-110624250D01*
X86741000Y-111379000D01*
X87495750Y-111379000D01*
X87591000Y-111283750D01*
X87592843Y-110910000D01*
X87585487Y-110835311D01*
X87563701Y-110763492D01*
X87528322Y-110697304D01*
X87480711Y-110639289D01*
X87422696Y-110591678D01*
X87356508Y-110556299D01*
X87284689Y-110534513D01*
X87210000Y-110527157D01*
X86836250Y-110529000D01*
X86741000Y-110624250D01*
X85979000Y-110624250D01*
X85883750Y-110529000D01*
X85510000Y-110527157D01*
X85435311Y-110534513D01*
X85363492Y-110556299D01*
X85297304Y-110591678D01*
X85239289Y-110639289D01*
X85191678Y-110697304D01*
X85156299Y-110763492D01*
X85134513Y-110835311D01*
X85127157Y-110910000D01*
X79463185Y-110910000D01*
X78994000Y-110440815D01*
X78390132Y-111044683D01*
X54572178Y-111044683D01*
X54572843Y-110910000D01*
X54565487Y-110835311D01*
X54543701Y-110763492D01*
X54508322Y-110697304D01*
X54460711Y-110639289D01*
X54402696Y-110591678D01*
X54336508Y-110556299D01*
X54264689Y-110534513D01*
X54190000Y-110527157D01*
X53816250Y-110529000D01*
X53721000Y-110624250D01*
X52959000Y-110624250D01*
X52863750Y-110529000D01*
X52490000Y-110527157D01*
X52415311Y-110534513D01*
X52343492Y-110556299D01*
X52277304Y-110591678D01*
X52219289Y-110639289D01*
X52171678Y-110697304D01*
X52136299Y-110763492D01*
X52114513Y-110835311D01*
X52107157Y-110910000D01*
X51206000Y-110910000D01*
X51206000Y-109098757D01*
X52109000Y-109098757D01*
X52109000Y-109341243D01*
X52156307Y-109579069D01*
X52249102Y-109803097D01*
X52383820Y-110004717D01*
X52555283Y-110176180D01*
X52756903Y-110310898D01*
X52980931Y-110403693D01*
X53218757Y-110451000D01*
X53461243Y-110451000D01*
X53699069Y-110403693D01*
X53923097Y-110310898D01*
X54124717Y-110176180D01*
X54296180Y-110004717D01*
X54325408Y-109960974D01*
X77607573Y-109960974D01*
X77645718Y-110230320D01*
X77690539Y-110378078D01*
X77851317Y-110505868D01*
X78455185Y-109902000D01*
X79532815Y-109902000D01*
X80136683Y-110505868D01*
X80297461Y-110378078D01*
X80365293Y-110114638D01*
X80380427Y-109843026D01*
X80371420Y-109779424D01*
X85263458Y-109779424D01*
X85285637Y-109820956D01*
X85423521Y-110019007D01*
X85597394Y-110186352D01*
X85800573Y-110316561D01*
X85979000Y-110295324D01*
X85979000Y-109601000D01*
X86741000Y-109601000D01*
X86741000Y-110295324D01*
X86919427Y-110316561D01*
X87122606Y-110186352D01*
X87296479Y-110019007D01*
X87434363Y-109820956D01*
X87456542Y-109779424D01*
X87429938Y-109601000D01*
X86741000Y-109601000D01*
X85979000Y-109601000D01*
X85290062Y-109601000D01*
X85263458Y-109779424D01*
X80371420Y-109779424D01*
X80342282Y-109573680D01*
X80297461Y-109425922D01*
X80136683Y-109298132D01*
X79532815Y-109902000D01*
X78455185Y-109902000D01*
X77851317Y-109298132D01*
X77690539Y-109425922D01*
X77622707Y-109689362D01*
X77607573Y-109960974D01*
X54325408Y-109960974D01*
X54430898Y-109803097D01*
X54523693Y-109579069D01*
X54571000Y-109341243D01*
X54571000Y-109098757D01*
X54523693Y-108860931D01*
X54481604Y-108759317D01*
X78390132Y-108759317D01*
X78994000Y-109363185D01*
X79597868Y-108759317D01*
X79519387Y-108660576D01*
X85263458Y-108660576D01*
X85290062Y-108839000D01*
X85979000Y-108839000D01*
X85979000Y-108144676D01*
X86741000Y-108144676D01*
X86741000Y-108839000D01*
X87429938Y-108839000D01*
X87456542Y-108660576D01*
X87434363Y-108619044D01*
X87296479Y-108420993D01*
X87122606Y-108253648D01*
X86919427Y-108123439D01*
X86741000Y-108144676D01*
X85979000Y-108144676D01*
X85800573Y-108123439D01*
X85597394Y-108253648D01*
X85423521Y-108420993D01*
X85285637Y-108619044D01*
X85263458Y-108660576D01*
X79519387Y-108660576D01*
X79470078Y-108598539D01*
X79206638Y-108530707D01*
X78935026Y-108515573D01*
X78665680Y-108553718D01*
X78517922Y-108598539D01*
X78390132Y-108759317D01*
X54481604Y-108759317D01*
X54430898Y-108636903D01*
X54296180Y-108435283D01*
X54124717Y-108263820D01*
X53923097Y-108129102D01*
X53699069Y-108036307D01*
X53461243Y-107989000D01*
X53218757Y-107989000D01*
X52980931Y-108036307D01*
X52756903Y-108129102D01*
X52555283Y-108263820D01*
X52383820Y-108435283D01*
X52249102Y-108636903D01*
X52156307Y-108860931D01*
X52109000Y-109098757D01*
X51206000Y-109098757D01*
X51206000Y-106558757D01*
X52109000Y-106558757D01*
X52109000Y-106801243D01*
X52156307Y-107039069D01*
X52249102Y-107263097D01*
X52383820Y-107464717D01*
X52555283Y-107636180D01*
X52756903Y-107770898D01*
X52980931Y-107863693D01*
X53218757Y-107911000D01*
X53461243Y-107911000D01*
X53699069Y-107863693D01*
X53923097Y-107770898D01*
X54124717Y-107636180D01*
X54296180Y-107464717D01*
X54430898Y-107263097D01*
X54523693Y-107039069D01*
X54571000Y-106801243D01*
X54571000Y-106558757D01*
X85129000Y-106558757D01*
X85129000Y-106801243D01*
X85176307Y-107039069D01*
X85269102Y-107263097D01*
X85403820Y-107464717D01*
X85575283Y-107636180D01*
X85776903Y-107770898D01*
X86000931Y-107863693D01*
X86238757Y-107911000D01*
X86481243Y-107911000D01*
X86719069Y-107863693D01*
X86943097Y-107770898D01*
X87144717Y-107636180D01*
X87316180Y-107464717D01*
X87450898Y-107263097D01*
X87543693Y-107039069D01*
X87591000Y-106801243D01*
X87591000Y-106558757D01*
X87543693Y-106320931D01*
X87450898Y-106096903D01*
X87316180Y-105895283D01*
X87144717Y-105723820D01*
X86943097Y-105589102D01*
X86719069Y-105496307D01*
X86481243Y-105449000D01*
X86238757Y-105449000D01*
X86000931Y-105496307D01*
X85776903Y-105589102D01*
X85575283Y-105723820D01*
X85403820Y-105895283D01*
X85269102Y-106096903D01*
X85176307Y-106320931D01*
X85129000Y-106558757D01*
X54571000Y-106558757D01*
X54523693Y-106320931D01*
X54430898Y-106096903D01*
X54296180Y-105895283D01*
X54124717Y-105723820D01*
X53923097Y-105589102D01*
X53699069Y-105496307D01*
X53461243Y-105449000D01*
X53218757Y-105449000D01*
X52980931Y-105496307D01*
X52756903Y-105589102D01*
X52555283Y-105723820D01*
X52383820Y-105895283D01*
X52249102Y-106096903D01*
X52156307Y-106320931D01*
X52109000Y-106558757D01*
X51206000Y-106558757D01*
X51206000Y-102006000D01*
X54755579Y-102006000D01*
X53774166Y-102987413D01*
G36*
X88494001Y-121285000D02*
G01*
X75565000Y-121285000D01*
X75565000Y-119017561D01*
X75607000Y-119017561D01*
X75607000Y-119234439D01*
X75649311Y-119447150D01*
X75732307Y-119647519D01*
X75852798Y-119827846D01*
X76006154Y-119981202D01*
X76186481Y-120101693D01*
X76386850Y-120184689D01*
X76599561Y-120227000D01*
X76816439Y-120227000D01*
X77029150Y-120184689D01*
X77229519Y-120101693D01*
X77409846Y-119981202D01*
X77563202Y-119827846D01*
X77683693Y-119647519D01*
X77739451Y-119512909D01*
X77891405Y-119512909D01*
X78045025Y-119666529D01*
X78103040Y-119714140D01*
X78169228Y-119749519D01*
X78241047Y-119771305D01*
X78315736Y-119778661D01*
X78390425Y-119771305D01*
X78462244Y-119749519D01*
X78528432Y-119714140D01*
X78586447Y-119666529D01*
X79010711Y-119242265D01*
X79058322Y-119184250D01*
X79093701Y-119118062D01*
X79115487Y-119046243D01*
X79118311Y-119017561D01*
X80687000Y-119017561D01*
X80687000Y-119234439D01*
X80729311Y-119447150D01*
X80812307Y-119647519D01*
X80932798Y-119827846D01*
X81086154Y-119981202D01*
X81266481Y-120101693D01*
X81466850Y-120184689D01*
X81679561Y-120227000D01*
X81896439Y-120227000D01*
X82109150Y-120184689D01*
X82309519Y-120101693D01*
X82489846Y-119981202D01*
X82643202Y-119827846D01*
X82763693Y-119647519D01*
X82846689Y-119447150D01*
X82889000Y-119234439D01*
X82889000Y-119017561D01*
X82846689Y-118804850D01*
X82763693Y-118604481D01*
X82643202Y-118424154D01*
X82489846Y-118270798D01*
X82309519Y-118150307D01*
X82109150Y-118067311D01*
X81896439Y-118025000D01*
X81679561Y-118025000D01*
X81466850Y-118067311D01*
X81266481Y-118150307D01*
X81086154Y-118270798D01*
X80932798Y-118424154D01*
X80812307Y-118604481D01*
X80729311Y-118804850D01*
X80687000Y-119017561D01*
X79118311Y-119017561D01*
X79120217Y-118998217D01*
X79168243Y-118993487D01*
X79240062Y-118971701D01*
X79306250Y-118936322D01*
X79364265Y-118888711D01*
X79788529Y-118464447D01*
X79836140Y-118406432D01*
X79871519Y-118340244D01*
X79893305Y-118268425D01*
X79900661Y-118193736D01*
X79893305Y-118119047D01*
X79871519Y-118047228D01*
X79836140Y-117981040D01*
X79788529Y-117923025D01*
X79634909Y-117769405D01*
X79634909Y-117617451D01*
X79769519Y-117561693D01*
X79949846Y-117441202D01*
X80103202Y-117287846D01*
X80223693Y-117107519D01*
X80306689Y-116907150D01*
X80349000Y-116694439D01*
X80349000Y-116477561D01*
X80306689Y-116264850D01*
X80223693Y-116064481D01*
X80103202Y-115884154D01*
X79949846Y-115730798D01*
X79769519Y-115610307D01*
X79569150Y-115527311D01*
X79356439Y-115485000D01*
X79139561Y-115485000D01*
X78926850Y-115527311D01*
X78726481Y-115610307D01*
X78546154Y-115730798D01*
X78392798Y-115884154D01*
X78272307Y-116064481D01*
X78189311Y-116264850D01*
X78147000Y-116477561D01*
X78147000Y-116694439D01*
X78189311Y-116907150D01*
X78272307Y-117107519D01*
X78392798Y-117287846D01*
X78546154Y-117441202D01*
X78622909Y-117492489D01*
X78622909Y-117840115D01*
X78469289Y-117993735D01*
X78421678Y-118051750D01*
X78386299Y-118117938D01*
X78364513Y-118189757D01*
X78359783Y-118237783D01*
X78311757Y-118242513D01*
X78239938Y-118264299D01*
X78173750Y-118299678D01*
X78115735Y-118347289D01*
X77962115Y-118500909D01*
X77614488Y-118500909D01*
X77563202Y-118424154D01*
X77409846Y-118270798D01*
X77229519Y-118150307D01*
X77029150Y-118067311D01*
X76816439Y-118025000D01*
X76599561Y-118025000D01*
X76386850Y-118067311D01*
X76186481Y-118150307D01*
X76006154Y-118270798D01*
X75852798Y-118424154D01*
X75732307Y-118604481D01*
X75649311Y-118804850D01*
X75607000Y-119017561D01*
X75565000Y-119017561D01*
X75565000Y-112610000D01*
X85127157Y-112610000D01*
X85134513Y-112684689D01*
X85156299Y-112756508D01*
X85191678Y-112822696D01*
X85239289Y-112880711D01*
X85297304Y-112928322D01*
X85363492Y-112963701D01*
X85435311Y-112985487D01*
X85510000Y-112992843D01*
X85883750Y-112991000D01*
X85979000Y-112895750D01*
X85979000Y-112141000D01*
X86741000Y-112141000D01*
X86741000Y-112895750D01*
X86836250Y-112991000D01*
X87210000Y-112992843D01*
X87284689Y-112985487D01*
X87356508Y-112963701D01*
X87422696Y-112928322D01*
X87480711Y-112880711D01*
X87528322Y-112822696D01*
X87563701Y-112756508D01*
X87585487Y-112684689D01*
X87592843Y-112610000D01*
X87591000Y-112236250D01*
X87495750Y-112141000D01*
X86741000Y-112141000D01*
X85979000Y-112141000D01*
X85224250Y-112141000D01*
X85129000Y-112236250D01*
X85127157Y-112610000D01*
X75565000Y-112610000D01*
X75565000Y-111044683D01*
X78390132Y-111044683D01*
X78517922Y-111205461D01*
X78781362Y-111273293D01*
X79052974Y-111288427D01*
X79322320Y-111250282D01*
X79470078Y-111205461D01*
X79597868Y-111044683D01*
X79463185Y-110910000D01*
X85127157Y-110910000D01*
X85129000Y-111283750D01*
X85224250Y-111379000D01*
X85979000Y-111379000D01*
X85979000Y-110624250D01*
X86741000Y-110624250D01*
X86741000Y-111379000D01*
X87495750Y-111379000D01*
X87591000Y-111283750D01*
X87592843Y-110910000D01*
X87585487Y-110835311D01*
X87563701Y-110763492D01*
X87528322Y-110697304D01*
X87480711Y-110639289D01*
X87422696Y-110591678D01*
X87356508Y-110556299D01*
X87284689Y-110534513D01*
X87210000Y-110527157D01*
X86836250Y-110529000D01*
X86741000Y-110624250D01*
X85979000Y-110624250D01*
X85883750Y-110529000D01*
X85510000Y-110527157D01*
X85435311Y-110534513D01*
X85363492Y-110556299D01*
X85297304Y-110591678D01*
X85239289Y-110639289D01*
X85191678Y-110697304D01*
X85156299Y-110763492D01*
X85134513Y-110835311D01*
X85127157Y-110910000D01*
X79463185Y-110910000D01*
X78994000Y-110440815D01*
X78390132Y-111044683D01*
X75565000Y-111044683D01*
X75565000Y-109960974D01*
X77607573Y-109960974D01*
X77645718Y-110230320D01*
X77690539Y-110378078D01*
X77851317Y-110505868D01*
X78455185Y-109902000D01*
X79532815Y-109902000D01*
X80136683Y-110505868D01*
X80297461Y-110378078D01*
X80365293Y-110114638D01*
X80380427Y-109843026D01*
X80371420Y-109779424D01*
X85263458Y-109779424D01*
X85285637Y-109820956D01*
X85423521Y-110019007D01*
X85597394Y-110186352D01*
X85800573Y-110316561D01*
X85979000Y-110295324D01*
X85979000Y-109601000D01*
X86741000Y-109601000D01*
X86741000Y-110295324D01*
X86919427Y-110316561D01*
X87122606Y-110186352D01*
X87296479Y-110019007D01*
X87434363Y-109820956D01*
X87456542Y-109779424D01*
X87429938Y-109601000D01*
X86741000Y-109601000D01*
X85979000Y-109601000D01*
X85290062Y-109601000D01*
X85263458Y-109779424D01*
X80371420Y-109779424D01*
X80342282Y-109573680D01*
X80297461Y-109425922D01*
X80136683Y-109298132D01*
X79532815Y-109902000D01*
X78455185Y-109902000D01*
X77851317Y-109298132D01*
X77690539Y-109425922D01*
X77622707Y-109689362D01*
X77607573Y-109960974D01*
X75565000Y-109960974D01*
X75565000Y-108759317D01*
X78390132Y-108759317D01*
X78994000Y-109363185D01*
X79597868Y-108759317D01*
X79519387Y-108660576D01*
X85263458Y-108660576D01*
X85290062Y-108839000D01*
X85979000Y-108839000D01*
X85979000Y-108144676D01*
X86741000Y-108144676D01*
X86741000Y-108839000D01*
X87429938Y-108839000D01*
X87456542Y-108660576D01*
X87434363Y-108619044D01*
X87296479Y-108420993D01*
X87122606Y-108253648D01*
X86919427Y-108123439D01*
X86741000Y-108144676D01*
X85979000Y-108144676D01*
X85800573Y-108123439D01*
X85597394Y-108253648D01*
X85423521Y-108420993D01*
X85285637Y-108619044D01*
X85263458Y-108660576D01*
X79519387Y-108660576D01*
X79470078Y-108598539D01*
X79206638Y-108530707D01*
X78935026Y-108515573D01*
X78665680Y-108553718D01*
X78517922Y-108598539D01*
X78390132Y-108759317D01*
X75565000Y-108759317D01*
X75565000Y-106558757D01*
X85129000Y-106558757D01*
X85129000Y-106801243D01*
X85176307Y-107039069D01*
X85269102Y-107263097D01*
X85403820Y-107464717D01*
X85575283Y-107636180D01*
X85776903Y-107770898D01*
X86000931Y-107863693D01*
X86238757Y-107911000D01*
X86481243Y-107911000D01*
X86719069Y-107863693D01*
X86943097Y-107770898D01*
X87144717Y-107636180D01*
X87316180Y-107464717D01*
X87450898Y-107263097D01*
X87543693Y-107039069D01*
X87591000Y-106801243D01*
X87591000Y-106558757D01*
X87543693Y-106320931D01*
X87450898Y-106096903D01*
X87316180Y-105895283D01*
X87144717Y-105723820D01*
X86943097Y-105589102D01*
X86719069Y-105496307D01*
X86481243Y-105449000D01*
X86238757Y-105449000D01*
X86000931Y-105496307D01*
X85776903Y-105589102D01*
X85575283Y-105723820D01*
X85403820Y-105895283D01*
X85269102Y-106096903D01*
X85176307Y-106320931D01*
X85129000Y-106558757D01*
X75565000Y-106558757D01*
X75565000Y-103902000D01*
X77611157Y-103902000D01*
X77611157Y-105902000D01*
X77618513Y-105976689D01*
X77640299Y-106048508D01*
X77675678Y-106114696D01*
X77723289Y-106172711D01*
X77781304Y-106220322D01*
X77847492Y-106255701D01*
X77919311Y-106277487D01*
X77994000Y-106284843D01*
X79994000Y-106284843D01*
X80068689Y-106277487D01*
X80140508Y-106255701D01*
X80206696Y-106220322D01*
X80264711Y-106172711D01*
X80312322Y-106114696D01*
X80347701Y-106048508D01*
X80369487Y-105976689D01*
X80376843Y-105902000D01*
X80376843Y-104018757D01*
X85129000Y-104018757D01*
X85129000Y-104261243D01*
X85176307Y-104499069D01*
X85269102Y-104723097D01*
X85403820Y-104924717D01*
X85575283Y-105096180D01*
X85776903Y-105230898D01*
X86000931Y-105323693D01*
X86238757Y-105371000D01*
X86481243Y-105371000D01*
X86719069Y-105323693D01*
X86943097Y-105230898D01*
X87144717Y-105096180D01*
X87316180Y-104924717D01*
X87450898Y-104723097D01*
X87543693Y-104499069D01*
X87591000Y-104261243D01*
X87591000Y-104018757D01*
X87543693Y-103780931D01*
X87450898Y-103556903D01*
X87316180Y-103355283D01*
X87144717Y-103183820D01*
X86943097Y-103049102D01*
X86719069Y-102956307D01*
X86481243Y-102909000D01*
X86238757Y-102909000D01*
X86000931Y-102956307D01*
X85776903Y-103049102D01*
X85575283Y-103183820D01*
X85403820Y-103355283D01*
X85269102Y-103556903D01*
X85176307Y-103780931D01*
X85129000Y-104018757D01*
X80376843Y-104018757D01*
X80376843Y-103902000D01*
X80369487Y-103827311D01*
X80347701Y-103755492D01*
X80312322Y-103689304D01*
X80264711Y-103631289D01*
X80206696Y-103583678D01*
X80140508Y-103548299D01*
X80068689Y-103526513D01*
X79994000Y-103519157D01*
X77994000Y-103519157D01*
X77919311Y-103526513D01*
X77847492Y-103548299D01*
X77781304Y-103583678D01*
X77723289Y-103631289D01*
X77675678Y-103689304D01*
X77640299Y-103755492D01*
X77618513Y-103827311D01*
X77611157Y-103902000D01*
X75565000Y-103902000D01*
X75565000Y-102006000D01*
X88494000Y-102006000D01*
X88494001Y-121285000D01*
G37*
X88494001Y-121285000D02*
X75565000Y-121285000D01*
X75565000Y-119017561D01*
X75607000Y-119017561D01*
X75607000Y-119234439D01*
X75649311Y-119447150D01*
X75732307Y-119647519D01*
X75852798Y-119827846D01*
X76006154Y-119981202D01*
X76186481Y-120101693D01*
X76386850Y-120184689D01*
X76599561Y-120227000D01*
X76816439Y-120227000D01*
X77029150Y-120184689D01*
X77229519Y-120101693D01*
X77409846Y-119981202D01*
X77563202Y-119827846D01*
X77683693Y-119647519D01*
X77739451Y-119512909D01*
X77891405Y-119512909D01*
X78045025Y-119666529D01*
X78103040Y-119714140D01*
X78169228Y-119749519D01*
X78241047Y-119771305D01*
X78315736Y-119778661D01*
X78390425Y-119771305D01*
X78462244Y-119749519D01*
X78528432Y-119714140D01*
X78586447Y-119666529D01*
X79010711Y-119242265D01*
X79058322Y-119184250D01*
X79093701Y-119118062D01*
X79115487Y-119046243D01*
X79118311Y-119017561D01*
X80687000Y-119017561D01*
X80687000Y-119234439D01*
X80729311Y-119447150D01*
X80812307Y-119647519D01*
X80932798Y-119827846D01*
X81086154Y-119981202D01*
X81266481Y-120101693D01*
X81466850Y-120184689D01*
X81679561Y-120227000D01*
X81896439Y-120227000D01*
X82109150Y-120184689D01*
X82309519Y-120101693D01*
X82489846Y-119981202D01*
X82643202Y-119827846D01*
X82763693Y-119647519D01*
X82846689Y-119447150D01*
X82889000Y-119234439D01*
X82889000Y-119017561D01*
X82846689Y-118804850D01*
X82763693Y-118604481D01*
X82643202Y-118424154D01*
X82489846Y-118270798D01*
X82309519Y-118150307D01*
X82109150Y-118067311D01*
X81896439Y-118025000D01*
X81679561Y-118025000D01*
X81466850Y-118067311D01*
X81266481Y-118150307D01*
X81086154Y-118270798D01*
X80932798Y-118424154D01*
X80812307Y-118604481D01*
X80729311Y-118804850D01*
X80687000Y-119017561D01*
X79118311Y-119017561D01*
X79120217Y-118998217D01*
X79168243Y-118993487D01*
X79240062Y-118971701D01*
X79306250Y-118936322D01*
X79364265Y-118888711D01*
X79788529Y-118464447D01*
X79836140Y-118406432D01*
X79871519Y-118340244D01*
X79893305Y-118268425D01*
X79900661Y-118193736D01*
X79893305Y-118119047D01*
X79871519Y-118047228D01*
X79836140Y-117981040D01*
X79788529Y-117923025D01*
X79634909Y-117769405D01*
X79634909Y-117617451D01*
X79769519Y-117561693D01*
X79949846Y-117441202D01*
X80103202Y-117287846D01*
X80223693Y-117107519D01*
X80306689Y-116907150D01*
X80349000Y-116694439D01*
X80349000Y-116477561D01*
X80306689Y-116264850D01*
X80223693Y-116064481D01*
X80103202Y-115884154D01*
X79949846Y-115730798D01*
X79769519Y-115610307D01*
X79569150Y-115527311D01*
X79356439Y-115485000D01*
X79139561Y-115485000D01*
X78926850Y-115527311D01*
X78726481Y-115610307D01*
X78546154Y-115730798D01*
X78392798Y-115884154D01*
X78272307Y-116064481D01*
X78189311Y-116264850D01*
X78147000Y-116477561D01*
X78147000Y-116694439D01*
X78189311Y-116907150D01*
X78272307Y-117107519D01*
X78392798Y-117287846D01*
X78546154Y-117441202D01*
X78622909Y-117492489D01*
X78622909Y-117840115D01*
X78469289Y-117993735D01*
X78421678Y-118051750D01*
X78386299Y-118117938D01*
X78364513Y-118189757D01*
X78359783Y-118237783D01*
X78311757Y-118242513D01*
X78239938Y-118264299D01*
X78173750Y-118299678D01*
X78115735Y-118347289D01*
X77962115Y-118500909D01*
X77614488Y-118500909D01*
X77563202Y-118424154D01*
X77409846Y-118270798D01*
X77229519Y-118150307D01*
X77029150Y-118067311D01*
X76816439Y-118025000D01*
X76599561Y-118025000D01*
X76386850Y-118067311D01*
X76186481Y-118150307D01*
X76006154Y-118270798D01*
X75852798Y-118424154D01*
X75732307Y-118604481D01*
X75649311Y-118804850D01*
X75607000Y-119017561D01*
X75565000Y-119017561D01*
X75565000Y-112610000D01*
X85127157Y-112610000D01*
X85134513Y-112684689D01*
X85156299Y-112756508D01*
X85191678Y-112822696D01*
X85239289Y-112880711D01*
X85297304Y-112928322D01*
X85363492Y-112963701D01*
X85435311Y-112985487D01*
X85510000Y-112992843D01*
X85883750Y-112991000D01*
X85979000Y-112895750D01*
X85979000Y-112141000D01*
X86741000Y-112141000D01*
X86741000Y-112895750D01*
X86836250Y-112991000D01*
X87210000Y-112992843D01*
X87284689Y-112985487D01*
X87356508Y-112963701D01*
X87422696Y-112928322D01*
X87480711Y-112880711D01*
X87528322Y-112822696D01*
X87563701Y-112756508D01*
X87585487Y-112684689D01*
X87592843Y-112610000D01*
X87591000Y-112236250D01*
X87495750Y-112141000D01*
X86741000Y-112141000D01*
X85979000Y-112141000D01*
X85224250Y-112141000D01*
X85129000Y-112236250D01*
X85127157Y-112610000D01*
X75565000Y-112610000D01*
X75565000Y-111044683D01*
X78390132Y-111044683D01*
X78517922Y-111205461D01*
X78781362Y-111273293D01*
X79052974Y-111288427D01*
X79322320Y-111250282D01*
X79470078Y-111205461D01*
X79597868Y-111044683D01*
X79463185Y-110910000D01*
X85127157Y-110910000D01*
X85129000Y-111283750D01*
X85224250Y-111379000D01*
X85979000Y-111379000D01*
X85979000Y-110624250D01*
X86741000Y-110624250D01*
X86741000Y-111379000D01*
X87495750Y-111379000D01*
X87591000Y-111283750D01*
X87592843Y-110910000D01*
X87585487Y-110835311D01*
X87563701Y-110763492D01*
X87528322Y-110697304D01*
X87480711Y-110639289D01*
X87422696Y-110591678D01*
X87356508Y-110556299D01*
X87284689Y-110534513D01*
X87210000Y-110527157D01*
X86836250Y-110529000D01*
X86741000Y-110624250D01*
X85979000Y-110624250D01*
X85883750Y-110529000D01*
X85510000Y-110527157D01*
X85435311Y-110534513D01*
X85363492Y-110556299D01*
X85297304Y-110591678D01*
X85239289Y-110639289D01*
X85191678Y-110697304D01*
X85156299Y-110763492D01*
X85134513Y-110835311D01*
X85127157Y-110910000D01*
X79463185Y-110910000D01*
X78994000Y-110440815D01*
X78390132Y-111044683D01*
X75565000Y-111044683D01*
X75565000Y-109960974D01*
X77607573Y-109960974D01*
X77645718Y-110230320D01*
X77690539Y-110378078D01*
X77851317Y-110505868D01*
X78455185Y-109902000D01*
X79532815Y-109902000D01*
X80136683Y-110505868D01*
X80297461Y-110378078D01*
X80365293Y-110114638D01*
X80380427Y-109843026D01*
X80371420Y-109779424D01*
X85263458Y-109779424D01*
X85285637Y-109820956D01*
X85423521Y-110019007D01*
X85597394Y-110186352D01*
X85800573Y-110316561D01*
X85979000Y-110295324D01*
X85979000Y-109601000D01*
X86741000Y-109601000D01*
X86741000Y-110295324D01*
X86919427Y-110316561D01*
X87122606Y-110186352D01*
X87296479Y-110019007D01*
X87434363Y-109820956D01*
X87456542Y-109779424D01*
X87429938Y-109601000D01*
X86741000Y-109601000D01*
X85979000Y-109601000D01*
X85290062Y-109601000D01*
X85263458Y-109779424D01*
X80371420Y-109779424D01*
X80342282Y-109573680D01*
X80297461Y-109425922D01*
X80136683Y-109298132D01*
X79532815Y-109902000D01*
X78455185Y-109902000D01*
X77851317Y-109298132D01*
X77690539Y-109425922D01*
X77622707Y-109689362D01*
X77607573Y-109960974D01*
X75565000Y-109960974D01*
X75565000Y-108759317D01*
X78390132Y-108759317D01*
X78994000Y-109363185D01*
X79597868Y-108759317D01*
X79519387Y-108660576D01*
X85263458Y-108660576D01*
X85290062Y-108839000D01*
X85979000Y-108839000D01*
X85979000Y-108144676D01*
X86741000Y-108144676D01*
X86741000Y-108839000D01*
X87429938Y-108839000D01*
X87456542Y-108660576D01*
X87434363Y-108619044D01*
X87296479Y-108420993D01*
X87122606Y-108253648D01*
X86919427Y-108123439D01*
X86741000Y-108144676D01*
X85979000Y-108144676D01*
X85800573Y-108123439D01*
X85597394Y-108253648D01*
X85423521Y-108420993D01*
X85285637Y-108619044D01*
X85263458Y-108660576D01*
X79519387Y-108660576D01*
X79470078Y-108598539D01*
X79206638Y-108530707D01*
X78935026Y-108515573D01*
X78665680Y-108553718D01*
X78517922Y-108598539D01*
X78390132Y-108759317D01*
X75565000Y-108759317D01*
X75565000Y-106558757D01*
X85129000Y-106558757D01*
X85129000Y-106801243D01*
X85176307Y-107039069D01*
X85269102Y-107263097D01*
X85403820Y-107464717D01*
X85575283Y-107636180D01*
X85776903Y-107770898D01*
X86000931Y-107863693D01*
X86238757Y-107911000D01*
X86481243Y-107911000D01*
X86719069Y-107863693D01*
X86943097Y-107770898D01*
X87144717Y-107636180D01*
X87316180Y-107464717D01*
X87450898Y-107263097D01*
X87543693Y-107039069D01*
X87591000Y-106801243D01*
X87591000Y-106558757D01*
X87543693Y-106320931D01*
X87450898Y-106096903D01*
X87316180Y-105895283D01*
X87144717Y-105723820D01*
X86943097Y-105589102D01*
X86719069Y-105496307D01*
X86481243Y-105449000D01*
X86238757Y-105449000D01*
X86000931Y-105496307D01*
X85776903Y-105589102D01*
X85575283Y-105723820D01*
X85403820Y-105895283D01*
X85269102Y-106096903D01*
X85176307Y-106320931D01*
X85129000Y-106558757D01*
X75565000Y-106558757D01*
X75565000Y-103902000D01*
X77611157Y-103902000D01*
X77611157Y-105902000D01*
X77618513Y-105976689D01*
X77640299Y-106048508D01*
X77675678Y-106114696D01*
X77723289Y-106172711D01*
X77781304Y-106220322D01*
X77847492Y-106255701D01*
X77919311Y-106277487D01*
X77994000Y-106284843D01*
X79994000Y-106284843D01*
X80068689Y-106277487D01*
X80140508Y-106255701D01*
X80206696Y-106220322D01*
X80264711Y-106172711D01*
X80312322Y-106114696D01*
X80347701Y-106048508D01*
X80369487Y-105976689D01*
X80376843Y-105902000D01*
X80376843Y-104018757D01*
X85129000Y-104018757D01*
X85129000Y-104261243D01*
X85176307Y-104499069D01*
X85269102Y-104723097D01*
X85403820Y-104924717D01*
X85575283Y-105096180D01*
X85776903Y-105230898D01*
X86000931Y-105323693D01*
X86238757Y-105371000D01*
X86481243Y-105371000D01*
X86719069Y-105323693D01*
X86943097Y-105230898D01*
X87144717Y-105096180D01*
X87316180Y-104924717D01*
X87450898Y-104723097D01*
X87543693Y-104499069D01*
X87591000Y-104261243D01*
X87591000Y-104018757D01*
X87543693Y-103780931D01*
X87450898Y-103556903D01*
X87316180Y-103355283D01*
X87144717Y-103183820D01*
X86943097Y-103049102D01*
X86719069Y-102956307D01*
X86481243Y-102909000D01*
X86238757Y-102909000D01*
X86000931Y-102956307D01*
X85776903Y-103049102D01*
X85575283Y-103183820D01*
X85403820Y-103355283D01*
X85269102Y-103556903D01*
X85176307Y-103780931D01*
X85129000Y-104018757D01*
X80376843Y-104018757D01*
X80376843Y-103902000D01*
X80369487Y-103827311D01*
X80347701Y-103755492D01*
X80312322Y-103689304D01*
X80264711Y-103631289D01*
X80206696Y-103583678D01*
X80140508Y-103548299D01*
X80068689Y-103526513D01*
X79994000Y-103519157D01*
X77994000Y-103519157D01*
X77919311Y-103526513D01*
X77847492Y-103548299D01*
X77781304Y-103583678D01*
X77723289Y-103631289D01*
X77675678Y-103689304D01*
X77640299Y-103755492D01*
X77618513Y-103827311D01*
X77611157Y-103902000D01*
X75565000Y-103902000D01*
X75565000Y-102006000D01*
X88494000Y-102006000D01*
X88494001Y-121285000D01*
G36*
X73815864Y-128858612D02*
G01*
X73833476Y-128876208D01*
X73854183Y-128890031D01*
X73877188Y-128899548D01*
X73914000Y-128905000D01*
X85309339Y-128905000D01*
X85285637Y-128939044D01*
X85263458Y-128980576D01*
X85290062Y-129159000D01*
X85979000Y-129159000D01*
X85979000Y-129139000D01*
X86741000Y-129139000D01*
X86741000Y-129159000D01*
X87429938Y-129159000D01*
X87456542Y-128980576D01*
X87434363Y-128939044D01*
X87410661Y-128905000D01*
X88494001Y-128905000D01*
X88494001Y-134214000D01*
X51206000Y-134214000D01*
X51206000Y-132930000D01*
X52107157Y-132930000D01*
X52114513Y-133004689D01*
X52136299Y-133076508D01*
X52171678Y-133142696D01*
X52219289Y-133200711D01*
X52277304Y-133248322D01*
X52343492Y-133283701D01*
X52415311Y-133305487D01*
X52490000Y-133312843D01*
X52863750Y-133311000D01*
X52959000Y-133215750D01*
X52959000Y-132461000D01*
X53721000Y-132461000D01*
X53721000Y-133215750D01*
X53816250Y-133311000D01*
X54190000Y-133312843D01*
X54264689Y-133305487D01*
X54336508Y-133283701D01*
X54402696Y-133248322D01*
X54460711Y-133200711D01*
X54508322Y-133142696D01*
X54543701Y-133076508D01*
X54565487Y-133004689D01*
X54572843Y-132930000D01*
X85127157Y-132930000D01*
X85134513Y-133004689D01*
X85156299Y-133076508D01*
X85191678Y-133142696D01*
X85239289Y-133200711D01*
X85297304Y-133248322D01*
X85363492Y-133283701D01*
X85435311Y-133305487D01*
X85510000Y-133312843D01*
X85883750Y-133311000D01*
X85979000Y-133215750D01*
X85979000Y-132461000D01*
X86741000Y-132461000D01*
X86741000Y-133215750D01*
X86836250Y-133311000D01*
X87210000Y-133312843D01*
X87284689Y-133305487D01*
X87356508Y-133283701D01*
X87422696Y-133248322D01*
X87480711Y-133200711D01*
X87528322Y-133142696D01*
X87563701Y-133076508D01*
X87585487Y-133004689D01*
X87592843Y-132930000D01*
X87591000Y-132556250D01*
X87495750Y-132461000D01*
X86741000Y-132461000D01*
X85979000Y-132461000D01*
X85224250Y-132461000D01*
X85129000Y-132556250D01*
X85127157Y-132930000D01*
X54572843Y-132930000D01*
X54571000Y-132556250D01*
X54475750Y-132461000D01*
X53721000Y-132461000D01*
X52959000Y-132461000D01*
X52204250Y-132461000D01*
X52109000Y-132556250D01*
X52107157Y-132930000D01*
X51206000Y-132930000D01*
X51206000Y-132380683D01*
X77882132Y-132380683D01*
X78009922Y-132541461D01*
X78273362Y-132609293D01*
X78544974Y-132624427D01*
X78814320Y-132586282D01*
X78962078Y-132541461D01*
X79089868Y-132380683D01*
X78486000Y-131776815D01*
X77882132Y-132380683D01*
X51206000Y-132380683D01*
X51206000Y-131866700D01*
X51212367Y-131230000D01*
X52107157Y-131230000D01*
X52109000Y-131603750D01*
X52204250Y-131699000D01*
X52959000Y-131699000D01*
X52959000Y-130944250D01*
X53721000Y-130944250D01*
X53721000Y-131699000D01*
X54475750Y-131699000D01*
X54571000Y-131603750D01*
X54572512Y-131296974D01*
X77099573Y-131296974D01*
X77137718Y-131566320D01*
X77182539Y-131714078D01*
X77343317Y-131841868D01*
X77947185Y-131238000D01*
X79024815Y-131238000D01*
X79628683Y-131841868D01*
X79789461Y-131714078D01*
X79857293Y-131450638D01*
X79869586Y-131230000D01*
X85127157Y-131230000D01*
X85129000Y-131603750D01*
X85224250Y-131699000D01*
X85979000Y-131699000D01*
X85979000Y-130944250D01*
X86741000Y-130944250D01*
X86741000Y-131699000D01*
X87495750Y-131699000D01*
X87591000Y-131603750D01*
X87592843Y-131230000D01*
X87585487Y-131155311D01*
X87563701Y-131083492D01*
X87528322Y-131017304D01*
X87480711Y-130959289D01*
X87422696Y-130911678D01*
X87356508Y-130876299D01*
X87284689Y-130854513D01*
X87210000Y-130847157D01*
X86836250Y-130849000D01*
X86741000Y-130944250D01*
X85979000Y-130944250D01*
X85883750Y-130849000D01*
X85510000Y-130847157D01*
X85435311Y-130854513D01*
X85363492Y-130876299D01*
X85297304Y-130911678D01*
X85239289Y-130959289D01*
X85191678Y-131017304D01*
X85156299Y-131083492D01*
X85134513Y-131155311D01*
X85127157Y-131230000D01*
X79869586Y-131230000D01*
X79872427Y-131179026D01*
X79834282Y-130909680D01*
X79789461Y-130761922D01*
X79628683Y-130634132D01*
X79024815Y-131238000D01*
X77947185Y-131238000D01*
X77343317Y-130634132D01*
X77182539Y-130761922D01*
X77114707Y-131025362D01*
X77099573Y-131296974D01*
X54572512Y-131296974D01*
X54572843Y-131230000D01*
X54565487Y-131155311D01*
X54543701Y-131083492D01*
X54508322Y-131017304D01*
X54460711Y-130959289D01*
X54402696Y-130911678D01*
X54336508Y-130876299D01*
X54264689Y-130854513D01*
X54190000Y-130847157D01*
X53816250Y-130849000D01*
X53721000Y-130944250D01*
X52959000Y-130944250D01*
X52863750Y-130849000D01*
X52490000Y-130847157D01*
X52415311Y-130854513D01*
X52343492Y-130876299D01*
X52277304Y-130911678D01*
X52219289Y-130959289D01*
X52171678Y-131017304D01*
X52136299Y-131083492D01*
X52114513Y-131155311D01*
X52107157Y-131230000D01*
X51212367Y-131230000D01*
X51230479Y-129418757D01*
X52109000Y-129418757D01*
X52109000Y-129661243D01*
X52156307Y-129899069D01*
X52249102Y-130123097D01*
X52383820Y-130324717D01*
X52555283Y-130496180D01*
X52756903Y-130630898D01*
X52980931Y-130723693D01*
X53218757Y-130771000D01*
X53461243Y-130771000D01*
X53699069Y-130723693D01*
X53923097Y-130630898D01*
X54124717Y-130496180D01*
X54296180Y-130324717D01*
X54430898Y-130123097D01*
X54442404Y-130095317D01*
X77882132Y-130095317D01*
X78486000Y-130699185D01*
X79085761Y-130099424D01*
X85263458Y-130099424D01*
X85285637Y-130140956D01*
X85423521Y-130339007D01*
X85597394Y-130506352D01*
X85800573Y-130636561D01*
X85979000Y-130615324D01*
X85979000Y-129921000D01*
X86741000Y-129921000D01*
X86741000Y-130615324D01*
X86919427Y-130636561D01*
X87122606Y-130506352D01*
X87296479Y-130339007D01*
X87434363Y-130140956D01*
X87456542Y-130099424D01*
X87429938Y-129921000D01*
X86741000Y-129921000D01*
X85979000Y-129921000D01*
X85290062Y-129921000D01*
X85263458Y-130099424D01*
X79085761Y-130099424D01*
X79089868Y-130095317D01*
X78962078Y-129934539D01*
X78698638Y-129866707D01*
X78427026Y-129851573D01*
X78157680Y-129889718D01*
X78009922Y-129934539D01*
X77882132Y-130095317D01*
X54442404Y-130095317D01*
X54523693Y-129899069D01*
X54571000Y-129661243D01*
X54571000Y-129418757D01*
X54523693Y-129180931D01*
X54430898Y-128956903D01*
X54296180Y-128755283D01*
X54124717Y-128583820D01*
X53923097Y-128449102D01*
X53699069Y-128356307D01*
X53461243Y-128309000D01*
X53218757Y-128309000D01*
X52980931Y-128356307D01*
X52756903Y-128449102D01*
X52555283Y-128583820D01*
X52383820Y-128755283D01*
X52249102Y-128956903D01*
X52156307Y-129180931D01*
X52109000Y-129418757D01*
X51230479Y-129418757D01*
X51255879Y-126878757D01*
X52109000Y-126878757D01*
X52109000Y-127121243D01*
X52156307Y-127359069D01*
X52249102Y-127583097D01*
X52383820Y-127784717D01*
X52555283Y-127956180D01*
X52756903Y-128090898D01*
X52980931Y-128183693D01*
X53218757Y-128231000D01*
X53461243Y-128231000D01*
X53699069Y-128183693D01*
X53923097Y-128090898D01*
X54124717Y-127956180D01*
X54296180Y-127784717D01*
X54430898Y-127583097D01*
X54523693Y-127359069D01*
X54571000Y-127121243D01*
X54571000Y-126878757D01*
X54523693Y-126640931D01*
X54430898Y-126416903D01*
X54296180Y-126215283D01*
X54124717Y-126043820D01*
X53923097Y-125909102D01*
X53699069Y-125816307D01*
X53461243Y-125769000D01*
X53218757Y-125769000D01*
X52980931Y-125816307D01*
X52756903Y-125909102D01*
X52555283Y-126043820D01*
X52383820Y-126215283D01*
X52249102Y-126416903D01*
X52156307Y-126640931D01*
X52109000Y-126878757D01*
X51255879Y-126878757D01*
X51281279Y-124338757D01*
X52109000Y-124338757D01*
X52109000Y-124581243D01*
X52156307Y-124819069D01*
X52249102Y-125043097D01*
X52383820Y-125244717D01*
X52555283Y-125416180D01*
X52756903Y-125550898D01*
X52980931Y-125643693D01*
X53218757Y-125691000D01*
X53461243Y-125691000D01*
X53699069Y-125643693D01*
X53923097Y-125550898D01*
X54124717Y-125416180D01*
X54296180Y-125244717D01*
X54430898Y-125043097D01*
X54523693Y-124819069D01*
X54571000Y-124581243D01*
X54571000Y-124338757D01*
X54523693Y-124100931D01*
X54430898Y-123876903D01*
X54296180Y-123675283D01*
X54124717Y-123503820D01*
X53923097Y-123369102D01*
X53699069Y-123276307D01*
X53461243Y-123229000D01*
X53218757Y-123229000D01*
X52980931Y-123276307D01*
X52756903Y-123369102D01*
X52555283Y-123503820D01*
X52383820Y-123675283D01*
X52249102Y-123876903D01*
X52156307Y-124100931D01*
X52109000Y-124338757D01*
X51281279Y-124338757D01*
X51306737Y-121793000D01*
X68011968Y-121793000D01*
X73815864Y-128858612D01*
G37*
X73815864Y-128858612D02*
X73833476Y-128876208D01*
X73854183Y-128890031D01*
X73877188Y-128899548D01*
X73914000Y-128905000D01*
X85309339Y-128905000D01*
X85285637Y-128939044D01*
X85263458Y-128980576D01*
X85290062Y-129159000D01*
X85979000Y-129159000D01*
X85979000Y-129139000D01*
X86741000Y-129139000D01*
X86741000Y-129159000D01*
X87429938Y-129159000D01*
X87456542Y-128980576D01*
X87434363Y-128939044D01*
X87410661Y-128905000D01*
X88494001Y-128905000D01*
X88494001Y-134214000D01*
X51206000Y-134214000D01*
X51206000Y-132930000D01*
X52107157Y-132930000D01*
X52114513Y-133004689D01*
X52136299Y-133076508D01*
X52171678Y-133142696D01*
X52219289Y-133200711D01*
X52277304Y-133248322D01*
X52343492Y-133283701D01*
X52415311Y-133305487D01*
X52490000Y-133312843D01*
X52863750Y-133311000D01*
X52959000Y-133215750D01*
X52959000Y-132461000D01*
X53721000Y-132461000D01*
X53721000Y-133215750D01*
X53816250Y-133311000D01*
X54190000Y-133312843D01*
X54264689Y-133305487D01*
X54336508Y-133283701D01*
X54402696Y-133248322D01*
X54460711Y-133200711D01*
X54508322Y-133142696D01*
X54543701Y-133076508D01*
X54565487Y-133004689D01*
X54572843Y-132930000D01*
X85127157Y-132930000D01*
X85134513Y-133004689D01*
X85156299Y-133076508D01*
X85191678Y-133142696D01*
X85239289Y-133200711D01*
X85297304Y-133248322D01*
X85363492Y-133283701D01*
X85435311Y-133305487D01*
X85510000Y-133312843D01*
X85883750Y-133311000D01*
X85979000Y-133215750D01*
X85979000Y-132461000D01*
X86741000Y-132461000D01*
X86741000Y-133215750D01*
X86836250Y-133311000D01*
X87210000Y-133312843D01*
X87284689Y-133305487D01*
X87356508Y-133283701D01*
X87422696Y-133248322D01*
X87480711Y-133200711D01*
X87528322Y-133142696D01*
X87563701Y-133076508D01*
X87585487Y-133004689D01*
X87592843Y-132930000D01*
X87591000Y-132556250D01*
X87495750Y-132461000D01*
X86741000Y-132461000D01*
X85979000Y-132461000D01*
X85224250Y-132461000D01*
X85129000Y-132556250D01*
X85127157Y-132930000D01*
X54572843Y-132930000D01*
X54571000Y-132556250D01*
X54475750Y-132461000D01*
X53721000Y-132461000D01*
X52959000Y-132461000D01*
X52204250Y-132461000D01*
X52109000Y-132556250D01*
X52107157Y-132930000D01*
X51206000Y-132930000D01*
X51206000Y-132380683D01*
X77882132Y-132380683D01*
X78009922Y-132541461D01*
X78273362Y-132609293D01*
X78544974Y-132624427D01*
X78814320Y-132586282D01*
X78962078Y-132541461D01*
X79089868Y-132380683D01*
X78486000Y-131776815D01*
X77882132Y-132380683D01*
X51206000Y-132380683D01*
X51206000Y-131866700D01*
X51212367Y-131230000D01*
X52107157Y-131230000D01*
X52109000Y-131603750D01*
X52204250Y-131699000D01*
X52959000Y-131699000D01*
X52959000Y-130944250D01*
X53721000Y-130944250D01*
X53721000Y-131699000D01*
X54475750Y-131699000D01*
X54571000Y-131603750D01*
X54572512Y-131296974D01*
X77099573Y-131296974D01*
X77137718Y-131566320D01*
X77182539Y-131714078D01*
X77343317Y-131841868D01*
X77947185Y-131238000D01*
X79024815Y-131238000D01*
X79628683Y-131841868D01*
X79789461Y-131714078D01*
X79857293Y-131450638D01*
X79869586Y-131230000D01*
X85127157Y-131230000D01*
X85129000Y-131603750D01*
X85224250Y-131699000D01*
X85979000Y-131699000D01*
X85979000Y-130944250D01*
X86741000Y-130944250D01*
X86741000Y-131699000D01*
X87495750Y-131699000D01*
X87591000Y-131603750D01*
X87592843Y-131230000D01*
X87585487Y-131155311D01*
X87563701Y-131083492D01*
X87528322Y-131017304D01*
X87480711Y-130959289D01*
X87422696Y-130911678D01*
X87356508Y-130876299D01*
X87284689Y-130854513D01*
X87210000Y-130847157D01*
X86836250Y-130849000D01*
X86741000Y-130944250D01*
X85979000Y-130944250D01*
X85883750Y-130849000D01*
X85510000Y-130847157D01*
X85435311Y-130854513D01*
X85363492Y-130876299D01*
X85297304Y-130911678D01*
X85239289Y-130959289D01*
X85191678Y-131017304D01*
X85156299Y-131083492D01*
X85134513Y-131155311D01*
X85127157Y-131230000D01*
X79869586Y-131230000D01*
X79872427Y-131179026D01*
X79834282Y-130909680D01*
X79789461Y-130761922D01*
X79628683Y-130634132D01*
X79024815Y-131238000D01*
X77947185Y-131238000D01*
X77343317Y-130634132D01*
X77182539Y-130761922D01*
X77114707Y-131025362D01*
X77099573Y-131296974D01*
X54572512Y-131296974D01*
X54572843Y-131230000D01*
X54565487Y-131155311D01*
X54543701Y-131083492D01*
X54508322Y-131017304D01*
X54460711Y-130959289D01*
X54402696Y-130911678D01*
X54336508Y-130876299D01*
X54264689Y-130854513D01*
X54190000Y-130847157D01*
X53816250Y-130849000D01*
X53721000Y-130944250D01*
X52959000Y-130944250D01*
X52863750Y-130849000D01*
X52490000Y-130847157D01*
X52415311Y-130854513D01*
X52343492Y-130876299D01*
X52277304Y-130911678D01*
X52219289Y-130959289D01*
X52171678Y-131017304D01*
X52136299Y-131083492D01*
X52114513Y-131155311D01*
X52107157Y-131230000D01*
X51212367Y-131230000D01*
X51230479Y-129418757D01*
X52109000Y-129418757D01*
X52109000Y-129661243D01*
X52156307Y-129899069D01*
X52249102Y-130123097D01*
X52383820Y-130324717D01*
X52555283Y-130496180D01*
X52756903Y-130630898D01*
X52980931Y-130723693D01*
X53218757Y-130771000D01*
X53461243Y-130771000D01*
X53699069Y-130723693D01*
X53923097Y-130630898D01*
X54124717Y-130496180D01*
X54296180Y-130324717D01*
X54430898Y-130123097D01*
X54442404Y-130095317D01*
X77882132Y-130095317D01*
X78486000Y-130699185D01*
X79085761Y-130099424D01*
X85263458Y-130099424D01*
X85285637Y-130140956D01*
X85423521Y-130339007D01*
X85597394Y-130506352D01*
X85800573Y-130636561D01*
X85979000Y-130615324D01*
X85979000Y-129921000D01*
X86741000Y-129921000D01*
X86741000Y-130615324D01*
X86919427Y-130636561D01*
X87122606Y-130506352D01*
X87296479Y-130339007D01*
X87434363Y-130140956D01*
X87456542Y-130099424D01*
X87429938Y-129921000D01*
X86741000Y-129921000D01*
X85979000Y-129921000D01*
X85290062Y-129921000D01*
X85263458Y-130099424D01*
X79085761Y-130099424D01*
X79089868Y-130095317D01*
X78962078Y-129934539D01*
X78698638Y-129866707D01*
X78427026Y-129851573D01*
X78157680Y-129889718D01*
X78009922Y-129934539D01*
X77882132Y-130095317D01*
X54442404Y-130095317D01*
X54523693Y-129899069D01*
X54571000Y-129661243D01*
X54571000Y-129418757D01*
X54523693Y-129180931D01*
X54430898Y-128956903D01*
X54296180Y-128755283D01*
X54124717Y-128583820D01*
X53923097Y-128449102D01*
X53699069Y-128356307D01*
X53461243Y-128309000D01*
X53218757Y-128309000D01*
X52980931Y-128356307D01*
X52756903Y-128449102D01*
X52555283Y-128583820D01*
X52383820Y-128755283D01*
X52249102Y-128956903D01*
X52156307Y-129180931D01*
X52109000Y-129418757D01*
X51230479Y-129418757D01*
X51255879Y-126878757D01*
X52109000Y-126878757D01*
X52109000Y-127121243D01*
X52156307Y-127359069D01*
X52249102Y-127583097D01*
X52383820Y-127784717D01*
X52555283Y-127956180D01*
X52756903Y-128090898D01*
X52980931Y-128183693D01*
X53218757Y-128231000D01*
X53461243Y-128231000D01*
X53699069Y-128183693D01*
X53923097Y-128090898D01*
X54124717Y-127956180D01*
X54296180Y-127784717D01*
X54430898Y-127583097D01*
X54523693Y-127359069D01*
X54571000Y-127121243D01*
X54571000Y-126878757D01*
X54523693Y-126640931D01*
X54430898Y-126416903D01*
X54296180Y-126215283D01*
X54124717Y-126043820D01*
X53923097Y-125909102D01*
X53699069Y-125816307D01*
X53461243Y-125769000D01*
X53218757Y-125769000D01*
X52980931Y-125816307D01*
X52756903Y-125909102D01*
X52555283Y-126043820D01*
X52383820Y-126215283D01*
X52249102Y-126416903D01*
X52156307Y-126640931D01*
X52109000Y-126878757D01*
X51255879Y-126878757D01*
X51281279Y-124338757D01*
X52109000Y-124338757D01*
X52109000Y-124581243D01*
X52156307Y-124819069D01*
X52249102Y-125043097D01*
X52383820Y-125244717D01*
X52555283Y-125416180D01*
X52756903Y-125550898D01*
X52980931Y-125643693D01*
X53218757Y-125691000D01*
X53461243Y-125691000D01*
X53699069Y-125643693D01*
X53923097Y-125550898D01*
X54124717Y-125416180D01*
X54296180Y-125244717D01*
X54430898Y-125043097D01*
X54523693Y-124819069D01*
X54571000Y-124581243D01*
X54571000Y-124338757D01*
X54523693Y-124100931D01*
X54430898Y-123876903D01*
X54296180Y-123675283D01*
X54124717Y-123503820D01*
X53923097Y-123369102D01*
X53699069Y-123276307D01*
X53461243Y-123229000D01*
X53218757Y-123229000D01*
X52980931Y-123276307D01*
X52756903Y-123369102D01*
X52555283Y-123503820D01*
X52383820Y-123675283D01*
X52249102Y-123876903D01*
X52156307Y-124100931D01*
X52109000Y-124338757D01*
X51281279Y-124338757D01*
X51306737Y-121793000D01*
X68011968Y-121793000D01*
X73815864Y-128858612D01*
M02*
