G04 #@! TF.GenerationSoftware,KiCad,Pcbnew,(5.1.5)-3*
G04 #@! TF.CreationDate,2022-02-08T12:26:58-07:00*
G04 #@! TF.ProjectId,lm2596_breakout,6c6d3235-3936-45f6-9272-65616b6f7574,rev?*
G04 #@! TF.SameCoordinates,Original*
G04 #@! TF.FileFunction,Copper,L1,Top*
G04 #@! TF.FilePolarity,Positive*
%FSLAX46Y46*%
G04 Gerber Fmt 4.6, Leading zero omitted, Abs format (unit mm)*
G04 Created by KiCad (PCBNEW (5.1.5)-3) date 2022-02-08 12:26:58*
%MOMM*%
%LPD*%
G04 APERTURE LIST*
%ADD10O,1.700000X1.700000*%
%ADD11R,1.700000X1.700000*%
%ADD12C,2.000000*%
%ADD13R,2.000000X2.000000*%
%ADD14R,5.250000X4.550000*%
%ADD15R,10.800000X9.400000*%
%ADD16R,1.100000X4.600000*%
%ADD17C,1.440000*%
%ADD18R,0.900000X0.500000*%
%ADD19R,3.200000X1.000000*%
%ADD20R,5.400000X2.900000*%
%ADD21R,2.500000X1.800000*%
%ADD22C,0.800000*%
%ADD23C,1.270000*%
%ADD24C,0.762000*%
%ADD25C,0.254000*%
%ADD26C,0.250000*%
G04 APERTURE END LIST*
D10*
X86360000Y-124460000D03*
X86360000Y-127000000D03*
X86360000Y-129540000D03*
D11*
X86360000Y-132080000D03*
D12*
X78486000Y-131238000D03*
D13*
X78486000Y-126238000D03*
D14*
X63265000Y-126172000D03*
X68815000Y-131022000D03*
X68815000Y-126172000D03*
X63265000Y-131022000D03*
D15*
X66040000Y-128597000D03*
D16*
X62640000Y-119447000D03*
X64340000Y-119447000D03*
X66040000Y-119447000D03*
X67740000Y-119447000D03*
X69440000Y-119447000D03*
D17*
X81788000Y-119126000D03*
X79248000Y-116586000D03*
X76708000Y-119126000D03*
D18*
X86360000Y-115836000D03*
X86360000Y-117336000D03*
D12*
X78994000Y-109902000D03*
D13*
X78994000Y-104902000D03*
D19*
X71374000Y-103072000D03*
X71374000Y-109272000D03*
D20*
X61976000Y-103762000D03*
X61976000Y-113662000D03*
D10*
X53340000Y-124460000D03*
X53340000Y-127000000D03*
X53340000Y-129540000D03*
D11*
X53340000Y-132080000D03*
D10*
X86360000Y-104140000D03*
X86360000Y-106680000D03*
X86360000Y-109220000D03*
D11*
X86360000Y-111760000D03*
D10*
X53340000Y-104140000D03*
X53340000Y-106680000D03*
X53340000Y-109220000D03*
D11*
X53340000Y-111760000D03*
D21*
X53372000Y-118110000D03*
X57372000Y-118110000D03*
D22*
X83820000Y-120904000D03*
X82550000Y-120904000D03*
X85344000Y-120904000D03*
X86868000Y-120904000D03*
X88138000Y-120904000D03*
X78740000Y-120904000D03*
X80010000Y-120904000D03*
X81280000Y-120904000D03*
X80264000Y-119888000D03*
X74676000Y-129286000D03*
X74676000Y-127508000D03*
X73152000Y-126746000D03*
X74676000Y-131064000D03*
X73152000Y-130302000D03*
X74676000Y-132842000D03*
X73152000Y-132080000D03*
X73152000Y-128524000D03*
X58166000Y-127508000D03*
X59690000Y-126492000D03*
X58166000Y-125476000D03*
X59436000Y-124460000D03*
X58166000Y-123698000D03*
X69342000Y-116078000D03*
X70612000Y-116078000D03*
X71882000Y-116078000D03*
X73406000Y-116078000D03*
X71374000Y-117348000D03*
X72898000Y-117348000D03*
X74168000Y-117348000D03*
X72136000Y-118618000D03*
X73660000Y-118618000D03*
X71374000Y-119888000D03*
X72898000Y-119888000D03*
X72136000Y-121412000D03*
X73914000Y-121412000D03*
X74168000Y-119888000D03*
X70866000Y-121412000D03*
X70866000Y-118618000D03*
X83312000Y-119888000D03*
X84836000Y-119888000D03*
X86106000Y-119888000D03*
X87376000Y-119888000D03*
X59690000Y-133858000D03*
X59690000Y-130302000D03*
X59690000Y-132080000D03*
X58166000Y-131318000D03*
X59690000Y-128524000D03*
X58166000Y-129286000D03*
X58166000Y-133096000D03*
X61214000Y-132588000D03*
X64516000Y-132588000D03*
X62738000Y-132588000D03*
X68072000Y-132588000D03*
X66294000Y-132588000D03*
X70104000Y-132588000D03*
X61976000Y-131318000D03*
X65278000Y-131318000D03*
X63500000Y-131318000D03*
X68834000Y-131318000D03*
X67056000Y-131318000D03*
X70866000Y-131318000D03*
X61214000Y-130048000D03*
X64516000Y-130048000D03*
X62738000Y-130048000D03*
X68072000Y-130048000D03*
X66294000Y-130048000D03*
X70104000Y-130048000D03*
X61976000Y-128778000D03*
X65278000Y-128778000D03*
X63500000Y-128778000D03*
X68834000Y-128778000D03*
X67056000Y-128778000D03*
X70866000Y-128778000D03*
X61214000Y-127508000D03*
X64516000Y-127508000D03*
X62738000Y-127508000D03*
X68072000Y-127508000D03*
X66294000Y-127508000D03*
X70104000Y-127508000D03*
X62230000Y-126238000D03*
X65532000Y-126238000D03*
X63754000Y-126238000D03*
X69088000Y-126238000D03*
X67310000Y-126238000D03*
X71120000Y-126238000D03*
X70104000Y-124968000D03*
X68072000Y-124968000D03*
X66294000Y-124968000D03*
X64516000Y-124968000D03*
X62738000Y-124968000D03*
X61214000Y-124968000D03*
X66040000Y-116586000D03*
X51562000Y-118110000D03*
X53340000Y-116586000D03*
X53340000Y-119634000D03*
X69088000Y-102362000D03*
D23*
X59370000Y-128851000D02*
X59297000Y-128778000D01*
X66040000Y-128597000D02*
X59370000Y-128597000D01*
X66040000Y-128597000D02*
X66040000Y-133350000D01*
X66040000Y-128597000D02*
X72971000Y-128597000D01*
X66040000Y-119447000D02*
X66040000Y-116586000D01*
D24*
X53372000Y-118110000D02*
X51562000Y-118110000D01*
X53372000Y-118110000D02*
X53372000Y-116618000D01*
X53372000Y-116618000D02*
X53340000Y-116586000D01*
X53372000Y-118110000D02*
X53372000Y-119602000D01*
X53372000Y-119602000D02*
X53340000Y-119634000D01*
D25*
X77740000Y-104902000D02*
X78994000Y-104902000D01*
X76708000Y-105934000D02*
X77740000Y-104902000D01*
X76708000Y-119126000D02*
X76708000Y-105934000D01*
D23*
X65946000Y-113662000D02*
X61976000Y-113662000D01*
X67740000Y-115456000D02*
X65946000Y-113662000D01*
X67740000Y-119447000D02*
X67740000Y-115456000D01*
D26*
X51816000Y-125476000D02*
X53340000Y-127000000D01*
X61147000Y-119447000D02*
X59436000Y-121158000D01*
X62640000Y-119447000D02*
X61147000Y-119447000D01*
X59436000Y-121158000D02*
X53594000Y-121158000D01*
X53594000Y-121158000D02*
X51816000Y-122936000D01*
X51816000Y-122936000D02*
X51816000Y-125476000D01*
D25*
X53340000Y-106680000D02*
X56388000Y-106680000D01*
X56388000Y-106680000D02*
X57658000Y-105410000D01*
X57658000Y-105410000D02*
X57658000Y-104140000D01*
X58036000Y-103762000D02*
X61976000Y-103762000D01*
X57658000Y-104140000D02*
X58036000Y-103762000D01*
D26*
X64340000Y-121334000D02*
X64340000Y-119447000D01*
X53340000Y-124460000D02*
X55372000Y-122428000D01*
X55372000Y-122428000D02*
X62230000Y-122428000D01*
X62230000Y-122428000D02*
X63246000Y-122428000D01*
D25*
X64262000Y-122428000D02*
X62230000Y-122428000D01*
X79248000Y-118872000D02*
X79248000Y-116586000D01*
X75184000Y-122936000D02*
X79248000Y-118872000D01*
X64262000Y-122428000D02*
X64770000Y-122936000D01*
X64770000Y-122936000D02*
X75184000Y-122936000D01*
X64262000Y-119525000D02*
X64262000Y-122428000D01*
X64340000Y-119447000D02*
X64262000Y-119525000D01*
X86360000Y-117336000D02*
X86360000Y-117840000D01*
X86360000Y-117840000D02*
X85074000Y-119126000D01*
X81788000Y-119126000D02*
X84582000Y-119126000D01*
X85074000Y-119126000D02*
X84582000Y-119126000D01*
G36*
X67945000Y-115951000D02*
G01*
X66833210Y-115951000D01*
X66761896Y-115864104D01*
X66607190Y-115737140D01*
X66430687Y-115642798D01*
X66239171Y-115584702D01*
X66040000Y-115565085D01*
X65840830Y-115584702D01*
X65649314Y-115642798D01*
X65472811Y-115737140D01*
X65318105Y-115864104D01*
X65246791Y-115951000D01*
X61976000Y-115951000D01*
X61951224Y-115953440D01*
X61927399Y-115960667D01*
X61905443Y-115972403D01*
X61877965Y-115997265D01*
X58360066Y-120269000D01*
X55499000Y-120269000D01*
X55499000Y-119010000D01*
X55739157Y-119010000D01*
X55746513Y-119084689D01*
X55768299Y-119156508D01*
X55803678Y-119222696D01*
X55851289Y-119280711D01*
X55909304Y-119328322D01*
X55975492Y-119363701D01*
X56047311Y-119385487D01*
X56122000Y-119392843D01*
X56895750Y-119391000D01*
X56991000Y-119295750D01*
X56991000Y-118491000D01*
X57753000Y-118491000D01*
X57753000Y-119295750D01*
X57848250Y-119391000D01*
X58622000Y-119392843D01*
X58696689Y-119385487D01*
X58768508Y-119363701D01*
X58834696Y-119328322D01*
X58892711Y-119280711D01*
X58940322Y-119222696D01*
X58975701Y-119156508D01*
X58997487Y-119084689D01*
X59004843Y-119010000D01*
X59003000Y-118586250D01*
X58907750Y-118491000D01*
X57753000Y-118491000D01*
X56991000Y-118491000D01*
X55836250Y-118491000D01*
X55741000Y-118586250D01*
X55739157Y-119010000D01*
X55499000Y-119010000D01*
X55499000Y-117210000D01*
X55739157Y-117210000D01*
X55741000Y-117633750D01*
X55836250Y-117729000D01*
X56991000Y-117729000D01*
X56991000Y-116924250D01*
X57753000Y-116924250D01*
X57753000Y-117729000D01*
X58907750Y-117729000D01*
X59003000Y-117633750D01*
X59004843Y-117210000D01*
X58997487Y-117135311D01*
X58975701Y-117063492D01*
X58940322Y-116997304D01*
X58892711Y-116939289D01*
X58834696Y-116891678D01*
X58768508Y-116856299D01*
X58696689Y-116834513D01*
X58622000Y-116827157D01*
X57848250Y-116829000D01*
X57753000Y-116924250D01*
X56991000Y-116924250D01*
X56895750Y-116829000D01*
X56122000Y-116827157D01*
X56047311Y-116834513D01*
X55975492Y-116856299D01*
X55909304Y-116891678D01*
X55851289Y-116939289D01*
X55803678Y-116997304D01*
X55768299Y-117063492D01*
X55746513Y-117135311D01*
X55739157Y-117210000D01*
X55499000Y-117210000D01*
X55499000Y-115112000D01*
X58893157Y-115112000D01*
X58900513Y-115186689D01*
X58922299Y-115258508D01*
X58957678Y-115324696D01*
X59005289Y-115382711D01*
X59063304Y-115430322D01*
X59129492Y-115465701D01*
X59201311Y-115487487D01*
X59276000Y-115494843D01*
X61499750Y-115493000D01*
X61595000Y-115397750D01*
X61595000Y-114043000D01*
X62357000Y-114043000D01*
X62357000Y-115397750D01*
X62452250Y-115493000D01*
X64676000Y-115494843D01*
X64750689Y-115487487D01*
X64822508Y-115465701D01*
X64888696Y-115430322D01*
X64946711Y-115382711D01*
X64994322Y-115324696D01*
X65029701Y-115258508D01*
X65051487Y-115186689D01*
X65058843Y-115112000D01*
X65057000Y-114138250D01*
X64961750Y-114043000D01*
X62357000Y-114043000D01*
X61595000Y-114043000D01*
X58990250Y-114043000D01*
X58895000Y-114138250D01*
X58893157Y-115112000D01*
X55499000Y-115112000D01*
X55499000Y-112212000D01*
X58893157Y-112212000D01*
X58895000Y-113185750D01*
X58990250Y-113281000D01*
X61595000Y-113281000D01*
X61595000Y-111926250D01*
X62357000Y-111926250D01*
X62357000Y-113281000D01*
X64961750Y-113281000D01*
X65057000Y-113185750D01*
X65058843Y-112212000D01*
X65051487Y-112137311D01*
X65029701Y-112065492D01*
X64994322Y-111999304D01*
X64946711Y-111941289D01*
X64888696Y-111893678D01*
X64822508Y-111858299D01*
X64750689Y-111836513D01*
X64676000Y-111829157D01*
X62452250Y-111831000D01*
X62357000Y-111926250D01*
X61595000Y-111926250D01*
X61499750Y-111831000D01*
X59276000Y-111829157D01*
X59201311Y-111836513D01*
X59129492Y-111858299D01*
X59063304Y-111893678D01*
X59005289Y-111941289D01*
X58957678Y-111999304D01*
X58922299Y-112065492D01*
X58900513Y-112137311D01*
X58893157Y-112212000D01*
X55499000Y-112212000D01*
X55499000Y-110363000D01*
X67945000Y-110363000D01*
X67945000Y-115951000D01*
G37*
X67945000Y-115951000D02*
X66833210Y-115951000D01*
X66761896Y-115864104D01*
X66607190Y-115737140D01*
X66430687Y-115642798D01*
X66239171Y-115584702D01*
X66040000Y-115565085D01*
X65840830Y-115584702D01*
X65649314Y-115642798D01*
X65472811Y-115737140D01*
X65318105Y-115864104D01*
X65246791Y-115951000D01*
X61976000Y-115951000D01*
X61951224Y-115953440D01*
X61927399Y-115960667D01*
X61905443Y-115972403D01*
X61877965Y-115997265D01*
X58360066Y-120269000D01*
X55499000Y-120269000D01*
X55499000Y-119010000D01*
X55739157Y-119010000D01*
X55746513Y-119084689D01*
X55768299Y-119156508D01*
X55803678Y-119222696D01*
X55851289Y-119280711D01*
X55909304Y-119328322D01*
X55975492Y-119363701D01*
X56047311Y-119385487D01*
X56122000Y-119392843D01*
X56895750Y-119391000D01*
X56991000Y-119295750D01*
X56991000Y-118491000D01*
X57753000Y-118491000D01*
X57753000Y-119295750D01*
X57848250Y-119391000D01*
X58622000Y-119392843D01*
X58696689Y-119385487D01*
X58768508Y-119363701D01*
X58834696Y-119328322D01*
X58892711Y-119280711D01*
X58940322Y-119222696D01*
X58975701Y-119156508D01*
X58997487Y-119084689D01*
X59004843Y-119010000D01*
X59003000Y-118586250D01*
X58907750Y-118491000D01*
X57753000Y-118491000D01*
X56991000Y-118491000D01*
X55836250Y-118491000D01*
X55741000Y-118586250D01*
X55739157Y-119010000D01*
X55499000Y-119010000D01*
X55499000Y-117210000D01*
X55739157Y-117210000D01*
X55741000Y-117633750D01*
X55836250Y-117729000D01*
X56991000Y-117729000D01*
X56991000Y-116924250D01*
X57753000Y-116924250D01*
X57753000Y-117729000D01*
X58907750Y-117729000D01*
X59003000Y-117633750D01*
X59004843Y-117210000D01*
X58997487Y-117135311D01*
X58975701Y-117063492D01*
X58940322Y-116997304D01*
X58892711Y-116939289D01*
X58834696Y-116891678D01*
X58768508Y-116856299D01*
X58696689Y-116834513D01*
X58622000Y-116827157D01*
X57848250Y-116829000D01*
X57753000Y-116924250D01*
X56991000Y-116924250D01*
X56895750Y-116829000D01*
X56122000Y-116827157D01*
X56047311Y-116834513D01*
X55975492Y-116856299D01*
X55909304Y-116891678D01*
X55851289Y-116939289D01*
X55803678Y-116997304D01*
X55768299Y-117063492D01*
X55746513Y-117135311D01*
X55739157Y-117210000D01*
X55499000Y-117210000D01*
X55499000Y-115112000D01*
X58893157Y-115112000D01*
X58900513Y-115186689D01*
X58922299Y-115258508D01*
X58957678Y-115324696D01*
X59005289Y-115382711D01*
X59063304Y-115430322D01*
X59129492Y-115465701D01*
X59201311Y-115487487D01*
X59276000Y-115494843D01*
X61499750Y-115493000D01*
X61595000Y-115397750D01*
X61595000Y-114043000D01*
X62357000Y-114043000D01*
X62357000Y-115397750D01*
X62452250Y-115493000D01*
X64676000Y-115494843D01*
X64750689Y-115487487D01*
X64822508Y-115465701D01*
X64888696Y-115430322D01*
X64946711Y-115382711D01*
X64994322Y-115324696D01*
X65029701Y-115258508D01*
X65051487Y-115186689D01*
X65058843Y-115112000D01*
X65057000Y-114138250D01*
X64961750Y-114043000D01*
X62357000Y-114043000D01*
X61595000Y-114043000D01*
X58990250Y-114043000D01*
X58895000Y-114138250D01*
X58893157Y-115112000D01*
X55499000Y-115112000D01*
X55499000Y-112212000D01*
X58893157Y-112212000D01*
X58895000Y-113185750D01*
X58990250Y-113281000D01*
X61595000Y-113281000D01*
X61595000Y-111926250D01*
X62357000Y-111926250D01*
X62357000Y-113281000D01*
X64961750Y-113281000D01*
X65057000Y-113185750D01*
X65058843Y-112212000D01*
X65051487Y-112137311D01*
X65029701Y-112065492D01*
X64994322Y-111999304D01*
X64946711Y-111941289D01*
X64888696Y-111893678D01*
X64822508Y-111858299D01*
X64750689Y-111836513D01*
X64676000Y-111829157D01*
X62452250Y-111831000D01*
X62357000Y-111926250D01*
X61595000Y-111926250D01*
X61499750Y-111831000D01*
X59276000Y-111829157D01*
X59201311Y-111836513D01*
X59129492Y-111858299D01*
X59063304Y-111893678D01*
X59005289Y-111941289D01*
X58957678Y-111999304D01*
X58922299Y-112065492D01*
X58900513Y-112137311D01*
X58893157Y-112212000D01*
X55499000Y-112212000D01*
X55499000Y-110363000D01*
X67945000Y-110363000D01*
X67945000Y-115951000D01*
G36*
X85423521Y-108420993D02*
G01*
X85285637Y-108619044D01*
X85263458Y-108660576D01*
X85290062Y-108839000D01*
X85979000Y-108839000D01*
X85979000Y-108819000D01*
X86741000Y-108819000D01*
X86741000Y-108839000D01*
X87429938Y-108839000D01*
X87456542Y-108660576D01*
X87434363Y-108619044D01*
X87296479Y-108420993D01*
X87202975Y-108331000D01*
X88494000Y-108331000D01*
X88494001Y-134214000D01*
X56769000Y-134214000D01*
X56769000Y-123897000D01*
X60257157Y-123897000D01*
X60258549Y-127088044D01*
X60257157Y-128447000D01*
X60264513Y-128521689D01*
X60286299Y-128593508D01*
X60288166Y-128597000D01*
X60286299Y-128600492D01*
X60264513Y-128672311D01*
X60257157Y-128747000D01*
X60258549Y-130105956D01*
X60257157Y-133297000D01*
X60264513Y-133371689D01*
X60286299Y-133443508D01*
X60321678Y-133509696D01*
X60369289Y-133567711D01*
X60427304Y-133615322D01*
X60493492Y-133650701D01*
X60565311Y-133672487D01*
X60640000Y-133679843D01*
X64294958Y-133678475D01*
X65890000Y-133679843D01*
X65964689Y-133672487D01*
X66036508Y-133650701D01*
X66040000Y-133648834D01*
X66043492Y-133650701D01*
X66115311Y-133672487D01*
X66190000Y-133679843D01*
X67785042Y-133678475D01*
X71440000Y-133679843D01*
X71514689Y-133672487D01*
X71586508Y-133650701D01*
X71652696Y-133615322D01*
X71710711Y-133567711D01*
X71758322Y-133509696D01*
X71793701Y-133443508D01*
X71815487Y-133371689D01*
X71822843Y-133297000D01*
X71822684Y-132930000D01*
X85127157Y-132930000D01*
X85134513Y-133004689D01*
X85156299Y-133076508D01*
X85191678Y-133142696D01*
X85239289Y-133200711D01*
X85297304Y-133248322D01*
X85363492Y-133283701D01*
X85435311Y-133305487D01*
X85510000Y-133312843D01*
X85883750Y-133311000D01*
X85979000Y-133215750D01*
X85979000Y-132461000D01*
X86741000Y-132461000D01*
X86741000Y-133215750D01*
X86836250Y-133311000D01*
X87210000Y-133312843D01*
X87284689Y-133305487D01*
X87356508Y-133283701D01*
X87422696Y-133248322D01*
X87480711Y-133200711D01*
X87528322Y-133142696D01*
X87563701Y-133076508D01*
X87585487Y-133004689D01*
X87592843Y-132930000D01*
X87591000Y-132556250D01*
X87495750Y-132461000D01*
X86741000Y-132461000D01*
X85979000Y-132461000D01*
X85224250Y-132461000D01*
X85129000Y-132556250D01*
X85127157Y-132930000D01*
X71822684Y-132930000D01*
X71822444Y-132380683D01*
X77882132Y-132380683D01*
X78009922Y-132541461D01*
X78273362Y-132609293D01*
X78544974Y-132624427D01*
X78814320Y-132586282D01*
X78962078Y-132541461D01*
X79089868Y-132380683D01*
X78486000Y-131776815D01*
X77882132Y-132380683D01*
X71822444Y-132380683D01*
X71821971Y-131296974D01*
X77099573Y-131296974D01*
X77137718Y-131566320D01*
X77182539Y-131714078D01*
X77343317Y-131841868D01*
X77947185Y-131238000D01*
X79024815Y-131238000D01*
X79628683Y-131841868D01*
X79789461Y-131714078D01*
X79857293Y-131450638D01*
X79869586Y-131230000D01*
X85127157Y-131230000D01*
X85129000Y-131603750D01*
X85224250Y-131699000D01*
X85979000Y-131699000D01*
X85979000Y-130944250D01*
X86741000Y-130944250D01*
X86741000Y-131699000D01*
X87495750Y-131699000D01*
X87591000Y-131603750D01*
X87592843Y-131230000D01*
X87585487Y-131155311D01*
X87563701Y-131083492D01*
X87528322Y-131017304D01*
X87480711Y-130959289D01*
X87422696Y-130911678D01*
X87356508Y-130876299D01*
X87284689Y-130854513D01*
X87210000Y-130847157D01*
X86836250Y-130849000D01*
X86741000Y-130944250D01*
X85979000Y-130944250D01*
X85883750Y-130849000D01*
X85510000Y-130847157D01*
X85435311Y-130854513D01*
X85363492Y-130876299D01*
X85297304Y-130911678D01*
X85239289Y-130959289D01*
X85191678Y-131017304D01*
X85156299Y-131083492D01*
X85134513Y-131155311D01*
X85127157Y-131230000D01*
X79869586Y-131230000D01*
X79872427Y-131179026D01*
X79834282Y-130909680D01*
X79789461Y-130761922D01*
X79628683Y-130634132D01*
X79024815Y-131238000D01*
X77947185Y-131238000D01*
X77343317Y-130634132D01*
X77182539Y-130761922D01*
X77114707Y-131025362D01*
X77099573Y-131296974D01*
X71821971Y-131296974D01*
X71821451Y-130105956D01*
X71821461Y-130095317D01*
X77882132Y-130095317D01*
X78486000Y-130699185D01*
X79085761Y-130099424D01*
X85263458Y-130099424D01*
X85285637Y-130140956D01*
X85423521Y-130339007D01*
X85597394Y-130506352D01*
X85800573Y-130636561D01*
X85979000Y-130615324D01*
X85979000Y-129921000D01*
X86741000Y-129921000D01*
X86741000Y-130615324D01*
X86919427Y-130636561D01*
X87122606Y-130506352D01*
X87296479Y-130339007D01*
X87434363Y-130140956D01*
X87456542Y-130099424D01*
X87429938Y-129921000D01*
X86741000Y-129921000D01*
X85979000Y-129921000D01*
X85290062Y-129921000D01*
X85263458Y-130099424D01*
X79085761Y-130099424D01*
X79089868Y-130095317D01*
X78962078Y-129934539D01*
X78698638Y-129866707D01*
X78427026Y-129851573D01*
X78157680Y-129889718D01*
X78009922Y-129934539D01*
X77882132Y-130095317D01*
X71821461Y-130095317D01*
X71822603Y-128980576D01*
X85263458Y-128980576D01*
X85290062Y-129159000D01*
X85979000Y-129159000D01*
X85979000Y-128464676D01*
X86741000Y-128464676D01*
X86741000Y-129159000D01*
X87429938Y-129159000D01*
X87456542Y-128980576D01*
X87434363Y-128939044D01*
X87296479Y-128740993D01*
X87122606Y-128573648D01*
X86919427Y-128443439D01*
X86741000Y-128464676D01*
X85979000Y-128464676D01*
X85800573Y-128443439D01*
X85597394Y-128573648D01*
X85423521Y-128740993D01*
X85285637Y-128939044D01*
X85263458Y-128980576D01*
X71822603Y-128980576D01*
X71822843Y-128747000D01*
X71815487Y-128672311D01*
X71793701Y-128600492D01*
X71791834Y-128597000D01*
X71793701Y-128593508D01*
X71815487Y-128521689D01*
X71822843Y-128447000D01*
X71821451Y-127088044D01*
X71822258Y-125238000D01*
X77103157Y-125238000D01*
X77103157Y-127238000D01*
X77110513Y-127312689D01*
X77132299Y-127384508D01*
X77167678Y-127450696D01*
X77215289Y-127508711D01*
X77273304Y-127556322D01*
X77339492Y-127591701D01*
X77411311Y-127613487D01*
X77486000Y-127620843D01*
X79486000Y-127620843D01*
X79560689Y-127613487D01*
X79632508Y-127591701D01*
X79698696Y-127556322D01*
X79756711Y-127508711D01*
X79804322Y-127450696D01*
X79839701Y-127384508D01*
X79861487Y-127312689D01*
X79868843Y-127238000D01*
X79868843Y-126878757D01*
X85129000Y-126878757D01*
X85129000Y-127121243D01*
X85176307Y-127359069D01*
X85269102Y-127583097D01*
X85403820Y-127784717D01*
X85575283Y-127956180D01*
X85776903Y-128090898D01*
X86000931Y-128183693D01*
X86238757Y-128231000D01*
X86481243Y-128231000D01*
X86719069Y-128183693D01*
X86943097Y-128090898D01*
X87144717Y-127956180D01*
X87316180Y-127784717D01*
X87450898Y-127583097D01*
X87543693Y-127359069D01*
X87591000Y-127121243D01*
X87591000Y-126878757D01*
X87543693Y-126640931D01*
X87450898Y-126416903D01*
X87316180Y-126215283D01*
X87144717Y-126043820D01*
X86943097Y-125909102D01*
X86719069Y-125816307D01*
X86481243Y-125769000D01*
X86238757Y-125769000D01*
X86000931Y-125816307D01*
X85776903Y-125909102D01*
X85575283Y-126043820D01*
X85403820Y-126215283D01*
X85269102Y-126416903D01*
X85176307Y-126640931D01*
X85129000Y-126878757D01*
X79868843Y-126878757D01*
X79868843Y-125238000D01*
X79861487Y-125163311D01*
X79839701Y-125091492D01*
X79804322Y-125025304D01*
X79756711Y-124967289D01*
X79698696Y-124919678D01*
X79632508Y-124884299D01*
X79560689Y-124862513D01*
X79486000Y-124855157D01*
X77486000Y-124855157D01*
X77411311Y-124862513D01*
X77339492Y-124884299D01*
X77273304Y-124919678D01*
X77215289Y-124967289D01*
X77167678Y-125025304D01*
X77132299Y-125091492D01*
X77110513Y-125163311D01*
X77103157Y-125238000D01*
X71822258Y-125238000D01*
X71822650Y-124338757D01*
X85129000Y-124338757D01*
X85129000Y-124581243D01*
X85176307Y-124819069D01*
X85269102Y-125043097D01*
X85403820Y-125244717D01*
X85575283Y-125416180D01*
X85776903Y-125550898D01*
X86000931Y-125643693D01*
X86238757Y-125691000D01*
X86481243Y-125691000D01*
X86719069Y-125643693D01*
X86943097Y-125550898D01*
X87144717Y-125416180D01*
X87316180Y-125244717D01*
X87450898Y-125043097D01*
X87543693Y-124819069D01*
X87591000Y-124581243D01*
X87591000Y-124338757D01*
X87543693Y-124100931D01*
X87450898Y-123876903D01*
X87316180Y-123675283D01*
X87144717Y-123503820D01*
X86943097Y-123369102D01*
X86719069Y-123276307D01*
X86481243Y-123229000D01*
X86238757Y-123229000D01*
X86000931Y-123276307D01*
X85776903Y-123369102D01*
X85575283Y-123503820D01*
X85403820Y-123675283D01*
X85269102Y-123876903D01*
X85176307Y-124100931D01*
X85129000Y-124338757D01*
X71822650Y-124338757D01*
X71822843Y-123897000D01*
X71815487Y-123822311D01*
X71793701Y-123750492D01*
X71758322Y-123684304D01*
X71710711Y-123626289D01*
X71652696Y-123578678D01*
X71586508Y-123543299D01*
X71514689Y-123521513D01*
X71440000Y-123514157D01*
X67785042Y-123515525D01*
X66190000Y-123514157D01*
X66115311Y-123521513D01*
X66043492Y-123543299D01*
X66040000Y-123545166D01*
X66036508Y-123543299D01*
X65964689Y-123521513D01*
X65890000Y-123514157D01*
X64294958Y-123515525D01*
X60640000Y-123514157D01*
X60565311Y-123521513D01*
X60493492Y-123543299D01*
X60427304Y-123578678D01*
X60369289Y-123626289D01*
X60321678Y-123684304D01*
X60286299Y-123750492D01*
X60264513Y-123822311D01*
X60257157Y-123897000D01*
X56769000Y-123897000D01*
X56769000Y-123317000D01*
X64433486Y-123317000D01*
X64486404Y-123360429D01*
X64574655Y-123407600D01*
X64574657Y-123407601D01*
X64670415Y-123436649D01*
X64745053Y-123444000D01*
X64745055Y-123444000D01*
X64769999Y-123446457D01*
X64794943Y-123444000D01*
X75159056Y-123444000D01*
X75184000Y-123446457D01*
X75208944Y-123444000D01*
X75208947Y-123444000D01*
X75283585Y-123436649D01*
X75379343Y-123407601D01*
X75467595Y-123360429D01*
X75520514Y-123317000D01*
X77216000Y-123317000D01*
X77240776Y-123314560D01*
X77264601Y-123307333D01*
X77286557Y-123295597D01*
X77305803Y-123279803D01*
X77321597Y-123260557D01*
X77333333Y-123238601D01*
X77340560Y-123214776D01*
X77343000Y-123190000D01*
X77343000Y-121495420D01*
X79589565Y-119248855D01*
X79608948Y-119232948D01*
X79666020Y-119163405D01*
X79672429Y-119155596D01*
X79701840Y-119100571D01*
X79719601Y-119067343D01*
X79734702Y-119017561D01*
X80687000Y-119017561D01*
X80687000Y-119234439D01*
X80729311Y-119447150D01*
X80812307Y-119647519D01*
X80932798Y-119827846D01*
X81086154Y-119981202D01*
X81266481Y-120101693D01*
X81466850Y-120184689D01*
X81679561Y-120227000D01*
X81896439Y-120227000D01*
X82109150Y-120184689D01*
X82309519Y-120101693D01*
X82489846Y-119981202D01*
X82643202Y-119827846D01*
X82763693Y-119647519D01*
X82769293Y-119634000D01*
X85049056Y-119634000D01*
X85074000Y-119636457D01*
X85098944Y-119634000D01*
X85098947Y-119634000D01*
X85173585Y-119626649D01*
X85269343Y-119597601D01*
X85357595Y-119550429D01*
X85434948Y-119486948D01*
X85450855Y-119467565D01*
X86701565Y-118216855D01*
X86720948Y-118200948D01*
X86784429Y-118123595D01*
X86831601Y-118035343D01*
X86853060Y-117964602D01*
X86884689Y-117961487D01*
X86956508Y-117939701D01*
X87022696Y-117904322D01*
X87080711Y-117856711D01*
X87128322Y-117798696D01*
X87163701Y-117732508D01*
X87185487Y-117660689D01*
X87192843Y-117586000D01*
X87192843Y-117086000D01*
X87185487Y-117011311D01*
X87163701Y-116939492D01*
X87128322Y-116873304D01*
X87080711Y-116815289D01*
X87022696Y-116767678D01*
X86956508Y-116732299D01*
X86884689Y-116710513D01*
X86810000Y-116703157D01*
X85910000Y-116703157D01*
X85835311Y-116710513D01*
X85763492Y-116732299D01*
X85697304Y-116767678D01*
X85639289Y-116815289D01*
X85591678Y-116873304D01*
X85556299Y-116939492D01*
X85534513Y-117011311D01*
X85527157Y-117086000D01*
X85527157Y-117586000D01*
X85534513Y-117660689D01*
X85556299Y-117732508D01*
X85591678Y-117798696D01*
X85632789Y-117848791D01*
X84863580Y-118618000D01*
X82769293Y-118618000D01*
X82763693Y-118604481D01*
X82643202Y-118424154D01*
X82489846Y-118270798D01*
X82309519Y-118150307D01*
X82109150Y-118067311D01*
X81896439Y-118025000D01*
X81679561Y-118025000D01*
X81466850Y-118067311D01*
X81266481Y-118150307D01*
X81086154Y-118270798D01*
X80932798Y-118424154D01*
X80812307Y-118604481D01*
X80729311Y-118804850D01*
X80687000Y-119017561D01*
X79734702Y-119017561D01*
X79748649Y-118971585D01*
X79756000Y-118896947D01*
X79756000Y-118896944D01*
X79758457Y-118872000D01*
X79756000Y-118847056D01*
X79756000Y-117567293D01*
X79769519Y-117561693D01*
X79949846Y-117441202D01*
X80103202Y-117287846D01*
X80223693Y-117107519D01*
X80306689Y-116907150D01*
X80349000Y-116694439D01*
X80349000Y-116477561D01*
X80306689Y-116264850D01*
X80232607Y-116086000D01*
X85527157Y-116086000D01*
X85534513Y-116160689D01*
X85556299Y-116232508D01*
X85591678Y-116298696D01*
X85639289Y-116356711D01*
X85697304Y-116404322D01*
X85763492Y-116439701D01*
X85835311Y-116461487D01*
X85910000Y-116468843D01*
X85941750Y-116467000D01*
X86037000Y-116371750D01*
X86037000Y-115959000D01*
X86683000Y-115959000D01*
X86683000Y-116371750D01*
X86778250Y-116467000D01*
X86810000Y-116468843D01*
X86884689Y-116461487D01*
X86956508Y-116439701D01*
X87022696Y-116404322D01*
X87080711Y-116356711D01*
X87128322Y-116298696D01*
X87163701Y-116232508D01*
X87185487Y-116160689D01*
X87192843Y-116086000D01*
X87191000Y-116054250D01*
X87095750Y-115959000D01*
X86683000Y-115959000D01*
X86037000Y-115959000D01*
X85624250Y-115959000D01*
X85529000Y-116054250D01*
X85527157Y-116086000D01*
X80232607Y-116086000D01*
X80223693Y-116064481D01*
X80103202Y-115884154D01*
X79949846Y-115730798D01*
X79769519Y-115610307D01*
X79710838Y-115586000D01*
X85527157Y-115586000D01*
X85529000Y-115617750D01*
X85624250Y-115713000D01*
X86037000Y-115713000D01*
X86037000Y-115300250D01*
X86683000Y-115300250D01*
X86683000Y-115713000D01*
X87095750Y-115713000D01*
X87191000Y-115617750D01*
X87192843Y-115586000D01*
X87185487Y-115511311D01*
X87163701Y-115439492D01*
X87128322Y-115373304D01*
X87080711Y-115315289D01*
X87022696Y-115267678D01*
X86956508Y-115232299D01*
X86884689Y-115210513D01*
X86810000Y-115203157D01*
X86778250Y-115205000D01*
X86683000Y-115300250D01*
X86037000Y-115300250D01*
X85941750Y-115205000D01*
X85910000Y-115203157D01*
X85835311Y-115210513D01*
X85763492Y-115232299D01*
X85697304Y-115267678D01*
X85639289Y-115315289D01*
X85591678Y-115373304D01*
X85556299Y-115439492D01*
X85534513Y-115511311D01*
X85527157Y-115586000D01*
X79710838Y-115586000D01*
X79569150Y-115527311D01*
X79356439Y-115485000D01*
X79139561Y-115485000D01*
X78926850Y-115527311D01*
X78726481Y-115610307D01*
X78546154Y-115730798D01*
X78392798Y-115884154D01*
X78272307Y-116064481D01*
X78189311Y-116264850D01*
X78147000Y-116477561D01*
X78147000Y-116694439D01*
X78189311Y-116907150D01*
X78272307Y-117107519D01*
X78392798Y-117287846D01*
X78546154Y-117441202D01*
X78726481Y-117561693D01*
X78740001Y-117567293D01*
X78740000Y-118661580D01*
X77343000Y-120058580D01*
X77343000Y-120025867D01*
X77409846Y-119981202D01*
X77563202Y-119827846D01*
X77683693Y-119647519D01*
X77766689Y-119447150D01*
X77809000Y-119234439D01*
X77809000Y-119017561D01*
X77766689Y-118804850D01*
X77683693Y-118604481D01*
X77563202Y-118424154D01*
X77409846Y-118270798D01*
X77343000Y-118226133D01*
X77343000Y-112610000D01*
X85127157Y-112610000D01*
X85134513Y-112684689D01*
X85156299Y-112756508D01*
X85191678Y-112822696D01*
X85239289Y-112880711D01*
X85297304Y-112928322D01*
X85363492Y-112963701D01*
X85435311Y-112985487D01*
X85510000Y-112992843D01*
X85883750Y-112991000D01*
X85979000Y-112895750D01*
X85979000Y-112141000D01*
X86741000Y-112141000D01*
X86741000Y-112895750D01*
X86836250Y-112991000D01*
X87210000Y-112992843D01*
X87284689Y-112985487D01*
X87356508Y-112963701D01*
X87422696Y-112928322D01*
X87480711Y-112880711D01*
X87528322Y-112822696D01*
X87563701Y-112756508D01*
X87585487Y-112684689D01*
X87592843Y-112610000D01*
X87591000Y-112236250D01*
X87495750Y-112141000D01*
X86741000Y-112141000D01*
X85979000Y-112141000D01*
X85224250Y-112141000D01*
X85129000Y-112236250D01*
X85127157Y-112610000D01*
X77343000Y-112610000D01*
X77343000Y-111044683D01*
X78390132Y-111044683D01*
X78517922Y-111205461D01*
X78781362Y-111273293D01*
X79052974Y-111288427D01*
X79322320Y-111250282D01*
X79470078Y-111205461D01*
X79597868Y-111044683D01*
X79463185Y-110910000D01*
X85127157Y-110910000D01*
X85129000Y-111283750D01*
X85224250Y-111379000D01*
X85979000Y-111379000D01*
X85979000Y-110624250D01*
X86741000Y-110624250D01*
X86741000Y-111379000D01*
X87495750Y-111379000D01*
X87591000Y-111283750D01*
X87592843Y-110910000D01*
X87585487Y-110835311D01*
X87563701Y-110763492D01*
X87528322Y-110697304D01*
X87480711Y-110639289D01*
X87422696Y-110591678D01*
X87356508Y-110556299D01*
X87284689Y-110534513D01*
X87210000Y-110527157D01*
X86836250Y-110529000D01*
X86741000Y-110624250D01*
X85979000Y-110624250D01*
X85883750Y-110529000D01*
X85510000Y-110527157D01*
X85435311Y-110534513D01*
X85363492Y-110556299D01*
X85297304Y-110591678D01*
X85239289Y-110639289D01*
X85191678Y-110697304D01*
X85156299Y-110763492D01*
X85134513Y-110835311D01*
X85127157Y-110910000D01*
X79463185Y-110910000D01*
X78994000Y-110440815D01*
X78390132Y-111044683D01*
X77343000Y-111044683D01*
X77343000Y-109960974D01*
X77607573Y-109960974D01*
X77645718Y-110230320D01*
X77690539Y-110378078D01*
X77851317Y-110505868D01*
X78455185Y-109902000D01*
X79532815Y-109902000D01*
X80136683Y-110505868D01*
X80297461Y-110378078D01*
X80365293Y-110114638D01*
X80380427Y-109843026D01*
X80371420Y-109779424D01*
X85263458Y-109779424D01*
X85285637Y-109820956D01*
X85423521Y-110019007D01*
X85597394Y-110186352D01*
X85800573Y-110316561D01*
X85979000Y-110295324D01*
X85979000Y-109601000D01*
X86741000Y-109601000D01*
X86741000Y-110295324D01*
X86919427Y-110316561D01*
X87122606Y-110186352D01*
X87296479Y-110019007D01*
X87434363Y-109820956D01*
X87456542Y-109779424D01*
X87429938Y-109601000D01*
X86741000Y-109601000D01*
X85979000Y-109601000D01*
X85290062Y-109601000D01*
X85263458Y-109779424D01*
X80371420Y-109779424D01*
X80342282Y-109573680D01*
X80297461Y-109425922D01*
X80136683Y-109298132D01*
X79532815Y-109902000D01*
X78455185Y-109902000D01*
X77851317Y-109298132D01*
X77690539Y-109425922D01*
X77622707Y-109689362D01*
X77607573Y-109960974D01*
X77343000Y-109960974D01*
X77343000Y-108759317D01*
X78390132Y-108759317D01*
X78994000Y-109363185D01*
X79597868Y-108759317D01*
X79470078Y-108598539D01*
X79206638Y-108530707D01*
X78935026Y-108515573D01*
X78665680Y-108553718D01*
X78517922Y-108598539D01*
X78390132Y-108759317D01*
X77343000Y-108759317D01*
X77343000Y-108331000D01*
X85517025Y-108331000D01*
X85423521Y-108420993D01*
G37*
X85423521Y-108420993D02*
X85285637Y-108619044D01*
X85263458Y-108660576D01*
X85290062Y-108839000D01*
X85979000Y-108839000D01*
X85979000Y-108819000D01*
X86741000Y-108819000D01*
X86741000Y-108839000D01*
X87429938Y-108839000D01*
X87456542Y-108660576D01*
X87434363Y-108619044D01*
X87296479Y-108420993D01*
X87202975Y-108331000D01*
X88494000Y-108331000D01*
X88494001Y-134214000D01*
X56769000Y-134214000D01*
X56769000Y-123897000D01*
X60257157Y-123897000D01*
X60258549Y-127088044D01*
X60257157Y-128447000D01*
X60264513Y-128521689D01*
X60286299Y-128593508D01*
X60288166Y-128597000D01*
X60286299Y-128600492D01*
X60264513Y-128672311D01*
X60257157Y-128747000D01*
X60258549Y-130105956D01*
X60257157Y-133297000D01*
X60264513Y-133371689D01*
X60286299Y-133443508D01*
X60321678Y-133509696D01*
X60369289Y-133567711D01*
X60427304Y-133615322D01*
X60493492Y-133650701D01*
X60565311Y-133672487D01*
X60640000Y-133679843D01*
X64294958Y-133678475D01*
X65890000Y-133679843D01*
X65964689Y-133672487D01*
X66036508Y-133650701D01*
X66040000Y-133648834D01*
X66043492Y-133650701D01*
X66115311Y-133672487D01*
X66190000Y-133679843D01*
X67785042Y-133678475D01*
X71440000Y-133679843D01*
X71514689Y-133672487D01*
X71586508Y-133650701D01*
X71652696Y-133615322D01*
X71710711Y-133567711D01*
X71758322Y-133509696D01*
X71793701Y-133443508D01*
X71815487Y-133371689D01*
X71822843Y-133297000D01*
X71822684Y-132930000D01*
X85127157Y-132930000D01*
X85134513Y-133004689D01*
X85156299Y-133076508D01*
X85191678Y-133142696D01*
X85239289Y-133200711D01*
X85297304Y-133248322D01*
X85363492Y-133283701D01*
X85435311Y-133305487D01*
X85510000Y-133312843D01*
X85883750Y-133311000D01*
X85979000Y-133215750D01*
X85979000Y-132461000D01*
X86741000Y-132461000D01*
X86741000Y-133215750D01*
X86836250Y-133311000D01*
X87210000Y-133312843D01*
X87284689Y-133305487D01*
X87356508Y-133283701D01*
X87422696Y-133248322D01*
X87480711Y-133200711D01*
X87528322Y-133142696D01*
X87563701Y-133076508D01*
X87585487Y-133004689D01*
X87592843Y-132930000D01*
X87591000Y-132556250D01*
X87495750Y-132461000D01*
X86741000Y-132461000D01*
X85979000Y-132461000D01*
X85224250Y-132461000D01*
X85129000Y-132556250D01*
X85127157Y-132930000D01*
X71822684Y-132930000D01*
X71822444Y-132380683D01*
X77882132Y-132380683D01*
X78009922Y-132541461D01*
X78273362Y-132609293D01*
X78544974Y-132624427D01*
X78814320Y-132586282D01*
X78962078Y-132541461D01*
X79089868Y-132380683D01*
X78486000Y-131776815D01*
X77882132Y-132380683D01*
X71822444Y-132380683D01*
X71821971Y-131296974D01*
X77099573Y-131296974D01*
X77137718Y-131566320D01*
X77182539Y-131714078D01*
X77343317Y-131841868D01*
X77947185Y-131238000D01*
X79024815Y-131238000D01*
X79628683Y-131841868D01*
X79789461Y-131714078D01*
X79857293Y-131450638D01*
X79869586Y-131230000D01*
X85127157Y-131230000D01*
X85129000Y-131603750D01*
X85224250Y-131699000D01*
X85979000Y-131699000D01*
X85979000Y-130944250D01*
X86741000Y-130944250D01*
X86741000Y-131699000D01*
X87495750Y-131699000D01*
X87591000Y-131603750D01*
X87592843Y-131230000D01*
X87585487Y-131155311D01*
X87563701Y-131083492D01*
X87528322Y-131017304D01*
X87480711Y-130959289D01*
X87422696Y-130911678D01*
X87356508Y-130876299D01*
X87284689Y-130854513D01*
X87210000Y-130847157D01*
X86836250Y-130849000D01*
X86741000Y-130944250D01*
X85979000Y-130944250D01*
X85883750Y-130849000D01*
X85510000Y-130847157D01*
X85435311Y-130854513D01*
X85363492Y-130876299D01*
X85297304Y-130911678D01*
X85239289Y-130959289D01*
X85191678Y-131017304D01*
X85156299Y-131083492D01*
X85134513Y-131155311D01*
X85127157Y-131230000D01*
X79869586Y-131230000D01*
X79872427Y-131179026D01*
X79834282Y-130909680D01*
X79789461Y-130761922D01*
X79628683Y-130634132D01*
X79024815Y-131238000D01*
X77947185Y-131238000D01*
X77343317Y-130634132D01*
X77182539Y-130761922D01*
X77114707Y-131025362D01*
X77099573Y-131296974D01*
X71821971Y-131296974D01*
X71821451Y-130105956D01*
X71821461Y-130095317D01*
X77882132Y-130095317D01*
X78486000Y-130699185D01*
X79085761Y-130099424D01*
X85263458Y-130099424D01*
X85285637Y-130140956D01*
X85423521Y-130339007D01*
X85597394Y-130506352D01*
X85800573Y-130636561D01*
X85979000Y-130615324D01*
X85979000Y-129921000D01*
X86741000Y-129921000D01*
X86741000Y-130615324D01*
X86919427Y-130636561D01*
X87122606Y-130506352D01*
X87296479Y-130339007D01*
X87434363Y-130140956D01*
X87456542Y-130099424D01*
X87429938Y-129921000D01*
X86741000Y-129921000D01*
X85979000Y-129921000D01*
X85290062Y-129921000D01*
X85263458Y-130099424D01*
X79085761Y-130099424D01*
X79089868Y-130095317D01*
X78962078Y-129934539D01*
X78698638Y-129866707D01*
X78427026Y-129851573D01*
X78157680Y-129889718D01*
X78009922Y-129934539D01*
X77882132Y-130095317D01*
X71821461Y-130095317D01*
X71822603Y-128980576D01*
X85263458Y-128980576D01*
X85290062Y-129159000D01*
X85979000Y-129159000D01*
X85979000Y-128464676D01*
X86741000Y-128464676D01*
X86741000Y-129159000D01*
X87429938Y-129159000D01*
X87456542Y-128980576D01*
X87434363Y-128939044D01*
X87296479Y-128740993D01*
X87122606Y-128573648D01*
X86919427Y-128443439D01*
X86741000Y-128464676D01*
X85979000Y-128464676D01*
X85800573Y-128443439D01*
X85597394Y-128573648D01*
X85423521Y-128740993D01*
X85285637Y-128939044D01*
X85263458Y-128980576D01*
X71822603Y-128980576D01*
X71822843Y-128747000D01*
X71815487Y-128672311D01*
X71793701Y-128600492D01*
X71791834Y-128597000D01*
X71793701Y-128593508D01*
X71815487Y-128521689D01*
X71822843Y-128447000D01*
X71821451Y-127088044D01*
X71822258Y-125238000D01*
X77103157Y-125238000D01*
X77103157Y-127238000D01*
X77110513Y-127312689D01*
X77132299Y-127384508D01*
X77167678Y-127450696D01*
X77215289Y-127508711D01*
X77273304Y-127556322D01*
X77339492Y-127591701D01*
X77411311Y-127613487D01*
X77486000Y-127620843D01*
X79486000Y-127620843D01*
X79560689Y-127613487D01*
X79632508Y-127591701D01*
X79698696Y-127556322D01*
X79756711Y-127508711D01*
X79804322Y-127450696D01*
X79839701Y-127384508D01*
X79861487Y-127312689D01*
X79868843Y-127238000D01*
X79868843Y-126878757D01*
X85129000Y-126878757D01*
X85129000Y-127121243D01*
X85176307Y-127359069D01*
X85269102Y-127583097D01*
X85403820Y-127784717D01*
X85575283Y-127956180D01*
X85776903Y-128090898D01*
X86000931Y-128183693D01*
X86238757Y-128231000D01*
X86481243Y-128231000D01*
X86719069Y-128183693D01*
X86943097Y-128090898D01*
X87144717Y-127956180D01*
X87316180Y-127784717D01*
X87450898Y-127583097D01*
X87543693Y-127359069D01*
X87591000Y-127121243D01*
X87591000Y-126878757D01*
X87543693Y-126640931D01*
X87450898Y-126416903D01*
X87316180Y-126215283D01*
X87144717Y-126043820D01*
X86943097Y-125909102D01*
X86719069Y-125816307D01*
X86481243Y-125769000D01*
X86238757Y-125769000D01*
X86000931Y-125816307D01*
X85776903Y-125909102D01*
X85575283Y-126043820D01*
X85403820Y-126215283D01*
X85269102Y-126416903D01*
X85176307Y-126640931D01*
X85129000Y-126878757D01*
X79868843Y-126878757D01*
X79868843Y-125238000D01*
X79861487Y-125163311D01*
X79839701Y-125091492D01*
X79804322Y-125025304D01*
X79756711Y-124967289D01*
X79698696Y-124919678D01*
X79632508Y-124884299D01*
X79560689Y-124862513D01*
X79486000Y-124855157D01*
X77486000Y-124855157D01*
X77411311Y-124862513D01*
X77339492Y-124884299D01*
X77273304Y-124919678D01*
X77215289Y-124967289D01*
X77167678Y-125025304D01*
X77132299Y-125091492D01*
X77110513Y-125163311D01*
X77103157Y-125238000D01*
X71822258Y-125238000D01*
X71822650Y-124338757D01*
X85129000Y-124338757D01*
X85129000Y-124581243D01*
X85176307Y-124819069D01*
X85269102Y-125043097D01*
X85403820Y-125244717D01*
X85575283Y-125416180D01*
X85776903Y-125550898D01*
X86000931Y-125643693D01*
X86238757Y-125691000D01*
X86481243Y-125691000D01*
X86719069Y-125643693D01*
X86943097Y-125550898D01*
X87144717Y-125416180D01*
X87316180Y-125244717D01*
X87450898Y-125043097D01*
X87543693Y-124819069D01*
X87591000Y-124581243D01*
X87591000Y-124338757D01*
X87543693Y-124100931D01*
X87450898Y-123876903D01*
X87316180Y-123675283D01*
X87144717Y-123503820D01*
X86943097Y-123369102D01*
X86719069Y-123276307D01*
X86481243Y-123229000D01*
X86238757Y-123229000D01*
X86000931Y-123276307D01*
X85776903Y-123369102D01*
X85575283Y-123503820D01*
X85403820Y-123675283D01*
X85269102Y-123876903D01*
X85176307Y-124100931D01*
X85129000Y-124338757D01*
X71822650Y-124338757D01*
X71822843Y-123897000D01*
X71815487Y-123822311D01*
X71793701Y-123750492D01*
X71758322Y-123684304D01*
X71710711Y-123626289D01*
X71652696Y-123578678D01*
X71586508Y-123543299D01*
X71514689Y-123521513D01*
X71440000Y-123514157D01*
X67785042Y-123515525D01*
X66190000Y-123514157D01*
X66115311Y-123521513D01*
X66043492Y-123543299D01*
X66040000Y-123545166D01*
X66036508Y-123543299D01*
X65964689Y-123521513D01*
X65890000Y-123514157D01*
X64294958Y-123515525D01*
X60640000Y-123514157D01*
X60565311Y-123521513D01*
X60493492Y-123543299D01*
X60427304Y-123578678D01*
X60369289Y-123626289D01*
X60321678Y-123684304D01*
X60286299Y-123750492D01*
X60264513Y-123822311D01*
X60257157Y-123897000D01*
X56769000Y-123897000D01*
X56769000Y-123317000D01*
X64433486Y-123317000D01*
X64486404Y-123360429D01*
X64574655Y-123407600D01*
X64574657Y-123407601D01*
X64670415Y-123436649D01*
X64745053Y-123444000D01*
X64745055Y-123444000D01*
X64769999Y-123446457D01*
X64794943Y-123444000D01*
X75159056Y-123444000D01*
X75184000Y-123446457D01*
X75208944Y-123444000D01*
X75208947Y-123444000D01*
X75283585Y-123436649D01*
X75379343Y-123407601D01*
X75467595Y-123360429D01*
X75520514Y-123317000D01*
X77216000Y-123317000D01*
X77240776Y-123314560D01*
X77264601Y-123307333D01*
X77286557Y-123295597D01*
X77305803Y-123279803D01*
X77321597Y-123260557D01*
X77333333Y-123238601D01*
X77340560Y-123214776D01*
X77343000Y-123190000D01*
X77343000Y-121495420D01*
X79589565Y-119248855D01*
X79608948Y-119232948D01*
X79666020Y-119163405D01*
X79672429Y-119155596D01*
X79701840Y-119100571D01*
X79719601Y-119067343D01*
X79734702Y-119017561D01*
X80687000Y-119017561D01*
X80687000Y-119234439D01*
X80729311Y-119447150D01*
X80812307Y-119647519D01*
X80932798Y-119827846D01*
X81086154Y-119981202D01*
X81266481Y-120101693D01*
X81466850Y-120184689D01*
X81679561Y-120227000D01*
X81896439Y-120227000D01*
X82109150Y-120184689D01*
X82309519Y-120101693D01*
X82489846Y-119981202D01*
X82643202Y-119827846D01*
X82763693Y-119647519D01*
X82769293Y-119634000D01*
X85049056Y-119634000D01*
X85074000Y-119636457D01*
X85098944Y-119634000D01*
X85098947Y-119634000D01*
X85173585Y-119626649D01*
X85269343Y-119597601D01*
X85357595Y-119550429D01*
X85434948Y-119486948D01*
X85450855Y-119467565D01*
X86701565Y-118216855D01*
X86720948Y-118200948D01*
X86784429Y-118123595D01*
X86831601Y-118035343D01*
X86853060Y-117964602D01*
X86884689Y-117961487D01*
X86956508Y-117939701D01*
X87022696Y-117904322D01*
X87080711Y-117856711D01*
X87128322Y-117798696D01*
X87163701Y-117732508D01*
X87185487Y-117660689D01*
X87192843Y-117586000D01*
X87192843Y-117086000D01*
X87185487Y-117011311D01*
X87163701Y-116939492D01*
X87128322Y-116873304D01*
X87080711Y-116815289D01*
X87022696Y-116767678D01*
X86956508Y-116732299D01*
X86884689Y-116710513D01*
X86810000Y-116703157D01*
X85910000Y-116703157D01*
X85835311Y-116710513D01*
X85763492Y-116732299D01*
X85697304Y-116767678D01*
X85639289Y-116815289D01*
X85591678Y-116873304D01*
X85556299Y-116939492D01*
X85534513Y-117011311D01*
X85527157Y-117086000D01*
X85527157Y-117586000D01*
X85534513Y-117660689D01*
X85556299Y-117732508D01*
X85591678Y-117798696D01*
X85632789Y-117848791D01*
X84863580Y-118618000D01*
X82769293Y-118618000D01*
X82763693Y-118604481D01*
X82643202Y-118424154D01*
X82489846Y-118270798D01*
X82309519Y-118150307D01*
X82109150Y-118067311D01*
X81896439Y-118025000D01*
X81679561Y-118025000D01*
X81466850Y-118067311D01*
X81266481Y-118150307D01*
X81086154Y-118270798D01*
X80932798Y-118424154D01*
X80812307Y-118604481D01*
X80729311Y-118804850D01*
X80687000Y-119017561D01*
X79734702Y-119017561D01*
X79748649Y-118971585D01*
X79756000Y-118896947D01*
X79756000Y-118896944D01*
X79758457Y-118872000D01*
X79756000Y-118847056D01*
X79756000Y-117567293D01*
X79769519Y-117561693D01*
X79949846Y-117441202D01*
X80103202Y-117287846D01*
X80223693Y-117107519D01*
X80306689Y-116907150D01*
X80349000Y-116694439D01*
X80349000Y-116477561D01*
X80306689Y-116264850D01*
X80232607Y-116086000D01*
X85527157Y-116086000D01*
X85534513Y-116160689D01*
X85556299Y-116232508D01*
X85591678Y-116298696D01*
X85639289Y-116356711D01*
X85697304Y-116404322D01*
X85763492Y-116439701D01*
X85835311Y-116461487D01*
X85910000Y-116468843D01*
X85941750Y-116467000D01*
X86037000Y-116371750D01*
X86037000Y-115959000D01*
X86683000Y-115959000D01*
X86683000Y-116371750D01*
X86778250Y-116467000D01*
X86810000Y-116468843D01*
X86884689Y-116461487D01*
X86956508Y-116439701D01*
X87022696Y-116404322D01*
X87080711Y-116356711D01*
X87128322Y-116298696D01*
X87163701Y-116232508D01*
X87185487Y-116160689D01*
X87192843Y-116086000D01*
X87191000Y-116054250D01*
X87095750Y-115959000D01*
X86683000Y-115959000D01*
X86037000Y-115959000D01*
X85624250Y-115959000D01*
X85529000Y-116054250D01*
X85527157Y-116086000D01*
X80232607Y-116086000D01*
X80223693Y-116064481D01*
X80103202Y-115884154D01*
X79949846Y-115730798D01*
X79769519Y-115610307D01*
X79710838Y-115586000D01*
X85527157Y-115586000D01*
X85529000Y-115617750D01*
X85624250Y-115713000D01*
X86037000Y-115713000D01*
X86037000Y-115300250D01*
X86683000Y-115300250D01*
X86683000Y-115713000D01*
X87095750Y-115713000D01*
X87191000Y-115617750D01*
X87192843Y-115586000D01*
X87185487Y-115511311D01*
X87163701Y-115439492D01*
X87128322Y-115373304D01*
X87080711Y-115315289D01*
X87022696Y-115267678D01*
X86956508Y-115232299D01*
X86884689Y-115210513D01*
X86810000Y-115203157D01*
X86778250Y-115205000D01*
X86683000Y-115300250D01*
X86037000Y-115300250D01*
X85941750Y-115205000D01*
X85910000Y-115203157D01*
X85835311Y-115210513D01*
X85763492Y-115232299D01*
X85697304Y-115267678D01*
X85639289Y-115315289D01*
X85591678Y-115373304D01*
X85556299Y-115439492D01*
X85534513Y-115511311D01*
X85527157Y-115586000D01*
X79710838Y-115586000D01*
X79569150Y-115527311D01*
X79356439Y-115485000D01*
X79139561Y-115485000D01*
X78926850Y-115527311D01*
X78726481Y-115610307D01*
X78546154Y-115730798D01*
X78392798Y-115884154D01*
X78272307Y-116064481D01*
X78189311Y-116264850D01*
X78147000Y-116477561D01*
X78147000Y-116694439D01*
X78189311Y-116907150D01*
X78272307Y-117107519D01*
X78392798Y-117287846D01*
X78546154Y-117441202D01*
X78726481Y-117561693D01*
X78740001Y-117567293D01*
X78740000Y-118661580D01*
X77343000Y-120058580D01*
X77343000Y-120025867D01*
X77409846Y-119981202D01*
X77563202Y-119827846D01*
X77683693Y-119647519D01*
X77766689Y-119447150D01*
X77809000Y-119234439D01*
X77809000Y-119017561D01*
X77766689Y-118804850D01*
X77683693Y-118604481D01*
X77563202Y-118424154D01*
X77409846Y-118270798D01*
X77343000Y-118226133D01*
X77343000Y-112610000D01*
X85127157Y-112610000D01*
X85134513Y-112684689D01*
X85156299Y-112756508D01*
X85191678Y-112822696D01*
X85239289Y-112880711D01*
X85297304Y-112928322D01*
X85363492Y-112963701D01*
X85435311Y-112985487D01*
X85510000Y-112992843D01*
X85883750Y-112991000D01*
X85979000Y-112895750D01*
X85979000Y-112141000D01*
X86741000Y-112141000D01*
X86741000Y-112895750D01*
X86836250Y-112991000D01*
X87210000Y-112992843D01*
X87284689Y-112985487D01*
X87356508Y-112963701D01*
X87422696Y-112928322D01*
X87480711Y-112880711D01*
X87528322Y-112822696D01*
X87563701Y-112756508D01*
X87585487Y-112684689D01*
X87592843Y-112610000D01*
X87591000Y-112236250D01*
X87495750Y-112141000D01*
X86741000Y-112141000D01*
X85979000Y-112141000D01*
X85224250Y-112141000D01*
X85129000Y-112236250D01*
X85127157Y-112610000D01*
X77343000Y-112610000D01*
X77343000Y-111044683D01*
X78390132Y-111044683D01*
X78517922Y-111205461D01*
X78781362Y-111273293D01*
X79052974Y-111288427D01*
X79322320Y-111250282D01*
X79470078Y-111205461D01*
X79597868Y-111044683D01*
X79463185Y-110910000D01*
X85127157Y-110910000D01*
X85129000Y-111283750D01*
X85224250Y-111379000D01*
X85979000Y-111379000D01*
X85979000Y-110624250D01*
X86741000Y-110624250D01*
X86741000Y-111379000D01*
X87495750Y-111379000D01*
X87591000Y-111283750D01*
X87592843Y-110910000D01*
X87585487Y-110835311D01*
X87563701Y-110763492D01*
X87528322Y-110697304D01*
X87480711Y-110639289D01*
X87422696Y-110591678D01*
X87356508Y-110556299D01*
X87284689Y-110534513D01*
X87210000Y-110527157D01*
X86836250Y-110529000D01*
X86741000Y-110624250D01*
X85979000Y-110624250D01*
X85883750Y-110529000D01*
X85510000Y-110527157D01*
X85435311Y-110534513D01*
X85363492Y-110556299D01*
X85297304Y-110591678D01*
X85239289Y-110639289D01*
X85191678Y-110697304D01*
X85156299Y-110763492D01*
X85134513Y-110835311D01*
X85127157Y-110910000D01*
X79463185Y-110910000D01*
X78994000Y-110440815D01*
X78390132Y-111044683D01*
X77343000Y-111044683D01*
X77343000Y-109960974D01*
X77607573Y-109960974D01*
X77645718Y-110230320D01*
X77690539Y-110378078D01*
X77851317Y-110505868D01*
X78455185Y-109902000D01*
X79532815Y-109902000D01*
X80136683Y-110505868D01*
X80297461Y-110378078D01*
X80365293Y-110114638D01*
X80380427Y-109843026D01*
X80371420Y-109779424D01*
X85263458Y-109779424D01*
X85285637Y-109820956D01*
X85423521Y-110019007D01*
X85597394Y-110186352D01*
X85800573Y-110316561D01*
X85979000Y-110295324D01*
X85979000Y-109601000D01*
X86741000Y-109601000D01*
X86741000Y-110295324D01*
X86919427Y-110316561D01*
X87122606Y-110186352D01*
X87296479Y-110019007D01*
X87434363Y-109820956D01*
X87456542Y-109779424D01*
X87429938Y-109601000D01*
X86741000Y-109601000D01*
X85979000Y-109601000D01*
X85290062Y-109601000D01*
X85263458Y-109779424D01*
X80371420Y-109779424D01*
X80342282Y-109573680D01*
X80297461Y-109425922D01*
X80136683Y-109298132D01*
X79532815Y-109902000D01*
X78455185Y-109902000D01*
X77851317Y-109298132D01*
X77690539Y-109425922D01*
X77622707Y-109689362D01*
X77607573Y-109960974D01*
X77343000Y-109960974D01*
X77343000Y-108759317D01*
X78390132Y-108759317D01*
X78994000Y-109363185D01*
X79597868Y-108759317D01*
X79470078Y-108598539D01*
X79206638Y-108530707D01*
X78935026Y-108515573D01*
X78665680Y-108553718D01*
X78517922Y-108598539D01*
X78390132Y-108759317D01*
X77343000Y-108759317D01*
X77343000Y-108331000D01*
X85517025Y-108331000D01*
X85423521Y-108420993D01*
G36*
X63646000Y-128978000D02*
G01*
X62884000Y-128978000D01*
X62884000Y-128216000D01*
X63646000Y-128216000D01*
X63646000Y-128978000D01*
G37*
X63646000Y-128978000D02*
X62884000Y-128978000D01*
X62884000Y-128216000D01*
X63646000Y-128216000D01*
X63646000Y-128978000D01*
G36*
X69196000Y-128978000D02*
G01*
X68434000Y-128978000D01*
X68434000Y-128216000D01*
X69196000Y-128216000D01*
X69196000Y-128978000D01*
G37*
X69196000Y-128978000D02*
X68434000Y-128978000D01*
X68434000Y-128216000D01*
X69196000Y-128216000D01*
X69196000Y-128978000D01*
G36*
X66421000Y-126553000D02*
G01*
X65659000Y-126553000D01*
X65659000Y-125791000D01*
X66421000Y-125791000D01*
X66421000Y-126553000D01*
G37*
X66421000Y-126553000D02*
X65659000Y-126553000D01*
X65659000Y-125791000D01*
X66421000Y-125791000D01*
X66421000Y-126553000D01*
G36*
X88494000Y-107569000D02*
G01*
X87202975Y-107569000D01*
X87296479Y-107479007D01*
X87434363Y-107280956D01*
X87456542Y-107239424D01*
X87429938Y-107061000D01*
X86741000Y-107061000D01*
X86741000Y-107081000D01*
X85979000Y-107081000D01*
X85979000Y-107061000D01*
X85290062Y-107061000D01*
X85263458Y-107239424D01*
X85285637Y-107280956D01*
X85423521Y-107479007D01*
X85517025Y-107569000D01*
X77014606Y-107569000D01*
X75347606Y-105902000D01*
X77611157Y-105902000D01*
X77618513Y-105976689D01*
X77640299Y-106048508D01*
X77675678Y-106114696D01*
X77723289Y-106172711D01*
X77781304Y-106220322D01*
X77847492Y-106255701D01*
X77919311Y-106277487D01*
X77994000Y-106284843D01*
X78517750Y-106283000D01*
X78613000Y-106187750D01*
X78613000Y-105283000D01*
X79375000Y-105283000D01*
X79375000Y-106187750D01*
X79470250Y-106283000D01*
X79994000Y-106284843D01*
X80068689Y-106277487D01*
X80140508Y-106255701D01*
X80206696Y-106220322D01*
X80264711Y-106172711D01*
X80307496Y-106120576D01*
X85263458Y-106120576D01*
X85290062Y-106299000D01*
X85979000Y-106299000D01*
X85979000Y-105604676D01*
X86741000Y-105604676D01*
X86741000Y-106299000D01*
X87429938Y-106299000D01*
X87456542Y-106120576D01*
X87434363Y-106079044D01*
X87296479Y-105880993D01*
X87122606Y-105713648D01*
X86919427Y-105583439D01*
X86741000Y-105604676D01*
X85979000Y-105604676D01*
X85800573Y-105583439D01*
X85597394Y-105713648D01*
X85423521Y-105880993D01*
X85285637Y-106079044D01*
X85263458Y-106120576D01*
X80307496Y-106120576D01*
X80312322Y-106114696D01*
X80347701Y-106048508D01*
X80369487Y-105976689D01*
X80376843Y-105902000D01*
X80375000Y-105378250D01*
X80279750Y-105283000D01*
X79375000Y-105283000D01*
X78613000Y-105283000D01*
X77708250Y-105283000D01*
X77613000Y-105378250D01*
X77611157Y-105902000D01*
X75347606Y-105902000D01*
X75019803Y-105574197D01*
X75000557Y-105558403D01*
X74978601Y-105546667D01*
X74954776Y-105539440D01*
X74930000Y-105537000D01*
X70664606Y-105537000D01*
X69827030Y-104699424D01*
X85263458Y-104699424D01*
X85285637Y-104740956D01*
X85423521Y-104939007D01*
X85597394Y-105106352D01*
X85800573Y-105236561D01*
X85979000Y-105215324D01*
X85979000Y-104521000D01*
X86741000Y-104521000D01*
X86741000Y-105215324D01*
X86919427Y-105236561D01*
X87122606Y-105106352D01*
X87296479Y-104939007D01*
X87434363Y-104740956D01*
X87456542Y-104699424D01*
X87429938Y-104521000D01*
X86741000Y-104521000D01*
X85979000Y-104521000D01*
X85290062Y-104521000D01*
X85263458Y-104699424D01*
X69827030Y-104699424D01*
X68707000Y-103579394D01*
X68707000Y-103572000D01*
X69391157Y-103572000D01*
X69398513Y-103646689D01*
X69420299Y-103718508D01*
X69455678Y-103784696D01*
X69503289Y-103842711D01*
X69561304Y-103890322D01*
X69627492Y-103925701D01*
X69699311Y-103947487D01*
X69774000Y-103954843D01*
X70897750Y-103953000D01*
X70993000Y-103857750D01*
X70993000Y-103445000D01*
X71755000Y-103445000D01*
X71755000Y-103857750D01*
X71850250Y-103953000D01*
X72974000Y-103954843D01*
X73048689Y-103947487D01*
X73120508Y-103925701D01*
X73164848Y-103902000D01*
X77611157Y-103902000D01*
X77613000Y-104425750D01*
X77708250Y-104521000D01*
X78613000Y-104521000D01*
X78613000Y-103616250D01*
X79375000Y-103616250D01*
X79375000Y-104521000D01*
X80279750Y-104521000D01*
X80375000Y-104425750D01*
X80376843Y-103902000D01*
X80369487Y-103827311D01*
X80347701Y-103755492D01*
X80312322Y-103689304D01*
X80264711Y-103631289D01*
X80206696Y-103583678D01*
X80200893Y-103580576D01*
X85263458Y-103580576D01*
X85290062Y-103759000D01*
X85979000Y-103759000D01*
X85979000Y-103064676D01*
X86741000Y-103064676D01*
X86741000Y-103759000D01*
X87429938Y-103759000D01*
X87456542Y-103580576D01*
X87434363Y-103539044D01*
X87296479Y-103340993D01*
X87122606Y-103173648D01*
X86919427Y-103043439D01*
X86741000Y-103064676D01*
X85979000Y-103064676D01*
X85800573Y-103043439D01*
X85597394Y-103173648D01*
X85423521Y-103340993D01*
X85285637Y-103539044D01*
X85263458Y-103580576D01*
X80200893Y-103580576D01*
X80140508Y-103548299D01*
X80068689Y-103526513D01*
X79994000Y-103519157D01*
X79470250Y-103521000D01*
X79375000Y-103616250D01*
X78613000Y-103616250D01*
X78517750Y-103521000D01*
X77994000Y-103519157D01*
X77919311Y-103526513D01*
X77847492Y-103548299D01*
X77781304Y-103583678D01*
X77723289Y-103631289D01*
X77675678Y-103689304D01*
X77640299Y-103755492D01*
X77618513Y-103827311D01*
X77611157Y-103902000D01*
X73164848Y-103902000D01*
X73186696Y-103890322D01*
X73244711Y-103842711D01*
X73292322Y-103784696D01*
X73327701Y-103718508D01*
X73349487Y-103646689D01*
X73356843Y-103572000D01*
X73355000Y-103540250D01*
X73259750Y-103445000D01*
X71755000Y-103445000D01*
X70993000Y-103445000D01*
X69488250Y-103445000D01*
X69393000Y-103540250D01*
X69391157Y-103572000D01*
X68707000Y-103572000D01*
X68707000Y-102572000D01*
X69391157Y-102572000D01*
X69393000Y-102603750D01*
X69488250Y-102699000D01*
X70993000Y-102699000D01*
X70993000Y-102286250D01*
X71755000Y-102286250D01*
X71755000Y-102699000D01*
X73259750Y-102699000D01*
X73355000Y-102603750D01*
X73356843Y-102572000D01*
X73349487Y-102497311D01*
X73327701Y-102425492D01*
X73292322Y-102359304D01*
X73244711Y-102301289D01*
X73186696Y-102253678D01*
X73120508Y-102218299D01*
X73048689Y-102196513D01*
X72974000Y-102189157D01*
X71850250Y-102191000D01*
X71755000Y-102286250D01*
X70993000Y-102286250D01*
X70897750Y-102191000D01*
X69774000Y-102189157D01*
X69699311Y-102196513D01*
X69627492Y-102218299D01*
X69561304Y-102253678D01*
X69503289Y-102301289D01*
X69455678Y-102359304D01*
X69420299Y-102425492D01*
X69398513Y-102497311D01*
X69391157Y-102572000D01*
X68707000Y-102572000D01*
X68707000Y-102006000D01*
X88494000Y-102006000D01*
X88494000Y-107569000D01*
G37*
X88494000Y-107569000D02*
X87202975Y-107569000D01*
X87296479Y-107479007D01*
X87434363Y-107280956D01*
X87456542Y-107239424D01*
X87429938Y-107061000D01*
X86741000Y-107061000D01*
X86741000Y-107081000D01*
X85979000Y-107081000D01*
X85979000Y-107061000D01*
X85290062Y-107061000D01*
X85263458Y-107239424D01*
X85285637Y-107280956D01*
X85423521Y-107479007D01*
X85517025Y-107569000D01*
X77014606Y-107569000D01*
X75347606Y-105902000D01*
X77611157Y-105902000D01*
X77618513Y-105976689D01*
X77640299Y-106048508D01*
X77675678Y-106114696D01*
X77723289Y-106172711D01*
X77781304Y-106220322D01*
X77847492Y-106255701D01*
X77919311Y-106277487D01*
X77994000Y-106284843D01*
X78517750Y-106283000D01*
X78613000Y-106187750D01*
X78613000Y-105283000D01*
X79375000Y-105283000D01*
X79375000Y-106187750D01*
X79470250Y-106283000D01*
X79994000Y-106284843D01*
X80068689Y-106277487D01*
X80140508Y-106255701D01*
X80206696Y-106220322D01*
X80264711Y-106172711D01*
X80307496Y-106120576D01*
X85263458Y-106120576D01*
X85290062Y-106299000D01*
X85979000Y-106299000D01*
X85979000Y-105604676D01*
X86741000Y-105604676D01*
X86741000Y-106299000D01*
X87429938Y-106299000D01*
X87456542Y-106120576D01*
X87434363Y-106079044D01*
X87296479Y-105880993D01*
X87122606Y-105713648D01*
X86919427Y-105583439D01*
X86741000Y-105604676D01*
X85979000Y-105604676D01*
X85800573Y-105583439D01*
X85597394Y-105713648D01*
X85423521Y-105880993D01*
X85285637Y-106079044D01*
X85263458Y-106120576D01*
X80307496Y-106120576D01*
X80312322Y-106114696D01*
X80347701Y-106048508D01*
X80369487Y-105976689D01*
X80376843Y-105902000D01*
X80375000Y-105378250D01*
X80279750Y-105283000D01*
X79375000Y-105283000D01*
X78613000Y-105283000D01*
X77708250Y-105283000D01*
X77613000Y-105378250D01*
X77611157Y-105902000D01*
X75347606Y-105902000D01*
X75019803Y-105574197D01*
X75000557Y-105558403D01*
X74978601Y-105546667D01*
X74954776Y-105539440D01*
X74930000Y-105537000D01*
X70664606Y-105537000D01*
X69827030Y-104699424D01*
X85263458Y-104699424D01*
X85285637Y-104740956D01*
X85423521Y-104939007D01*
X85597394Y-105106352D01*
X85800573Y-105236561D01*
X85979000Y-105215324D01*
X85979000Y-104521000D01*
X86741000Y-104521000D01*
X86741000Y-105215324D01*
X86919427Y-105236561D01*
X87122606Y-105106352D01*
X87296479Y-104939007D01*
X87434363Y-104740956D01*
X87456542Y-104699424D01*
X87429938Y-104521000D01*
X86741000Y-104521000D01*
X85979000Y-104521000D01*
X85290062Y-104521000D01*
X85263458Y-104699424D01*
X69827030Y-104699424D01*
X68707000Y-103579394D01*
X68707000Y-103572000D01*
X69391157Y-103572000D01*
X69398513Y-103646689D01*
X69420299Y-103718508D01*
X69455678Y-103784696D01*
X69503289Y-103842711D01*
X69561304Y-103890322D01*
X69627492Y-103925701D01*
X69699311Y-103947487D01*
X69774000Y-103954843D01*
X70897750Y-103953000D01*
X70993000Y-103857750D01*
X70993000Y-103445000D01*
X71755000Y-103445000D01*
X71755000Y-103857750D01*
X71850250Y-103953000D01*
X72974000Y-103954843D01*
X73048689Y-103947487D01*
X73120508Y-103925701D01*
X73164848Y-103902000D01*
X77611157Y-103902000D01*
X77613000Y-104425750D01*
X77708250Y-104521000D01*
X78613000Y-104521000D01*
X78613000Y-103616250D01*
X79375000Y-103616250D01*
X79375000Y-104521000D01*
X80279750Y-104521000D01*
X80375000Y-104425750D01*
X80376843Y-103902000D01*
X80369487Y-103827311D01*
X80347701Y-103755492D01*
X80312322Y-103689304D01*
X80264711Y-103631289D01*
X80206696Y-103583678D01*
X80200893Y-103580576D01*
X85263458Y-103580576D01*
X85290062Y-103759000D01*
X85979000Y-103759000D01*
X85979000Y-103064676D01*
X86741000Y-103064676D01*
X86741000Y-103759000D01*
X87429938Y-103759000D01*
X87456542Y-103580576D01*
X87434363Y-103539044D01*
X87296479Y-103340993D01*
X87122606Y-103173648D01*
X86919427Y-103043439D01*
X86741000Y-103064676D01*
X85979000Y-103064676D01*
X85800573Y-103043439D01*
X85597394Y-103173648D01*
X85423521Y-103340993D01*
X85285637Y-103539044D01*
X85263458Y-103580576D01*
X80200893Y-103580576D01*
X80140508Y-103548299D01*
X80068689Y-103526513D01*
X79994000Y-103519157D01*
X79470250Y-103521000D01*
X79375000Y-103616250D01*
X78613000Y-103616250D01*
X78517750Y-103521000D01*
X77994000Y-103519157D01*
X77919311Y-103526513D01*
X77847492Y-103548299D01*
X77781304Y-103583678D01*
X77723289Y-103631289D01*
X77675678Y-103689304D01*
X77640299Y-103755492D01*
X77618513Y-103827311D01*
X77611157Y-103902000D01*
X73164848Y-103902000D01*
X73186696Y-103890322D01*
X73244711Y-103842711D01*
X73292322Y-103784696D01*
X73327701Y-103718508D01*
X73349487Y-103646689D01*
X73356843Y-103572000D01*
X73355000Y-103540250D01*
X73259750Y-103445000D01*
X71755000Y-103445000D01*
X70993000Y-103445000D01*
X69488250Y-103445000D01*
X69393000Y-103540250D01*
X69391157Y-103572000D01*
X68707000Y-103572000D01*
X68707000Y-102572000D01*
X69391157Y-102572000D01*
X69393000Y-102603750D01*
X69488250Y-102699000D01*
X70993000Y-102699000D01*
X70993000Y-102286250D01*
X71755000Y-102286250D01*
X71755000Y-102699000D01*
X73259750Y-102699000D01*
X73355000Y-102603750D01*
X73356843Y-102572000D01*
X73349487Y-102497311D01*
X73327701Y-102425492D01*
X73292322Y-102359304D01*
X73244711Y-102301289D01*
X73186696Y-102253678D01*
X73120508Y-102218299D01*
X73048689Y-102196513D01*
X72974000Y-102189157D01*
X71850250Y-102191000D01*
X71755000Y-102286250D01*
X70993000Y-102286250D01*
X70897750Y-102191000D01*
X69774000Y-102189157D01*
X69699311Y-102196513D01*
X69627492Y-102218299D01*
X69561304Y-102253678D01*
X69503289Y-102301289D01*
X69455678Y-102359304D01*
X69420299Y-102425492D01*
X69398513Y-102497311D01*
X69391157Y-102572000D01*
X68707000Y-102572000D01*
X68707000Y-102006000D01*
X88494000Y-102006000D01*
X88494000Y-107569000D01*
G36*
X59005289Y-102041289D02*
G01*
X58957678Y-102099304D01*
X58922299Y-102165492D01*
X58900513Y-102237311D01*
X58893157Y-102312000D01*
X58895000Y-103285750D01*
X58990250Y-103381000D01*
X61595000Y-103381000D01*
X61595000Y-103361000D01*
X62357000Y-103361000D01*
X62357000Y-103381000D01*
X64961750Y-103381000D01*
X65057000Y-103285750D01*
X65058843Y-102312000D01*
X65051487Y-102237311D01*
X65029701Y-102165492D01*
X64994322Y-102099304D01*
X64946711Y-102041289D01*
X64903711Y-102006000D01*
X67437000Y-102006000D01*
X67437000Y-104394000D01*
X67439440Y-104418776D01*
X67446667Y-104442601D01*
X67458403Y-104464557D01*
X67474197Y-104483803D01*
X69760197Y-106769803D01*
X69779443Y-106785597D01*
X69801399Y-106797333D01*
X69825224Y-106804560D01*
X69850000Y-106807000D01*
X73787000Y-106807000D01*
X73787000Y-111379000D01*
X70156606Y-111379000D01*
X68549606Y-109772000D01*
X69391157Y-109772000D01*
X69398513Y-109846689D01*
X69420299Y-109918508D01*
X69455678Y-109984696D01*
X69503289Y-110042711D01*
X69561304Y-110090322D01*
X69627492Y-110125701D01*
X69699311Y-110147487D01*
X69774000Y-110154843D01*
X70897750Y-110153000D01*
X70993000Y-110057750D01*
X70993000Y-109645000D01*
X71755000Y-109645000D01*
X71755000Y-110057750D01*
X71850250Y-110153000D01*
X72974000Y-110154843D01*
X73048689Y-110147487D01*
X73120508Y-110125701D01*
X73186696Y-110090322D01*
X73244711Y-110042711D01*
X73292322Y-109984696D01*
X73327701Y-109918508D01*
X73349487Y-109846689D01*
X73356843Y-109772000D01*
X73355000Y-109740250D01*
X73259750Y-109645000D01*
X71755000Y-109645000D01*
X70993000Y-109645000D01*
X69488250Y-109645000D01*
X69393000Y-109740250D01*
X69391157Y-109772000D01*
X68549606Y-109772000D01*
X67653803Y-108876197D01*
X67634557Y-108860403D01*
X67612601Y-108848667D01*
X67588776Y-108841440D01*
X67564000Y-108839000D01*
X55499000Y-108839000D01*
X55499000Y-108772000D01*
X69391157Y-108772000D01*
X69393000Y-108803750D01*
X69488250Y-108899000D01*
X70993000Y-108899000D01*
X70993000Y-108486250D01*
X71755000Y-108486250D01*
X71755000Y-108899000D01*
X73259750Y-108899000D01*
X73355000Y-108803750D01*
X73356843Y-108772000D01*
X73349487Y-108697311D01*
X73327701Y-108625492D01*
X73292322Y-108559304D01*
X73244711Y-108501289D01*
X73186696Y-108453678D01*
X73120508Y-108418299D01*
X73048689Y-108396513D01*
X72974000Y-108389157D01*
X71850250Y-108391000D01*
X71755000Y-108486250D01*
X70993000Y-108486250D01*
X70897750Y-108391000D01*
X69774000Y-108389157D01*
X69699311Y-108396513D01*
X69627492Y-108418299D01*
X69561304Y-108453678D01*
X69503289Y-108501289D01*
X69455678Y-108559304D01*
X69420299Y-108625492D01*
X69398513Y-108697311D01*
X69391157Y-108772000D01*
X55499000Y-108772000D01*
X55499000Y-105212000D01*
X58893157Y-105212000D01*
X58900513Y-105286689D01*
X58922299Y-105358508D01*
X58957678Y-105424696D01*
X59005289Y-105482711D01*
X59063304Y-105530322D01*
X59129492Y-105565701D01*
X59201311Y-105587487D01*
X59276000Y-105594843D01*
X61499750Y-105593000D01*
X61595000Y-105497750D01*
X61595000Y-104143000D01*
X62357000Y-104143000D01*
X62357000Y-105497750D01*
X62452250Y-105593000D01*
X64676000Y-105594843D01*
X64750689Y-105587487D01*
X64822508Y-105565701D01*
X64888696Y-105530322D01*
X64946711Y-105482711D01*
X64994322Y-105424696D01*
X65029701Y-105358508D01*
X65051487Y-105286689D01*
X65058843Y-105212000D01*
X65057000Y-104238250D01*
X64961750Y-104143000D01*
X62357000Y-104143000D01*
X61595000Y-104143000D01*
X58990250Y-104143000D01*
X58895000Y-104238250D01*
X58893157Y-105212000D01*
X55499000Y-105212000D01*
X55499000Y-102006000D01*
X59048289Y-102006000D01*
X59005289Y-102041289D01*
G37*
X59005289Y-102041289D02*
X58957678Y-102099304D01*
X58922299Y-102165492D01*
X58900513Y-102237311D01*
X58893157Y-102312000D01*
X58895000Y-103285750D01*
X58990250Y-103381000D01*
X61595000Y-103381000D01*
X61595000Y-103361000D01*
X62357000Y-103361000D01*
X62357000Y-103381000D01*
X64961750Y-103381000D01*
X65057000Y-103285750D01*
X65058843Y-102312000D01*
X65051487Y-102237311D01*
X65029701Y-102165492D01*
X64994322Y-102099304D01*
X64946711Y-102041289D01*
X64903711Y-102006000D01*
X67437000Y-102006000D01*
X67437000Y-104394000D01*
X67439440Y-104418776D01*
X67446667Y-104442601D01*
X67458403Y-104464557D01*
X67474197Y-104483803D01*
X69760197Y-106769803D01*
X69779443Y-106785597D01*
X69801399Y-106797333D01*
X69825224Y-106804560D01*
X69850000Y-106807000D01*
X73787000Y-106807000D01*
X73787000Y-111379000D01*
X70156606Y-111379000D01*
X68549606Y-109772000D01*
X69391157Y-109772000D01*
X69398513Y-109846689D01*
X69420299Y-109918508D01*
X69455678Y-109984696D01*
X69503289Y-110042711D01*
X69561304Y-110090322D01*
X69627492Y-110125701D01*
X69699311Y-110147487D01*
X69774000Y-110154843D01*
X70897750Y-110153000D01*
X70993000Y-110057750D01*
X70993000Y-109645000D01*
X71755000Y-109645000D01*
X71755000Y-110057750D01*
X71850250Y-110153000D01*
X72974000Y-110154843D01*
X73048689Y-110147487D01*
X73120508Y-110125701D01*
X73186696Y-110090322D01*
X73244711Y-110042711D01*
X73292322Y-109984696D01*
X73327701Y-109918508D01*
X73349487Y-109846689D01*
X73356843Y-109772000D01*
X73355000Y-109740250D01*
X73259750Y-109645000D01*
X71755000Y-109645000D01*
X70993000Y-109645000D01*
X69488250Y-109645000D01*
X69393000Y-109740250D01*
X69391157Y-109772000D01*
X68549606Y-109772000D01*
X67653803Y-108876197D01*
X67634557Y-108860403D01*
X67612601Y-108848667D01*
X67588776Y-108841440D01*
X67564000Y-108839000D01*
X55499000Y-108839000D01*
X55499000Y-108772000D01*
X69391157Y-108772000D01*
X69393000Y-108803750D01*
X69488250Y-108899000D01*
X70993000Y-108899000D01*
X70993000Y-108486250D01*
X71755000Y-108486250D01*
X71755000Y-108899000D01*
X73259750Y-108899000D01*
X73355000Y-108803750D01*
X73356843Y-108772000D01*
X73349487Y-108697311D01*
X73327701Y-108625492D01*
X73292322Y-108559304D01*
X73244711Y-108501289D01*
X73186696Y-108453678D01*
X73120508Y-108418299D01*
X73048689Y-108396513D01*
X72974000Y-108389157D01*
X71850250Y-108391000D01*
X71755000Y-108486250D01*
X70993000Y-108486250D01*
X70897750Y-108391000D01*
X69774000Y-108389157D01*
X69699311Y-108396513D01*
X69627492Y-108418299D01*
X69561304Y-108453678D01*
X69503289Y-108501289D01*
X69455678Y-108559304D01*
X69420299Y-108625492D01*
X69398513Y-108697311D01*
X69391157Y-108772000D01*
X55499000Y-108772000D01*
X55499000Y-105212000D01*
X58893157Y-105212000D01*
X58900513Y-105286689D01*
X58922299Y-105358508D01*
X58957678Y-105424696D01*
X59005289Y-105482711D01*
X59063304Y-105530322D01*
X59129492Y-105565701D01*
X59201311Y-105587487D01*
X59276000Y-105594843D01*
X61499750Y-105593000D01*
X61595000Y-105497750D01*
X61595000Y-104143000D01*
X62357000Y-104143000D01*
X62357000Y-105497750D01*
X62452250Y-105593000D01*
X64676000Y-105594843D01*
X64750689Y-105587487D01*
X64822508Y-105565701D01*
X64888696Y-105530322D01*
X64946711Y-105482711D01*
X64994322Y-105424696D01*
X65029701Y-105358508D01*
X65051487Y-105286689D01*
X65058843Y-105212000D01*
X65057000Y-104238250D01*
X64961750Y-104143000D01*
X62357000Y-104143000D01*
X61595000Y-104143000D01*
X58990250Y-104143000D01*
X58895000Y-104238250D01*
X58893157Y-105212000D01*
X55499000Y-105212000D01*
X55499000Y-102006000D01*
X59048289Y-102006000D01*
X59005289Y-102041289D01*
G36*
X74549000Y-122301000D02*
G01*
X68707000Y-122301000D01*
X68707000Y-122081195D01*
X68743492Y-122100701D01*
X68815311Y-122122487D01*
X68890000Y-122129843D01*
X68921750Y-122128000D01*
X69017000Y-122032750D01*
X69017000Y-120082000D01*
X69863000Y-120082000D01*
X69863000Y-122032750D01*
X69958250Y-122128000D01*
X69990000Y-122129843D01*
X70064689Y-122122487D01*
X70136508Y-122100701D01*
X70202696Y-122065322D01*
X70260711Y-122017711D01*
X70308322Y-121959696D01*
X70343701Y-121893508D01*
X70365487Y-121821689D01*
X70372843Y-121747000D01*
X70371000Y-120177250D01*
X70275750Y-120082000D01*
X69863000Y-120082000D01*
X69017000Y-120082000D01*
X68890000Y-120082000D01*
X68890000Y-118812000D01*
X69017000Y-118812000D01*
X69017000Y-116861250D01*
X69863000Y-116861250D01*
X69863000Y-118812000D01*
X70275750Y-118812000D01*
X70371000Y-118716750D01*
X70372843Y-117147000D01*
X70365487Y-117072311D01*
X70343701Y-117000492D01*
X70308322Y-116934304D01*
X70260711Y-116876289D01*
X70202696Y-116828678D01*
X70136508Y-116793299D01*
X70064689Y-116771513D01*
X69990000Y-116764157D01*
X69958250Y-116766000D01*
X69863000Y-116861250D01*
X69017000Y-116861250D01*
X68921750Y-116766000D01*
X68890000Y-116764157D01*
X68815311Y-116771513D01*
X68756000Y-116789505D01*
X68756000Y-115505901D01*
X68760915Y-115455999D01*
X68759635Y-115443000D01*
X74549000Y-115443000D01*
X74549000Y-122301000D01*
G37*
X74549000Y-122301000D02*
X68707000Y-122301000D01*
X68707000Y-122081195D01*
X68743492Y-122100701D01*
X68815311Y-122122487D01*
X68890000Y-122129843D01*
X68921750Y-122128000D01*
X69017000Y-122032750D01*
X69017000Y-120082000D01*
X69863000Y-120082000D01*
X69863000Y-122032750D01*
X69958250Y-122128000D01*
X69990000Y-122129843D01*
X70064689Y-122122487D01*
X70136508Y-122100701D01*
X70202696Y-122065322D01*
X70260711Y-122017711D01*
X70308322Y-121959696D01*
X70343701Y-121893508D01*
X70365487Y-121821689D01*
X70372843Y-121747000D01*
X70371000Y-120177250D01*
X70275750Y-120082000D01*
X69863000Y-120082000D01*
X69017000Y-120082000D01*
X68890000Y-120082000D01*
X68890000Y-118812000D01*
X69017000Y-118812000D01*
X69017000Y-116861250D01*
X69863000Y-116861250D01*
X69863000Y-118812000D01*
X70275750Y-118812000D01*
X70371000Y-118716750D01*
X70372843Y-117147000D01*
X70365487Y-117072311D01*
X70343701Y-117000492D01*
X70308322Y-116934304D01*
X70260711Y-116876289D01*
X70202696Y-116828678D01*
X70136508Y-116793299D01*
X70064689Y-116771513D01*
X69990000Y-116764157D01*
X69958250Y-116766000D01*
X69863000Y-116861250D01*
X69017000Y-116861250D01*
X68921750Y-116766000D01*
X68890000Y-116764157D01*
X68815311Y-116771513D01*
X68756000Y-116789505D01*
X68756000Y-115505901D01*
X68760915Y-115455999D01*
X68759635Y-115443000D01*
X74549000Y-115443000D01*
X74549000Y-122301000D01*
M02*
